# MagicaVoxel @ Ephtracy

# group
o 

# material
mtllib Package 01 Necro Dungeon-0.mtl
usemtl palette

# normals
vn 1 0 0
vn -1 0 0
vn 0 0 -1
vn 0 0 1
vn 0 -1 0
vn 0 1 0

# texcoords
vt 0.146484 0.5
vt 0.208984 0.5
vt 0.626953 0.5

# verts
v -1.5 0.8 -5.3
v -1.5 0.8 -5.2
v -1.5 0.8 -4.2
v -1.5 0.8 -4.1
v -1.5 1 -5.3
v -1.5 1 -5.2
v -1.5 1 -4.2
v -1.5 1 -4.1
v -1.6 0 -5.5
v -1.6 0 -5.4
v -1.6 0 -4
v -1.6 0 -3.9
v -1.6 0.1 -5.6
v -1.6 0.1 -5.5
v -1.6 0.1 -5.4
v -1.6 0.1 -4
v -1.6 0.1 -3.9
v -1.6 0.1 -3.8
v -1.6 0.4 -4.8
v -1.6 0.4 -4.5
v -1.6 0.6 -4.8
v -1.6 0.6 -4.5
v -1.6 0.8 -5.3
v -1.6 0.8 -5.2
v -1.6 0.8 -4.2
v -1.6 0.8 -4.1
v -1.6 0.9 -5.6
v -1.6 0.9 -5.3
v -1.6 0.9 -5.2
v -1.6 0.9 -4.2
v -1.6 0.9 -4.1
v -1.6 0.9 -3.8
v -2.1 0.4 -5.7
v -2.1 0.4 -5.6
v -2.1 0.4 -3.8
v -2.1 0.4 -3.7
v -2.1 0.6 -5.7
v -2.1 0.6 -5.6
v -2.1 0.6 -3.8
v -2.1 0.6 -3.7
v -2.3 0.5 -5.7
v -2.3 0.5 -5.6
v -2.3 0.5 -3.8
v -2.3 0.5 -3.7
v -2.3 0.6 -5.7
v -2.3 0.6 -5.6
v -2.3 0.6 -3.8
v -2.3 0.6 -3.7
v -2.6 0 -5.5
v -2.6 0 -5.4
v -2.6 0 -4
v -2.6 0 -3.9
v -2.6 0.1 -5.5
v -2.6 0.1 -5.4
v -2.6 0.1 -4
v -2.6 0.1 -3.9
v -2.7 0.2 -5.5
v -2.7 0.2 -3.9
v -2.7 0.8 -5.5
v -2.7 0.8 -5.3
v -2.7 0.8 -5.2
v -2.7 0.8 -4.2
v -2.7 0.8 -4.1
v -2.7 0.8 -3.9
v -1.7 0.2 -5.5
v -1.7 0.2 -3.9
v -1.7 0.4 -4.8
v -1.7 0.4 -4.5
v -1.7 0.6 -4.8
v -1.7 0.6 -4.5
v -1.7 0.7 -5.5
v -1.7 0.7 -3.9
v -1.8 0 -5.5
v -1.8 0 -5.4
v -1.8 0 -4
v -1.8 0 -3.9
v -1.8 0.1 -5.5
v -1.8 0.1 -5.4
v -1.8 0.1 -4
v -1.8 0.1 -3.9
v -2.1 0.7 -5.5
v -2.1 0.7 -3.9
v -2.1 0.8 -5.5
v -2.1 0.8 -5.3
v -2.1 0.8 -5.2
v -2.1 0.8 -4.2
v -2.1 0.8 -4.1
v -2.1 0.8 -3.9
v -2.2 0.5 -5.7
v -2.2 0.5 -5.6
v -2.2 0.5 -3.8
v -2.2 0.5 -3.7
v -2.2 0.6 -5.7
v -2.2 0.6 -5.6
v -2.2 0.6 -3.8
v -2.2 0.6 -3.7
v -2.4 0.4 -5.7
v -2.4 0.4 -5.6
v -2.4 0.4 -3.8
v -2.4 0.4 -3.7
v -2.4 0.6 -5.7
v -2.4 0.6 -5.6
v -2.4 0.6 -3.8
v -2.4 0.6 -3.7
v -2.8 0 -5.5
v -2.8 0 -5.4
v -2.8 0 -4
v -2.8 0 -3.9
v -2.8 0.1 -5.6
v -2.8 0.1 -5.5
v -2.8 0.1 -5.4
v -2.8 0.1 -4
v -2.8 0.1 -3.9
v -2.8 0.1 -3.8
v -2.8 0.6 -5.5
v -2.8 0.6 -5.3
v -2.8 0.6 -4.1
v -2.8 0.6 -3.9
v -2.8 0.7 -5.5
v -2.8 0.7 -5.3
v -2.8 0.7 -5.2
v -2.8 0.7 -4.2
v -2.8 0.7 -4.1
v -2.8 0.7 -3.9
v -2.8 0.9 -5.6
v -2.8 0.9 -5.3
v -2.8 0.9 -5.2
v -2.8 0.9 -4.2
v -2.8 0.9 -4.1
v -2.8 0.9 -3.8
v -2.9 0.6 -5.5
v -2.9 0.6 -5.3
v -2.9 0.6 -4.1
v -2.9 0.6 -3.9
v -2.9 0.7 -5.5
v -2.9 0.7 -5.3
v -2.9 0.7 -5.2
v -2.9 0.7 -4.2
v -2.9 0.7 -4.1
v -2.9 0.7 -3.9
v -2.9 1 -5.3
v -2.9 1 -5.2
v -2.9 1 -4.2
v -2.9 1 -4.1
v -2.1 0.4 -5.7
v -2.1 0.6 -5.7
v -2.2 0.5 -5.7
v -2.2 0.6 -5.7
v -2.3 0.5 -5.7
v -2.3 0.6 -5.7
v -2.4 0.4 -5.7
v -2.4 0.6 -5.7
v -1.6 0.1 -5.6
v -1.6 0.9 -5.6
v -2.1 0.4 -5.6
v -2.1 0.6 -5.6
v -2.2 0.5 -5.6
v -2.2 0.6 -5.6
v -2.3 0.5 -5.6
v -2.3 0.6 -5.6
v -2.4 0.4 -5.6
v -2.4 0.6 -5.6
v -2.8 0.1 -5.6
v -2.8 0.9 -5.6
v -1.6 0 -5.5
v -1.6 0.1 -5.5
v -1.8 0 -5.5
v -1.8 0.1 -5.5
v -2.6 0 -5.5
v -2.6 0.1 -5.5
v -2.8 0 -5.5
v -2.8 0.1 -5.5
v -2.8 0.6 -5.5
v -2.8 0.7 -5.5
v -2.9 0.6 -5.5
v -2.9 0.7 -5.5
v -1.5 0.8 -5.3
v -1.5 1 -5.3
v -1.6 0.8 -5.3
v -1.6 0.9 -5.3
v -2.8 0.7 -5.3
v -2.8 0.9 -5.3
v -2.9 0.7 -5.3
v -2.9 1 -5.3
v -1.5 0.8 -4.2
v -1.5 1 -4.2
v -1.6 0.8 -4.2
v -1.6 0.9 -4.2
v -2.8 0.7 -4.2
v -2.8 0.9 -4.2
v -2.9 0.7 -4.2
v -2.9 1 -4.2
v -2.8 0.6 -4.1
v -2.8 0.7 -4.1
v -2.9 0.6 -4.1
v -2.9 0.7 -4.1
v -1.6 0 -4
v -1.6 0.1 -4
v -1.8 0 -4
v -1.8 0.1 -4
v -2.6 0 -4
v -2.6 0.1 -4
v -2.8 0 -4
v -2.8 0.1 -4
v -1.7 0.2 -3.9
v -1.7 0.7 -3.9
v -2.1 0.7 -3.9
v -2.1 0.8 -3.9
v -2.7 0.2 -3.9
v -2.7 0.8 -3.9
v -1.7 0.2 -5.5
v -1.7 0.7 -5.5
v -2.1 0.7 -5.5
v -2.1 0.8 -5.5
v -2.7 0.2 -5.5
v -2.7 0.8 -5.5
v -1.6 0 -5.4
v -1.6 0.1 -5.4
v -1.8 0 -5.4
v -1.8 0.1 -5.4
v -2.6 0 -5.4
v -2.6 0.1 -5.4
v -2.8 0 -5.4
v -2.8 0.1 -5.4
v -2.8 0.6 -5.3
v -2.8 0.7 -5.3
v -2.9 0.6 -5.3
v -2.9 0.7 -5.3
v -1.5 0.8 -5.2
v -1.5 1 -5.2
v -1.6 0.8 -5.2
v -1.6 0.9 -5.2
v -2.8 0.7 -5.2
v -2.8 0.9 -5.2
v -2.9 0.7 -5.2
v -2.9 1 -5.2
v -1.5 0.8 -4.1
v -1.5 1 -4.1
v -1.6 0.8 -4.1
v -1.6 0.9 -4.1
v -2.8 0.7 -4.1
v -2.8 0.9 -4.1
v -2.9 0.7 -4.1
v -2.9 1 -4.1
v -1.6 0 -3.9
v -1.6 0.1 -3.9
v -1.8 0 -3.9
v -1.8 0.1 -3.9
v -2.6 0 -3.9
v -2.6 0.1 -3.9
v -2.8 0 -3.9
v -2.8 0.1 -3.9
v -2.8 0.6 -3.9
v -2.8 0.7 -3.9
v -2.9 0.6 -3.9
v -2.9 0.7 -3.9
v -1.6 0.1 -3.8
v -1.6 0.9 -3.8
v -2.1 0.4 -3.8
v -2.1 0.6 -3.8
v -2.2 0.5 -3.8
v -2.2 0.6 -3.8
v -2.3 0.5 -3.8
v -2.3 0.6 -3.8
v -2.4 0.4 -3.8
v -2.4 0.6 -3.8
v -2.8 0.1 -3.8
v -2.8 0.9 -3.8
v -2.1 0.4 -3.7
v -2.1 0.6 -3.7
v -2.2 0.5 -3.7
v -2.2 0.6 -3.7
v -2.3 0.5 -3.7
v -2.3 0.6 -3.7
v -2.4 0.4 -3.7
v -2.4 0.6 -3.7
v -1.6 0 -5.5
v -1.8 0 -5.5
v -2.6 0 -5.5
v -2.8 0 -5.5
v -1.6 0 -5.4
v -1.8 0 -5.4
v -2.6 0 -5.4
v -2.8 0 -5.4
v -1.6 0 -4
v -1.8 0 -4
v -2.6 0 -4
v -2.8 0 -4
v -1.6 0 -3.9
v -1.8 0 -3.9
v -2.6 0 -3.9
v -2.8 0 -3.9
v -1.6 0.1 -5.6
v -2.8 0.1 -5.6
v -1.6 0.1 -5.5
v -1.8 0.1 -5.5
v -2.6 0.1 -5.5
v -2.8 0.1 -5.5
v -1.6 0.1 -5.4
v -1.8 0.1 -5.4
v -2.6 0.1 -5.4
v -2.8 0.1 -5.4
v -1.6 0.1 -4
v -1.8 0.1 -4
v -2.6 0.1 -4
v -2.8 0.1 -4
v -1.6 0.1 -3.9
v -1.8 0.1 -3.9
v -2.6 0.1 -3.9
v -2.8 0.1 -3.9
v -1.6 0.1 -3.8
v -2.8 0.1 -3.8
v -2.1 0.4 -5.7
v -2.4 0.4 -5.7
v -2.1 0.4 -5.6
v -2.4 0.4 -5.6
v -2.1 0.4 -3.8
v -2.4 0.4 -3.8
v -2.1 0.4 -3.7
v -2.4 0.4 -3.7
v -2.8 0.6 -5.5
v -2.9 0.6 -5.5
v -2.8 0.6 -5.3
v -2.9 0.6 -5.3
v -2.8 0.6 -4.1
v -2.9 0.6 -4.1
v -2.8 0.6 -3.9
v -2.9 0.6 -3.9
v -1.7 0.7 -5.5
v -2.1 0.7 -5.5
v -2.8 0.7 -5.3
v -2.9 0.7 -5.3
v -2.8 0.7 -5.2
v -2.9 0.7 -5.2
v -2.8 0.7 -4.2
v -2.9 0.7 -4.2
v -2.8 0.7 -4.1
v -2.9 0.7 -4.1
v -1.7 0.7 -3.9
v -2.1 0.7 -3.9
v -2.1 0.8 -5.5
v -2.7 0.8 -5.5
v -1.5 0.8 -5.3
v -1.6 0.8 -5.3
v -2.1 0.8 -5.3
v -2.7 0.8 -5.3
v -1.5 0.8 -5.2
v -1.6 0.8 -5.2
v -2.1 0.8 -5.2
v -2.7 0.8 -5.2
v -1.5 0.8 -4.2
v -1.6 0.8 -4.2
v -2.1 0.8 -4.2
v -2.7 0.8 -4.2
v -1.5 0.8 -4.1
v -1.6 0.8 -4.1
v -2.1 0.8 -4.1
v -2.7 0.8 -4.1
v -2.1 0.8 -3.9
v -2.7 0.8 -3.9
v -1.7 0.2 -5.5
v -2.7 0.2 -5.5
v -1.7 0.2 -3.9
v -2.7 0.2 -3.9
v -2.2 0.5 -5.7
v -2.3 0.5 -5.7
v -2.2 0.5 -5.6
v -2.3 0.5 -5.6
v -2.2 0.5 -3.8
v -2.3 0.5 -3.8
v -2.2 0.5 -3.7
v -2.3 0.5 -3.7
v -2.1 0.6 -5.7
v -2.2 0.6 -5.7
v -2.3 0.6 -5.7
v -2.4 0.6 -5.7
v -2.1 0.6 -5.6
v -2.2 0.6 -5.6
v -2.3 0.6 -5.6
v -2.4 0.6 -5.6
v -2.1 0.6 -3.8
v -2.2 0.6 -3.8
v -2.3 0.6 -3.8
v -2.4 0.6 -3.8
v -2.1 0.6 -3.7
v -2.2 0.6 -3.7
v -2.3 0.6 -3.7
v -2.4 0.6 -3.7
v -2.8 0.7 -5.5
v -2.9 0.7 -5.5
v -2.8 0.7 -5.3
v -2.9 0.7 -5.3
v -2.8 0.7 -4.1
v -2.9 0.7 -4.1
v -2.8 0.7 -3.9
v -2.9 0.7 -3.9
v -1.6 0.9 -5.6
v -2.8 0.9 -5.6
v -1.6 0.9 -5.3
v -2.8 0.9 -5.3
v -1.6 0.9 -5.2
v -2.8 0.9 -5.2
v -1.6 0.9 -4.2
v -2.8 0.9 -4.2
v -1.6 0.9 -4.1
v -2.8 0.9 -4.1
v -1.6 0.9 -3.8
v -2.8 0.9 -3.8
v -1.5 1 -5.3
v -2.9 1 -5.3
v -1.5 1 -5.2
v -2.9 1 -5.2
v -1.5 1 -4.2
v -2.9 1 -4.2
v -1.5 1 -4.1
v -2.9 1 -4.1

# faces
f 5/1/1 2/1/1 1/1/1
f 6/1/1 2/1/1 5/1/1
f 7/1/1 4/1/1 3/1/1
f 8/1/1 4/1/1 7/1/1
f 14/1/1 10/1/1 9/1/1
f 15/1/1 10/1/1 14/1/1
f 16/1/1 12/1/1 11/1/1
f 17/1/1 12/1/1 16/1/1
f 19/3/1 15/3/1 14/3/1
f 19/3/1 18/3/1 17/3/1
f 19/3/1 17/3/1 16/3/1
f 19/3/1 16/3/1 15/3/1
f 19/3/1 14/3/1 13/3/1
f 20/3/1 18/3/1 19/3/1
f 21/3/1 19/3/1 13/3/1
f 21/1/1 20/1/1 19/1/1
f 22/3/1 18/3/1 20/3/1
f 22/1/1 20/1/1 21/1/1
f 23/3/1 21/3/1 13/3/1
f 23/3/1 22/3/1 21/3/1
f 24/3/1 22/3/1 23/3/1
f 25/3/1 18/3/1 22/3/1
f 25/3/1 22/3/1 24/3/1
f 26/3/1 18/3/1 25/3/1
f 27/3/1 23/3/1 13/3/1
f 28/3/1 23/3/1 27/3/1
f 29/3/1 25/3/1 24/3/1
f 30/3/1 25/3/1 29/3/1
f 31/3/1 18/3/1 26/3/1
f 32/3/1 18/3/1 31/3/1
f 37/1/1 34/1/1 33/1/1
f 38/1/1 34/1/1 37/1/1
f 39/1/1 36/1/1 35/1/1
f 40/1/1 36/1/1 39/1/1
f 45/1/1 42/1/1 41/1/1
f 46/1/1 42/1/1 45/1/1
f 47/1/1 44/1/1 43/1/1
f 48/1/1 44/1/1 47/1/1
f 53/1/1 50/1/1 49/1/1
f 54/1/1 50/1/1 53/1/1
f 55/1/1 52/1/1 51/1/1
f 56/1/1 52/1/1 55/1/1
f 59/3/1 58/3/1 57/3/1
f 60/3/1 58/3/1 59/3/1
f 61/3/1 58/3/1 60/3/1
f 62/3/1 58/3/1 61/3/1
f 63/3/1 58/3/1 62/3/1
f 64/3/1 58/3/1 63/3/1
f 65/3/2 66/3/2 67/3/2
f 67/3/2 66/3/2 68/3/2
f 65/3/2 67/3/2 69/3/2
f 67/1/2 68/1/2 69/1/2
f 68/3/2 66/3/2 70/3/2
f 69/1/2 68/1/2 70/1/2
f 65/3/2 69/3/2 71/3/2
f 69/3/2 70/3/2 71/3/2
f 70/3/2 66/3/2 72/3/2
f 71/3/2 70/3/2 72/3/2
f 73/1/2 74/1/2 77/1/2
f 77/1/2 74/1/2 78/1/2
f 75/1/2 76/1/2 79/1/2
f 79/1/2 76/1/2 80/1/2
f 81/3/2 82/3/2 83/3/2
f 83/3/2 82/3/2 84/3/2
f 84/3/2 82/3/2 85/3/2
f 85/3/2 82/3/2 86/3/2
f 86/3/2 82/3/2 87/3/2
f 87/3/2 82/3/2 88/3/2
f 89/1/2 90/1/2 93/1/2
f 93/1/2 90/1/2 94/1/2
f 91/1/2 92/1/2 95/1/2
f 95/1/2 92/1/2 96/1/2
f 97/1/2 98/1/2 101/1/2
f 101/1/2 98/1/2 102/1/2
f 99/1/2 100/1/2 103/1/2
f 103/1/2 100/1/2 104/1/2
f 105/1/2 106/1/2 110/1/2
f 110/1/2 106/1/2 111/1/2
f 107/1/2 108/1/2 112/1/2
f 112/1/2 108/1/2 113/1/2
f 110/3/2 111/3/2 115/3/2
f 113/3/2 114/3/2 115/3/2
f 112/3/2 113/3/2 115/3/2
f 111/3/2 112/3/2 115/3/2
f 109/3/2 110/3/2 115/3/2
f 115/3/2 114/3/2 116/3/2
f 116/3/2 114/3/2 117/3/2
f 117/3/2 114/3/2 118/3/2
f 109/3/2 115/3/2 119/3/2
f 116/3/2 117/3/2 120/3/2
f 120/3/2 117/3/2 121/3/2
f 121/3/2 117/3/2 122/3/2
f 122/3/2 117/3/2 123/3/2
f 118/3/2 114/3/2 124/3/2
f 109/3/2 119/3/2 125/3/2
f 119/3/2 120/3/2 125/3/2
f 125/3/2 120/3/2 126/3/2
f 121/3/2 122/3/2 127/3/2
f 127/3/2 122/3/2 128/3/2
f 123/3/2 124/3/2 129/3/2
f 124/3/2 114/3/2 130/3/2
f 129/3/2 124/3/2 130/3/2
f 131/1/2 132/1/2 135/1/2
f 135/1/2 132/1/2 136/1/2
f 133/1/2 134/1/2 139/1/2
f 139/1/2 134/1/2 140/1/2
f 136/1/2 137/1/2 141/1/2
f 141/1/2 137/1/2 142/1/2
f 138/1/2 139/1/2 143/1/2
f 143/1/2 139/1/2 144/1/2
f 147/1/3 146/1/3 145/1/3
f 148/1/3 146/1/3 147/1/3
f 149/1/3 147/1/3 145/1/3
f 151/1/3 149/1/3 145/1/3
f 151/1/3 150/1/3 149/1/3
f 152/1/3 150/1/3 151/1/3
f 155/3/3 154/3/3 153/3/3
f 156/3/3 154/3/3 155/3/3
f 158/3/3 154/3/3 156/3/3
f 159/3/3 158/3/3 157/3/3
f 160/3/3 154/3/3 158/3/3
f 160/3/3 158/3/3 159/3/3
f 161/3/3 155/3/3 153/3/3
f 162/3/3 154/3/3 160/3/3
f 163/3/3 161/3/3 153/3/3
f 163/3/3 162/3/3 161/3/3
f 164/3/3 154/3/3 162/3/3
f 164/3/3 162/3/3 163/3/3
f 167/1/3 166/1/3 165/1/3
f 168/1/3 166/1/3 167/1/3
f 171/1/3 170/1/3 169/1/3
f 172/1/3 170/1/3 171/1/3
f 175/1/3 174/1/3 173/1/3
f 176/1/3 174/1/3 175/1/3
f 179/1/3 178/1/3 177/1/3
f 180/1/3 178/1/3 179/1/3
f 182/1/3 178/1/3 180/1/3
f 183/1/3 182/1/3 181/1/3
f 184/1/3 178/1/3 182/1/3
f 184/1/3 182/1/3 183/1/3
f 187/1/3 186/1/3 185/1/3
f 188/1/3 186/1/3 187/1/3
f 190/1/3 186/1/3 188/1/3
f 191/1/3 190/1/3 189/1/3
f 192/1/3 186/1/3 190/1/3
f 192/1/3 190/1/3 191/1/3
f 195/1/3 194/1/3 193/1/3
f 196/1/3 194/1/3 195/1/3
f 199/1/3 198/1/3 197/1/3
f 200/1/3 198/1/3 199/1/3
f 203/1/3 202/1/3 201/1/3
f 204/1/3 202/1/3 203/1/3
f 207/3/3 206/3/3 205/3/3
f 209/3/3 207/3/3 205/3/3
f 209/3/3 208/3/3 207/3/3
f 210/3/3 208/3/3 209/3/3
f 211/3/4 212/3/4 213/3/4
f 211/3/4 213/3/4 215/3/4
f 213/3/4 214/3/4 215/3/4
f 215/3/4 214/3/4 216/3/4
f 217/1/4 218/1/4 219/1/4
f 219/1/4 218/1/4 220/1/4
f 221/1/4 222/1/4 223/1/4
f 223/1/4 222/1/4 224/1/4
f 225/1/4 226/1/4 227/1/4
f 227/1/4 226/1/4 228/1/4
f 229/1/4 230/1/4 231/1/4
f 231/1/4 230/1/4 232/1/4
f 232/1/4 230/1/4 234/1/4
f 233/1/4 234/1/4 235/1/4
f 234/1/4 230/1/4 236/1/4
f 235/1/4 234/1/4 236/1/4
f 237/1/4 238/1/4 239/1/4
f 239/1/4 238/1/4 240/1/4
f 240/1/4 238/1/4 242/1/4
f 241/1/4 242/1/4 243/1/4
f 242/1/4 238/1/4 244/1/4
f 243/1/4 242/1/4 244/1/4
f 245/1/4 246/1/4 247/1/4
f 247/1/4 246/1/4 248/1/4
f 249/1/4 250/1/4 251/1/4
f 251/1/4 250/1/4 252/1/4
f 253/1/4 254/1/4 255/1/4
f 255/1/4 254/1/4 256/1/4
f 257/3/4 258/3/4 259/3/4
f 259/3/4 258/3/4 260/3/4
f 260/3/4 258/3/4 262/3/4
f 261/3/4 262/3/4 263/3/4
f 262/3/4 258/3/4 264/3/4
f 263/3/4 262/3/4 264/3/4
f 257/3/4 259/3/4 265/3/4
f 264/3/4 258/3/4 266/3/4
f 257/3/4 265/3/4 267/3/4
f 265/3/4 266/3/4 267/3/4
f 266/3/4 258/3/4 268/3/4
f 267/3/4 266/3/4 268/3/4
f 269/1/4 270/1/4 271/1/4
f 271/1/4 270/1/4 272/1/4
f 269/1/4 271/1/4 273/1/4
f 269/1/4 273/1/4 275/1/4
f 273/1/4 274/1/4 275/1/4
f 275/1/4 274/1/4 276/1/4
f 281/1/5 278/1/5 277/1/5
f 282/1/5 278/1/5 281/1/5
f 283/1/5 280/1/5 279/1/5
f 284/1/5 280/1/5 283/1/5
f 289/1/5 286/1/5 285/1/5
f 290/1/5 286/1/5 289/1/5
f 291/1/5 288/1/5 287/1/5
f 292/1/5 288/1/5 291/1/5
f 295/3/5 294/3/5 293/3/5
f 296/3/5 294/3/5 295/3/5
f 297/3/5 294/3/5 296/3/5
f 298/3/5 294/3/5 297/3/5
f 300/3/5 297/3/5 296/3/5
f 301/3/5 297/3/5 300/3/5
f 303/3/5 300/3/5 299/3/5
f 303/3/5 302/3/5 301/3/5
f 303/3/5 301/3/5 300/3/5
f 304/3/5 302/3/5 303/3/5
f 305/3/5 302/3/5 304/3/5
f 306/3/5 302/3/5 305/3/5
f 308/3/5 305/3/5 304/3/5
f 309/3/5 305/3/5 308/3/5
f 311/3/5 308/3/5 307/3/5
f 311/3/5 310/3/5 309/3/5
f 311/3/5 309/3/5 308/3/5
f 312/3/5 310/3/5 311/3/5
f 315/1/5 314/1/5 313/1/5
f 316/1/5 314/1/5 315/1/5
f 319/1/5 318/1/5 317/1/5
f 320/1/5 318/1/5 319/1/5
f 323/1/5 322/1/5 321/1/5
f 324/1/5 322/1/5 323/1/5
f 327/1/5 326/1/5 325/1/5
f 328/1/5 326/1/5 327/1/5
f 333/1/5 332/1/5 331/1/5
f 334/1/5 332/1/5 333/1/5
f 337/1/5 336/1/5 335/1/5
f 338/1/5 336/1/5 337/1/5
f 339/3/5 330/3/5 329/3/5
f 340/3/5 330/3/5 339/3/5
f 345/3/5 342/3/5 341/3/5
f 346/3/5 342/3/5 345/3/5
f 347/1/5 344/1/5 343/1/5
f 348/1/5 344/1/5 347/1/5
f 349/2/5 346/2/5 345/2/5
f 350/2/5 346/2/5 349/2/5
f 353/3/5 350/3/5 349/3/5
f 354/3/5 350/3/5 353/3/5
f 355/1/5 352/1/5 351/1/5
f 356/1/5 352/1/5 355/1/5
f 357/2/5 354/2/5 353/2/5
f 358/2/5 354/2/5 357/2/5
f 359/3/5 358/3/5 357/3/5
f 360/3/5 358/3/5 359/3/5
f 361/3/6 362/3/6 363/3/6
f 363/3/6 362/3/6 364/3/6
f 365/1/6 366/1/6 367/1/6
f 367/1/6 366/1/6 368/1/6
f 369/1/6 370/1/6 371/1/6
f 371/1/6 370/1/6 372/1/6
f 373/1/6 374/1/6 377/1/6
f 377/1/6 374/1/6 378/1/6
f 375/1/6 376/1/6 379/1/6
f 379/1/6 376/1/6 380/1/6
f 381/1/6 382/1/6 385/1/6
f 385/1/6 382/1/6 386/1/6
f 383/1/6 384/1/6 387/1/6
f 387/1/6 384/1/6 388/1/6
f 389/1/6 390/1/6 391/1/6
f 391/1/6 390/1/6 392/1/6
f 393/1/6 394/1/6 395/1/6
f 395/1/6 394/1/6 396/1/6
f 397/3/6 398/3/6 399/3/6
f 399/3/6 398/3/6 400/3/6
f 401/3/6 402/3/6 403/3/6
f 403/3/6 402/3/6 404/3/6
f 405/3/6 406/3/6 407/3/6
f 407/3/6 406/3/6 408/3/6
f 409/1/6 410/1/6 411/1/6
f 411/1/6 410/1/6 412/1/6
f 413/1/6 414/1/6 415/1/6
f 415/1/6 414/1/6 416/1/6
