# MagicaVoxel @ Ephtracy

# group
o 

# material
mtllib Package 01 Necro Dungeon-51.mtl
usemtl palette

# normals
vn -1 0 0
vn 1 0 0
vn 0 0 1
vn 0 0 -1
vn 0 -1 0
vn 0 1 0

# texcoords
vt 0.00195313 0.5
vt 0.0332031 0.5
vt 0.0644531 0.5

# verts
v -2.6 0.2 15.4
v -2.6 0.2 15.3
v -2.6 0.2 15.2
v -2.6 0.2 15
v -2.6 0.2 14.9
v -2.6 0.2 14.8
v -2.6 0.2 14.4
v -2.6 0.2 14.3
v -2.6 0.2 14.1
v -2.6 0.2 14
v -2.6 0.2 13.9
v -2.6 0.2 13.8
v -2.6 0.2 13.6
v -2.6 0.2 13.5
v -2.6 0.2 13.4
v -2.6 0.2 13.3
v -2.6 0.2 12.9
v -2.6 0.3 15.4
v -2.6 0.3 15.3
v -2.6 0.3 14.9
v -2.6 0.3 14.8
v -2.6 0.3 14.6
v -2.6 0.3 14.5
v -2.6 0.3 14.4
v -2.6 0.3 14.3
v -2.6 0.3 13.9
v -2.6 0.3 13.8
v -2.6 0.3 13.4
v -2.6 0.3 13.3
v -2.6 0.3 13.2
v -2.6 0.4 15.3
v -2.6 0.4 15.2
v -2.6 0.4 15
v -2.6 0.4 14.9
v -2.6 0.4 14.8
v -2.6 0.4 14.6
v -2.6 0.4 14.5
v -2.6 0.4 14.4
v -2.6 0.4 14.3
v -2.6 0.4 14.1
v -2.6 0.4 14
v -2.6 0.4 13.9
v -2.6 0.4 13.8
v -2.6 0.4 13.6
v -2.6 0.4 13.5
v -2.6 0.4 13.4
v -2.6 0.4 13.3
v -2.6 0.4 13.2
v -2.6 0.4 12.9
v -0.7 0.2 15.4
v -0.7 0.2 15.3
v -0.7 0.2 15.2
v -0.7 0.2 14.9
v -0.7 0.2 14.8
v -0.7 0.2 14.4
v -0.7 0.2 14.3
v -0.7 0.2 13.9
v -0.7 0.2 13.8
v -0.7 0.2 13.4
v -0.7 0.2 13.3
v -0.7 0.2 12.9
v -0.7 0.3 15.4
v -0.7 0.3 15.3
v -0.7 0.3 15
v -0.7 0.3 14.9
v -0.7 0.3 14.8
v -0.7 0.3 14.4
v -0.7 0.3 14.3
v -0.7 0.3 14.1
v -0.7 0.3 14
v -0.7 0.3 13.9
v -0.7 0.3 13.8
v -0.7 0.3 13.6
v -0.7 0.3 13.5
v -0.7 0.3 13.4
v -0.7 0.3 13.3
v -0.7 0.3 13.2
v -0.7 0.3 13.1
v -0.7 0.4 15.3
v -0.7 0.4 15.2
v -0.7 0.4 15
v -0.7 0.4 14.9
v -0.7 0.4 14.8
v -0.7 0.4 14.4
v -0.7 0.4 14.3
v -0.7 0.4 14.1
v -0.7 0.4 14
v -0.7 0.4 13.9
v -0.7 0.4 13.8
v -0.7 0.4 13.6
v -0.7 0.4 13.5
v -0.7 0.4 13.4
v -0.7 0.4 13.3
v -0.7 0.4 13.2
v -0.7 0.4 13.1
v -0.7 0.4 12.9
v -2.6 0.2 15.4
v -2.6 0.3 15.4
v -0.7 0.2 15.4
v -0.7 0.3 15.4
v -2.6 0.3 15.3
v -2.6 0.4 15.3
v -2.2 0.3 15.3
v -2.2 0.4 15.3
v -1.4 0.3 15.3
v -1.4 0.4 15.3
v -0.7 0.3 15.3
v -0.7 0.4 15.3
v -2.6 0.3 14.8
v -2.6 0.4 14.8
v -0.7 0.3 14.8
v -0.7 0.4 14.8
v -2.6 0.3 14.3
v -2.6 0.4 14.3
v -2 0.3 14.3
v -2 0.4 14.3
v -1.1 0.3 14.3
v -1.1 0.4 14.3
v -0.7 0.3 14.3
v -0.7 0.4 14.3
v -2.6 0.3 13.8
v -2.6 0.4 13.8
v -0.7 0.3 13.8
v -0.7 0.4 13.8
v -2.6 0.3 13.3
v -2.6 0.4 13.3
v -2.3 0.3 13.3
v -2.3 0.4 13.3
v -0.7 0.3 13.3
v -0.7 0.4 13.3
v -2.6 0.3 14.9
v -2.6 0.4 14.9
v -2.2 0.3 14.9
v -2.2 0.4 14.9
v -1.9 0.3 14.9
v -1.9 0.4 14.9
v -1.8 0.3 14.9
v -1.8 0.4 14.9
v -1.3 0.3 14.9
v -1.3 0.4 14.9
v -0.7 0.3 14.9
v -0.7 0.4 14.9
v -2.6 0.3 14.4
v -2.6 0.4 14.4
v -0.7 0.3 14.4
v -0.7 0.4 14.4
v -2.6 0.3 13.9
v -2.6 0.4 13.9
v -1.9 0.3 13.9
v -1.9 0.4 13.9
v -1.6 0.3 13.9
v -1.6 0.4 13.9
v -0.7 0.3 13.9
v -0.7 0.4 13.9
v -2.6 0.3 13.4
v -2.6 0.4 13.4
v -0.7 0.3 13.4
v -0.7 0.4 13.4
v -2.6 0.2 12.9
v -2.6 0.4 12.9
v -0.7 0.2 12.9
v -0.7 0.4 12.9
v -2.6 0.2 15.4
v -0.7 0.2 15.4
v -2.6 0.2 15.3
v -2.5 0.2 15.3
v -1.4 0.2 15.3
v -0.7 0.2 15.3
v -2.6 0.2 15.2
v -2.5 0.2 15.2
v -1.4 0.2 15.2
v -0.7 0.2 15.2
v -2.6 0.2 15
v -2.2 0.2 15
v -2.6 0.2 14.9
v -2.2 0.2 14.9
v -0.7 0.2 14.9
v -2.6 0.2 14.8
v -0.7 0.2 14.8
v -2.6 0.2 14.4
v -0.7 0.2 14.4
v -2.6 0.2 14.3
v -0.7 0.2 14.3
v -2.6 0.2 14.1
v -2.5 0.2 14.1
v -2.6 0.2 14
v -2.5 0.2 14
v -2.6 0.2 13.9
v -0.7 0.2 13.9
v -2.6 0.2 13.8
v -0.7 0.2 13.8
v -2.6 0.2 13.6
v -2.2 0.2 13.6
v -2.6 0.2 13.5
v -2.2 0.2 13.5
v -2.6 0.2 13.4
v -0.7 0.2 13.4
v -2.6 0.2 13.3
v -0.7 0.2 13.3
v -2.6 0.2 12.9
v -0.7 0.2 12.9
v -2.6 0.3 15.4
v -0.7 0.3 15.4
v -2.6 0.3 15.3
v -2.2 0.3 15.3
v -1.4 0.3 15.3
v -0.7 0.3 15.3
v -2.6 0.3 14.9
v -2.2 0.3 14.9
v -1.9 0.3 14.9
v -1.8 0.3 14.9
v -1.3 0.3 14.9
v -0.7 0.3 14.9
v -2.6 0.3 14.8
v -0.7 0.3 14.8
v -2.6 0.3 14.4
v -0.7 0.3 14.4
v -2.6 0.3 14.3
v -2 0.3 14.3
v -1.1 0.3 14.3
v -0.7 0.3 14.3
v -2.6 0.3 13.9
v -1.9 0.3 13.9
v -1.6 0.3 13.9
v -0.7 0.3 13.9
v -2.6 0.3 13.8
v -0.7 0.3 13.8
v -2.6 0.3 13.4
v -0.7 0.3 13.4
v -2.6 0.3 13.3
v -2.3 0.3 13.3
v -0.7 0.3 13.3
v -2.6 0.4 15.3
v -2.2 0.4 15.3
v -1.4 0.4 15.3
v -0.7 0.4 15.3
v -2.6 0.4 15.2
v -2.2 0.4 15.2
v -1.4 0.4 15.2
v -0.7 0.4 15.2
v -2.3 0.4 15.1
v -1.9 0.4 15.1
v -1.8 0.4 15.1
v -1.1 0.4 15.1
v -2.6 0.4 15
v -2.3 0.4 15
v -2.2 0.4 15
v -1.9 0.4 15
v -1.8 0.4 15
v -1.3 0.4 15
v -1.1 0.4 15
v -0.7 0.4 15
v -2.6 0.4 14.9
v -2.2 0.4 14.9
v -1.9 0.4 14.9
v -1.8 0.4 14.9
v -1.3 0.4 14.9
v -0.7 0.4 14.9
v -2.6 0.4 14.8
v -0.7 0.4 14.8
v -2.3 0.4 14.7
v -1.8 0.4 14.7
v -2.6 0.4 14.6
v -2.3 0.4 14.6
v -1.8 0.4 14.6
v -1.3 0.4 14.6
v -2.6 0.4 14.5
v -2.3 0.4 14.5
v -1.8 0.4 14.5
v -1.3 0.4 14.5
v -2.6 0.4 14.4
v -0.7 0.4 14.4
v -2.6 0.4 14.3
v -2 0.4 14.3
v -1.1 0.4 14.3
v -0.7 0.4 14.3
v -2.4 0.4 14.2
v -2.3 0.4 14.2
v -2.1 0.4 14.2
v -2 0.4 14.2
v -1.2 0.4 14.2
v -1.1 0.4 14.2
v -0.8 0.4 14.2
v -2.6 0.4 14.1
v -2.4 0.4 14.1
v -2.3 0.4 14.1
v -2.1 0.4 14.1
v -2 0.4 14.1
v -1.9 0.4 14.1
v -1.6 0.4 14.1
v -1.5 0.4 14.1
v -1.2 0.4 14.1
v -0.9 0.4 14.1
v -0.8 0.4 14.1
v -0.7 0.4 14.1
v -2.6 0.4 14
v -2.4 0.4 14
v -2 0.4 14
v -1.9 0.4 14
v -1.6 0.4 14
v -1.5 0.4 14
v -0.9 0.4 14
v -0.7 0.4 14
v -2.6 0.4 13.9
v -1.9 0.4 13.9
v -1.6 0.4 13.9
v -0.7 0.4 13.9
v -2.6 0.4 13.8
v -0.7 0.4 13.8
v -2.2 0.4 13.7
v -1.5 0.4 13.7
v -1.3 0.4 13.7
v -1.2 0.4 13.7
v -2.6 0.4 13.6
v -2.2 0.4 13.6
v -2 0.4 13.6
v -1.3 0.4 13.6
v -1.2 0.4 13.6
v -0.7 0.4 13.6
v -2.6 0.4 13.5
v -2.2 0.4 13.5
v -2 0.4 13.5
v -1.5 0.4 13.5
v -1.2 0.4 13.5
v -0.7 0.4 13.5
v -2.6 0.4 13.4
v -0.7 0.4 13.4
v -2.6 0.4 13.3
v -2.3 0.4 13.3
v -0.7 0.4 13.3
v -2.6 0.4 13.2
v -2.3 0.4 13.2
v -1.8 0.4 13.2
v -1.5 0.4 13.2
v -0.7 0.4 13.2
v -2.3 0.4 13.1
v -1.9 0.4 13.1
v -1.8 0.4 13.1
v -1.5 0.4 13.1
v -0.7 0.4 13.1
v -1.9 0.4 13
v -1.5 0.4 13
v -2.6 0.4 12.9
v -0.7 0.4 12.9

# faces
f 18/3/1 2/3/1 1/3/1
f 19/2/1 3/2/1 2/2/1
f 19/3/1 2/3/1 18/3/1
f 20/2/1 5/2/1 4/2/1
f 20/3/1 6/3/1 5/3/1
f 21/1/1 7/1/1 6/1/1
f 21/3/1 6/3/1 20/3/1
f 22/1/1 7/1/1 21/1/1
f 23/1/1 7/1/1 22/1/1
f 24/3/1 8/3/1 7/3/1
f 24/1/1 7/1/1 23/1/1
f 25/1/1 9/1/1 8/1/1
f 25/3/1 8/3/1 24/3/1
f 26/1/1 11/1/1 10/1/1
f 26/3/1 12/3/1 11/3/1
f 27/1/1 13/1/1 12/1/1
f 27/3/1 12/3/1 26/3/1
f 28/1/1 15/1/1 14/1/1
f 28/3/1 16/3/1 15/3/1
f 29/1/1 17/1/1 16/1/1
f 29/3/1 16/3/1 28/3/1
f 30/1/1 17/1/1 29/1/1
f 31/2/1 3/2/1 19/2/1
f 32/1/1 4/1/1 3/1/1
f 32/2/1 3/2/1 31/2/1
f 33/2/1 20/2/1 4/2/1
f 33/1/1 4/1/1 32/1/1
f 34/2/1 20/2/1 33/2/1
f 35/1/1 22/1/1 21/1/1
f 36/2/1 23/2/1 22/2/1
f 36/1/1 22/1/1 35/1/1
f 37/1/1 24/1/1 23/1/1
f 37/2/1 23/2/1 36/2/1
f 38/1/1 24/1/1 37/1/1
f 39/1/1 9/1/1 25/1/1
f 40/2/1 10/2/1 9/2/1
f 40/1/1 9/1/1 39/1/1
f 41/1/1 26/1/1 10/1/1
f 41/2/1 10/2/1 40/2/1
f 42/1/1 26/1/1 41/1/1
f 43/1/1 13/1/1 27/1/1
f 44/2/1 14/2/1 13/2/1
f 44/1/1 13/1/1 43/1/1
f 45/1/1 28/1/1 14/1/1
f 45/2/1 14/2/1 44/2/1
f 46/1/1 28/1/1 45/1/1
f 47/2/1 30/2/1 29/2/1
f 48/1/1 17/1/1 30/1/1
f 48/2/1 30/2/1 47/2/1
f 49/1/1 17/1/1 48/1/1
f 50/3/2 51/3/2 62/3/2
f 51/2/2 52/2/2 63/2/2
f 62/3/2 51/3/2 63/3/2
f 52/1/2 53/1/2 64/1/2
f 53/3/2 54/3/2 65/3/2
f 64/1/2 53/1/2 65/1/2
f 54/1/2 55/1/2 66/1/2
f 65/3/2 54/3/2 66/3/2
f 55/3/2 56/3/2 67/3/2
f 66/1/2 55/1/2 67/1/2
f 56/1/2 57/1/2 68/1/2
f 67/3/2 56/3/2 68/3/2
f 68/1/2 57/1/2 69/1/2
f 69/1/2 57/1/2 70/1/2
f 57/3/2 58/3/2 71/3/2
f 70/1/2 57/1/2 71/1/2
f 58/1/2 59/1/2 72/1/2
f 71/3/2 58/3/2 72/3/2
f 72/1/2 59/1/2 73/1/2
f 73/1/2 59/1/2 74/1/2
f 59/3/2 60/3/2 75/3/2
f 74/1/2 59/1/2 75/1/2
f 60/1/2 61/1/2 76/1/2
f 75/3/2 60/3/2 76/3/2
f 76/1/2 61/1/2 77/1/2
f 77/1/2 61/1/2 78/1/2
f 63/2/2 52/2/2 79/2/2
f 52/1/2 64/1/2 80/1/2
f 79/2/2 52/2/2 80/2/2
f 64/2/2 65/2/2 81/2/2
f 80/1/2 64/1/2 81/1/2
f 81/2/2 65/2/2 82/2/2
f 66/1/2 67/1/2 83/1/2
f 83/1/2 67/1/2 84/1/2
f 68/1/2 69/1/2 85/1/2
f 69/2/2 70/2/2 86/2/2
f 85/1/2 69/1/2 86/1/2
f 70/1/2 71/1/2 87/1/2
f 86/2/2 70/2/2 87/2/2
f 87/1/2 71/1/2 88/1/2
f 72/1/2 73/1/2 89/1/2
f 73/2/2 74/2/2 90/2/2
f 89/1/2 73/1/2 90/1/2
f 74/1/2 75/1/2 91/1/2
f 90/2/2 74/2/2 91/2/2
f 91/1/2 75/1/2 92/1/2
f 76/1/2 77/1/2 93/1/2
f 77/2/2 78/2/2 94/2/2
f 93/1/2 77/1/2 94/1/2
f 78/1/2 61/1/2 95/1/2
f 94/2/2 78/2/2 95/2/2
f 95/1/2 61/1/2 96/1/2
f 99/3/3 98/3/3 97/3/3
f 100/3/3 98/3/3 99/3/3
f 103/2/3 102/2/3 101/2/3
f 104/2/3 102/2/3 103/2/3
f 105/1/3 104/1/3 103/1/3
f 106/1/3 104/1/3 105/1/3
f 107/2/3 106/2/3 105/2/3
f 108/2/3 106/2/3 107/2/3
f 111/1/3 110/1/3 109/1/3
f 112/1/3 110/1/3 111/1/3
f 115/1/3 114/1/3 113/1/3
f 116/1/3 114/1/3 115/1/3
f 117/2/3 116/2/3 115/2/3
f 118/2/3 116/2/3 117/2/3
f 119/1/3 118/1/3 117/1/3
f 120/1/3 118/1/3 119/1/3
f 123/1/3 122/1/3 121/1/3
f 124/1/3 122/1/3 123/1/3
f 127/2/3 126/2/3 125/2/3
f 128/2/3 126/2/3 127/2/3
f 129/1/3 128/1/3 127/1/3
f 130/1/3 128/1/3 129/1/3
f 131/2/4 132/2/4 133/2/4
f 133/2/4 132/2/4 134/2/4
f 133/1/4 134/1/4 135/1/4
f 135/1/4 134/1/4 136/1/4
f 135/2/4 136/2/4 137/2/4
f 137/2/4 136/2/4 138/2/4
f 137/1/4 138/1/4 139/1/4
f 139/1/4 138/1/4 140/1/4
f 139/2/4 140/2/4 141/2/4
f 141/2/4 140/2/4 142/2/4
f 143/1/4 144/1/4 145/1/4
f 145/1/4 144/1/4 146/1/4
f 147/1/4 148/1/4 149/1/4
f 149/1/4 148/1/4 150/1/4
f 149/2/4 150/2/4 151/2/4
f 151/2/4 150/2/4 152/2/4
f 151/1/4 152/1/4 153/1/4
f 153/1/4 152/1/4 154/1/4
f 155/1/4 156/1/4 157/1/4
f 157/1/4 156/1/4 158/1/4
f 159/1/4 160/1/4 161/1/4
f 161/1/4 160/1/4 162/1/4
f 165/3/5 164/3/5 163/3/5
f 166/3/5 164/3/5 165/3/5
f 167/3/5 164/3/5 166/3/5
f 168/3/5 164/3/5 167/3/5
f 169/2/5 166/2/5 165/2/5
f 170/1/5 167/1/5 166/1/5
f 170/2/5 166/2/5 169/2/5
f 171/2/5 168/2/5 167/2/5
f 171/1/5 167/1/5 170/1/5
f 172/2/5 168/2/5 171/2/5
f 173/1/5 170/1/5 169/1/5
f 173/1/5 171/1/5 170/1/5
f 173/1/5 172/1/5 171/1/5
f 174/1/5 172/1/5 173/1/5
f 175/2/5 174/2/5 173/2/5
f 176/1/5 172/1/5 174/1/5
f 176/2/5 174/2/5 175/2/5
f 177/1/5 172/1/5 176/1/5
f 178/3/5 176/3/5 175/3/5
f 178/3/5 177/3/5 176/3/5
f 179/3/5 177/3/5 178/3/5
f 180/1/5 179/1/5 178/1/5
f 181/1/5 179/1/5 180/1/5
f 182/3/5 181/3/5 180/3/5
f 183/3/5 181/3/5 182/3/5
f 184/1/5 183/1/5 182/1/5
f 185/1/5 183/1/5 184/1/5
f 186/2/5 185/2/5 184/2/5
f 187/1/5 183/1/5 185/1/5
f 187/2/5 185/2/5 186/2/5
f 188/1/5 187/1/5 186/1/5
f 189/1/5 183/1/5 187/1/5
f 189/1/5 187/1/5 188/1/5
f 190/3/5 189/3/5 188/3/5
f 191/3/5 189/3/5 190/3/5
f 192/1/5 191/1/5 190/1/5
f 193/1/5 191/1/5 192/1/5
f 194/2/5 193/2/5 192/2/5
f 195/1/5 191/1/5 193/1/5
f 195/2/5 193/2/5 194/2/5
f 196/1/5 195/1/5 194/1/5
f 197/1/5 191/1/5 195/1/5
f 197/1/5 195/1/5 196/1/5
f 198/3/5 197/3/5 196/3/5
f 199/3/5 197/3/5 198/3/5
f 200/1/5 199/1/5 198/1/5
f 201/1/5 199/1/5 200/1/5
f 202/3/6 203/3/6 204/3/6
f 204/3/6 203/3/6 205/3/6
f 205/3/6 203/3/6 206/3/6
f 206/3/6 203/3/6 207/3/6
f 208/3/6 209/3/6 214/3/6
f 212/3/6 213/3/6 214/3/6
f 211/3/6 212/3/6 214/3/6
f 210/3/6 211/3/6 214/3/6
f 209/3/6 210/3/6 214/3/6
f 214/3/6 213/3/6 215/3/6
f 216/3/6 217/3/6 218/3/6
f 218/3/6 217/3/6 219/3/6
f 219/3/6 217/3/6 220/3/6
f 220/3/6 217/3/6 221/3/6
f 222/3/6 223/3/6 226/3/6
f 224/3/6 225/3/6 226/3/6
f 223/3/6 224/3/6 226/3/6
f 226/3/6 225/3/6 227/3/6
f 228/3/6 229/3/6 230/3/6
f 230/3/6 229/3/6 231/3/6
f 231/3/6 229/3/6 232/3/6
f 233/2/6 234/2/6 237/2/6
f 234/1/6 235/1/6 238/1/6
f 237/2/6 234/2/6 238/2/6
f 235/2/6 236/2/6 239/2/6
f 238/1/6 235/1/6 239/1/6
f 239/2/6 236/2/6 240/2/6
f 237/1/6 238/1/6 241/1/6
f 238/1/6 239/1/6 241/1/6
f 239/1/6 240/1/6 241/1/6
f 241/1/6 240/1/6 242/1/6
f 242/1/6 240/1/6 243/1/6
f 243/1/6 240/1/6 244/1/6
f 237/1/6 241/1/6 245/1/6
f 241/2/6 242/2/6 246/2/6
f 245/1/6 241/1/6 246/1/6
f 246/2/6 242/2/6 247/2/6
f 242/1/6 243/1/6 248/1/6
f 247/2/6 242/2/6 248/2/6
f 243/2/6 244/2/6 249/2/6
f 248/1/6 243/1/6 249/1/6
f 249/2/6 244/2/6 250/2/6
f 244/1/6 240/1/6 251/1/6
f 250/2/6 244/2/6 251/2/6
f 251/1/6 240/1/6 252/1/6
f 246/2/6 247/2/6 253/2/6
f 245/2/6 246/2/6 253/2/6
f 247/1/6 248/1/6 254/1/6
f 253/2/6 247/2/6 254/2/6
f 248/2/6 249/2/6 255/2/6
f 254/1/6 248/1/6 255/1/6
f 249/1/6 250/1/6 256/1/6
f 255/2/6 249/2/6 256/2/6
f 251/2/6 252/2/6 257/2/6
f 256/1/6 250/1/6 257/1/6
f 250/2/6 251/2/6 257/2/6
f 257/2/6 252/2/6 258/2/6
f 259/1/6 260/1/6 261/1/6
f 261/1/6 260/1/6 262/1/6
f 259/1/6 261/1/6 263/1/6
f 261/2/6 262/2/6 264/2/6
f 263/1/6 261/1/6 264/1/6
f 262/1/6 260/1/6 265/1/6
f 264/2/6 262/2/6 265/2/6
f 265/1/6 260/1/6 266/1/6
f 263/2/6 264/2/6 267/2/6
f 264/1/6 265/1/6 268/1/6
f 267/2/6 264/2/6 268/2/6
f 265/2/6 266/2/6 269/2/6
f 268/1/6 265/1/6 269/1/6
f 266/1/6 260/1/6 270/1/6
f 269/2/6 266/2/6 270/2/6
f 268/1/6 269/1/6 271/1/6
f 267/1/6 268/1/6 271/1/6
f 269/1/6 270/1/6 271/1/6
f 270/1/6 260/1/6 272/1/6
f 271/1/6 270/1/6 272/1/6
f 273/1/6 274/1/6 277/1/6
f 277/1/6 274/1/6 278/1/6
f 278/1/6 274/1/6 279/1/6
f 274/2/6 275/2/6 280/2/6
f 279/1/6 274/1/6 280/1/6
f 280/2/6 275/2/6 281/2/6
f 275/1/6 276/1/6 282/1/6
f 281/2/6 275/2/6 282/2/6
f 282/1/6 276/1/6 283/1/6
f 273/1/6 277/1/6 284/1/6
f 277/2/6 278/2/6 285/2/6
f 284/1/6 277/1/6 285/1/6
f 278/1/6 279/1/6 286/1/6
f 285/2/6 278/2/6 286/2/6
f 279/2/6 280/2/6 287/2/6
f 286/1/6 279/1/6 287/1/6
f 280/1/6 281/1/6 288/1/6
f 287/2/6 280/2/6 288/2/6
f 288/1/6 281/1/6 289/1/6
f 289/1/6 281/1/6 290/1/6
f 290/1/6 281/1/6 291/1/6
f 281/2/6 282/2/6 292/2/6
f 291/1/6 281/1/6 292/1/6
f 282/2/6 283/2/6 292/2/6
f 292/2/6 283/2/6 293/2/6
f 283/1/6 276/1/6 294/1/6
f 293/2/6 283/2/6 294/2/6
f 294/1/6 276/1/6 295/1/6
f 284/2/6 285/2/6 296/2/6
f 286/1/6 287/1/6 297/1/6
f 296/2/6 285/2/6 297/2/6
f 285/1/6 286/1/6 297/1/6
f 287/1/6 288/1/6 297/1/6
f 288/2/6 289/2/6 298/2/6
f 297/1/6 288/1/6 298/1/6
f 289/1/6 290/1/6 299/1/6
f 298/2/6 289/2/6 299/2/6
f 290/2/6 291/2/6 300/2/6
f 299/1/6 290/1/6 300/1/6
f 292/1/6 293/1/6 301/1/6
f 300/2/6 291/2/6 301/2/6
f 291/1/6 292/1/6 301/1/6
f 294/2/6 295/2/6 302/2/6
f 301/1/6 293/1/6 302/1/6
f 293/2/6 294/2/6 302/2/6
f 302/2/6 295/2/6 303/2/6
f 298/1/6 299/1/6 304/1/6
f 297/1/6 298/1/6 304/1/6
f 296/1/6 297/1/6 304/1/6
f 299/2/6 300/2/6 305/2/6
f 304/1/6 299/1/6 305/1/6
f 300/1/6 301/1/6 306/1/6
f 305/2/6 300/2/6 306/2/6
f 302/1/6 303/1/6 306/1/6
f 301/1/6 302/1/6 306/1/6
f 306/1/6 303/1/6 307/1/6
f 308/1/6 309/1/6 310/1/6
f 310/1/6 309/1/6 311/1/6
f 311/1/6 309/1/6 312/1/6
f 312/1/6 309/1/6 313/1/6
f 308/1/6 310/1/6 314/1/6
f 310/2/6 311/2/6 315/2/6
f 314/1/6 310/1/6 315/1/6
f 315/2/6 311/2/6 316/2/6
f 311/1/6 312/1/6 317/1/6
f 312/2/6 313/2/6 317/2/6
f 313/1/6 309/1/6 318/1/6
f 317/2/6 313/2/6 318/2/6
f 318/1/6 309/1/6 319/1/6
f 314/2/6 315/2/6 320/2/6
f 315/1/6 316/1/6 321/1/6
f 320/2/6 315/2/6 321/2/6
f 316/2/6 311/2/6 322/2/6
f 321/1/6 316/1/6 322/1/6
f 311/1/6 317/1/6 323/1/6
f 322/2/6 311/2/6 323/2/6
f 317/1/6 318/1/6 323/1/6
f 318/2/6 319/2/6 324/2/6
f 323/1/6 318/1/6 324/1/6
f 324/2/6 319/2/6 325/2/6
f 321/1/6 322/1/6 326/1/6
f 320/1/6 321/1/6 326/1/6
f 324/1/6 325/1/6 326/1/6
f 323/1/6 324/1/6 326/1/6
f 322/1/6 323/1/6 326/1/6
f 326/1/6 325/1/6 327/1/6
f 328/2/6 329/2/6 331/2/6
f 329/1/6 330/1/6 332/1/6
f 331/2/6 329/2/6 332/2/6
f 332/1/6 330/1/6 333/1/6
f 333/1/6 330/1/6 334/1/6
f 334/1/6 330/1/6 335/1/6
f 331/1/6 332/1/6 336/1/6
f 332/2/6 333/2/6 336/2/6
f 336/2/6 333/2/6 337/2/6
f 333/1/6 334/1/6 338/1/6
f 337/2/6 333/2/6 338/2/6
f 334/2/6 335/2/6 339/2/6
f 338/1/6 334/1/6 339/1/6
f 339/2/6 335/2/6 340/2/6
f 337/2/6 338/2/6 341/2/6
f 336/1/6 337/1/6 341/1/6
f 338/2/6 339/2/6 341/2/6
f 339/1/6 340/1/6 342/1/6
f 341/2/6 339/2/6 342/2/6
f 336/1/6 341/1/6 343/1/6
f 331/1/6 336/1/6 343/1/6
f 341/1/6 342/1/6 343/1/6
f 342/1/6 340/1/6 344/1/6
f 343/1/6 342/1/6 344/1/6
