# MagicaVoxel @ Ephtracy

# group
o 

# material
mtllib Package 01 Necro Dungeon-86.mtl
usemtl palette

# normals
vn -1 0 0
vn 1 0 0
vn 0 0 1
vn 0 0 -1
vn 0 -1 0
vn 0 1 0

# texcoords
vt 0.00585938 0.5
vt 0.0214844 0.5
vt 0.0371094 0.5
vt 0.0527344 0.5
vt 0.0683594 0.5
vt 0.0839844 0.5

# verts
v 0.1 0 0.9
v 0.1 0 -1.6
v 0.1 0.1 0.6
v 0.1 0.1 0.2
v 0.1 0.2 0
v 0.1 0.2 -0.3
v 0.1 0.2 -0.7
v 0.1 0.2 -0.8
v 0.1 0.2 -1.1
v 0.1 0.2 -1.5
v 0.1 0.3 0.9
v 0.1 0.3 0.6
v 0.1 0.3 0.2
v 0.1 0.3 0
v 0.1 0.3 -0.3
v 0.1 0.3 -0.7
v 0.1 0.3 -0.8
v 0.1 0.3 -1.1
v 0.1 0.3 -1.5
v 0.1 0.3 -1.6
v 0.1 0.4 0.9
v 0.1 0.4 -1.6
v 2.6 0 0.9
v 2.6 0 -0.4
v 2.6 0 -0.5
v 2.6 0 -1.4
v 2.6 0 -1.5
v 2.6 0 -1.6
v 2.6 0.1 0.8
v 2.6 0.1 0.7
v 2.6 0.1 -0.4
v 2.6 0.1 -0.5
v 2.6 0.1 -0.6
v 2.6 0.1 -1.4
v 2.6 0.1 -1.5
v 2.6 0.2 0.8
v 2.6 0.2 0.7
v 2.6 0.2 0.6
v 2.6 0.2 0.5
v 2.6 0.2 0.4
v 2.6 0.2 0.3
v 2.6 0.2 -0.1
v 2.6 0.2 -0.2
v 2.6 0.2 -0.5
v 2.6 0.2 -0.6
v 2.6 0.2 -0.8
v 2.6 0.2 -0.9
v 2.6 0.2 -1.2
v 2.6 0.2 -1.3
v 2.6 0.3 0.9
v 2.6 0.3 0.6
v 2.6 0.3 0.5
v 2.6 0.3 0.4
v 2.6 0.3 0.3
v 2.6 0.3 -0.1
v 2.6 0.3 -0.2
v 2.6 0.3 -0.8
v 2.6 0.3 -0.9
v 2.6 0.3 -1
v 2.6 0.3 -1.1
v 2.6 0.3 -1.2
v 2.6 0.3 -1.3
v 2.6 0.3 -1.6
v 2.6 0.4 0.9
v 2.6 0.4 -1
v 2.6 0.4 -1.1
v 2.6 0.4 -1.6
v 0.1 0 0.9
v 0.1 0.3 0.9
v 0.1 0.4 0.9
v 0.4 0.2 0.9
v 0.4 0.3 0.9
v 0.8 0.2 0.9
v 0.8 0.3 0.9
v 0.9 0.2 0.9
v 0.9 0.3 0.9
v 1 0.2 0.9
v 1 0.3 0.9
v 1.3 0 0.9
v 1.3 0.3 0.9
v 1.4 0.3 0.9
v 1.4 0.4 0.9
v 1.5 0.2 0.9
v 1.5 0.4 0.9
v 1.6 0.2 0.9
v 1.6 0.3 0.9
v 1.7 0.2 0.9
v 1.7 0.3 0.9
v 1.8 0.2 0.9
v 1.8 0.3 0.9
v 2 0 0.9
v 2 0.1 0.9
v 2.1 0 0.9
v 2.1 0.1 0.9
v 2.3 0.2 0.9
v 2.3 0.3 0.9
v 2.4 0.2 0.9
v 2.4 0.3 0.9
v 2.6 0 0.9
v 2.6 0.3 0.9
v 2.6 0.4 0.9
v 0.1 0 -1.6
v 0.1 0.3 -1.6
v 0.1 0.4 -1.6
v 0.3 0.2 -1.6
v 0.3 0.3 -1.6
v 0.4 0.2 -1.6
v 0.4 0.3 -1.6
v 1.2 0.2 -1.6
v 1.2 0.3 -1.6
v 1.3 0 -1.6
v 1.3 0.2 -1.6
v 1.3 0.3 -1.6
v 1.4 0.3 -1.6
v 1.4 0.4 -1.6
v 1.5 0.2 -1.6
v 1.5 0.4 -1.6
v 1.6 0.2 -1.6
v 1.6 0.3 -1.6
v 1.9 0 -1.6
v 1.9 0.1 -1.6
v 2 0 -1.6
v 2 0.1 -1.6
v 2.1 0.2 -1.6
v 2.1 0.3 -1.6
v 2.2 0.2 -1.6
v 2.2 0.3 -1.6
v 2.6 0 -1.6
v 2.6 0.3 -1.6
v 2.6 0.4 -1.6
v 0.1 0 0.9
v 1.3 0 0.9
v 2 0 0.9
v 2.1 0 0.9
v 2.6 0 0.9
v 2 0 0.8
v 2.1 0 0.8
v 2.5 0 -0.4
v 2.6 0 -0.4
v 2.5 0 -0.5
v 2.6 0 -0.5
v 2.5 0 -1.4
v 2.6 0 -1.4
v 1.9 0 -1.5
v 2 0 -1.5
v 2.5 0 -1.5
v 2.6 0 -1.5
v 0.1 0 -1.6
v 1.3 0 -1.6
v 1.9 0 -1.6
v 2 0 -1.6
v 2.6 0 -1.6
v 0.1 0.4 0.9
v 1.4 0.4 0.9
v 1.5 0.4 0.9
v 2.6 0.4 0.9
v 0.5 0.4 0.8
v 0.6 0.4 0.8
v 0.5 0.4 0.7
v 0.6 0.4 0.7
v 1.3 0.4 0.7
v 1.4 0.4 0.7
v 1.5 0.4 0.7
v 1.8 0.4 0.7
v 2 0.4 0.7
v 1.7 0.4 0.6
v 1.8 0.4 0.6
v 1 0.4 0.5
v 1.1 0.4 0.5
v 1.2 0.4 0.5
v 1.3 0.4 0.5
v 1.9 0.4 0.5
v 2 0.4 0.5
v 0.7 0.4 0.4
v 0.8 0.4 0.4
v 1 0.4 0.4
v 1.1 0.4 0.4
v 1.2 0.4 0.4
v 1.3 0.4 0.4
v 1.7 0.4 0.4
v 1.9 0.4 0.4
v 2.4 0.4 0.4
v 2.5 0.4 0.4
v 0.7 0.4 0.3
v 0.8 0.4 0.3
v 1.1 0.4 0.3
v 1.2 0.4 0.3
v 1.4 0.4 0.3
v 1.5 0.4 0.3
v 2.4 0.4 0.3
v 2.5 0.4 0.3
v 0.2 0.4 0.2
v 0.3 0.4 0.2
v 0.4 0.4 0.2
v 0.5 0.4 0.2
v 1.3 0.4 0.2
v 1.5 0.4 0.2
v 1.6 0.4 0.2
v 0.2 0.4 0.1
v 0.3 0.4 0.1
v 0.4 0.4 0.1
v 0.5 0.4 0.1
v 1.5 0.4 0.1
v 1.6 0.4 0.1
v 1.7 0.4 0.1
v 2 0.4 0.1
v 2.2 0.4 0.1
v 0.3 0.4 0
v 0.4 0.4 0
v 1.3 0.4 0
v 1.6 0.4 0
v 1.7 0.4 0
v 1.9 0.4 0
v 2 0.4 0
v 2.2 0.4 0
v 2.3 0.4 0
v 0.5 0.4 -0.1
v 0.7 0.4 -0.1
v 0.9 0.4 -0.1
v 1.1 0.4 -0.1
v 1.4 0.4 -0.1
v 1.6 0.4 -0.1
v 0.5 0.4 -0.2
v 0.6 0.4 -0.2
v 0.7 0.4 -0.2
v 0.9 0.4 -0.2
v 1 0.4 -0.2
v 1.1 0.4 -0.2
v 1.9 0.4 -0.2
v 2 0.4 -0.2
v 2.2 0.4 -0.2
v 2.3 0.4 -0.2
v 0.6 0.4 -0.3
v 0.7 0.4 -0.3
v 0.9 0.4 -0.3
v 1 0.4 -0.3
v 1.2 0.4 -0.3
v 1.3 0.4 -0.3
v 1.4 0.4 -0.3
v 1.5 0.4 -0.3
v 1.7 0.4 -0.3
v 1.8 0.4 -0.3
v 2 0.4 -0.3
v 2.2 0.4 -0.3
v 0.7 0.4 -0.4
v 0.9 0.4 -0.4
v 1.2 0.4 -0.4
v 1.3 0.4 -0.4
v 1.4 0.4 -0.4
v 1.5 0.4 -0.4
v 1.7 0.4 -0.4
v 1.8 0.4 -0.4
v 1 0.4 -0.6
v 1.1 0.4 -0.6
v 1.2 0.4 -0.6
v 1.3 0.4 -0.6
v 1.4 0.4 -0.6
v 2.1 0.4 -0.6
v 2.2 0.4 -0.6
v 1 0.4 -0.7
v 1.1 0.4 -0.7
v 1.2 0.4 -0.7
v 1.3 0.4 -0.7
v 1.5 0.4 -0.7
v 2.1 0.4 -0.7
v 2.2 0.4 -0.7
v 1.3 0.4 -0.8
v 1.5 0.4 -0.8
v 1.6 0.4 -0.8
v 0.3 0.4 -1
v 0.4 0.4 -1
v 1.4 0.4 -1
v 1.5 0.4 -1
v 1.6 0.4 -1
v 2.5 0.4 -1
v 2.6 0.4 -1
v 0.2 0.4 -1.1
v 0.3 0.4 -1.1
v 0.5 0.4 -1.1
v 0.6 0.4 -1.1
v 1.3 0.4 -1.1
v 1.4 0.4 -1.1
v 1.5 0.4 -1.1
v 1.7 0.4 -1.1
v 1.9 0.4 -1.1
v 2.4 0.4 -1.1
v 2.5 0.4 -1.1
v 2.6 0.4 -1.1
v 0.3 0.4 -1.2
v 0.4 0.4 -1.2
v 0.5 0.4 -1.2
v 2.4 0.4 -1.2
v 2.5 0.4 -1.2
v 0.2 0.4 -1.3
v 0.3 0.4 -1.3
v 0.5 0.4 -1.3
v 0.6 0.4 -1.3
v 0.7 0.4 -1.3
v 0.8 0.4 -1.3
v 0.9 0.4 -1.3
v 1 0.4 -1.3
v 1.7 0.4 -1.3
v 1.9 0.4 -1.3
v 0.3 0.4 -1.4
v 0.5 0.4 -1.4
v 0.7 0.4 -1.4
v 0.8 0.4 -1.4
v 0.9 0.4 -1.4
v 1 0.4 -1.4
v 0.8 0.4 -1.5
v 0.9 0.4 -1.5
v 1.3 0.4 -1.5
v 1.4 0.4 -1.5
v 1.5 0.4 -1.5
v 0.1 0.4 -1.6
v 1.4 0.4 -1.6
v 1.5 0.4 -1.6
v 2.6 0.4 -1.6

# faces
f 3/4/1 2/4/1 1/4/1
f 4/4/1 2/4/1 3/4/1
f 5/4/1 2/4/1 4/4/1
f 6/4/1 2/4/1 5/4/1
f 7/4/1 2/4/1 6/4/1
f 8/4/1 2/4/1 7/4/1
f 9/4/1 2/4/1 8/4/1
f 10/4/1 2/4/1 9/4/1
f 11/4/1 3/4/1 1/4/1
f 12/2/1 4/2/1 3/2/1
f 12/4/1 3/4/1 11/4/1
f 13/4/1 5/4/1 4/4/1
f 13/2/1 4/2/1 12/2/1
f 14/2/1 6/2/1 5/2/1
f 14/4/1 5/4/1 13/4/1
f 15/4/1 7/4/1 6/4/1
f 15/2/1 6/2/1 14/2/1
f 16/2/1 8/2/1 7/2/1
f 16/4/1 7/4/1 15/4/1
f 17/4/1 9/4/1 8/4/1
f 17/2/1 8/2/1 16/2/1
f 18/2/1 10/2/1 9/2/1
f 18/4/1 9/4/1 17/4/1
f 19/4/1 2/4/1 10/4/1
f 19/2/1 10/2/1 18/2/1
f 20/4/1 2/4/1 19/4/1
f 21/2/1 18/2/1 17/2/1
f 21/2/1 12/2/1 11/2/1
f 21/2/1 20/2/1 19/2/1
f 21/2/1 19/2/1 18/2/1
f 21/2/1 17/2/1 16/2/1
f 21/2/1 16/2/1 15/2/1
f 21/2/1 15/2/1 14/2/1
f 21/2/1 14/2/1 13/2/1
f 21/2/1 13/2/1 12/2/1
f 22/2/1 20/2/1 21/2/1
f 23/3/2 24/3/2 29/3/2
f 29/3/2 24/3/2 30/3/2
f 24/1/2 25/1/2 31/1/2
f 30/3/2 24/3/2 31/3/2
f 25/3/2 26/3/2 32/3/2
f 31/1/2 25/1/2 32/1/2
f 32/3/2 26/3/2 33/3/2
f 26/1/2 27/1/2 34/1/2
f 33/3/2 26/3/2 34/3/2
f 27/3/2 28/3/2 35/3/2
f 34/1/2 27/1/2 35/1/2
f 29/1/2 30/1/2 36/1/2
f 23/3/2 29/3/2 36/3/2
f 30/3/2 31/3/2 37/3/2
f 36/1/2 30/1/2 37/1/2
f 31/3/2 32/3/2 37/3/2
f 37/3/2 32/3/2 38/3/2
f 38/3/2 32/3/2 39/3/2
f 39/3/2 32/3/2 40/3/2
f 40/3/2 32/3/2 41/3/2
f 41/3/2 32/3/2 42/3/2
f 42/3/2 32/3/2 43/3/2
f 32/1/2 33/1/2 44/1/2
f 43/3/2 32/3/2 44/3/2
f 33/3/2 34/3/2 45/3/2
f 44/1/2 33/1/2 45/1/2
f 34/3/2 35/3/2 45/3/2
f 45/3/2 35/3/2 46/3/2
f 46/3/2 35/3/2 47/3/2
f 47/3/2 35/3/2 48/3/2
f 48/3/2 35/3/2 49/3/2
f 23/3/2 36/3/2 50/3/2
f 36/3/2 37/3/2 50/3/2
f 37/3/2 38/3/2 50/3/2
f 38/1/2 39/1/2 51/1/2
f 50/3/2 38/3/2 51/3/2
f 39/3/2 40/3/2 52/3/2
f 51/1/2 39/1/2 52/1/2
f 40/1/2 41/1/2 53/1/2
f 52/3/2 40/3/2 53/3/2
f 41/3/2 42/3/2 54/3/2
f 53/1/2 41/1/2 54/1/2
f 42/1/2 43/1/2 55/1/2
f 54/3/2 42/3/2 55/3/2
f 43/3/2 44/3/2 56/3/2
f 55/1/2 43/1/2 56/1/2
f 44/3/2 45/3/2 56/3/2
f 45/3/2 46/3/2 56/3/2
f 46/1/2 47/1/2 57/1/2
f 56/3/2 46/3/2 57/3/2
f 47/3/2 48/3/2 58/3/2
f 57/1/2 47/1/2 58/1/2
f 58/3/2 48/3/2 59/3/2
f 59/3/2 48/3/2 60/3/2
f 48/1/2 49/1/2 61/1/2
f 60/3/2 48/3/2 61/3/2
f 49/3/2 35/3/2 62/3/2
f 61/1/2 49/1/2 62/1/2
f 35/3/2 28/3/2 63/3/2
f 62/3/2 35/3/2 63/3/2
f 54/1/2 55/1/2 64/1/2
f 53/1/2 54/1/2 64/1/2
f 52/1/2 53/1/2 64/1/2
f 58/1/2 59/1/2 64/1/2
f 57/1/2 58/1/2 64/1/2
f 55/1/2 56/1/2 64/1/2
f 51/1/2 52/1/2 64/1/2
f 50/1/2 51/1/2 64/1/2
f 56/1/2 57/1/2 64/1/2
f 59/3/2 60/3/2 65/3/2
f 64/1/2 59/1/2 65/1/2
f 61/1/2 62/1/2 66/1/2
f 65/3/2 60/3/2 66/3/2
f 60/1/2 61/1/2 66/1/2
f 62/1/2 63/1/2 66/1/2
f 66/1/2 63/1/2 67/1/2
f 71/4/3 69/4/3 68/4/3
f 72/2/3 70/2/3 69/2/3
f 72/4/3 69/4/3 71/4/3
f 73/4/3 71/4/3 68/4/3
f 73/2/3 72/2/3 71/2/3
f 74/2/3 70/2/3 72/2/3
f 74/2/3 72/2/3 73/2/3
f 75/4/3 73/4/3 68/4/3
f 75/4/3 74/4/3 73/4/3
f 76/2/3 70/2/3 74/2/3
f 76/4/3 74/4/3 75/4/3
f 77/4/3 75/4/3 68/4/3
f 77/2/3 76/2/3 75/2/3
f 78/2/3 70/2/3 76/2/3
f 78/2/3 76/2/3 77/2/3
f 79/4/3 77/4/3 68/4/3
f 79/4/3 78/4/3 77/4/3
f 80/2/3 70/2/3 78/2/3
f 80/4/3 78/4/3 79/4/3
f 81/3/3 80/3/3 79/3/3
f 81/2/3 70/2/3 80/2/3
f 82/2/3 70/2/3 81/2/3
f 83/3/3 81/3/3 79/3/3
f 83/3/3 82/3/3 81/3/3
f 84/3/3 82/3/3 83/3/3
f 85/3/3 83/3/3 79/3/3
f 85/1/3 84/1/3 83/1/3
f 86/1/3 84/1/3 85/1/3
f 87/3/3 85/3/3 79/3/3
f 87/3/3 86/3/3 85/3/3
f 88/1/3 84/1/3 86/1/3
f 88/3/3 86/3/3 87/3/3
f 89/3/3 87/3/3 79/3/3
f 89/1/3 88/1/3 87/1/3
f 90/1/3 84/1/3 88/1/3
f 90/1/3 88/1/3 89/1/3
f 91/3/3 89/3/3 79/3/3
f 91/3/3 90/3/3 89/3/3
f 92/3/3 90/3/3 91/3/3
f 93/1/3 92/1/3 91/1/3
f 94/3/3 90/3/3 92/3/3
f 94/1/3 92/1/3 93/1/3
f 95/3/3 94/3/3 93/3/3
f 95/3/3 90/3/3 94/3/3
f 96/1/3 84/1/3 90/1/3
f 96/3/3 90/3/3 95/3/3
f 97/3/3 95/3/3 93/3/3
f 97/1/3 96/1/3 95/1/3
f 98/1/3 84/1/3 96/1/3
f 98/1/3 96/1/3 97/1/3
f 99/3/3 97/3/3 93/3/3
f 99/3/3 98/3/3 97/3/3
f 100/1/3 84/1/3 98/1/3
f 100/3/3 98/3/3 99/3/3
f 101/1/3 84/1/3 100/1/3
f 102/4/4 103/4/4 105/4/4
f 103/2/4 104/2/4 106/2/4
f 105/4/4 103/4/4 106/4/4
f 102/4/4 105/4/4 107/4/4
f 105/2/4 106/2/4 107/2/4
f 106/2/4 104/2/4 108/2/4
f 107/2/4 106/2/4 108/2/4
f 102/4/4 107/4/4 109/4/4
f 107/4/4 108/4/4 109/4/4
f 108/2/4 104/2/4 110/2/4
f 109/4/4 108/4/4 110/4/4
f 102/4/4 109/4/4 111/4/4
f 109/2/4 110/2/4 112/2/4
f 111/4/4 109/4/4 112/4/4
f 110/2/4 104/2/4 113/2/4
f 112/2/4 110/2/4 113/2/4
f 111/3/4 112/3/4 114/3/4
f 113/2/4 104/2/4 114/2/4
f 112/3/4 113/3/4 114/3/4
f 114/2/4 104/2/4 115/2/4
f 111/3/4 114/3/4 116/3/4
f 114/3/4 115/3/4 116/3/4
f 116/3/4 115/3/4 117/3/4
f 111/3/4 116/3/4 118/3/4
f 116/1/4 117/1/4 118/1/4
f 118/1/4 117/1/4 119/1/4
f 111/3/4 118/3/4 120/3/4
f 118/3/4 119/3/4 120/3/4
f 120/3/4 119/3/4 121/3/4
f 120/1/4 121/1/4 122/1/4
f 121/3/4 119/3/4 123/3/4
f 122/1/4 121/1/4 123/1/4
f 122/3/4 123/3/4 124/3/4
f 123/3/4 119/3/4 124/3/4
f 119/1/4 117/1/4 125/1/4
f 124/3/4 119/3/4 125/3/4
f 122/3/4 124/3/4 126/3/4
f 124/1/4 125/1/4 126/1/4
f 125/1/4 117/1/4 127/1/4
f 126/1/4 125/1/4 127/1/4
f 122/3/4 126/3/4 128/3/4
f 126/3/4 127/3/4 128/3/4
f 127/1/4 117/1/4 129/1/4
f 128/3/4 127/3/4 129/3/4
f 129/1/4 117/1/4 130/1/4
f 136/3/5 133/3/5 132/3/5
f 136/1/5 134/1/5 133/1/5
f 137/3/5 135/3/5 134/3/5
f 137/1/5 134/1/5 136/1/5
f 138/3/5 137/3/5 136/3/5
f 138/3/5 135/3/5 137/3/5
f 139/3/5 135/3/5 138/3/5
f 140/3/5 138/3/5 136/3/5
f 140/1/5 139/1/5 138/1/5
f 141/1/5 139/1/5 140/1/5
f 142/3/5 140/3/5 136/3/5
f 142/3/5 141/3/5 140/3/5
f 143/3/5 141/3/5 142/3/5
f 144/3/5 136/3/5 132/3/5
f 144/3/5 142/3/5 136/3/5
f 145/3/5 142/3/5 144/3/5
f 146/1/5 143/1/5 142/1/5
f 146/3/5 142/3/5 145/3/5
f 147/1/5 143/1/5 146/1/5
f 148/4/5 132/4/5 131/4/5
f 149/3/5 144/3/5 132/3/5
f 149/4/5 132/4/5 148/4/5
f 150/1/5 145/1/5 144/1/5
f 150/3/5 144/3/5 149/3/5
f 151/3/5 146/3/5 145/3/5
f 151/1/5 145/1/5 150/1/5
f 151/3/5 147/3/5 146/3/5
f 152/3/5 147/3/5 151/3/5
f 153/2/6 154/2/6 157/2/6
f 157/2/6 154/2/6 158/2/6
f 153/2/6 157/2/6 159/2/6
f 157/4/6 158/4/6 159/4/6
f 158/2/6 154/2/6 160/2/6
f 159/4/6 158/4/6 160/4/6
f 160/2/6 154/2/6 161/2/6
f 154/3/6 155/3/6 162/3/6
f 161/2/6 154/2/6 162/2/6
f 155/1/6 156/1/6 163/1/6
f 162/3/6 155/3/6 163/3/6
f 163/1/6 156/1/6 164/1/6
f 164/1/6 156/1/6 165/1/6
f 162/1/6 163/1/6 166/1/6
f 163/1/6 164/1/6 166/1/6
f 164/3/6 165/3/6 167/3/6
f 166/1/6 164/1/6 167/1/6
f 160/2/6 161/2/6 168/2/6
f 159/2/6 160/2/6 168/2/6
f 168/2/6 161/2/6 169/2/6
f 169/2/6 161/2/6 170/2/6
f 161/3/6 162/3/6 171/3/6
f 170/2/6 161/2/6 171/2/6
f 167/3/6 165/3/6 172/3/6
f 166/3/6 167/3/6 172/3/6
f 165/1/6 156/1/6 173/1/6
f 172/3/6 165/3/6 173/3/6
f 159/2/6 168/2/6 174/2/6
f 174/2/6 168/2/6 175/2/6
f 168/6/6 169/6/6 176/6/6
f 175/2/6 168/2/6 176/2/6
f 169/2/6 170/2/6 177/2/6
f 176/6/6 169/6/6 177/6/6
f 170/6/6 171/6/6 178/6/6
f 177/2/6 170/2/6 178/2/6
f 171/3/6 162/3/6 179/3/6
f 178/6/6 171/6/6 179/6/6
f 166/3/6 172/3/6 180/3/6
f 162/1/6 166/1/6 180/1/6
f 172/1/6 173/1/6 181/1/6
f 180/3/6 172/3/6 181/3/6
f 173/1/6 156/1/6 182/1/6
f 181/1/6 173/1/6 182/1/6
f 182/1/6 156/1/6 183/1/6
f 174/6/6 175/6/6 184/6/6
f 159/2/6 174/2/6 184/2/6
f 175/2/6 176/2/6 185/2/6
f 184/6/6 175/6/6 185/6/6
f 176/2/6 177/2/6 185/2/6
f 177/6/6 178/6/6 186/6/6
f 185/2/6 177/2/6 186/2/6
f 178/2/6 179/2/6 187/2/6
f 186/6/6 178/6/6 187/6/6
f 181/1/6 182/1/6 188/1/6
f 179/3/6 162/3/6 188/3/6
f 180/1/6 181/1/6 188/1/6
f 162/1/6 180/1/6 188/1/6
f 188/1/6 182/1/6 189/1/6
f 182/3/6 183/3/6 190/3/6
f 189/1/6 182/1/6 190/1/6
f 183/1/6 156/1/6 191/1/6
f 190/3/6 183/3/6 191/3/6
f 159/2/6 184/2/6 192/2/6
f 184/2/6 185/2/6 192/2/6
f 153/2/6 159/2/6 192/2/6
f 186/2/6 187/2/6 192/2/6
f 185/2/6 186/2/6 192/2/6
f 192/2/6 187/2/6 193/2/6
f 193/2/6 187/2/6 194/2/6
f 194/2/6 187/2/6 195/2/6
f 179/3/6 188/3/6 196/3/6
f 195/2/6 187/2/6 196/2/6
f 187/2/6 179/2/6 196/2/6
f 188/3/6 189/3/6 196/3/6
f 190/1/6 191/1/6 197/1/6
f 196/3/6 189/3/6 197/3/6
f 189/1/6 190/1/6 197/1/6
f 197/1/6 191/1/6 198/1/6
f 153/2/6 192/2/6 199/2/6
f 192/4/6 193/4/6 199/4/6
f 193/2/6 194/2/6 200/2/6
f 199/4/6 193/4/6 200/4/6
f 194/4/6 195/4/6 201/4/6
f 200/2/6 194/2/6 201/2/6
f 195/2/6 196/2/6 202/2/6
f 201/4/6 195/4/6 202/4/6
f 196/2/6 197/2/6 202/2/6
f 197/3/6 198/3/6 203/3/6
f 202/2/6 197/2/6 203/2/6
f 198/1/6 191/1/6 204/1/6
f 203/3/6 198/3/6 204/3/6
f 204/1/6 191/1/6 205/1/6
f 205/1/6 191/1/6 206/1/6
f 206/1/6 191/1/6 207/1/6
f 200/4/6 201/4/6 208/4/6
f 199/2/6 200/2/6 208/2/6
f 202/2/6 203/2/6 209/2/6
f 208/4/6 201/4/6 209/4/6
f 201/2/6 202/2/6 209/2/6
f 203/2/6 204/2/6 209/2/6
f 209/2/6 204/2/6 210/2/6
f 204/3/6 205/3/6 211/3/6
f 210/2/6 204/2/6 211/2/6
f 205/1/6 206/1/6 212/1/6
f 211/3/6 205/3/6 212/3/6
f 212/1/6 206/1/6 213/1/6
f 206/3/6 207/3/6 214/3/6
f 213/1/6 206/1/6 214/1/6
f 207/1/6 191/1/6 215/1/6
f 214/3/6 207/3/6 215/3/6
f 215/1/6 191/1/6 216/1/6
f 209/2/6 210/2/6 217/2/6
f 208/2/6 209/2/6 217/2/6
f 217/2/6 210/2/6 218/2/6
f 218/2/6 210/2/6 219/2/6
f 219/2/6 210/2/6 220/2/6
f 210/3/6 211/3/6 221/3/6
f 212/1/6 213/1/6 222/1/6
f 221/3/6 211/3/6 222/3/6
f 211/1/6 212/1/6 222/1/6
f 208/2/6 217/2/6 223/2/6
f 217/4/6 218/4/6 223/4/6
f 223/4/6 218/4/6 224/4/6
f 218/2/6 219/2/6 225/2/6
f 224/4/6 218/4/6 225/4/6
f 219/4/6 220/4/6 226/4/6
f 225/2/6 219/2/6 226/2/6
f 226/4/6 220/4/6 227/4/6
f 220/2/6 210/2/6 228/2/6
f 227/4/6 220/4/6 228/4/6
f 213/3/6 214/3/6 229/3/6
f 222/1/6 213/1/6 229/1/6
f 221/1/6 222/1/6 229/1/6
f 214/2/6 215/2/6 230/2/6
f 229/3/6 214/3/6 230/3/6
f 215/3/6 216/3/6 231/3/6
f 230/2/6 215/2/6 231/2/6
f 216/1/6 191/1/6 232/1/6
f 231/3/6 216/3/6 232/3/6
f 226/4/6 227/4/6 233/4/6
f 224/4/6 225/4/6 233/4/6
f 225/4/6 226/4/6 233/4/6
f 223/2/6 224/2/6 233/2/6
f 233/4/6 227/4/6 234/4/6
f 234/4/6 227/4/6 235/4/6
f 227/2/6 228/2/6 236/2/6
f 235/4/6 227/4/6 236/4/6
f 228/2/6 210/2/6 237/2/6
f 236/2/6 228/2/6 237/2/6
f 210/3/6 221/3/6 238/3/6
f 237/2/6 210/2/6 238/2/6
f 229/1/6 230/1/6 239/1/6
f 238/3/6 221/3/6 239/3/6
f 221/1/6 229/1/6 239/1/6
f 239/1/6 230/1/6 240/1/6
f 240/1/6 230/1/6 241/1/6
f 241/1/6 230/1/6 242/1/6
f 230/3/6 231/3/6 243/3/6
f 242/1/6 230/1/6 243/1/6
f 231/1/6 232/1/6 244/1/6
f 243/3/6 231/3/6 244/3/6
f 233/2/6 234/2/6 245/2/6
f 234/4/6 235/4/6 245/4/6
f 235/2/6 236/2/6 246/2/6
f 245/4/6 235/4/6 246/4/6
f 236/2/6 237/2/6 246/2/6
f 237/4/6 238/4/6 247/4/6
f 246/2/6 237/2/6 247/2/6
f 238/2/6 239/2/6 248/2/6
f 247/4/6 238/4/6 248/4/6
f 239/3/6 240/3/6 249/3/6
f 248/2/6 239/2/6 249/2/6
f 240/1/6 241/1/6 250/1/6
f 249/3/6 240/3/6 250/3/6
f 241/3/6 242/3/6 251/3/6
f 250/1/6 241/1/6 251/1/6
f 242/1/6 243/1/6 252/1/6
f 251/3/6 242/3/6 252/3/6
f 243/1/6 244/1/6 252/1/6
f 245/2/6 246/2/6 253/2/6
f 247/2/6 248/2/6 253/2/6
f 246/2/6 247/2/6 253/2/6
f 253/2/6 248/2/6 254/2/6
f 254/2/6 248/2/6 255/2/6
f 248/3/6 249/3/6 256/3/6
f 255/2/6 248/2/6 256/2/6
f 249/1/6 250/1/6 257/1/6
f 256/3/6 249/3/6 257/3/6
f 250/1/6 251/1/6 257/1/6
f 251/1/6 252/1/6 257/1/6
f 252/1/6 244/1/6 258/1/6
f 257/1/6 252/1/6 258/1/6
f 244/1/6 232/1/6 259/1/6
f 258/1/6 244/1/6 259/1/6
f 253/4/6 254/4/6 260/4/6
f 245/2/6 253/2/6 260/2/6
f 254/2/6 255/2/6 261/2/6
f 260/4/6 254/4/6 261/4/6
f 255/3/6 256/3/6 262/3/6
f 261/2/6 255/2/6 262/2/6
f 256/1/6 257/1/6 263/1/6
f 262/3/6 256/3/6 263/3/6
f 257/1/6 258/1/6 263/1/6
f 263/1/6 258/1/6 264/1/6
f 258/5/6 259/5/6 265/5/6
f 264/1/6 258/1/6 265/1/6
f 259/1/6 232/1/6 266/1/6
f 265/5/6 259/5/6 266/5/6
f 260/2/6 261/2/6 267/2/6
f 261/2/6 262/2/6 267/2/6
f 263/3/6 264/3/6 267/3/6
f 262/2/6 263/2/6 267/2/6
f 265/1/6 266/1/6 268/1/6
f 267/3/6 264/3/6 268/3/6
f 264/1/6 265/1/6 268/1/6
f 268/1/6 266/1/6 269/1/6
f 233/2/6 245/2/6 270/2/6
f 245/2/6 260/2/6 270/2/6
f 199/2/6 208/2/6 270/2/6
f 267/2/6 268/2/6 270/2/6
f 223/2/6 233/2/6 270/2/6
f 208/2/6 223/2/6 270/2/6
f 260/2/6 267/2/6 270/2/6
f 270/2/6 268/2/6 271/2/6
f 271/2/6 268/2/6 272/2/6
f 268/3/6 269/3/6 273/3/6
f 272/2/6 268/2/6 273/2/6
f 269/1/6 266/1/6 274/1/6
f 273/3/6 269/3/6 274/3/6
f 191/1/6 156/1/6 275/1/6
f 274/1/6 266/1/6 275/1/6
f 266/1/6 232/1/6 275/1/6
f 232/1/6 191/1/6 275/1/6
f 275/1/6 156/1/6 276/1/6
f 153/2/6 199/2/6 277/2/6
f 199/2/6 270/2/6 277/2/6
f 270/4/6 271/4/6 278/4/6
f 277/2/6 270/2/6 278/2/6
f 271/2/6 272/2/6 279/2/6
f 279/2/6 272/2/6 280/2/6
f 280/2/6 272/2/6 281/2/6
f 272/3/6 273/3/6 282/3/6
f 281/2/6 272/2/6 282/2/6
f 273/1/6 274/1/6 283/1/6
f 282/3/6 273/3/6 283/3/6
f 274/1/6 275/1/6 283/1/6
f 283/1/6 275/1/6 284/1/6
f 284/1/6 275/1/6 285/1/6
f 285/1/6 275/1/6 286/1/6
f 275/3/6 276/3/6 287/3/6
f 286/1/6 275/1/6 287/1/6
f 287/3/6 276/3/6 288/3/6
f 278/4/6 271/4/6 289/4/6
f 277/6/6 278/6/6 289/6/6
f 271/2/6 279/2/6 290/2/6
f 289/4/6 271/4/6 290/4/6
f 279/6/6 280/6/6 291/6/6
f 290/2/6 279/2/6 291/2/6
f 285/1/6 286/1/6 292/1/6
f 286/3/6 287/3/6 292/3/6
f 287/1/6 288/1/6 293/1/6
f 292/3/6 287/3/6 293/3/6
f 153/2/6 277/2/6 294/2/6
f 289/6/6 290/6/6 294/6/6
f 277/6/6 289/6/6 294/6/6
f 290/6/6 291/6/6 294/6/6
f 294/6/6 291/6/6 295/6/6
f 291/6/6 280/6/6 296/6/6
f 295/6/6 291/6/6 296/6/6
f 280/2/6 281/2/6 297/2/6
f 296/6/6 280/6/6 297/6/6
f 297/2/6 281/2/6 298/2/6
f 298/2/6 281/2/6 299/2/6
f 299/2/6 281/2/6 300/2/6
f 300/2/6 281/2/6 301/2/6
f 284/3/6 285/3/6 302/3/6
f 282/1/6 283/1/6 302/1/6
f 283/1/6 284/1/6 302/1/6
f 292/1/6 293/1/6 303/1/6
f 302/3/6 285/3/6 303/3/6
f 285/1/6 292/1/6 303/1/6
f 295/6/6 296/6/6 304/6/6
f 294/2/6 295/2/6 304/2/6
f 296/2/6 297/2/6 305/2/6
f 304/6/6 296/6/6 305/6/6
f 297/2/6 298/2/6 305/2/6
f 298/4/6 299/4/6 306/4/6
f 305/2/6 298/2/6 306/2/6
f 299/2/6 300/2/6 307/2/6
f 306/4/6 299/4/6 307/4/6
f 300/4/6 301/4/6 308/4/6
f 307/2/6 300/2/6 308/2/6
f 301/2/6 281/2/6 309/2/6
f 308/4/6 301/4/6 309/4/6
f 304/2/6 305/2/6 310/2/6
f 307/4/6 308/4/6 310/4/6
f 306/2/6 307/2/6 310/2/6
f 305/2/6 306/2/6 310/2/6
f 308/2/6 309/2/6 311/2/6
f 310/4/6 308/4/6 311/4/6
f 281/3/6 282/3/6 312/3/6
f 311/2/6 309/2/6 312/2/6
f 309/2/6 281/2/6 312/2/6
f 302/1/6 303/1/6 313/1/6
f 312/3/6 282/3/6 313/3/6
f 282/1/6 302/1/6 313/1/6
f 313/1/6 303/1/6 314/1/6
f 310/2/6 311/2/6 315/2/6
f 311/2/6 312/2/6 315/2/6
f 294/2/6 304/2/6 315/2/6
f 312/2/6 313/2/6 315/2/6
f 304/2/6 310/2/6 315/2/6
f 153/2/6 294/2/6 315/2/6
f 313/3/6 314/3/6 316/3/6
f 315/2/6 313/2/6 316/2/6
f 314/1/6 303/1/6 317/1/6
f 316/3/6 314/3/6 317/3/6
f 303/1/6 293/1/6 318/1/6
f 317/1/6 303/1/6 318/1/6
f 293/1/6 288/1/6 318/1/6
