# MagicaVoxel @ Ephtracy

# group
o 

# material
mtllib Package 01 Necro Dungeon-83.mtl
usemtl palette

# normals
vn -1 0 0
vn 1 0 0
vn 0 0 1
vn 0 0 -1
vn 0 -1 0
vn 0 1 0

# texcoords
vt 0.00585938 0.5
vt 0.0214844 0.5
vt 0.0371094 0.5
vt 0.0527344 0.5
vt 0.0839844 0.5

# verts
v -10.4 0 11.4
v -10.4 0 8.9
v -10.4 0.1 11.1
v -10.4 0.1 10.7
v -10.4 0.2 10.5
v -10.4 0.2 10.2
v -10.4 0.2 9.8
v -10.4 0.2 9.7
v -10.4 0.2 9.4
v -10.4 0.2 9
v -10.4 0.3 11.4
v -10.4 0.3 11.1
v -10.4 0.3 10.7
v -10.4 0.3 10.5
v -10.4 0.3 10.2
v -10.4 0.3 9.8
v -10.4 0.3 9.7
v -10.4 0.3 9.4
v -10.4 0.3 9
v -10.4 0.3 8.9
v -10.4 0.4 11.4
v -10.4 0.4 8.9
v -7.9 0 11.4
v -7.9 0 10.1
v -7.9 0 8.9
v -7.9 0.1 11.3
v -7.9 0.1 11.2
v -7.9 0.2 11.3
v -7.9 0.2 11.2
v -7.9 0.2 11.1
v -7.9 0.2 11
v -7.9 0.2 10.9
v -7.9 0.2 10.8
v -7.9 0.2 10.4
v -7.9 0.2 10.3
v -7.9 0.2 10.1
v -7.9 0.2 9.7
v -7.9 0.2 9.4
v -7.9 0.2 9.3
v -7.9 0.3 11.4
v -7.9 0.3 11.1
v -7.9 0.3 11
v -7.9 0.3 10.9
v -7.9 0.3 10.8
v -7.9 0.3 10.4
v -7.9 0.3 10.3
v -7.9 0.3 10.2
v -7.9 0.3 9.7
v -7.9 0.3 9.4
v -7.9 0.3 9.3
v -7.9 0.3 8.9
v -7.9 0.4 11.4
v -7.9 0.4 10.2
v -7.9 0.4 10.1
v -7.9 0.4 8.9
v -10.4 0 11.4
v -10.4 0.3 11.4
v -10.4 0.4 11.4
v -10.1 0.2 11.4
v -10.1 0.3 11.4
v -9.7 0.2 11.4
v -9.7 0.3 11.4
v -9.6 0.2 11.4
v -9.6 0.3 11.4
v -9.5 0.2 11.4
v -9.5 0.3 11.4
v -9.2 0 11.4
v -9.2 0.3 11.4
v -9.1 0.3 11.4
v -9.1 0.4 11.4
v -9 0.2 11.4
v -9 0.4 11.4
v -8.9 0.2 11.4
v -8.9 0.3 11.4
v -8.8 0.2 11.4
v -8.8 0.3 11.4
v -8.7 0.2 11.4
v -8.7 0.3 11.4
v -8.5 0 11.4
v -8.5 0.1 11.4
v -8.4 0 11.4
v -8.4 0.1 11.4
v -8.2 0.2 11.4
v -8.2 0.3 11.4
v -8.1 0.2 11.4
v -8.1 0.3 11.4
v -7.9 0 11.4
v -7.9 0.3 11.4
v -7.9 0.4 11.4
v -10.4 0 8.9
v -10.4 0.3 8.9
v -10.4 0.4 8.9
v -10.2 0.2 8.9
v -10.2 0.3 8.9
v -10.1 0.2 8.9
v -10.1 0.3 8.9
v -9.3 0.2 8.9
v -9.3 0.3 8.9
v -9.2 0.1 8.9
v -9.2 0.2 8.9
v -9 0.1 8.9
v -9 0.3 8.9
v -8.6 0.2 8.9
v -8.6 0.3 8.9
v -8.5 0.2 8.9
v -8.5 0.3 8.9
v -8.3 0.2 8.9
v -8.3 0.3 8.9
v -8 0.2 8.9
v -8 0.3 8.9
v -7.9 0 8.9
v -7.9 0.3 8.9
v -7.9 0.4 8.9
v -10.4 0 11.4
v -9.2 0 11.4
v -8.5 0 11.4
v -8.4 0 11.4
v -7.9 0 11.4
v -8.5 0 11.3
v -8.4 0 11.3
v -9.3 0 10.2
v -9.2 0 10.2
v -9.1 0 10.2
v -8 0 10.2
v -9.4 0 10.1
v -9.3 0 10.1
v -8 0 10.1
v -7.9 0 10.1
v -9.4 0 9.9
v -9.1 0 9.9
v -10.4 0 8.9
v -7.9 0 8.9
v -10.4 0.4 11.4
v -9.1 0.4 11.4
v -9 0.4 11.4
v -7.9 0.4 11.4
v -10 0.4 11.3
v -9.9 0.4 11.3
v -8.4 0.4 11.3
v -8.3 0.4 11.3
v -10 0.4 11.2
v -9.9 0.4 11.2
v -9.2 0.4 11.2
v -9.1 0.4 11.2
v -9 0.4 11.2
v -8.4 0.4 11.2
v -8.3 0.4 11.2
v -9.5 0.4 11
v -9.4 0.4 11
v -9.3 0.4 11
v -9.2 0.4 11
v -8.9 0.4 11
v -8.8 0.4 11
v -9.8 0.4 10.9
v -9.7 0.4 10.9
v -9.5 0.4 10.9
v -9.4 0.4 10.9
v -9.3 0.4 10.9
v -9.2 0.4 10.9
v -8.9 0.4 10.9
v -8.8 0.4 10.9
v -9.8 0.4 10.8
v -9.7 0.4 10.8
v -9.4 0.4 10.8
v -9.3 0.4 10.8
v -9.1 0.4 10.8
v -9 0.4 10.8
v -10.3 0.4 10.7
v -10.2 0.4 10.7
v -10.1 0.4 10.7
v -10 0.4 10.7
v -9.2 0.4 10.7
v -9 0.4 10.7
v -8.9 0.4 10.7
v -8.6 0.4 10.7
v -8.5 0.4 10.7
v -10.3 0.4 10.6
v -10.2 0.4 10.6
v -10.1 0.4 10.6
v -10 0.4 10.6
v -9 0.4 10.6
v -8.9 0.4 10.6
v -8.8 0.4 10.6
v -8.6 0.4 10.6
v -8.5 0.4 10.6
v -10.2 0.4 10.5
v -10.1 0.4 10.5
v -9.2 0.4 10.5
v -8.9 0.4 10.5
v -8.8 0.4 10.5
v -8.6 0.4 10.5
v -8.5 0.4 10.5
v -10 0.4 10.4
v -9.8 0.4 10.4
v -9.6 0.4 10.4
v -9.4 0.4 10.4
v -9.1 0.4 10.4
v -8.9 0.4 10.4
v -8.7 0.4 10.4
v -8.6 0.4 10.4
v -8.5 0.4 10.4
v -8.4 0.4 10.4
v -10 0.4 10.3
v -9.9 0.4 10.3
v -9.8 0.4 10.3
v -9.6 0.4 10.3
v -9.5 0.4 10.3
v -9.4 0.4 10.3
v -9 0.4 10.3
v -8.7 0.4 10.3
v -8.6 0.4 10.3
v -8.3 0.4 10.3
v -8.2 0.4 10.3
v -9.9 0.4 10.2
v -9.8 0.4 10.2
v -9.6 0.4 10.2
v -9.5 0.4 10.2
v -9.2 0.4 10.2
v -9.1 0.4 10.2
v -9 0.4 10.2
v -8.8 0.4 10.2
v -8.5 0.4 10.2
v -8.4 0.4 10.2
v -8.3 0.4 10.2
v -8.2 0.4 10.2
v -7.9 0.4 10.2
v -9.8 0.4 10.1
v -9.6 0.4 10.1
v -9.1 0.4 10.1
v -9 0.4 10.1
v -8.8 0.4 10.1
v -8.7 0.4 10.1
v -8.4 0.4 10.1
v -8.3 0.4 10.1
v -8.2 0.4 10.1
v -7.9 0.4 10.1
v -8.3 0.4 10
v -8.2 0.4 10
v -8.1 0.4 10
v -8 0.4 10
v -9.5 0.4 9.9
v -9.4 0.4 9.9
v -8.4 0.4 9.9
v -8.3 0.4 9.9
v -8.2 0.4 9.9
v -8.1 0.4 9.9
v -8 0.4 9.9
v -9.5 0.4 9.8
v -9.4 0.4 9.8
v -8.4 0.4 9.8
v -8.3 0.4 9.8
v -9 0.4 9.6
v -8.9 0.4 9.6
v -8.8 0.4 9.6
v -8.7 0.4 9.6
v -10.2 0.4 9.5
v -10.1 0.4 9.5
v -9 0.4 9.5
v -8.9 0.4 9.5
v -8.8 0.4 9.5
v -8.7 0.4 9.5
v -10.3 0.4 9.4
v -10.2 0.4 9.4
v -10 0.4 9.4
v -9.9 0.4 9.4
v -8.9 0.4 9.4
v -8.8 0.4 9.4
v -10.2 0.4 9.3
v -10.1 0.4 9.3
v -10 0.4 9.3
v -8.4 0.4 9.3
v -8.3 0.4 9.3
v -8.2 0.4 9.3
v -8.1 0.4 9.3
v -10.3 0.4 9.2
v -10.2 0.4 9.2
v -10 0.4 9.2
v -9.9 0.4 9.2
v -9.8 0.4 9.2
v -9.7 0.4 9.2
v -9.6 0.4 9.2
v -9.5 0.4 9.2
v -8.4 0.4 9.2
v -8.3 0.4 9.2
v -8.2 0.4 9.2
v -8.1 0.4 9.2
v -10.2 0.4 9.1
v -10 0.4 9.1
v -9.8 0.4 9.1
v -9.7 0.4 9.1
v -9.6 0.4 9.1
v -9.5 0.4 9.1
v -8.3 0.4 9.1
v -8.2 0.4 9.1
v -9.7 0.4 9
v -9.6 0.4 9
v -10.4 0.4 8.9
v -7.9 0.4 8.9

# faces
f 3/4/1 2/4/1 1/4/1
f 4/4/1 2/4/1 3/4/1
f 5/4/1 2/4/1 4/4/1
f 6/4/1 2/4/1 5/4/1
f 7/4/1 2/4/1 6/4/1
f 8/4/1 2/4/1 7/4/1
f 9/4/1 2/4/1 8/4/1
f 10/4/1 2/4/1 9/4/1
f 11/4/1 3/4/1 1/4/1
f 12/2/1 4/2/1 3/2/1
f 12/4/1 3/4/1 11/4/1
f 13/4/1 5/4/1 4/4/1
f 13/2/1 4/2/1 12/2/1
f 14/2/1 6/2/1 5/2/1
f 14/4/1 5/4/1 13/4/1
f 15/4/1 7/4/1 6/4/1
f 15/2/1 6/2/1 14/2/1
f 16/2/1 8/2/1 7/2/1
f 16/4/1 7/4/1 15/4/1
f 17/4/1 9/4/1 8/4/1
f 17/2/1 8/2/1 16/2/1
f 18/2/1 10/2/1 9/2/1
f 18/4/1 9/4/1 17/4/1
f 19/4/1 2/4/1 10/4/1
f 19/2/1 10/2/1 18/2/1
f 20/4/1 2/4/1 19/4/1
f 21/2/1 18/2/1 17/2/1
f 21/2/1 12/2/1 11/2/1
f 21/2/1 20/2/1 19/2/1
f 21/2/1 19/2/1 18/2/1
f 21/2/1 17/2/1 16/2/1
f 21/2/1 16/2/1 15/2/1
f 21/2/1 15/2/1 14/2/1
f 21/2/1 14/2/1 13/2/1
f 21/2/1 13/2/1 12/2/1
f 22/2/1 20/2/1 21/2/1
f 23/3/2 24/3/2 26/3/2
f 26/3/2 24/3/2 27/3/2
f 23/3/2 26/3/2 28/3/2
f 26/1/2 27/1/2 28/1/2
f 27/3/2 24/3/2 29/3/2
f 28/1/2 27/1/2 29/1/2
f 29/3/2 24/3/2 30/3/2
f 30/3/2 24/3/2 31/3/2
f 31/3/2 24/3/2 32/3/2
f 32/3/2 24/3/2 33/3/2
f 33/3/2 24/3/2 34/3/2
f 34/3/2 24/3/2 35/3/2
f 24/4/2 25/4/2 36/4/2
f 35/3/2 24/3/2 36/3/2
f 36/4/2 25/4/2 37/4/2
f 37/4/2 25/4/2 38/4/2
f 38/4/2 25/4/2 39/4/2
f 23/3/2 28/3/2 40/3/2
f 28/3/2 29/3/2 40/3/2
f 29/3/2 30/3/2 40/3/2
f 30/1/2 31/1/2 41/1/2
f 40/3/2 30/3/2 41/3/2
f 31/3/2 32/3/2 42/3/2
f 41/1/2 31/1/2 42/1/2
f 32/1/2 33/1/2 43/1/2
f 42/3/2 32/3/2 43/3/2
f 33/3/2 34/3/2 44/3/2
f 43/1/2 33/1/2 44/1/2
f 34/1/2 35/1/2 45/1/2
f 44/3/2 34/3/2 45/3/2
f 35/3/2 36/3/2 46/3/2
f 45/1/2 35/1/2 46/1/2
f 46/3/2 36/3/2 47/3/2
f 37/4/2 38/4/2 48/4/2
f 36/2/2 37/2/2 48/2/2
f 38/2/2 39/2/2 49/2/2
f 48/4/2 38/4/2 49/4/2
f 39/4/2 25/4/2 50/4/2
f 49/2/2 39/2/2 50/2/2
f 50/4/2 25/4/2 51/4/2
f 43/1/2 44/1/2 52/1/2
f 40/1/2 41/1/2 52/1/2
f 41/1/2 42/1/2 52/1/2
f 42/1/2 43/1/2 52/1/2
f 45/1/2 46/1/2 52/1/2
f 46/1/2 47/1/2 52/1/2
f 44/1/2 45/1/2 52/1/2
f 47/3/2 36/3/2 53/3/2
f 52/1/2 47/1/2 53/1/2
f 48/2/2 49/2/2 54/2/2
f 53/3/2 36/3/2 54/3/2
f 36/2/2 48/2/2 54/2/2
f 49/2/2 50/2/2 54/2/2
f 50/2/2 51/2/2 54/2/2
f 54/2/2 51/2/2 55/2/2
f 59/4/3 57/4/3 56/4/3
f 60/2/3 58/2/3 57/2/3
f 60/4/3 57/4/3 59/4/3
f 61/4/3 59/4/3 56/4/3
f 61/2/3 60/2/3 59/2/3
f 62/2/3 58/2/3 60/2/3
f 62/2/3 60/2/3 61/2/3
f 63/4/3 61/4/3 56/4/3
f 63/4/3 62/4/3 61/4/3
f 64/2/3 58/2/3 62/2/3
f 64/4/3 62/4/3 63/4/3
f 65/4/3 63/4/3 56/4/3
f 65/2/3 64/2/3 63/2/3
f 66/2/3 58/2/3 64/2/3
f 66/2/3 64/2/3 65/2/3
f 67/4/3 65/4/3 56/4/3
f 67/4/3 66/4/3 65/4/3
f 68/2/3 58/2/3 66/2/3
f 68/4/3 66/4/3 67/4/3
f 69/3/3 68/3/3 67/3/3
f 69/2/3 58/2/3 68/2/3
f 70/2/3 58/2/3 69/2/3
f 71/3/3 69/3/3 67/3/3
f 71/3/3 70/3/3 69/3/3
f 72/3/3 70/3/3 71/3/3
f 73/3/3 71/3/3 67/3/3
f 73/1/3 72/1/3 71/1/3
f 74/1/3 72/1/3 73/1/3
f 75/3/3 73/3/3 67/3/3
f 75/3/3 74/3/3 73/3/3
f 76/1/3 72/1/3 74/1/3
f 76/3/3 74/3/3 75/3/3
f 77/3/3 75/3/3 67/3/3
f 77/1/3 76/1/3 75/1/3
f 78/1/3 72/1/3 76/1/3
f 78/1/3 76/1/3 77/1/3
f 79/3/3 77/3/3 67/3/3
f 79/3/3 78/3/3 77/3/3
f 80/3/3 78/3/3 79/3/3
f 81/1/3 80/1/3 79/1/3
f 82/3/3 78/3/3 80/3/3
f 82/1/3 80/1/3 81/1/3
f 83/3/3 82/3/3 81/3/3
f 83/3/3 78/3/3 82/3/3
f 84/1/3 72/1/3 78/1/3
f 84/3/3 78/3/3 83/3/3
f 85/3/3 83/3/3 81/3/3
f 85/1/3 84/1/3 83/1/3
f 86/1/3 72/1/3 84/1/3
f 86/1/3 84/1/3 85/1/3
f 87/3/3 85/3/3 81/3/3
f 87/3/3 86/3/3 85/3/3
f 88/1/3 72/1/3 86/1/3
f 88/3/3 86/3/3 87/3/3
f 89/1/3 72/1/3 88/1/3
f 90/4/4 91/4/4 93/4/4
f 91/2/4 92/2/4 94/2/4
f 93/4/4 91/4/4 94/4/4
f 90/4/4 93/4/4 95/4/4
f 93/2/4 94/2/4 95/2/4
f 94/2/4 92/2/4 96/2/4
f 95/2/4 94/2/4 96/2/4
f 90/4/4 95/4/4 97/4/4
f 95/4/4 96/4/4 97/4/4
f 96/2/4 92/2/4 98/2/4
f 97/4/4 96/4/4 98/4/4
f 90/4/4 97/4/4 99/4/4
f 97/2/4 98/2/4 100/2/4
f 99/4/4 97/4/4 100/4/4
f 90/4/4 99/4/4 101/4/4
f 99/2/4 100/2/4 101/2/4
f 98/2/4 92/2/4 102/2/4
f 101/2/4 100/2/4 102/2/4
f 100/2/4 98/2/4 102/2/4
f 101/4/4 102/4/4 103/4/4
f 102/2/4 92/2/4 104/2/4
f 103/4/4 102/4/4 104/4/4
f 101/4/4 103/4/4 105/4/4
f 103/2/4 104/2/4 105/2/4
f 104/2/4 92/2/4 106/2/4
f 105/2/4 104/2/4 106/2/4
f 101/4/4 105/4/4 107/4/4
f 105/4/4 106/4/4 107/4/4
f 106/2/4 92/2/4 108/2/4
f 107/4/4 106/4/4 108/4/4
f 101/4/4 107/4/4 109/4/4
f 107/2/4 108/2/4 109/2/4
f 108/2/4 92/2/4 110/2/4
f 109/2/4 108/2/4 110/2/4
f 90/4/4 101/4/4 111/4/4
f 101/4/4 109/4/4 111/4/4
f 109/4/4 110/4/4 111/4/4
f 110/2/4 92/2/4 112/2/4
f 111/4/4 110/4/4 112/4/4
f 112/2/4 92/2/4 113/2/4
f 119/3/5 116/3/5 115/3/5
f 119/1/5 117/1/5 116/1/5
f 120/3/5 118/3/5 117/3/5
f 120/1/5 117/1/5 119/1/5
f 121/4/5 115/4/5 114/4/5
f 122/3/5 119/3/5 115/3/5
f 122/4/5 115/4/5 121/4/5
f 122/3/5 120/3/5 119/3/5
f 123/3/5 120/3/5 122/3/5
f 124/3/5 118/3/5 120/3/5
f 124/3/5 120/3/5 123/3/5
f 125/4/5 121/4/5 114/4/5
f 126/3/5 123/3/5 122/3/5
f 126/4/5 121/4/5 125/4/5
f 126/3/5 122/3/5 121/3/5
f 127/3/5 118/3/5 124/3/5
f 127/4/5 124/4/5 123/4/5
f 128/3/5 118/3/5 127/3/5
f 129/4/5 125/4/5 114/4/5
f 129/3/5 126/3/5 125/3/5
f 130/3/5 123/3/5 126/3/5
f 130/3/5 126/3/5 129/3/5
f 130/4/5 128/4/5 127/4/5
f 130/4/5 127/4/5 123/4/5
f 131/4/5 129/4/5 114/4/5
f 131/4/5 130/4/5 129/4/5
f 132/4/5 128/4/5 130/4/5
f 132/4/5 130/4/5 131/4/5
f 133/2/6 134/2/6 137/2/6
f 137/2/6 134/2/6 138/2/6
f 135/1/6 136/1/6 139/1/6
f 139/1/6 136/1/6 140/1/6
f 133/2/6 137/2/6 141/2/6
f 137/4/6 138/4/6 141/4/6
f 138/2/6 134/2/6 142/2/6
f 141/4/6 138/4/6 142/4/6
f 142/2/6 134/2/6 143/2/6
f 134/3/6 135/3/6 144/3/6
f 143/2/6 134/2/6 144/2/6
f 135/1/6 139/1/6 145/1/6
f 144/3/6 135/3/6 145/3/6
f 139/3/6 140/3/6 146/3/6
f 145/1/6 139/1/6 146/1/6
f 140/1/6 136/1/6 147/1/6
f 146/3/6 140/3/6 147/3/6
f 142/2/6 143/2/6 148/2/6
f 141/2/6 142/2/6 148/2/6
f 148/2/6 143/2/6 149/2/6
f 149/2/6 143/2/6 150/2/6
f 143/3/6 144/3/6 151/3/6
f 150/2/6 143/2/6 151/2/6
f 145/1/6 146/1/6 152/1/6
f 144/1/6 145/1/6 152/1/6
f 146/1/6 147/1/6 152/1/6
f 152/1/6 147/1/6 153/1/6
f 141/2/6 148/2/6 154/2/6
f 154/2/6 148/2/6 155/2/6
f 148/5/6 149/5/6 156/5/6
f 155/2/6 148/2/6 156/2/6
f 149/2/6 150/2/6 157/2/6
f 156/5/6 149/5/6 157/5/6
f 150/5/6 151/5/6 158/5/6
f 157/2/6 150/2/6 158/2/6
f 151/3/6 144/3/6 159/3/6
f 158/5/6 151/5/6 159/5/6
f 144/1/6 152/1/6 160/1/6
f 152/3/6 153/3/6 160/3/6
f 153/1/6 147/1/6 161/1/6
f 160/3/6 153/3/6 161/3/6
f 154/5/6 155/5/6 162/5/6
f 141/2/6 154/2/6 162/2/6
f 156/2/6 157/2/6 163/2/6
f 162/5/6 155/5/6 163/5/6
f 155/2/6 156/2/6 163/2/6
f 157/5/6 158/5/6 164/5/6
f 163/2/6 157/2/6 164/2/6
f 158/2/6 159/2/6 165/2/6
f 164/5/6 158/5/6 165/5/6
f 160/1/6 161/1/6 166/1/6
f 144/1/6 160/1/6 166/1/6
f 159/3/6 144/3/6 166/3/6
f 166/1/6 161/1/6 167/1/6
f 133/2/6 141/2/6 168/2/6
f 162/2/6 163/2/6 168/2/6
f 141/2/6 162/2/6 168/2/6
f 164/2/6 165/2/6 168/2/6
f 163/2/6 164/2/6 168/2/6
f 168/2/6 165/2/6 169/2/6
f 169/2/6 165/2/6 170/2/6
f 170/2/6 165/2/6 171/2/6
f 166/3/6 167/3/6 172/3/6
f 171/2/6 165/2/6 172/2/6
f 159/3/6 166/3/6 172/3/6
f 165/2/6 159/2/6 172/2/6
f 167/1/6 161/1/6 173/1/6
f 172/3/6 167/3/6 173/3/6
f 173/1/6 161/1/6 174/1/6
f 161/1/6 147/1/6 175/1/6
f 174/1/6 161/1/6 175/1/6
f 175/1/6 147/1/6 176/1/6
f 168/4/6 169/4/6 177/4/6
f 133/2/6 168/2/6 177/2/6
f 169/2/6 170/2/6 178/2/6
f 177/4/6 169/4/6 178/4/6
f 170/4/6 171/4/6 179/4/6
f 178/2/6 170/2/6 179/2/6
f 171/2/6 172/2/6 180/2/6
f 179/4/6 171/4/6 180/4/6
f 172/2/6 173/2/6 180/2/6
f 173/3/6 174/3/6 181/3/6
f 180/2/6 173/2/6 181/2/6
f 174/1/6 175/1/6 182/1/6
f 181/3/6 174/3/6 182/3/6
f 182/1/6 175/1/6 183/1/6
f 175/3/6 176/3/6 184/3/6
f 183/1/6 175/1/6 184/1/6
f 176/1/6 147/1/6 185/1/6
f 184/3/6 176/3/6 185/3/6
f 178/4/6 179/4/6 186/4/6
f 177/2/6 178/2/6 186/2/6
f 179/2/6 180/2/6 187/2/6
f 186/4/6 179/4/6 187/4/6
f 180/2/6 181/2/6 187/2/6
f 181/2/6 182/2/6 187/2/6
f 187/2/6 182/2/6 188/2/6
f 182/3/6 183/3/6 189/3/6
f 188/2/6 182/2/6 189/2/6
f 184/1/6 185/1/6 190/1/6
f 189/3/6 183/3/6 190/3/6
f 183/1/6 184/1/6 190/1/6
f 190/1/6 185/1/6 191/1/6
f 185/1/6 147/1/6 192/1/6
f 191/1/6 185/1/6 192/1/6
f 186/2/6 187/2/6 193/2/6
f 187/2/6 188/2/6 193/2/6
f 193/2/6 188/2/6 194/2/6
f 194/2/6 188/2/6 195/2/6
f 195/2/6 188/2/6 196/2/6
f 188/3/6 189/3/6 197/3/6
f 190/1/6 191/1/6 198/1/6
f 197/3/6 189/3/6 198/3/6
f 189/1/6 190/1/6 198/1/6
f 198/1/6 191/1/6 199/1/6
f 191/3/6 192/3/6 200/3/6
f 199/1/6 191/1/6 200/1/6
f 192/1/6 147/1/6 201/1/6
f 200/3/6 192/3/6 201/3/6
f 201/1/6 147/1/6 202/1/6
f 186/2/6 193/2/6 203/2/6
f 193/4/6 194/4/6 203/4/6
f 203/4/6 194/4/6 204/4/6
f 194/2/6 195/2/6 205/2/6
f 204/4/6 194/4/6 205/4/6
f 195/4/6 196/4/6 206/4/6
f 205/2/6 195/2/6 206/2/6
f 206/4/6 196/4/6 207/4/6
f 196/2/6 188/2/6 208/2/6
f 207/4/6 196/4/6 208/4/6
f 198/1/6 199/1/6 209/1/6
f 197/1/6 198/1/6 209/1/6
f 199/3/6 200/3/6 210/3/6
f 209/1/6 199/1/6 210/1/6
f 200/2/6 201/2/6 211/2/6
f 210/3/6 200/3/6 211/3/6
f 147/1/6 136/1/6 212/1/6
f 202/1/6 147/1/6 212/1/6
f 212/1/6 136/1/6 213/1/6
f 206/4/6 207/4/6 214/4/6
f 204/4/6 205/4/6 214/4/6
f 203/2/6 204/2/6 214/2/6
f 205/4/6 206/4/6 214/4/6
f 214/4/6 207/4/6 215/4/6
f 215/4/6 207/4/6 216/4/6
f 207/2/6 208/2/6 217/2/6
f 216/4/6 207/4/6 217/4/6
f 188/3/6 197/3/6 218/3/6
f 217/2/6 208/2/6 218/2/6
f 208/2/6 188/2/6 218/2/6
f 197/1/6 209/1/6 219/1/6
f 218/3/6 197/3/6 219/3/6
f 209/3/6 210/3/6 220/3/6
f 219/1/6 209/1/6 220/1/6
f 220/3/6 210/3/6 221/3/6
f 211/2/6 201/2/6 222/2/6
f 210/2/6 211/2/6 222/2/6
f 201/3/6 202/3/6 222/3/6
f 202/1/6 212/1/6 223/1/6
f 222/3/6 202/3/6 223/3/6
f 212/3/6 213/3/6 224/3/6
f 223/1/6 212/1/6 224/1/6
f 213/1/6 136/1/6 225/1/6
f 224/3/6 213/3/6 225/3/6
f 225/1/6 136/1/6 226/1/6
f 214/2/6 215/2/6 227/2/6
f 215/4/6 216/4/6 227/4/6
f 216/2/6 217/2/6 228/2/6
f 227/4/6 216/4/6 228/4/6
f 217/2/6 218/2/6 228/2/6
f 218/2/6 219/2/6 228/2/6
f 219/3/6 220/3/6 229/3/6
f 228/2/6 219/2/6 229/2/6
f 220/2/6 221/2/6 230/2/6
f 229/3/6 220/3/6 230/3/6
f 221/3/6 210/3/6 231/3/6
f 230/2/6 221/2/6 231/2/6
f 222/2/6 223/2/6 232/2/6
f 231/3/6 210/3/6 232/3/6
f 210/2/6 222/2/6 232/2/6
f 223/3/6 224/3/6 233/3/6
f 232/2/6 223/2/6 233/2/6
f 224/2/6 225/2/6 234/2/6
f 233/3/6 224/3/6 234/3/6
f 225/3/6 226/3/6 235/3/6
f 234/2/6 225/2/6 235/2/6
f 235/3/6 226/3/6 236/3/6
f 229/2/6 230/2/6 237/2/6
f 231/2/6 232/2/6 237/2/6
f 235/2/6 236/2/6 237/2/6
f 234/2/6 235/2/6 237/2/6
f 232/2/6 233/2/6 237/2/6
f 233/2/6 234/2/6 237/2/6
f 230/2/6 231/2/6 237/2/6
f 227/2/6 228/2/6 237/2/6
f 228/2/6 229/2/6 237/2/6
f 237/2/6 236/2/6 238/2/6
f 238/2/6 236/2/6 239/2/6
f 239/2/6 236/2/6 240/2/6
f 227/2/6 237/2/6 241/2/6
f 241/2/6 237/2/6 242/2/6
f 242/2/6 237/2/6 243/2/6
f 237/5/6 238/5/6 244/5/6
f 243/2/6 237/2/6 244/2/6
f 238/2/6 239/2/6 245/2/6
f 244/5/6 238/5/6 245/5/6
f 239/5/6 240/5/6 246/5/6
f 245/2/6 239/2/6 246/2/6
f 240/2/6 236/2/6 247/2/6
f 246/5/6 240/5/6 247/5/6
f 227/2/6 241/2/6 248/2/6
f 241/4/6 242/4/6 248/4/6
f 242/2/6 243/2/6 249/2/6
f 248/4/6 242/4/6 249/4/6
f 243/5/6 244/5/6 250/5/6
f 249/2/6 243/2/6 250/2/6
f 245/2/6 246/2/6 251/2/6
f 250/5/6 244/5/6 251/5/6
f 244/2/6 245/2/6 251/2/6
f 246/2/6 247/2/6 251/2/6
f 249/2/6 250/2/6 252/2/6
f 248/2/6 249/2/6 252/2/6
f 250/2/6 251/2/6 252/2/6
f 252/2/6 251/2/6 253/2/6
f 253/2/6 251/2/6 254/2/6
f 254/2/6 251/2/6 255/2/6
f 214/2/6 227/2/6 256/2/6
f 203/2/6 214/2/6 256/2/6
f 186/2/6 203/2/6 256/2/6
f 177/2/6 186/2/6 256/2/6
f 227/2/6 248/2/6 256/2/6
f 248/2/6 252/2/6 256/2/6
f 256/2/6 252/2/6 257/2/6
f 252/5/6 253/5/6 258/5/6
f 257/2/6 252/2/6 258/2/6
f 253/2/6 254/2/6 259/2/6
f 258/5/6 253/5/6 259/5/6
f 254/5/6 255/5/6 260/5/6
f 259/2/6 254/2/6 260/2/6
f 255/2/6 251/2/6 261/2/6
f 260/5/6 255/5/6 261/5/6
f 133/2/6 177/2/6 262/2/6
f 177/2/6 256/2/6 262/2/6
f 256/4/6 257/4/6 263/4/6
f 262/2/6 256/2/6 263/2/6
f 258/2/6 259/2/6 264/2/6
f 257/2/6 258/2/6 264/2/6
f 264/2/6 259/2/6 265/2/6
f 259/5/6 260/5/6 266/5/6
f 265/2/6 259/2/6 266/2/6
f 260/2/6 261/2/6 267/2/6
f 266/5/6 260/5/6 267/5/6
f 263/4/6 257/4/6 268/4/6
f 262/5/6 263/5/6 268/5/6
f 257/2/6 264/2/6 269/2/6
f 268/4/6 257/4/6 269/4/6
f 264/5/6 265/5/6 270/5/6
f 269/2/6 264/2/6 270/2/6
f 267/2/6 261/2/6 271/2/6
f 261/2/6 251/2/6 271/2/6
f 266/2/6 267/2/6 271/2/6
f 265/2/6 266/2/6 271/2/6
f 251/2/6 247/2/6 272/2/6
f 271/2/6 251/2/6 272/2/6
f 272/2/6 247/2/6 273/2/6
f 273/2/6 247/2/6 274/2/6
f 268/5/6 269/5/6 275/5/6
f 269/5/6 270/5/6 275/5/6
f 262/5/6 268/5/6 275/5/6
f 133/2/6 262/2/6 275/2/6
f 275/5/6 270/5/6 276/5/6
f 270/5/6 265/5/6 277/5/6
f 276/5/6 270/5/6 277/5/6
f 265/2/6 271/2/6 278/2/6
f 277/5/6 265/5/6 278/5/6
f 278/2/6 271/2/6 279/2/6
f 279/2/6 271/2/6 280/2/6
f 280/2/6 271/2/6 281/2/6
f 281/2/6 271/2/6 282/2/6
f 271/4/6 272/4/6 283/4/6
f 282/2/6 271/2/6 283/2/6
f 272/2/6 273/2/6 284/2/6
f 283/4/6 272/4/6 284/4/6
f 273/4/6 274/4/6 285/4/6
f 284/2/6 273/2/6 285/2/6
f 274/2/6 247/2/6 286/2/6
f 285/4/6 274/4/6 286/4/6
f 275/2/6 276/2/6 287/2/6
f 276/5/6 277/5/6 287/5/6
f 277/2/6 278/2/6 288/2/6
f 287/5/6 277/5/6 288/5/6
f 278/2/6 279/2/6 288/2/6
f 279/4/6 280/4/6 289/4/6
f 288/2/6 279/2/6 289/2/6
f 280/2/6 281/2/6 290/2/6
f 289/4/6 280/4/6 290/4/6
f 281/4/6 282/4/6 291/4/6
f 290/2/6 281/2/6 291/2/6
f 283/2/6 284/2/6 292/2/6
f 291/4/6 282/4/6 292/4/6
f 282/2/6 283/2/6 292/2/6
f 284/4/6 285/4/6 293/4/6
f 292/2/6 284/2/6 293/2/6
f 285/2/6 286/2/6 294/2/6
f 293/4/6 285/4/6 294/4/6
f 290/4/6 291/4/6 295/4/6
f 287/2/6 288/2/6 295/2/6
f 289/2/6 290/2/6 295/2/6
f 288/2/6 289/2/6 295/2/6
f 291/2/6 292/2/6 296/2/6
f 295/4/6 291/4/6 296/4/6
f 293/2/6 294/2/6 296/2/6
f 292/2/6 293/2/6 296/2/6
f 287/2/6 295/2/6 297/2/6
f 133/2/6 275/2/6 297/2/6
f 295/2/6 296/2/6 297/2/6
f 275/2/6 287/2/6 297/2/6
f 296/2/6 294/2/6 298/2/6
f 297/2/6 296/2/6 298/2/6
f 286/2/6 247/2/6 298/2/6
f 294/2/6 286/2/6 298/2/6
f 247/2/6 236/2/6 298/2/6
