# MagicaVoxel @ Ephtracy

# group
o 

# material
mtllib Package 01 Necro Dungeon-84.mtl
usemtl palette

# normals
vn -1 0 0
vn 1 0 0
vn 0 0 1
vn 0 0 -1
vn 0 -1 0
vn 0 1 0

# texcoords
vt 0.00585938 0.5
vt 0.0214844 0.5
vt 0.0371094 0.5
vt 0.0527344 0.5
vt 0.0683594 0.5
vt 0.0839844 0.5

# verts
v 7.1 0 0.9
v 7.1 0 -0.3
v 7.1 0 -1.6
v 7.1 0.1 0.6
v 7.1 0.1 0.2
v 7.1 0.2 0
v 7.1 0.2 -0.3
v 7.1 0.2 -0.4
v 7.1 0.2 -0.5
v 7.1 0.2 -0.6
v 7.1 0.2 -0.7
v 7.1 0.2 -0.9
v 7.1 0.2 -1
v 7.1 0.2 -1.4
v 7.1 0.2 -1.5
v 7.1 0.3 0.9
v 7.1 0.3 0.6
v 7.1 0.3 0.2
v 7.1 0.3 0
v 7.1 0.3 -0.5
v 7.1 0.3 -0.6
v 7.1 0.3 -0.7
v 7.1 0.3 -0.9
v 7.1 0.3 -1
v 7.1 0.3 -1.4
v 7.1 0.3 -1.5
v 7.1 0.3 -1.6
v 7.1 0.4 0.9
v 7.1 0.4 -0.3
v 7.1 0.4 -0.4
v 7.1 0.4 -1.6
v 9.6 0 0.9
v 9.6 0 -0.4
v 9.6 0 -1.6
v 9.6 0.1 0.8
v 9.6 0.1 0.7
v 9.6 0.1 -0.9
v 9.6 0.1 -1.3
v 9.6 0.2 0.8
v 9.6 0.2 0.7
v 9.6 0.2 0.6
v 9.6 0.2 0.5
v 9.6 0.2 0.4
v 9.6 0.2 0.3
v 9.6 0.2 -0.1
v 9.6 0.2 -0.2
v 9.6 0.2 -0.4
v 9.6 0.2 -0.7
v 9.6 0.3 0.9
v 9.6 0.3 0.6
v 9.6 0.3 0.5
v 9.6 0.3 0.4
v 9.6 0.3 0.3
v 9.6 0.3 -0.1
v 9.6 0.3 -0.2
v 9.6 0.3 -0.3
v 9.6 0.3 -0.7
v 9.6 0.3 -0.9
v 9.6 0.3 -1.3
v 9.6 0.3 -1.6
v 9.6 0.4 0.9
v 9.6 0.4 -0.3
v 9.6 0.4 -0.4
v 9.6 0.4 -1.6
v 7.1 0 0.9
v 7.1 0.3 0.9
v 7.1 0.4 0.9
v 7.4 0.2 0.9
v 7.4 0.3 0.9
v 7.8 0.2 0.9
v 7.8 0.3 0.9
v 7.9 0.2 0.9
v 7.9 0.3 0.9
v 8 0.2 0.9
v 8 0.3 0.9
v 8.3 0 0.9
v 8.3 0.3 0.9
v 8.4 0.3 0.9
v 8.4 0.4 0.9
v 8.5 0.2 0.9
v 8.5 0.4 0.9
v 8.6 0.2 0.9
v 8.6 0.3 0.9
v 8.7 0.2 0.9
v 8.7 0.3 0.9
v 8.8 0.2 0.9
v 8.8 0.3 0.9
v 9 0 0.9
v 9 0.1 0.9
v 9.1 0 0.9
v 9.1 0.1 0.9
v 9.3 0.2 0.9
v 9.3 0.3 0.9
v 9.4 0.2 0.9
v 9.4 0.3 0.9
v 9.6 0 0.9
v 9.6 0.3 0.9
v 9.6 0.4 0.9
v 7.1 0 -1.6
v 7.1 0.3 -1.6
v 7.1 0.4 -1.6
v 7.5 0.2 -1.6
v 7.5 0.3 -1.6
v 7.6 0.2 -1.6
v 7.6 0.3 -1.6
v 8.2 0.3 -1.6
v 8.2 0.4 -1.6
v 8.3 0.3 -1.6
v 8.3 0.4 -1.6
v 8.4 0 -1.6
v 8.4 0.3 -1.6
v 8.7 0.2 -1.6
v 8.7 0.3 -1.6
v 8.8 0.2 -1.6
v 8.8 0.3 -1.6
v 8.9 0.2 -1.6
v 8.9 0.3 -1.6
v 9.3 0.2 -1.6
v 9.3 0.3 -1.6
v 9.6 0 -1.6
v 9.6 0.3 -1.6
v 9.6 0.4 -1.6
v 7.1 0 0.9
v 8.3 0 0.9
v 9 0 0.9
v 9.1 0 0.9
v 9.6 0 0.9
v 9 0 0.8
v 9.1 0 0.8
v 7.1 0 -0.3
v 7.2 0 -0.3
v 8.2 0 -0.3
v 8.3 0 -0.3
v 8.4 0 -0.3
v 9.5 0 -0.3
v 7.2 0 -0.4
v 8.2 0 -0.4
v 9.5 0 -0.4
v 9.6 0 -0.4
v 7.1 0 -1.6
v 8.4 0 -1.6
v 9.6 0 -1.6
v 7.1 0.4 0.9
v 8.4 0.4 0.9
v 8.5 0.4 0.9
v 9.6 0.4 0.9
v 7.5 0.4 0.8
v 7.6 0.4 0.8
v 7.5 0.4 0.7
v 7.6 0.4 0.7
v 8.3 0.4 0.7
v 8.4 0.4 0.7
v 8.5 0.4 0.7
v 8 0.4 0.5
v 8.1 0.4 0.5
v 8.2 0.4 0.5
v 8.3 0.4 0.5
v 7.7 0.4 0.4
v 7.8 0.4 0.4
v 8 0.4 0.4
v 8.1 0.4 0.4
v 8.2 0.4 0.4
v 8.3 0.4 0.4
v 7.7 0.4 0.3
v 7.8 0.4 0.3
v 8.1 0.4 0.3
v 8.2 0.4 0.3
v 8.4 0.4 0.3
v 8.5 0.4 0.3
v 7.2 0.4 0.2
v 7.3 0.4 0.2
v 7.4 0.4 0.2
v 7.5 0.4 0.2
v 8.3 0.4 0.2
v 8.5 0.4 0.2
v 8.6 0.4 0.2
v 8.9 0.4 0.2
v 9 0.4 0.2
v 7.2 0.4 0.1
v 7.3 0.4 0.1
v 7.4 0.4 0.1
v 7.5 0.4 0.1
v 8.5 0.4 0.1
v 8.6 0.4 0.1
v 8.7 0.4 0.1
v 8.9 0.4 0.1
v 9 0.4 0.1
v 9.3 0.4 0.1
v 9.4 0.4 0.1
v 7.3 0.4 0
v 7.4 0.4 0
v 8.3 0.4 0
v 8.6 0.4 0
v 8.7 0.4 0
v 8.9 0.4 0
v 9 0.4 0
v 9.3 0.4 0
v 9.4 0.4 0
v 7.5 0.4 -0.1
v 7.7 0.4 -0.1
v 7.9 0.4 -0.1
v 8.1 0.4 -0.1
v 8.4 0.4 -0.1
v 8.6 0.4 -0.1
v 8.8 0.4 -0.1
v 8.9 0.4 -0.1
v 9 0.4 -0.1
v 9.1 0.4 -0.1
v 7.5 0.4 -0.2
v 7.6 0.4 -0.2
v 7.7 0.4 -0.2
v 7.9 0.4 -0.2
v 8 0.4 -0.2
v 8.1 0.4 -0.2
v 8.5 0.4 -0.2
v 8.8 0.4 -0.2
v 8.9 0.4 -0.2
v 9.2 0.4 -0.2
v 9.3 0.4 -0.2
v 7.1 0.4 -0.3
v 7.4 0.4 -0.3
v 7.5 0.4 -0.3
v 7.6 0.4 -0.3
v 7.7 0.4 -0.3
v 7.8 0.4 -0.3
v 7.9 0.4 -0.3
v 8 0.4 -0.3
v 8.3 0.4 -0.3
v 8.4 0.4 -0.3
v 8.5 0.4 -0.3
v 8.7 0.4 -0.3
v 9 0.4 -0.3
v 9.1 0.4 -0.3
v 9.2 0.4 -0.3
v 9.3 0.4 -0.3
v 9.6 0.4 -0.3
v 7.1 0.4 -0.4
v 7.4 0.4 -0.4
v 7.5 0.4 -0.4
v 7.6 0.4 -0.4
v 7.7 0.4 -0.4
v 7.8 0.4 -0.4
v 7.9 0.4 -0.4
v 8.4 0.4 -0.4
v 8.5 0.4 -0.4
v 8.7 0.4 -0.4
v 8.8 0.4 -0.4
v 9.1 0.4 -0.4
v 9.2 0.4 -0.4
v 9.3 0.4 -0.4
v 9.6 0.4 -0.4
v 7.4 0.4 -0.5
v 7.5 0.4 -0.5
v 7.6 0.4 -0.5
v 7.7 0.4 -0.5
v 7.8 0.4 -0.5
v 7.9 0.4 -0.5
v 8.1 0.4 -0.5
v 8.4 0.4 -0.5
v 9.2 0.4 -0.5
v 9.3 0.4 -0.5
v 9.4 0.4 -0.5
v 9.5 0.4 -0.5
v 7.7 0.4 -0.6
v 7.8 0.4 -0.6
v 7.9 0.4 -0.6
v 8 0.4 -0.6
v 8.1 0.4 -0.6
v 8.2 0.4 -0.6
v 9.2 0.4 -0.6
v 9.3 0.4 -0.6
v 9.4 0.4 -0.6
v 9.5 0.4 -0.6
v 8 0.4 -0.7
v 8.1 0.4 -0.7
v 8.2 0.4 -0.7
v 8.4 0.4 -0.7
v 8.5 0.4 -0.7
v 8.6 0.4 -0.7
v 9.3 0.4 -0.7
v 9.4 0.4 -0.7
v 8.5 0.4 -0.8
v 8.6 0.4 -0.8
v 7.2 0.4 -0.9
v 7.3 0.4 -0.9
v 7.4 0.4 -0.9
v 7.5 0.4 -0.9
v 8.1 0.4 -0.9
v 8.2 0.4 -0.9
v 8.4 0.4 -0.9
v 8.9 0.4 -0.9
v 9 0.4 -0.9
v 9.1 0.4 -0.9
v 9.2 0.4 -0.9
v 7.2 0.4 -1
v 7.3 0.4 -1
v 7.4 0.4 -1
v 7.5 0.4 -1
v 8.2 0.4 -1
v 8.3 0.4 -1
v 8.9 0.4 -1
v 9 0.4 -1
v 9.1 0.4 -1
v 9.2 0.4 -1
v 8.2 0.4 -1.1
v 8.3 0.4 -1.1
v 9 0.4 -1.1
v 9.1 0.4 -1.1
v 8.1 0.4 -1.2
v 8.2 0.4 -1.2
v 8.4 0.4 -1.2
v 8.5 0.4 -1.2
v 8.7 0.4 -1.2
v 8.8 0.4 -1.2
v 9 0.4 -1.2
v 9.4 0.4 -1.2
v 9.5 0.4 -1.2
v 7.8 0.4 -1.3
v 7.9 0.4 -1.3
v 8.1 0.4 -1.3
v 8.2 0.4 -1.3
v 8.3 0.4 -1.3
v 8.5 0.4 -1.3
v 8.6 0.4 -1.3
v 8.9 0.4 -1.3
v 9 0.4 -1.3
v 9.3 0.4 -1.3
v 9.4 0.4 -1.3
v 9.5 0.4 -1.3
v 7.8 0.4 -1.4
v 7.9 0.4 -1.4
v 8.6 0.4 -1.4
v 8.7 0.4 -1.4
v 8.8 0.4 -1.4
v 8.9 0.4 -1.4
v 9.3 0.4 -1.4
v 9.4 0.4 -1.4
v 8.7 0.4 -1.5
v 8.8 0.4 -1.5
v 7.1 0.4 -1.6
v 8.2 0.4 -1.6
v 8.3 0.4 -1.6
v 9.6 0.4 -1.6

# faces
f 4/4/1 2/4/1 1/4/1
f 5/4/1 2/4/1 4/4/1
f 6/4/1 2/4/1 5/4/1
f 7/3/1 3/3/1 2/3/1
f 7/4/1 2/4/1 6/4/1
f 8/3/1 3/3/1 7/3/1
f 9/3/1 3/3/1 8/3/1
f 10/3/1 3/3/1 9/3/1
f 11/3/1 3/3/1 10/3/1
f 12/3/1 3/3/1 11/3/1
f 13/3/1 3/3/1 12/3/1
f 14/3/1 3/3/1 13/3/1
f 15/3/1 3/3/1 14/3/1
f 16/4/1 4/4/1 1/4/1
f 17/2/1 5/2/1 4/2/1
f 17/4/1 4/4/1 16/4/1
f 18/4/1 6/4/1 5/4/1
f 18/2/1 5/2/1 17/2/1
f 19/2/1 7/2/1 6/2/1
f 19/4/1 6/4/1 18/4/1
f 20/1/1 9/1/1 8/1/1
f 20/3/1 10/3/1 9/3/1
f 21/1/1 11/1/1 10/1/1
f 21/3/1 10/3/1 20/3/1
f 22/3/1 12/3/1 11/3/1
f 22/1/1 11/1/1 21/1/1
f 23/1/1 13/1/1 12/1/1
f 23/3/1 12/3/1 22/3/1
f 24/3/1 14/3/1 13/3/1
f 24/1/1 13/1/1 23/1/1
f 25/1/1 15/1/1 14/1/1
f 25/3/1 14/3/1 24/3/1
f 26/3/1 3/3/1 15/3/1
f 26/1/1 15/1/1 25/1/1
f 27/3/1 3/3/1 26/3/1
f 28/2/1 17/2/1 16/2/1
f 28/2/1 18/2/1 17/2/1
f 28/2/1 19/2/1 18/2/1
f 29/3/1 8/3/1 7/3/1
f 29/2/1 19/2/1 28/2/1
f 29/2/1 7/2/1 19/2/1
f 30/1/1 25/1/1 24/1/1
f 30/3/1 8/3/1 29/3/1
f 30/1/1 27/1/1 26/1/1
f 30/1/1 23/1/1 22/1/1
f 30/1/1 22/1/1 21/1/1
f 30/1/1 21/1/1 20/1/1
f 30/1/1 20/1/1 8/1/1
f 30/1/1 26/1/1 25/1/1
f 30/1/1 24/1/1 23/1/1
f 31/1/1 27/1/1 30/1/1
f 32/3/2 33/3/2 35/3/2
f 35/3/2 33/3/2 36/3/2
f 33/4/2 34/4/2 37/4/2
f 37/4/2 34/4/2 38/4/2
f 32/3/2 35/3/2 39/3/2
f 35/1/2 36/1/2 39/1/2
f 36/3/2 33/3/2 40/3/2
f 39/1/2 36/1/2 40/1/2
f 40/3/2 33/3/2 41/3/2
f 41/3/2 33/3/2 42/3/2
f 42/3/2 33/3/2 43/3/2
f 43/3/2 33/3/2 44/3/2
f 44/3/2 33/3/2 45/3/2
f 45/3/2 33/3/2 46/3/2
f 33/4/2 37/4/2 47/4/2
f 46/3/2 33/3/2 47/3/2
f 47/4/2 37/4/2 48/4/2
f 32/3/2 39/3/2 49/3/2
f 39/3/2 40/3/2 49/3/2
f 40/3/2 41/3/2 49/3/2
f 41/1/2 42/1/2 50/1/2
f 49/3/2 41/3/2 50/3/2
f 42/3/2 43/3/2 51/3/2
f 50/1/2 42/1/2 51/1/2
f 43/1/2 44/1/2 52/1/2
f 51/3/2 43/3/2 52/3/2
f 44/3/2 45/3/2 53/3/2
f 52/1/2 44/1/2 53/1/2
f 45/1/2 46/1/2 54/1/2
f 53/3/2 45/3/2 54/3/2
f 46/3/2 47/3/2 55/3/2
f 54/1/2 46/1/2 55/1/2
f 55/3/2 47/3/2 56/3/2
f 48/4/2 37/4/2 57/4/2
f 47/2/2 48/2/2 57/2/2
f 37/2/2 38/2/2 58/2/2
f 57/4/2 37/4/2 58/4/2
f 38/4/2 34/4/2 59/4/2
f 58/2/2 38/2/2 59/2/2
f 59/4/2 34/4/2 60/4/2
f 52/1/2 53/1/2 61/1/2
f 55/1/2 56/1/2 61/1/2
f 53/1/2 54/1/2 61/1/2
f 49/1/2 50/1/2 61/1/2
f 54/1/2 55/1/2 61/1/2
f 51/1/2 52/1/2 61/1/2
f 50/1/2 51/1/2 61/1/2
f 56/3/2 47/3/2 62/3/2
f 61/1/2 56/1/2 62/1/2
f 57/2/2 58/2/2 63/2/2
f 62/3/2 47/3/2 63/3/2
f 47/2/2 57/2/2 63/2/2
f 59/2/2 60/2/2 63/2/2
f 58/2/2 59/2/2 63/2/2
f 63/2/2 60/2/2 64/2/2
f 68/4/3 66/4/3 65/4/3
f 69/2/3 67/2/3 66/2/3
f 69/4/3 66/4/3 68/4/3
f 70/4/3 68/4/3 65/4/3
f 70/2/3 69/2/3 68/2/3
f 71/2/3 67/2/3 69/2/3
f 71/2/3 69/2/3 70/2/3
f 72/4/3 70/4/3 65/4/3
f 72/4/3 71/4/3 70/4/3
f 73/2/3 67/2/3 71/2/3
f 73/4/3 71/4/3 72/4/3
f 74/4/3 72/4/3 65/4/3
f 74/2/3 73/2/3 72/2/3
f 75/2/3 67/2/3 73/2/3
f 75/2/3 73/2/3 74/2/3
f 76/4/3 74/4/3 65/4/3
f 76/4/3 75/4/3 74/4/3
f 77/2/3 67/2/3 75/2/3
f 77/4/3 75/4/3 76/4/3
f 78/3/3 77/3/3 76/3/3
f 78/2/3 67/2/3 77/2/3
f 79/2/3 67/2/3 78/2/3
f 80/3/3 78/3/3 76/3/3
f 80/3/3 79/3/3 78/3/3
f 81/3/3 79/3/3 80/3/3
f 82/3/3 80/3/3 76/3/3
f 82/1/3 81/1/3 80/1/3
f 83/1/3 81/1/3 82/1/3
f 84/3/3 82/3/3 76/3/3
f 84/3/3 83/3/3 82/3/3
f 85/1/3 81/1/3 83/1/3
f 85/3/3 83/3/3 84/3/3
f 86/3/3 84/3/3 76/3/3
f 86/1/3 85/1/3 84/1/3
f 87/1/3 81/1/3 85/1/3
f 87/1/3 85/1/3 86/1/3
f 88/3/3 86/3/3 76/3/3
f 88/3/3 87/3/3 86/3/3
f 89/3/3 87/3/3 88/3/3
f 90/1/3 89/1/3 88/1/3
f 91/3/3 87/3/3 89/3/3
f 91/1/3 89/1/3 90/1/3
f 92/3/3 91/3/3 90/3/3
f 92/3/3 87/3/3 91/3/3
f 93/1/3 81/1/3 87/1/3
f 93/3/3 87/3/3 92/3/3
f 94/3/3 92/3/3 90/3/3
f 94/1/3 93/1/3 92/1/3
f 95/1/3 81/1/3 93/1/3
f 95/1/3 93/1/3 94/1/3
f 96/3/3 94/3/3 90/3/3
f 96/3/3 95/3/3 94/3/3
f 97/1/3 81/1/3 95/1/3
f 97/3/3 95/3/3 96/3/3
f 98/1/3 81/1/3 97/1/3
f 99/3/4 100/3/4 102/3/4
f 100/1/4 101/1/4 103/1/4
f 102/3/4 100/3/4 103/3/4
f 99/3/4 102/3/4 104/3/4
f 102/1/4 103/1/4 104/1/4
f 103/1/4 101/1/4 105/1/4
f 104/1/4 103/1/4 105/1/4
f 104/3/4 105/3/4 106/3/4
f 105/1/4 101/1/4 106/1/4
f 106/1/4 101/1/4 107/1/4
f 104/3/4 106/3/4 108/3/4
f 106/3/4 107/3/4 108/3/4
f 108/3/4 107/3/4 109/3/4
f 99/3/4 104/3/4 110/3/4
f 104/3/4 108/3/4 110/3/4
f 108/2/4 109/2/4 111/2/4
f 110/3/4 108/3/4 111/3/4
f 110/4/4 111/4/4 112/4/4
f 111/2/4 109/2/4 113/2/4
f 112/4/4 111/4/4 113/4/4
f 110/4/4 112/4/4 114/4/4
f 112/2/4 113/2/4 114/2/4
f 113/2/4 109/2/4 115/2/4
f 114/2/4 113/2/4 115/2/4
f 110/4/4 114/4/4 116/4/4
f 114/4/4 115/4/4 116/4/4
f 115/2/4 109/2/4 117/2/4
f 116/4/4 115/4/4 117/4/4
f 110/4/4 116/4/4 118/4/4
f 116/2/4 117/2/4 118/2/4
f 117/2/4 109/2/4 119/2/4
f 118/2/4 117/2/4 119/2/4
f 110/4/4 118/4/4 120/4/4
f 118/4/4 119/4/4 120/4/4
f 119/2/4 109/2/4 121/2/4
f 120/4/4 119/4/4 121/4/4
f 121/2/4 109/2/4 122/2/4
f 128/3/5 125/3/5 124/3/5
f 128/1/5 126/1/5 125/1/5
f 129/3/5 127/3/5 126/3/5
f 129/1/5 126/1/5 128/1/5
f 130/4/5 124/4/5 123/4/5
f 131/4/5 124/4/5 130/4/5
f 132/4/5 124/4/5 131/4/5
f 133/3/5 128/3/5 124/3/5
f 133/4/5 124/4/5 132/4/5
f 133/3/5 129/3/5 128/3/5
f 134/3/5 129/3/5 133/3/5
f 135/3/5 127/3/5 129/3/5
f 135/3/5 129/3/5 134/3/5
f 136/4/5 132/4/5 131/4/5
f 136/3/5 131/3/5 130/3/5
f 137/3/5 134/3/5 133/3/5
f 137/4/5 132/4/5 136/4/5
f 137/3/5 133/3/5 132/3/5
f 138/3/5 127/3/5 135/3/5
f 138/4/5 135/4/5 134/4/5
f 139/3/5 127/3/5 138/3/5
f 140/3/5 136/3/5 130/3/5
f 140/3/5 137/3/5 136/3/5
f 141/3/5 134/3/5 137/3/5
f 141/3/5 137/3/5 140/3/5
f 141/4/5 139/4/5 138/4/5
f 141/4/5 138/4/5 134/4/5
f 142/4/5 139/4/5 141/4/5
f 143/2/6 144/2/6 147/2/6
f 147/2/6 144/2/6 148/2/6
f 143/2/6 147/2/6 149/2/6
f 147/4/6 148/4/6 149/4/6
f 148/2/6 144/2/6 150/2/6
f 149/4/6 148/4/6 150/4/6
f 150/2/6 144/2/6 151/2/6
f 144/3/6 145/3/6 152/3/6
f 151/2/6 144/2/6 152/2/6
f 145/1/6 146/1/6 153/1/6
f 152/3/6 145/3/6 153/3/6
f 150/2/6 151/2/6 154/2/6
f 149/2/6 150/2/6 154/2/6
f 154/2/6 151/2/6 155/2/6
f 155/2/6 151/2/6 156/2/6
f 151/3/6 152/3/6 157/3/6
f 156/2/6 151/2/6 157/2/6
f 149/2/6 154/2/6 158/2/6
f 158/2/6 154/2/6 159/2/6
f 154/6/6 155/6/6 160/6/6
f 159/2/6 154/2/6 160/2/6
f 155/2/6 156/2/6 161/2/6
f 160/6/6 155/6/6 161/6/6
f 156/6/6 157/6/6 162/6/6
f 161/2/6 156/2/6 162/2/6
f 157/3/6 152/3/6 163/3/6
f 162/6/6 157/6/6 163/6/6
f 158/6/6 159/6/6 164/6/6
f 149/2/6 158/2/6 164/2/6
f 159/2/6 160/2/6 165/2/6
f 164/6/6 159/6/6 165/6/6
f 160/2/6 161/2/6 165/2/6
f 161/6/6 162/6/6 166/6/6
f 165/2/6 161/2/6 166/2/6
f 162/2/6 163/2/6 167/2/6
f 166/6/6 162/6/6 167/6/6
f 152/1/6 153/1/6 168/1/6
f 163/3/6 152/3/6 168/3/6
f 153/1/6 146/1/6 169/1/6
f 168/1/6 153/1/6 169/1/6
f 149/2/6 164/2/6 170/2/6
f 143/2/6 149/2/6 170/2/6
f 164/2/6 165/2/6 170/2/6
f 165/2/6 166/2/6 170/2/6
f 166/2/6 167/2/6 170/2/6
f 170/2/6 167/2/6 171/2/6
f 171/2/6 167/2/6 172/2/6
f 172/2/6 167/2/6 173/2/6
f 163/3/6 168/3/6 174/3/6
f 173/2/6 167/2/6 174/2/6
f 168/3/6 169/3/6 174/3/6
f 167/2/6 163/2/6 174/2/6
f 169/1/6 146/1/6 175/1/6
f 174/3/6 169/3/6 175/3/6
f 175/1/6 146/1/6 176/1/6
f 176/1/6 146/1/6 177/1/6
f 177/1/6 146/1/6 178/1/6
f 170/4/6 171/4/6 179/4/6
f 143/2/6 170/2/6 179/2/6
f 171/2/6 172/2/6 180/2/6
f 179/4/6 171/4/6 180/4/6
f 172/4/6 173/4/6 181/4/6
f 180/2/6 172/2/6 181/2/6
f 173/2/6 174/2/6 182/2/6
f 181/4/6 173/4/6 182/4/6
f 174/2/6 175/2/6 182/2/6
f 175/3/6 176/3/6 183/3/6
f 182/2/6 175/2/6 183/2/6
f 176/1/6 177/1/6 184/1/6
f 183/3/6 176/3/6 184/3/6
f 184/1/6 177/1/6 185/1/6
f 177/3/6 178/3/6 186/3/6
f 185/1/6 177/1/6 186/1/6
f 178/1/6 146/1/6 187/1/6
f 186/3/6 178/3/6 187/3/6
f 187/1/6 146/1/6 188/1/6
f 188/1/6 146/1/6 189/1/6
f 180/4/6 181/4/6 190/4/6
f 179/2/6 180/2/6 190/2/6
f 182/2/6 183/2/6 191/2/6
f 190/4/6 181/4/6 191/4/6
f 181/2/6 182/2/6 191/2/6
f 183/2/6 184/2/6 191/2/6
f 191/2/6 184/2/6 192/2/6
f 184/3/6 185/3/6 193/3/6
f 192/2/6 184/2/6 193/2/6
f 185/1/6 186/1/6 194/1/6
f 193/3/6 185/3/6 194/3/6
f 187/1/6 188/1/6 194/1/6
f 186/1/6 187/1/6 194/1/6
f 194/1/6 188/1/6 195/1/6
f 195/1/6 188/1/6 196/1/6
f 188/5/6 189/5/6 197/5/6
f 196/1/6 188/1/6 197/1/6
f 189/1/6 146/1/6 198/1/6
f 197/5/6 189/5/6 198/5/6
f 191/2/6 192/2/6 199/2/6
f 190/2/6 191/2/6 199/2/6
f 199/2/6 192/2/6 200/2/6
f 200/2/6 192/2/6 201/2/6
f 201/2/6 192/2/6 202/2/6
f 192/3/6 193/3/6 203/3/6
f 193/1/6 194/1/6 204/1/6
f 203/3/6 193/3/6 204/3/6
f 194/1/6 195/1/6 204/1/6
f 204/1/6 195/1/6 205/1/6
f 195/3/6 196/3/6 206/3/6
f 205/1/6 195/1/6 206/1/6
f 196/1/6 197/1/6 207/1/6
f 206/3/6 196/3/6 207/3/6
f 197/1/6 198/1/6 207/1/6
f 207/1/6 198/1/6 208/1/6
f 190/2/6 199/2/6 209/2/6
f 199/4/6 200/4/6 209/4/6
f 209/4/6 200/4/6 210/4/6
f 200/2/6 201/2/6 211/2/6
f 210/4/6 200/4/6 211/4/6
f 201/4/6 202/4/6 212/4/6
f 211/2/6 201/2/6 212/2/6
f 212/4/6 202/4/6 213/4/6
f 202/2/6 192/2/6 214/2/6
f 213/4/6 202/4/6 214/4/6
f 204/1/6 205/1/6 215/1/6
f 203/1/6 204/1/6 215/1/6
f 205/3/6 206/3/6 216/3/6
f 215/1/6 205/1/6 216/1/6
f 206/2/6 207/2/6 217/2/6
f 216/3/6 206/3/6 217/3/6
f 208/1/6 198/1/6 218/1/6
f 218/1/6 198/1/6 219/1/6
f 143/2/6 179/2/6 220/2/6
f 179/2/6 190/2/6 220/2/6
f 209/2/6 210/2/6 220/2/6
f 190/2/6 209/2/6 220/2/6
f 220/2/6 210/2/6 221/2/6
f 221/2/6 210/2/6 222/2/6
f 212/4/6 213/4/6 223/4/6
f 222/2/6 210/2/6 223/2/6
f 210/4/6 211/4/6 223/4/6
f 211/4/6 212/4/6 223/4/6
f 223/4/6 213/4/6 224/4/6
f 224/4/6 213/4/6 225/4/6
f 225/4/6 213/4/6 226/4/6
f 213/2/6 214/2/6 227/2/6
f 226/4/6 213/4/6 227/4/6
f 214/2/6 192/2/6 228/2/6
f 227/2/6 214/2/6 228/2/6
f 192/3/6 203/3/6 228/3/6
f 203/1/6 215/1/6 229/1/6
f 228/3/6 203/3/6 229/3/6
f 215/3/6 216/3/6 230/3/6
f 229/1/6 215/1/6 230/1/6
f 230/3/6 216/3/6 231/3/6
f 217/2/6 207/2/6 232/2/6
f 207/3/6 208/3/6 232/3/6
f 216/2/6 217/2/6 232/2/6
f 208/1/6 218/1/6 233/1/6
f 232/3/6 208/3/6 233/3/6
f 218/3/6 219/3/6 234/3/6
f 233/1/6 218/1/6 234/1/6
f 219/1/6 198/1/6 235/1/6
f 234/3/6 219/3/6 235/3/6
f 198/1/6 146/1/6 236/1/6
f 235/1/6 198/1/6 236/1/6
f 220/3/6 221/3/6 237/3/6
f 221/2/6 222/2/6 238/2/6
f 237/3/6 221/3/6 238/3/6
f 222/3/6 223/3/6 239/3/6
f 238/2/6 222/2/6 239/2/6
f 223/2/6 224/2/6 240/2/6
f 239/3/6 223/3/6 240/3/6
f 224/4/6 225/4/6 241/4/6
f 240/2/6 224/2/6 241/2/6
f 225/2/6 226/2/6 242/2/6
f 241/4/6 225/4/6 242/4/6
f 226/3/6 227/3/6 243/3/6
f 242/2/6 226/2/6 243/2/6
f 227/2/6 228/2/6 244/2/6
f 228/2/6 229/2/6 244/2/6
f 229/3/6 230/3/6 244/3/6
f 230/2/6 231/2/6 245/2/6
f 244/3/6 230/3/6 245/3/6
f 231/3/6 216/3/6 246/3/6
f 245/2/6 231/2/6 246/2/6
f 232/2/6 233/2/6 247/2/6
f 246/3/6 216/3/6 247/3/6
f 216/2/6 232/2/6 247/2/6
f 233/3/6 234/3/6 248/3/6
f 247/2/6 233/2/6 248/2/6
f 234/2/6 235/2/6 249/2/6
f 248/3/6 234/3/6 249/3/6
f 235/3/6 236/3/6 250/3/6
f 249/2/6 235/2/6 250/2/6
f 250/3/6 236/3/6 251/3/6
f 238/3/6 239/3/6 252/3/6
f 237/1/6 238/1/6 252/1/6
f 239/1/6 240/1/6 253/1/6
f 252/3/6 239/3/6 253/3/6
f 240/3/6 241/3/6 254/3/6
f 253/1/6 240/1/6 254/1/6
f 241/2/6 242/2/6 255/2/6
f 254/3/6 241/3/6 255/3/6
f 242/3/6 243/3/6 256/3/6
f 255/2/6 242/2/6 256/2/6
f 243/3/6 227/3/6 257/3/6
f 256/3/6 243/3/6 257/3/6
f 246/2/6 247/2/6 258/2/6
f 247/2/6 248/2/6 258/2/6
f 245/2/6 246/2/6 258/2/6
f 249/2/6 250/2/6 258/2/6
f 250/2/6 251/2/6 258/2/6
f 244/2/6 245/2/6 258/2/6
f 248/2/6 249/2/6 258/2/6
f 227/2/6 244/2/6 258/2/6
f 258/2/6 251/2/6 259/2/6
f 259/2/6 251/2/6 260/2/6
f 260/2/6 251/2/6 261/2/6
f 261/2/6 251/2/6 262/2/6
f 262/2/6 251/2/6 263/2/6
f 255/3/6 256/3/6 264/3/6
f 253/1/6 254/1/6 264/1/6
f 252/1/6 253/1/6 264/1/6
f 254/1/6 255/1/6 264/1/6
f 256/1/6 257/1/6 265/1/6
f 264/3/6 256/3/6 265/3/6
f 257/3/6 227/3/6 266/3/6
f 265/1/6 257/1/6 266/1/6
f 227/2/6 258/2/6 267/2/6
f 266/3/6 227/3/6 267/3/6
f 258/3/6 259/3/6 268/3/6
f 267/2/6 258/2/6 268/2/6
f 268/3/6 259/3/6 269/3/6
f 260/6/6 261/6/6 270/6/6
f 259/2/6 260/2/6 270/2/6
f 261/2/6 262/2/6 271/2/6
f 270/6/6 261/6/6 271/6/6
f 262/6/6 263/6/6 272/6/6
f 271/2/6 262/2/6 272/2/6
f 263/2/6 251/2/6 273/2/6
f 272/6/6 263/6/6 273/6/6
f 264/1/6 265/1/6 274/1/6
f 265/1/6 266/1/6 274/1/6
f 266/1/6 267/1/6 274/1/6
f 267/3/6 268/3/6 274/3/6
f 268/1/6 269/1/6 275/1/6
f 274/3/6 268/3/6 275/3/6
f 269/3/6 259/3/6 276/3/6
f 275/1/6 269/1/6 276/1/6
f 270/2/6 271/2/6 277/2/6
f 276/3/6 259/3/6 277/3/6
f 259/2/6 270/2/6 277/2/6
f 277/2/6 271/2/6 278/2/6
f 278/2/6 271/2/6 279/2/6
f 271/6/6 272/6/6 280/6/6
f 279/2/6 271/2/6 280/2/6
f 272/2/6 273/2/6 281/2/6
f 280/6/6 272/6/6 281/6/6
f 278/6/6 279/6/6 282/6/6
f 276/2/6 277/2/6 282/2/6
f 277/2/6 278/2/6 282/2/6
f 279/2/6 280/2/6 283/2/6
f 282/6/6 279/6/6 283/6/6
f 280/2/6 281/2/6 283/2/6
f 252/1/6 264/1/6 284/1/6
f 264/1/6 274/1/6 284/1/6
f 237/1/6 252/1/6 284/1/6
f 274/1/6 275/1/6 284/1/6
f 284/1/6 275/1/6 285/1/6
f 285/1/6 275/1/6 286/1/6
f 286/1/6 275/1/6 287/1/6
f 275/3/6 276/3/6 288/3/6
f 287/1/6 275/1/6 288/1/6
f 282/2/6 283/2/6 289/2/6
f 288/3/6 276/3/6 289/3/6
f 276/2/6 282/2/6 289/2/6
f 289/2/6 283/2/6 290/2/6
f 283/2/6 281/2/6 291/2/6
f 290/2/6 283/2/6 291/2/6
f 291/2/6 281/2/6 292/2/6
f 292/2/6 281/2/6 293/2/6
f 293/2/6 281/2/6 294/2/6
f 237/1/6 284/1/6 295/1/6
f 284/3/6 285/3/6 295/3/6
f 285/1/6 286/1/6 296/1/6
f 295/3/6 285/3/6 296/3/6
f 286/5/6 287/5/6 297/5/6
f 296/1/6 286/1/6 297/1/6
f 287/1/6 288/1/6 298/1/6
f 297/5/6 287/5/6 298/5/6
f 288/1/6 289/1/6 298/1/6
f 289/3/6 290/3/6 299/3/6
f 298/1/6 289/1/6 299/1/6
f 299/3/6 290/3/6 300/3/6
f 290/2/6 291/2/6 301/2/6
f 291/4/6 292/4/6 301/4/6
f 292/2/6 293/2/6 302/2/6
f 301/4/6 292/4/6 302/4/6
f 293/4/6 294/4/6 303/4/6
f 302/2/6 293/2/6 303/2/6
f 294/2/6 281/2/6 304/2/6
f 303/4/6 294/4/6 304/4/6
f 295/1/6 296/1/6 305/1/6
f 297/1/6 298/1/6 305/1/6
f 296/1/6 297/1/6 305/1/6
f 298/1/6 299/1/6 305/1/6
f 299/1/6 300/1/6 305/1/6
f 300/3/6 290/3/6 306/3/6
f 305/1/6 300/1/6 306/1/6
f 302/4/6 303/4/6 307/4/6
f 301/2/6 302/2/6 307/2/6
f 303/2/6 304/2/6 308/2/6
f 307/4/6 303/4/6 308/4/6
f 295/1/6 305/1/6 309/1/6
f 305/3/6 306/3/6 310/3/6
f 309/1/6 305/1/6 310/1/6
f 301/2/6 307/2/6 311/2/6
f 310/3/6 306/3/6 311/3/6
f 306/3/6 290/3/6 311/3/6
f 307/2/6 308/2/6 311/2/6
f 290/2/6 301/2/6 311/2/6
f 311/2/6 308/2/6 312/2/6
f 312/2/6 308/2/6 313/2/6
f 313/2/6 308/2/6 314/2/6
f 314/2/6 308/2/6 315/2/6
f 281/2/6 273/2/6 316/2/6
f 315/2/6 308/2/6 316/2/6
f 304/2/6 281/2/6 316/2/6
f 308/2/6 304/2/6 316/2/6
f 273/2/6 251/2/6 317/2/6
f 316/2/6 273/2/6 317/2/6
f 295/1/6 309/1/6 318/1/6
f 318/1/6 309/1/6 319/1/6
f 309/3/6 310/3/6 320/3/6
f 319/1/6 309/1/6 320/1/6
f 310/2/6 311/2/6 321/2/6
f 320/3/6 310/3/6 321/3/6
f 311/2/6 312/2/6 321/2/6
f 321/2/6 312/2/6 322/2/6
f 312/4/6 313/4/6 323/4/6
f 322/2/6 312/2/6 323/2/6
f 323/4/6 313/4/6 324/4/6
f 314/4/6 315/4/6 325/4/6
f 315/2/6 316/2/6 326/2/6
f 325/4/6 315/4/6 326/4/6
f 326/2/6 316/2/6 327/2/6
f 316/4/6 317/4/6 328/4/6
f 327/2/6 316/2/6 328/2/6
f 317/2/6 251/2/6 329/2/6
f 328/4/6 317/4/6 329/4/6
f 318/3/6 319/3/6 330/3/6
f 295/1/6 318/1/6 330/1/6
f 319/1/6 320/1/6 331/1/6
f 330/3/6 319/3/6 331/3/6
f 320/1/6 321/1/6 331/1/6
f 324/4/6 313/4/6 332/4/6
f 322/2/6 323/2/6 332/2/6
f 323/2/6 324/2/6 332/2/6
f 313/2/6 314/2/6 333/2/6
f 332/4/6 313/4/6 333/4/6
f 314/4/6 325/4/6 334/4/6
f 333/2/6 314/2/6 334/2/6
f 326/2/6 327/2/6 335/2/6
f 334/4/6 325/4/6 335/4/6
f 325/2/6 326/2/6 335/2/6
f 327/6/6 328/6/6 336/6/6
f 335/2/6 327/2/6 336/2/6
f 328/2/6 329/2/6 337/2/6
f 336/6/6 328/6/6 337/6/6
f 332/2/6 333/2/6 338/2/6
f 333/4/6 334/4/6 338/4/6
f 334/2/6 335/2/6 339/2/6
f 338/4/6 334/4/6 339/4/6
f 335/2/6 336/2/6 339/2/6
f 336/2/6 337/2/6 339/2/6
f 237/1/6 295/1/6 340/1/6
f 295/1/6 330/1/6 340/1/6
f 330/1/6 331/1/6 340/1/6
f 331/1/6 321/1/6 341/1/6
f 340/1/6 331/1/6 341/1/6
f 321/3/6 322/3/6 341/3/6
f 322/2/6 332/2/6 342/2/6
f 341/3/6 322/3/6 342/3/6
f 338/2/6 339/2/6 342/2/6
f 332/2/6 338/2/6 342/2/6
f 337/2/6 329/2/6 343/2/6
f 342/2/6 339/2/6 343/2/6
f 329/2/6 251/2/6 343/2/6
f 339/2/6 337/2/6 343/2/6
