# MagicaVoxel @ Ephtracy

# group
o 

# material
mtllib Package 01 Necro Dungeon-44.mtl
usemtl palette

# normals
vn -1 0 0
vn 1 0 0
vn 0 0 1
vn 0 0 -1
vn 0 -1 0
vn 0 1 0

# texcoords
vt 0.0175781 0.5
vt 0.0488281 0.5

# verts
v 30.1 0 -8.4
v 30.1 0 -8.8
v 30.1 0.1 -8.4
v 30.1 0.1 -8.5
v 30.1 0.1 -8.7
v 30.1 0.1 -8.8
v 30.1 1.3 -8.5
v 30.1 1.3 -8.7
v 30.2 0.1 -8.4
v 30.2 0.1 -8.5
v 30.2 0.1 -8.7
v 30.2 0.1 -8.8
v 30.2 1.3 -8.4
v 30.2 1.3 -8.5
v 30.2 1.3 -8.7
v 30.2 1.3 -8.8
v 30.4 0.1 -8.4
v 30.4 0.1 -8.5
v 30.4 0.1 -8.7
v 30.4 0.1 -8.8
v 30.4 1.3 -8.4
v 30.4 1.3 -8.5
v 30.4 1.3 -8.7
v 30.4 1.3 -8.8
v 30.5 0 -8.4
v 30.5 0 -8.8
v 30.5 0.1 -8.4
v 30.5 0.1 -8.5
v 30.5 0.1 -8.7
v 30.5 0.1 -8.8
v 30.5 1.3 -8.5
v 30.5 1.3 -8.7
v 30.1 0 -8.4
v 30.1 0.1 -8.4
v 30.2 0.1 -8.4
v 30.2 1.3 -8.4
v 30.4 0.1 -8.4
v 30.4 1.3 -8.4
v 30.5 0 -8.4
v 30.5 0.1 -8.4
v 30.1 0.1 -8.5
v 30.1 1.3 -8.5
v 30.2 0.1 -8.5
v 30.2 1.3 -8.5
v 30.4 0.1 -8.5
v 30.4 1.3 -8.5
v 30.5 0.1 -8.5
v 30.5 1.3 -8.5
v 30.1 0.1 -8.7
v 30.1 1.3 -8.7
v 30.2 0.1 -8.7
v 30.2 1.3 -8.7
v 30.4 0.1 -8.7
v 30.4 1.3 -8.7
v 30.5 0.1 -8.7
v 30.5 1.3 -8.7
v 30.1 0 -8.8
v 30.1 0.1 -8.8
v 30.2 0.1 -8.8
v 30.2 1.3 -8.8
v 30.4 0.1 -8.8
v 30.4 1.3 -8.8
v 30.5 0 -8.8
v 30.5 0.1 -8.8
v 30.1 0 -8.4
v 30.5 0 -8.4
v 30.1 0 -8.8
v 30.5 0 -8.8
v 30.1 0.1 -8.4
v 30.2 0.1 -8.4
v 30.4 0.1 -8.4
v 30.5 0.1 -8.4
v 30.1 0.1 -8.5
v 30.2 0.1 -8.5
v 30.4 0.1 -8.5
v 30.5 0.1 -8.5
v 30.1 0.1 -8.7
v 30.2 0.1 -8.7
v 30.4 0.1 -8.7
v 30.5 0.1 -8.7
v 30.1 0.1 -8.8
v 30.2 0.1 -8.8
v 30.4 0.1 -8.8
v 30.5 0.1 -8.8
v 30.2 1.3 -8.4
v 30.4 1.3 -8.4
v 30.1 1.3 -8.5
v 30.2 1.3 -8.5
v 30.4 1.3 -8.5
v 30.5 1.3 -8.5
v 30.1 1.3 -8.7
v 30.2 1.3 -8.7
v 30.4 1.3 -8.7
v 30.5 1.3 -8.7
v 30.2 1.3 -8.8
v 30.4 1.3 -8.8

# faces
f 3/2/1 2/2/1 1/2/1
f 4/2/1 2/2/1 3/2/1
f 5/2/1 2/2/1 4/2/1
f 6/2/1 2/2/1 5/2/1
f 7/1/1 5/1/1 4/1/1
f 8/1/1 5/1/1 7/1/1
f 13/1/1 10/1/1 9/1/1
f 14/1/1 10/1/1 13/1/1
f 15/1/1 12/1/1 11/1/1
f 16/1/1 12/1/1 15/1/1
f 17/1/2 18/1/2 21/1/2
f 21/1/2 18/1/2 22/1/2
f 19/1/2 20/1/2 23/1/2
f 23/1/2 20/1/2 24/1/2
f 25/2/2 26/2/2 27/2/2
f 27/2/2 26/2/2 28/2/2
f 28/2/2 26/2/2 29/2/2
f 29/2/2 26/2/2 30/2/2
f 28/1/2 29/1/2 31/1/2
f 31/1/2 29/1/2 32/1/2
f 35/2/3 34/2/3 33/2/3
f 37/2/3 35/2/3 33/2/3
f 37/1/3 36/1/3 35/1/3
f 38/1/3 36/1/3 37/1/3
f 39/2/3 37/2/3 33/2/3
f 40/2/3 37/2/3 39/2/3
f 43/1/3 42/1/3 41/1/3
f 44/1/3 42/1/3 43/1/3
f 47/1/3 46/1/3 45/1/3
f 48/1/3 46/1/3 47/1/3
f 49/1/4 50/1/4 51/1/4
f 51/1/4 50/1/4 52/1/4
f 53/1/4 54/1/4 55/1/4
f 55/1/4 54/1/4 56/1/4
f 57/2/4 58/2/4 59/2/4
f 57/2/4 59/2/4 61/2/4
f 59/1/4 60/1/4 61/1/4
f 61/1/4 60/1/4 62/1/4
f 57/2/4 61/2/4 63/2/4
f 63/2/4 61/2/4 64/2/4
f 67/2/5 66/2/5 65/2/5
f 68/2/5 66/2/5 67/2/5
f 69/2/6 70/2/6 73/2/6
f 73/2/6 70/2/6 74/2/6
f 71/2/6 72/2/6 75/2/6
f 75/2/6 72/2/6 76/2/6
f 77/2/6 78/2/6 81/2/6
f 81/2/6 78/2/6 82/2/6
f 79/2/6 80/2/6 83/2/6
f 83/2/6 80/2/6 84/2/6
f 85/1/6 86/1/6 88/1/6
f 88/1/6 86/1/6 89/1/6
f 87/1/6 88/1/6 91/1/6
f 89/1/6 90/1/6 91/1/6
f 88/1/6 89/1/6 91/1/6
f 91/1/6 90/1/6 92/1/6
f 92/1/6 90/1/6 93/1/6
f 93/1/6 90/1/6 94/1/6
f 92/1/6 93/1/6 95/1/6
f 95/1/6 93/1/6 96/1/6
