# MagicaVoxel @ Ephtracy

# group
o 

# material
mtllib Package 01 Necro Dungeon-91.mtl
usemtl palette

# normals
vn -1 0 0
vn 1 0 0
vn 0 0 1
vn 0 0 -1
vn 0 -1 0
vn 0 1 0

# texcoords
vt 0.0214844 0.5
vt 0.0527344 0.5
vt 0.0839844 0.5

# verts
v -13.8 0 15
v -13.8 0 12.5
v -13.8 0.1 14.7
v -13.8 0.1 14.3
v -13.8 0.2 14.1
v -13.8 0.2 13.8
v -13.8 0.2 13.4
v -13.8 0.2 13.3
v -13.8 0.2 13
v -13.8 0.2 12.6
v -13.8 0.3 15
v -13.8 0.3 14.7
v -13.8 0.3 14.3
v -13.8 0.3 14.1
v -13.8 0.3 13.8
v -13.8 0.3 13.4
v -13.8 0.3 13.3
v -13.8 0.3 13
v -13.8 0.3 12.6
v -13.8 0.3 12.5
v -13.8 0.4 15
v -13.8 0.4 12.5
v -11.3 0 15
v -11.3 0 12.5
v -11.3 0.1 14.3
v -11.3 0.1 14.2
v -11.3 0.1 13.8
v -11.3 0.1 13.7
v -11.3 0.2 14.5
v -11.3 0.2 14.3
v -11.3 0.2 13.8
v -11.3 0.2 13.7
v -11.3 0.2 13.5
v -11.3 0.2 13.3
v -11.3 0.2 13
v -11.3 0.2 12.9
v -11.3 0.3 15
v -11.3 0.3 14.5
v -11.3 0.3 14.2
v -11.3 0.3 14
v -11.3 0.3 13.9
v -11.3 0.3 13.5
v -11.3 0.3 13.3
v -11.3 0.3 13
v -11.3 0.3 12.9
v -11.3 0.3 12.5
v -11.3 0.4 15
v -11.3 0.4 14
v -11.3 0.4 13.9
v -11.3 0.4 12.5
v -13.8 0 15
v -13.8 0.3 15
v -13.8 0.4 15
v -13.5 0.2 15
v -13.5 0.3 15
v -13.1 0.2 15
v -13.1 0.3 15
v -13 0.2 15
v -13 0.3 15
v -12.9 0.2 15
v -12.9 0.3 15
v -12.3 0.1 15
v -12.3 0.3 15
v -12 0.1 15
v -12 0.3 15
v -11.8 0.2 15
v -11.8 0.3 15
v -11.7 0.2 15
v -11.7 0.3 15
v -11.3 0 15
v -11.3 0.3 15
v -11.3 0.4 15
v -13.8 0 12.5
v -13.8 0.3 12.5
v -13.8 0.4 12.5
v -13.6 0.2 12.5
v -13.6 0.3 12.5
v -13.5 0.2 12.5
v -13.5 0.3 12.5
v -12.7 0.2 12.5
v -12.7 0.3 12.5
v -12.6 0.1 12.5
v -12.6 0.2 12.5
v -12.4 0.1 12.5
v -12.4 0.3 12.5
v -12 0.2 12.5
v -12 0.3 12.5
v -11.9 0.2 12.5
v -11.9 0.3 12.5
v -11.7 0.2 12.5
v -11.7 0.3 12.5
v -11.4 0.2 12.5
v -11.4 0.3 12.5
v -11.3 0 12.5
v -11.3 0.3 12.5
v -11.3 0.4 12.5
v -13.8 0 15
v -11.3 0 15
v -13.8 0 12.5
v -11.3 0 12.5
v -13.8 0.4 15
v -11.3 0.4 15
v -13.4 0.4 14.9
v -13.3 0.4 14.9
v -13.4 0.4 14.8
v -13.3 0.4 14.8
v -12.1 0.4 14.7
v -11.9 0.4 14.7
v -11.7 0.4 14.7
v -11.5 0.4 14.7
v -12.9 0.4 14.6
v -12.8 0.4 14.6
v -12.7 0.4 14.6
v -12.6 0.4 14.6
v -12.1 0.4 14.6
v -12 0.4 14.6
v -11.9 0.4 14.6
v -11.7 0.4 14.6
v -11.6 0.4 14.6
v -11.5 0.4 14.6
v -13.2 0.4 14.5
v -13.1 0.4 14.5
v -12.9 0.4 14.5
v -12.8 0.4 14.5
v -12.7 0.4 14.5
v -12.6 0.4 14.5
v -12 0.4 14.5
v -11.9 0.4 14.5
v -11.7 0.4 14.5
v -11.6 0.4 14.5
v -13.2 0.4 14.4
v -13.1 0.4 14.4
v -12.8 0.4 14.4
v -12.7 0.4 14.4
v -11.9 0.4 14.4
v -11.7 0.4 14.4
v -13.7 0.4 14.3
v -13.6 0.4 14.3
v -13.5 0.4 14.3
v -13.4 0.4 14.3
v -13.7 0.4 14.2
v -13.6 0.4 14.2
v -13.5 0.4 14.2
v -13.4 0.4 14.2
v -13.6 0.4 14.1
v -13.5 0.4 14.1
v -12 0.4 14.1
v -11.9 0.4 14.1
v -13.4 0.4 14
v -13.2 0.4 14
v -13 0.4 14
v -12.8 0.4 14
v -12.6 0.4 14
v -12.5 0.4 14
v -12 0.4 14
v -11.9 0.4 14
v -11.6 0.4 14
v -11.5 0.4 14
v -11.4 0.4 14
v -11.3 0.4 14
v -13.4 0.4 13.9
v -13.3 0.4 13.9
v -13.2 0.4 13.9
v -13 0.4 13.9
v -12.9 0.4 13.9
v -12.8 0.4 13.9
v -12.6 0.4 13.9
v -12.5 0.4 13.9
v -11.6 0.4 13.9
v -11.5 0.4 13.9
v -11.4 0.4 13.9
v -11.3 0.4 13.9
v -13.3 0.4 13.8
v -13.2 0.4 13.8
v -13 0.4 13.8
v -12.9 0.4 13.8
v -12.7 0.4 13.8
v -12.6 0.4 13.8
v -12.5 0.4 13.8
v -12.4 0.4 13.8
v -11.5 0.4 13.8
v -11.4 0.4 13.8
v -13.2 0.4 13.7
v -13 0.4 13.7
v -12.7 0.4 13.7
v -12.6 0.4 13.7
v -12.5 0.4 13.7
v -12.4 0.4 13.7
v -12.9 0.4 13.5
v -12.8 0.4 13.5
v -11.8 0.4 13.5
v -11.7 0.4 13.5
v -12.9 0.4 13.4
v -12.8 0.4 13.4
v -11.8 0.4 13.4
v -11.7 0.4 13.4
v -12.4 0.4 13.2
v -12.3 0.4 13.2
v -12.2 0.4 13.2
v -12.1 0.4 13.2
v -13.6 0.4 13.1
v -13.5 0.4 13.1
v -12.4 0.4 13.1
v -12.3 0.4 13.1
v -12.2 0.4 13.1
v -12.1 0.4 13.1
v -13.7 0.4 13
v -13.6 0.4 13
v -13.4 0.4 13
v -13.3 0.4 13
v -12.3 0.4 13
v -12.2 0.4 13
v -13.6 0.4 12.9
v -13.5 0.4 12.9
v -13.4 0.4 12.9
v -11.8 0.4 12.9
v -11.7 0.4 12.9
v -11.6 0.4 12.9
v -11.5 0.4 12.9
v -13.7 0.4 12.8
v -13.6 0.4 12.8
v -13.4 0.4 12.8
v -13.3 0.4 12.8
v -13.2 0.4 12.8
v -13.1 0.4 12.8
v -13 0.4 12.8
v -12.9 0.4 12.8
v -11.8 0.4 12.8
v -11.7 0.4 12.8
v -11.6 0.4 12.8
v -11.5 0.4 12.8
v -13.6 0.4 12.7
v -13.4 0.4 12.7
v -13.2 0.4 12.7
v -13.1 0.4 12.7
v -13 0.4 12.7
v -12.9 0.4 12.7
v -11.7 0.4 12.7
v -11.6 0.4 12.7
v -13.1 0.4 12.6
v -13 0.4 12.6
v -13.8 0.4 12.5
v -11.3 0.4 12.5

# faces
f 3/2/1 2/2/1 1/2/1
f 4/2/1 2/2/1 3/2/1
f 5/2/1 2/2/1 4/2/1
f 6/2/1 2/2/1 5/2/1
f 7/2/1 2/2/1 6/2/1
f 8/2/1 2/2/1 7/2/1
f 9/2/1 2/2/1 8/2/1
f 10/2/1 2/2/1 9/2/1
f 11/2/1 3/2/1 1/2/1
f 12/1/1 4/1/1 3/1/1
f 12/2/1 3/2/1 11/2/1
f 13/2/1 5/2/1 4/2/1
f 13/1/1 4/1/1 12/1/1
f 14/1/1 6/1/1 5/1/1
f 14/2/1 5/2/1 13/2/1
f 15/2/1 7/2/1 6/2/1
f 15/1/1 6/1/1 14/1/1
f 16/1/1 8/1/1 7/1/1
f 16/2/1 7/2/1 15/2/1
f 17/2/1 9/2/1 8/2/1
f 17/1/1 8/1/1 16/1/1
f 18/1/1 10/1/1 9/1/1
f 18/2/1 9/2/1 17/2/1
f 19/2/1 2/2/1 10/2/1
f 19/1/1 10/1/1 18/1/1
f 20/2/1 2/2/1 19/2/1
f 21/1/1 18/1/1 17/1/1
f 21/1/1 12/1/1 11/1/1
f 21/1/1 20/1/1 19/1/1
f 21/1/1 19/1/1 18/1/1
f 21/1/1 17/1/1 16/1/1
f 21/1/1 16/1/1 15/1/1
f 21/1/1 15/1/1 14/1/1
f 21/1/1 14/1/1 13/1/1
f 21/1/1 13/1/1 12/1/1
f 22/1/1 20/1/1 21/1/1
f 23/2/2 24/2/2 25/2/2
f 25/2/2 24/2/2 26/2/2
f 26/2/2 24/2/2 27/2/2
f 27/2/2 24/2/2 28/2/2
f 23/2/2 25/2/2 29/2/2
f 25/1/2 26/1/2 30/1/2
f 29/2/2 25/2/2 30/2/2
f 26/2/2 27/2/2 31/2/2
f 27/1/2 28/1/2 31/1/2
f 28/2/2 24/2/2 32/2/2
f 31/1/2 28/1/2 32/1/2
f 32/2/2 24/2/2 33/2/2
f 33/2/2 24/2/2 34/2/2
f 34/2/2 24/2/2 35/2/2
f 35/2/2 24/2/2 36/2/2
f 23/2/2 29/2/2 37/2/2
f 29/1/2 30/1/2 38/1/2
f 37/2/2 29/2/2 38/2/2
f 26/2/2 31/2/2 39/2/2
f 38/1/2 30/1/2 39/1/2
f 30/1/2 26/1/2 39/1/2
f 31/2/2 32/2/2 39/2/2
f 32/2/2 33/2/2 39/2/2
f 39/2/2 33/2/2 40/2/2
f 40/2/2 33/2/2 41/2/2
f 33/1/2 34/1/2 42/1/2
f 41/2/2 33/2/2 42/2/2
f 34/2/2 35/2/2 43/2/2
f 42/1/2 34/1/2 43/1/2
f 35/1/2 36/1/2 44/1/2
f 43/2/2 35/2/2 44/2/2
f 36/2/2 24/2/2 45/2/2
f 44/1/2 36/1/2 45/1/2
f 45/2/2 24/2/2 46/2/2
f 37/1/2 38/1/2 47/1/2
f 38/1/2 39/1/2 47/1/2
f 39/1/2 40/1/2 47/1/2
f 40/2/2 41/2/2 48/2/2
f 47/1/2 40/1/2 48/1/2
f 43/1/2 44/1/2 49/1/2
f 48/2/2 41/2/2 49/2/2
f 42/1/2 43/1/2 49/1/2
f 44/1/2 45/1/2 49/1/2
f 45/1/2 46/1/2 49/1/2
f 41/1/2 42/1/2 49/1/2
f 49/1/2 46/1/2 50/1/2
f 54/2/3 52/2/3 51/2/3
f 55/1/3 53/1/3 52/1/3
f 55/2/3 52/2/3 54/2/3
f 56/2/3 54/2/3 51/2/3
f 56/1/3 55/1/3 54/1/3
f 57/1/3 53/1/3 55/1/3
f 57/1/3 55/1/3 56/1/3
f 58/2/3 56/2/3 51/2/3
f 58/2/3 57/2/3 56/2/3
f 59/1/3 53/1/3 57/1/3
f 59/2/3 57/2/3 58/2/3
f 60/2/3 58/2/3 51/2/3
f 60/1/3 59/1/3 58/1/3
f 61/1/3 53/1/3 59/1/3
f 61/1/3 59/1/3 60/1/3
f 62/2/3 60/2/3 51/2/3
f 62/2/3 61/2/3 60/2/3
f 63/1/3 53/1/3 61/1/3
f 63/2/3 61/2/3 62/2/3
f 64/2/3 62/2/3 51/2/3
f 64/1/3 63/1/3 62/1/3
f 65/1/3 53/1/3 63/1/3
f 65/1/3 63/1/3 64/1/3
f 66/2/3 65/2/3 64/2/3
f 67/1/3 53/1/3 65/1/3
f 67/2/3 65/2/3 66/2/3
f 68/2/3 66/2/3 64/2/3
f 68/1/3 67/1/3 66/1/3
f 69/1/3 53/1/3 67/1/3
f 69/1/3 67/1/3 68/1/3
f 70/2/3 64/2/3 51/2/3
f 70/2/3 68/2/3 64/2/3
f 70/2/3 69/2/3 68/2/3
f 71/1/3 53/1/3 69/1/3
f 71/2/3 69/2/3 70/2/3
f 72/1/3 53/1/3 71/1/3
f 73/2/4 74/2/4 76/2/4
f 74/1/4 75/1/4 77/1/4
f 76/2/4 74/2/4 77/2/4
f 73/2/4 76/2/4 78/2/4
f 76/1/4 77/1/4 78/1/4
f 77/1/4 75/1/4 79/1/4
f 78/1/4 77/1/4 79/1/4
f 73/2/4 78/2/4 80/2/4
f 78/2/4 79/2/4 80/2/4
f 79/1/4 75/1/4 81/1/4
f 80/2/4 79/2/4 81/2/4
f 73/2/4 80/2/4 82/2/4
f 80/1/4 81/1/4 83/1/4
f 82/2/4 80/2/4 83/2/4
f 73/2/4 82/2/4 84/2/4
f 82/1/4 83/1/4 84/1/4
f 81/1/4 75/1/4 85/1/4
f 84/1/4 83/1/4 85/1/4
f 83/1/4 81/1/4 85/1/4
f 84/2/4 85/2/4 86/2/4
f 85/1/4 75/1/4 87/1/4
f 86/2/4 85/2/4 87/2/4
f 84/2/4 86/2/4 88/2/4
f 86/1/4 87/1/4 88/1/4
f 87/1/4 75/1/4 89/1/4
f 88/1/4 87/1/4 89/1/4
f 84/2/4 88/2/4 90/2/4
f 88/2/4 89/2/4 90/2/4
f 89/1/4 75/1/4 91/1/4
f 90/2/4 89/2/4 91/2/4
f 84/2/4 90/2/4 92/2/4
f 90/1/4 91/1/4 92/1/4
f 91/1/4 75/1/4 93/1/4
f 92/1/4 91/1/4 93/1/4
f 73/2/4 84/2/4 94/2/4
f 84/2/4 92/2/4 94/2/4
f 92/2/4 93/2/4 94/2/4
f 93/1/4 75/1/4 95/1/4
f 94/2/4 93/2/4 95/2/4
f 95/1/4 75/1/4 96/1/4
f 99/2/5 98/2/5 97/2/5
f 100/2/5 98/2/5 99/2/5
f 101/1/6 102/1/6 103/1/6
f 103/1/6 102/1/6 104/1/6
f 101/1/6 103/1/6 105/1/6
f 103/2/6 104/2/6 105/2/6
f 104/1/6 102/1/6 106/1/6
f 105/2/6 104/2/6 106/2/6
f 105/1/6 106/1/6 107/1/6
f 106/1/6 102/1/6 107/1/6
f 107/1/6 102/1/6 108/1/6
f 108/1/6 102/1/6 109/1/6
f 109/1/6 102/1/6 110/1/6
f 105/1/6 107/1/6 111/1/6
f 111/1/6 107/1/6 112/1/6
f 112/1/6 107/1/6 113/1/6
f 113/1/6 107/1/6 114/1/6
f 107/3/6 108/3/6 115/3/6
f 114/1/6 107/1/6 115/1/6
f 115/3/6 108/3/6 116/3/6
f 108/1/6 109/1/6 117/1/6
f 116/3/6 108/3/6 117/3/6
f 109/3/6 110/3/6 118/3/6
f 117/1/6 109/1/6 118/1/6
f 118/3/6 110/3/6 119/3/6
f 110/1/6 102/1/6 120/1/6
f 119/3/6 110/3/6 120/3/6
f 105/1/6 111/1/6 121/1/6
f 121/1/6 111/1/6 122/1/6
f 111/3/6 112/3/6 123/3/6
f 122/1/6 111/1/6 123/1/6
f 112/1/6 113/1/6 124/1/6
f 123/3/6 112/3/6 124/3/6
f 113/3/6 114/3/6 125/3/6
f 124/1/6 113/1/6 125/1/6
f 115/1/6 116/1/6 126/1/6
f 125/3/6 114/3/6 126/3/6
f 114/1/6 115/1/6 126/1/6
f 118/3/6 119/3/6 127/3/6
f 126/1/6 116/1/6 127/1/6
f 116/3/6 117/3/6 127/3/6
f 117/3/6 118/3/6 127/3/6
f 127/3/6 119/3/6 128/3/6
f 128/3/6 119/3/6 129/3/6
f 119/1/6 120/1/6 130/1/6
f 129/3/6 119/3/6 130/3/6
f 121/3/6 122/3/6 131/3/6
f 105/1/6 121/1/6 131/1/6
f 123/1/6 124/1/6 132/1/6
f 131/3/6 122/3/6 132/3/6
f 122/1/6 123/1/6 132/1/6
f 124/3/6 125/3/6 133/3/6
f 132/1/6 124/1/6 133/1/6
f 125/1/6 126/1/6 134/1/6
f 133/3/6 125/3/6 134/3/6
f 127/1/6 128/1/6 134/1/6
f 126/1/6 127/1/6 134/1/6
f 128/3/6 129/3/6 135/3/6
f 134/1/6 128/1/6 135/1/6
f 129/1/6 130/1/6 136/1/6
f 135/3/6 129/3/6 136/3/6
f 101/1/6 105/1/6 137/1/6
f 132/1/6 133/1/6 137/1/6
f 135/1/6 136/1/6 137/1/6
f 134/1/6 135/1/6 137/1/6
f 105/1/6 131/1/6 137/1/6
f 131/1/6 132/1/6 137/1/6
f 133/1/6 134/1/6 137/1/6
f 137/1/6 136/1/6 138/1/6
f 138/1/6 136/1/6 139/1/6
f 139/1/6 136/1/6 140/1/6
f 101/1/6 137/1/6 141/1/6
f 137/2/6 138/2/6 141/2/6
f 138/1/6 139/1/6 142/1/6
f 141/2/6 138/2/6 142/2/6
f 139/2/6 140/2/6 143/2/6
f 142/1/6 139/1/6 143/1/6
f 140/1/6 136/1/6 144/1/6
f 143/2/6 140/2/6 144/2/6
f 142/2/6 143/2/6 145/2/6
f 141/1/6 142/1/6 145/1/6
f 143/1/6 144/1/6 146/1/6
f 145/2/6 143/2/6 146/2/6
f 144/1/6 136/1/6 147/1/6
f 146/1/6 144/1/6 147/1/6
f 147/1/6 136/1/6 148/1/6
f 145/1/6 146/1/6 149/1/6
f 146/1/6 147/1/6 149/1/6
f 149/1/6 147/1/6 150/1/6
f 150/1/6 147/1/6 151/1/6
f 151/1/6 147/1/6 152/1/6
f 152/1/6 147/1/6 153/1/6
f 153/1/6 147/1/6 154/1/6
f 147/2/6 148/2/6 155/2/6
f 154/1/6 147/1/6 155/1/6
f 148/1/6 136/1/6 156/1/6
f 155/2/6 148/2/6 156/2/6
f 136/1/6 130/1/6 157/1/6
f 156/1/6 136/1/6 157/1/6
f 130/1/6 120/1/6 157/1/6
f 120/1/6 102/1/6 158/1/6
f 157/1/6 120/1/6 158/1/6
f 158/1/6 102/1/6 159/1/6
f 159/1/6 102/1/6 160/1/6
f 145/1/6 149/1/6 161/1/6
f 149/2/6 150/2/6 161/2/6
f 161/2/6 150/2/6 162/2/6
f 150/1/6 151/1/6 163/1/6
f 162/2/6 150/2/6 163/2/6
f 151/2/6 152/2/6 164/2/6
f 163/1/6 151/1/6 164/1/6
f 164/2/6 152/2/6 165/2/6
f 152/1/6 153/1/6 166/1/6
f 165/2/6 152/2/6 166/2/6
f 153/3/6 154/3/6 167/3/6
f 166/1/6 153/1/6 167/1/6
f 155/1/6 156/1/6 168/1/6
f 167/3/6 154/3/6 168/3/6
f 156/1/6 157/1/6 168/1/6
f 154/1/6 155/1/6 168/1/6
f 157/2/6 158/2/6 169/2/6
f 168/1/6 157/1/6 169/1/6
f 158/1/6 159/1/6 170/1/6
f 169/2/6 158/2/6 170/2/6
f 159/2/6 160/2/6 171/2/6
f 170/1/6 159/1/6 171/1/6
f 171/2/6 160/2/6 172/2/6
f 164/2/6 165/2/6 173/2/6
f 163/2/6 164/2/6 173/2/6
f 161/1/6 162/1/6 173/1/6
f 162/2/6 163/2/6 173/2/6
f 173/2/6 165/2/6 174/2/6
f 174/2/6 165/2/6 175/2/6
f 166/1/6 167/1/6 176/1/6
f 175/2/6 165/2/6 176/2/6
f 165/1/6 166/1/6 176/1/6
f 169/1/6 170/1/6 176/1/6
f 168/1/6 169/1/6 176/1/6
f 167/1/6 168/1/6 176/1/6
f 176/1/6 170/1/6 177/1/6
f 177/1/6 170/1/6 178/1/6
f 178/1/6 170/1/6 179/1/6
f 179/1/6 170/1/6 180/1/6
f 170/2/6 171/2/6 181/2/6
f 180/1/6 170/1/6 181/1/6
f 171/1/6 172/1/6 182/1/6
f 181/2/6 171/2/6 182/2/6
f 174/2/6 175/2/6 183/2/6
f 173/1/6 174/1/6 183/1/6
f 175/1/6 176/1/6 184/1/6
f 183/2/6 175/2/6 184/2/6
f 176/1/6 177/1/6 184/1/6
f 177/2/6 178/2/6 185/2/6
f 184/1/6 177/1/6 185/1/6
f 178/1/6 179/1/6 186/1/6
f 185/2/6 178/2/6 186/2/6
f 179/3/6 180/3/6 187/3/6
f 186/1/6 179/1/6 187/1/6
f 180/1/6 181/1/6 188/1/6
f 187/3/6 180/3/6 188/3/6
f 181/1/6 182/1/6 188/1/6
f 186/1/6 187/1/6 189/1/6
f 183/1/6 184/1/6 189/1/6
f 187/1/6 188/1/6 189/1/6
f 184/1/6 185/1/6 189/1/6
f 185/1/6 186/1/6 189/1/6
f 189/1/6 188/1/6 190/1/6
f 188/1/6 182/1/6 191/1/6
f 190/1/6 188/1/6 191/1/6
f 191/1/6 182/1/6 192/1/6
f 189/2/6 190/2/6 193/2/6
f 183/1/6 189/1/6 193/1/6
f 190/1/6 191/1/6 194/1/6
f 193/2/6 190/2/6 194/2/6
f 191/3/6 192/3/6 195/3/6
f 194/1/6 191/1/6 195/1/6
f 192/1/6 182/1/6 196/1/6
f 195/3/6 192/3/6 196/3/6
f 194/1/6 195/1/6 197/1/6
f 193/1/6 194/1/6 197/1/6
f 195/1/6 196/1/6 197/1/6
f 197/1/6 196/1/6 198/1/6
f 198/1/6 196/1/6 199/1/6
f 199/1/6 196/1/6 200/1/6
f 145/1/6 161/1/6 201/1/6
f 141/1/6 145/1/6 201/1/6
f 173/1/6 183/1/6 201/1/6
f 161/1/6 173/1/6 201/1/6
f 183/1/6 193/1/6 201/1/6
f 193/1/6 197/1/6 201/1/6
f 201/1/6 197/1/6 202/1/6
f 197/3/6 198/3/6 203/3/6
f 202/1/6 197/1/6 203/1/6
f 198/1/6 199/1/6 204/1/6
f 203/3/6 198/3/6 204/3/6
f 199/3/6 200/3/6 205/3/6
f 204/1/6 199/1/6 205/1/6
f 200/1/6 196/1/6 206/1/6
f 205/3/6 200/3/6 206/3/6
f 101/1/6 141/1/6 207/1/6
f 141/1/6 201/1/6 207/1/6
f 201/2/6 202/2/6 208/2/6
f 207/1/6 201/1/6 208/1/6
f 203/1/6 204/1/6 209/1/6
f 202/1/6 203/1/6 209/1/6
f 209/1/6 204/1/6 210/1/6
f 204/3/6 205/3/6 211/3/6
f 210/1/6 204/1/6 211/1/6
f 205/1/6 206/1/6 212/1/6
f 211/3/6 205/3/6 212/3/6
f 208/2/6 202/2/6 213/2/6
f 207/3/6 208/3/6 213/3/6
f 202/1/6 209/1/6 214/1/6
f 213/2/6 202/2/6 214/2/6
f 209/3/6 210/3/6 215/3/6
f 214/1/6 209/1/6 215/1/6
f 212/1/6 206/1/6 216/1/6
f 206/1/6 196/1/6 216/1/6
f 211/1/6 212/1/6 216/1/6
f 210/1/6 211/1/6 216/1/6
f 196/1/6 182/1/6 217/1/6
f 216/1/6 196/1/6 217/1/6
f 217/1/6 182/1/6 218/1/6
f 218/1/6 182/1/6 219/1/6
f 213/3/6 214/3/6 220/3/6
f 214/3/6 215/3/6 220/3/6
f 207/3/6 213/3/6 220/3/6
f 101/1/6 207/1/6 220/1/6
f 220/3/6 215/3/6 221/3/6
f 215/3/6 210/3/6 222/3/6
f 221/3/6 215/3/6 222/3/6
f 210/1/6 216/1/6 223/1/6
f 222/3/6 210/3/6 223/3/6
f 223/1/6 216/1/6 224/1/6
f 224/1/6 216/1/6 225/1/6
f 225/1/6 216/1/6 226/1/6
f 226/1/6 216/1/6 227/1/6
f 216/2/6 217/2/6 228/2/6
f 227/1/6 216/1/6 228/1/6
f 217/1/6 218/1/6 229/1/6
f 228/2/6 217/2/6 229/2/6
f 218/2/6 219/2/6 230/2/6
f 229/1/6 218/1/6 230/1/6
f 219/1/6 182/1/6 231/1/6
f 230/2/6 219/2/6 231/2/6
f 221/3/6 222/3/6 232/3/6
f 220/1/6 221/1/6 232/1/6
f 222/1/6 223/1/6 233/1/6
f 232/3/6 222/3/6 233/3/6
f 223/1/6 224/1/6 233/1/6
f 224/2/6 225/2/6 234/2/6
f 233/1/6 224/1/6 234/1/6
f 225/1/6 226/1/6 235/1/6
f 234/2/6 225/2/6 235/2/6
f 226/2/6 227/2/6 236/2/6
f 235/1/6 226/1/6 236/1/6
f 228/1/6 229/1/6 237/1/6
f 236/2/6 227/2/6 237/2/6
f 227/1/6 228/1/6 237/1/6
f 229/2/6 230/2/6 238/2/6
f 237/1/6 229/1/6 238/1/6
f 230/1/6 231/1/6 239/1/6
f 238/2/6 230/2/6 239/2/6
f 235/2/6 236/2/6 240/2/6
f 232/1/6 233/1/6 240/1/6
f 234/1/6 235/1/6 240/1/6
f 233/1/6 234/1/6 240/1/6
f 236/1/6 237/1/6 241/1/6
f 240/2/6 236/2/6 241/2/6
f 237/1/6 238/1/6 241/1/6
f 238/1/6 239/1/6 241/1/6
f 232/1/6 240/1/6 242/1/6
f 101/1/6 220/1/6 242/1/6
f 240/1/6 241/1/6 242/1/6
f 220/1/6 232/1/6 242/1/6
f 182/1/6 172/1/6 243/1/6
f 242/1/6 241/1/6 243/1/6
f 231/1/6 182/1/6 243/1/6
f 239/1/6 231/1/6 243/1/6
f 241/1/6 239/1/6 243/1/6
