# MagicaVoxel @ Ephtracy

# group
o 

# material
mtllib Package 01 Necro Dungeon-43.mtl
usemtl palette

# normals
vn -1 0 0
vn 1 0 0
vn 0 0 1
vn 0 0 -1
vn 0 -1 0
vn 0 1 0

# texcoords
vt 0.00976563 0.5
vt 0.0410156 0.5
vt 0.0722656 0.5
vt 0.103516 0.5

# verts
v 4 0 28.7
v 4 0 28.3
v 4 0 26.7
v 4 0 26.2
v 4 0.1 28.7
v 4 0.1 28.6
v 4 0.1 28.4
v 4 0.1 28.3
v 4 0.1 26.7
v 4 0.1 26.6
v 4 0.1 26.4
v 4 0.1 26.2
v 4 0.2 28.7
v 4 0.2 28.6
v 4 0.2 28.4
v 4 0.2 28.3
v 4 0.2 26.7
v 4 0.2 26.6
v 4 0.2 26.4
v 4 0.2 26.3
v 4 0.2 26.2
v 4 0.4 26.4
v 4 0.4 26.3
v 4 0.4 26.2
v 4 0.5 28.7
v 4 0.5 28.6
v 4 0.5 26.7
v 4 0.5 26.6
v 4 0.5 26.4
v 4 0.5 26.3
v 4 0.6 28.7
v 4 0.6 28.6
v 4 0.6 28.4
v 4 0.6 28.3
v 4 0.6 26.6
v 4 0.6 26.4
v 4 0.7 28.7
v 4 0.7 28.6
v 4 0.7 28.4
v 4 0.7 26.6
v 4 0.7 26.2
v 4 0.8 28.7
v 4 0.8 28.4
v 4 0.8 28.3
v 4 0.8 26.7
v 4 0.8 26.6
v 4 0.8 26.2
v 4 1 26.4
v 4 1 26.3
v 4 1.1 26.5
v 4 1.1 26.4
v 4 1.1 26.3
v 4 1.2 26.5
v 4 1.2 26.4
v 4 1.4 28.7
v 4 1.4 28.4
v 4 1.4 28.3
v 4 1.4 26.7
v 4 1.4 26.6
v 4 1.4 26.2
v 4 1.5 28.7
v 4 1.5 28.4
v 4 1.5 26.6
v 4 1.5 26.2
v 4.1 0.1 28.7
v 4.1 0.1 28.6
v 4.1 0.1 26.4
v 4.1 0.1 26.2
v 4.1 0.2 28.7
v 4.1 0.2 28.6
v 4.1 0.2 26.4
v 4.1 0.2 26.3
v 4.1 0.2 26.2
v 4.1 0.4 26.3
v 4.1 0.4 26.2
v 4.1 0.5 26.4
v 4.1 0.5 26.3
v 4.1 0.6 28.7
v 4.1 0.6 28.6
v 4.1 0.6 26.6
v 4.1 0.6 26.4
v 4.1 0.7 28.7
v 4.1 0.7 28.6
v 4.1 0.7 26.6
v 4.1 0.7 26.2
v 4.3 0.1 28.7
v 4.3 0.1 28.6
v 4.3 0.1 26.4
v 4.3 0.1 26.2
v 4.3 0.2 28.7
v 4.3 0.2 28.6
v 4.3 0.2 26.4
v 4.3 0.2 26.3
v 4.3 0.2 26.2
v 4.3 0.4 26.3
v 4.3 0.4 26.2
v 4.3 0.5 26.4
v 4.3 0.5 26.3
v 4.3 0.6 28.7
v 4.3 0.6 28.6
v 4.3 0.6 26.6
v 4.3 0.6 26.4
v 4.3 0.7 28.7
v 4.3 0.7 28.6
v 4.3 0.7 26.6
v 4.3 0.7 26.2
v 4.4 0 28.7
v 4.4 0 28.3
v 4.4 0 26.7
v 4.4 0 26.2
v 4.4 0.1 28.7
v 4.4 0.1 28.6
v 4.4 0.1 28.4
v 4.4 0.1 28.3
v 4.4 0.1 26.7
v 4.4 0.1 26.6
v 4.4 0.1 26.4
v 4.4 0.1 26.2
v 4.4 0.2 28.7
v 4.4 0.2 28.6
v 4.4 0.2 28.4
v 4.4 0.2 28.3
v 4.4 0.2 26.7
v 4.4 0.2 26.6
v 4.4 0.2 26.4
v 4.4 0.2 26.3
v 4.4 0.2 26.2
v 4.4 0.4 26.4
v 4.4 0.4 26.3
v 4.4 0.4 26.2
v 4.4 0.5 28.7
v 4.4 0.5 28.6
v 4.4 0.5 26.7
v 4.4 0.5 26.6
v 4.4 0.5 26.4
v 4.4 0.5 26.3
v 4.4 0.6 28.7
v 4.4 0.6 28.6
v 4.4 0.6 28.4
v 4.4 0.6 28.3
v 4.4 0.6 26.6
v 4.4 0.6 26.4
v 4.4 0.7 28.7
v 4.4 0.7 28.6
v 4.4 0.7 28.4
v 4.4 0.7 26.6
v 4.4 0.7 26.2
v 4.4 0.8 28.7
v 4.4 0.8 28.4
v 4.4 0.8 28.3
v 4.4 0.8 26.7
v 4.4 0.8 26.6
v 4.4 0.8 26.2
v 4.4 1 26.4
v 4.4 1 26.3
v 4.4 1.1 26.5
v 4.4 1.1 26.4
v 4.4 1.1 26.3
v 4.4 1.2 26.5
v 4.4 1.2 26.4
v 4.4 1.4 28.7
v 4.4 1.4 28.4
v 4.4 1.4 28.3
v 4.4 1.4 26.7
v 4.4 1.4 26.6
v 4.4 1.4 26.2
v 4.4 1.5 28.7
v 4.4 1.5 28.4
v 4.4 1.5 26.6
v 4.4 1.5 26.2
v 4 0 28.7
v 4 0.1 28.7
v 4 0.2 28.7
v 4 0.5 28.7
v 4 0.6 28.7
v 4 0.7 28.7
v 4 0.8 28.7
v 4 1.4 28.7
v 4 1.5 28.7
v 4.1 0.1 28.7
v 4.1 0.2 28.7
v 4.1 0.6 28.7
v 4.1 0.7 28.7
v 4.3 0.1 28.7
v 4.3 0.2 28.7
v 4.3 0.6 28.7
v 4.3 0.7 28.7
v 4.4 0 28.7
v 4.4 0.1 28.7
v 4.4 0.2 28.7
v 4.4 0.5 28.7
v 4.4 0.6 28.7
v 4.4 0.7 28.7
v 4.4 0.8 28.7
v 4.4 1.4 28.7
v 4.4 1.5 28.7
v 4 0.1 28.6
v 4 0.2 28.6
v 4 0.6 28.6
v 4 0.7 28.6
v 4.1 0.1 28.6
v 4.1 0.2 28.6
v 4.1 0.6 28.6
v 4.1 0.7 28.6
v 4.3 0.1 28.6
v 4.3 0.2 28.6
v 4.3 0.6 28.6
v 4.3 0.7 28.6
v 4.4 0.1 28.6
v 4.4 0.2 28.6
v 4.4 0.6 28.6
v 4.4 0.7 28.6
v 4 0 26.7
v 4 0.1 26.7
v 4 0.2 26.7
v 4 0.5 26.7
v 4 0.8 26.7
v 4 1.4 26.7
v 4.4 0 26.7
v 4.4 0.1 26.7
v 4.4 0.2 26.7
v 4.4 0.5 26.7
v 4.4 0.8 26.7
v 4.4 1.4 26.7
v 4 0.1 26.6
v 4 0.2 26.6
v 4 0.5 26.6
v 4 0.6 26.6
v 4 0.7 26.6
v 4 0.8 26.6
v 4 1.4 26.6
v 4 1.5 26.6
v 4.1 0.6 26.6
v 4.1 0.7 26.6
v 4.3 0.6 26.6
v 4.3 0.7 26.6
v 4.4 0.1 26.6
v 4.4 0.2 26.6
v 4.4 0.5 26.6
v 4.4 0.6 26.6
v 4.4 0.7 26.6
v 4.4 0.8 26.6
v 4.4 1.4 26.6
v 4.4 1.5 26.6
v 4 0.1 28.4
v 4 0.2 28.4
v 4 0.6 28.4
v 4 0.7 28.4
v 4 0.8 28.4
v 4 1.4 28.4
v 4 1.5 28.4
v 4.1 0.1 28.4
v 4.1 0.2 28.4
v 4.3 0.1 28.4
v 4.3 0.2 28.4
v 4.4 0.1 28.4
v 4.4 0.2 28.4
v 4.4 0.6 28.4
v 4.4 0.7 28.4
v 4.4 0.8 28.4
v 4.4 1.4 28.4
v 4.4 1.5 28.4
v 4 0 28.3
v 4 0.1 28.3
v 4 0.2 28.3
v 4 0.6 28.3
v 4 0.8 28.3
v 4 1.4 28.3
v 4.4 0 28.3
v 4.4 0.1 28.3
v 4.4 0.2 28.3
v 4.4 0.6 28.3
v 4.4 0.8 28.3
v 4.4 1.4 28.3
v 4 0.1 26.4
v 4 0.2 26.4
v 4 0.5 26.4
v 4 0.6 26.4
v 4.1 0.1 26.4
v 4.1 0.2 26.4
v 4.1 0.5 26.4
v 4.1 0.6 26.4
v 4.3 0.1 26.4
v 4.3 0.2 26.4
v 4.3 0.5 26.4
v 4.3 0.6 26.4
v 4.4 0.1 26.4
v 4.4 0.2 26.4
v 4.4 0.5 26.4
v 4.4 0.6 26.4
v 4 0.4 26.3
v 4 0.5 26.3
v 4.1 0.4 26.3
v 4.1 0.5 26.3
v 4.3 0.4 26.3
v 4.3 0.5 26.3
v 4.4 0.4 26.3
v 4.4 0.5 26.3
v 4 0 26.2
v 4 0.1 26.2
v 4 0.2 26.2
v 4 0.4 26.2
v 4 0.7 26.2
v 4 0.8 26.2
v 4 1.4 26.2
v 4 1.5 26.2
v 4.1 0.1 26.2
v 4.1 0.2 26.2
v 4.1 0.4 26.2
v 4.1 0.7 26.2
v 4.3 0.1 26.2
v 4.3 0.2 26.2
v 4.3 0.4 26.2
v 4.3 0.7 26.2
v 4.4 0 26.2
v 4.4 0.1 26.2
v 4.4 0.2 26.2
v 4.4 0.4 26.2
v 4.4 0.7 26.2
v 4.4 0.8 26.2
v 4.4 1.4 26.2
v 4.4 1.5 26.2
v 4 0 28.7
v 4.4 0 28.7
v 4 0 28.3
v 4.4 0 28.3
v 4 0 26.7
v 4.4 0 26.7
v 4 0 26.2
v 4.4 0 26.2
v 4 0.2 28.7
v 4.1 0.2 28.7
v 4.3 0.2 28.7
v 4.4 0.2 28.7
v 4 0.2 28.6
v 4.1 0.2 28.6
v 4.3 0.2 28.6
v 4.4 0.2 28.6
v 4 0.2 28.4
v 4.1 0.2 28.4
v 4.3 0.2 28.4
v 4.4 0.2 28.4
v 4 0.2 28.3
v 4.4 0.2 28.3
v 4 0.2 26.7
v 4.4 0.2 26.7
v 4 0.2 26.6
v 4.4 0.2 26.6
v 4 0.2 26.4
v 4.1 0.2 26.4
v 4.3 0.2 26.4
v 4.4 0.2 26.4
v 4 0.2 26.3
v 4.1 0.2 26.3
v 4.3 0.2 26.3
v 4.4 0.2 26.3
v 4 0.2 26.2
v 4.1 0.2 26.2
v 4.3 0.2 26.2
v 4.4 0.2 26.2
v 4 0.7 28.7
v 4.1 0.7 28.7
v 4.3 0.7 28.7
v 4.4 0.7 28.7
v 4 0.7 28.6
v 4.1 0.7 28.6
v 4.3 0.7 28.6
v 4.4 0.7 28.6
v 4 0.7 26.6
v 4.1 0.7 26.6
v 4.3 0.7 26.6
v 4.4 0.7 26.6
v 4 0.7 26.2
v 4.1 0.7 26.2
v 4.3 0.7 26.2
v 4.4 0.7 26.2
v 4 0.8 28.4
v 4.4 0.8 28.4
v 4 0.8 28.3
v 4.4 0.8 28.3
v 4 0.8 26.7
v 4.4 0.8 26.7
v 4 0.8 26.6
v 4.4 0.8 26.6
v 4 0.1 28.7
v 4.1 0.1 28.7
v 4.3 0.1 28.7
v 4.4 0.1 28.7
v 4 0.1 28.6
v 4.1 0.1 28.6
v 4.3 0.1 28.6
v 4.4 0.1 28.6
v 4 0.1 28.4
v 4.1 0.1 28.4
v 4.3 0.1 28.4
v 4.4 0.1 28.4
v 4 0.1 28.3
v 4.4 0.1 28.3
v 4 0.1 26.7
v 4.4 0.1 26.7
v 4 0.1 26.6
v 4.4 0.1 26.6
v 4 0.1 26.4
v 4.1 0.1 26.4
v 4.3 0.1 26.4
v 4.4 0.1 26.4
v 4 0.1 26.2
v 4.1 0.1 26.2
v 4.3 0.1 26.2
v 4.4 0.1 26.2
v 4 0.4 26.3
v 4.1 0.4 26.3
v 4.3 0.4 26.3
v 4.4 0.4 26.3
v 4 0.4 26.2
v 4.1 0.4 26.2
v 4.3 0.4 26.2
v 4.4 0.4 26.2
v 4 0.5 26.7
v 4.4 0.5 26.7
v 4 0.5 26.6
v 4.4 0.5 26.6
v 4 0.5 26.4
v 4.1 0.5 26.4
v 4.3 0.5 26.4
v 4.4 0.5 26.4
v 4 0.5 26.3
v 4.1 0.5 26.3
v 4.3 0.5 26.3
v 4.4 0.5 26.3
v 4 0.6 28.7
v 4.1 0.6 28.7
v 4.3 0.6 28.7
v 4.4 0.6 28.7
v 4 0.6 28.6
v 4.1 0.6 28.6
v 4.3 0.6 28.6
v 4.4 0.6 28.6
v 4 0.6 28.4
v 4.4 0.6 28.4
v 4 0.6 28.3
v 4.4 0.6 28.3
v 4 0.6 26.6
v 4.1 0.6 26.6
v 4.3 0.6 26.6
v 4.4 0.6 26.6
v 4 0.6 26.4
v 4.1 0.6 26.4
v 4.3 0.6 26.4
v 4.4 0.6 26.4
v 4 1.4 28.4
v 4.4 1.4 28.4
v 4 1.4 28.3
v 4.4 1.4 28.3
v 4 1.4 26.7
v 4.4 1.4 26.7
v 4 1.4 26.6
v 4.4 1.4 26.6
v 4 1.5 28.7
v 4.4 1.5 28.7
v 4 1.5 28.4
v 4.4 1.5 28.4
v 4 1.5 26.6
v 4.4 1.5 26.6
v 4 1.5 26.2
v 4.4 1.5 26.2

# faces
f 5/4/1 2/4/1 1/4/1
f 6/4/1 2/4/1 5/4/1
f 7/4/1 2/4/1 6/4/1
f 8/4/1 2/4/1 7/4/1
f 9/4/1 4/4/1 3/4/1
f 10/4/1 4/4/1 9/4/1
f 11/4/1 4/4/1 10/4/1
f 12/4/1 4/4/1 11/4/1
f 14/1/1 7/1/1 6/1/1
f 15/1/1 7/1/1 14/1/1
f 18/1/1 11/1/1 10/1/1
f 19/1/1 11/1/1 18/1/1
f 22/2/1 18/2/1 17/2/1
f 22/2/1 19/2/1 18/2/1
f 22/1/1 20/1/1 19/1/1
f 23/4/1 21/4/1 20/4/1
f 23/1/1 20/1/1 22/1/1
f 24/4/1 21/4/1 23/4/1
f 25/2/1 16/2/1 15/2/1
f 25/2/1 14/2/1 13/2/1
f 25/2/1 15/2/1 14/2/1
f 26/2/1 16/2/1 25/2/1
f 27/2/1 22/2/1 17/2/1
f 28/2/1 22/2/1 27/2/1
f 29/4/1 23/4/1 22/4/1
f 29/2/1 22/2/1 28/2/1
f 30/4/1 23/4/1 29/4/1
f 31/4/1 26/4/1 25/4/1
f 32/2/1 16/2/1 26/2/1
f 32/4/1 26/4/1 31/4/1
f 33/2/1 16/2/1 32/2/1
f 34/2/1 16/2/1 33/2/1
f 35/4/1 29/4/1 28/4/1
f 36/4/1 29/4/1 35/4/1
f 38/4/1 33/4/1 32/4/1
f 39/4/1 33/4/1 38/4/1
f 42/1/1 39/1/1 38/1/1
f 42/1/1 38/1/1 37/1/1
f 43/1/1 39/1/1 42/1/1
f 46/1/1 41/1/1 40/1/1
f 47/1/1 41/1/1 46/1/1
f 48/2/1 46/2/1 45/2/1
f 48/2/1 47/2/1 46/2/1
f 49/2/1 47/2/1 48/2/1
f 50/2/1 48/2/1 45/2/1
f 51/1/1 49/1/1 48/1/1
f 51/2/1 48/2/1 50/2/1
f 52/2/1 47/2/1 49/2/1
f 52/1/1 49/1/1 51/1/1
f 53/3/1 51/3/1 50/3/1
f 53/2/1 50/2/1 45/2/1
f 54/2/1 52/2/1 51/2/1
f 54/3/1 51/3/1 53/3/1
f 55/2/1 43/2/1 42/2/1
f 56/1/1 44/1/1 43/1/1
f 56/2/1 43/2/1 55/2/1
f 57/1/1 44/1/1 56/1/1
f 58/2/1 53/2/1 45/2/1
f 58/2/1 54/2/1 53/2/1
f 59/2/1 54/2/1 58/2/1
f 60/2/1 52/2/1 54/2/1
f 60/2/1 54/2/1 59/2/1
f 60/2/1 47/2/1 52/2/1
f 61/4/1 56/4/1 55/4/1
f 62/4/1 56/4/1 61/4/1
f 63/4/1 60/4/1 59/4/1
f 64/4/1 60/4/1 63/4/1
f 69/3/1 66/3/1 65/3/1
f 70/3/1 66/3/1 69/3/1
f 71/3/1 68/3/1 67/3/1
f 72/3/1 68/3/1 71/3/1
f 73/3/1 68/3/1 72/3/1
f 77/3/1 75/3/1 74/3/1
f 81/3/1 77/3/1 76/3/1
f 82/3/1 79/3/1 78/3/1
f 83/3/1 79/3/1 82/3/1
f 84/3/1 81/3/1 80/3/1
f 85/3/1 75/3/1 77/3/1
f 85/3/1 81/3/1 84/3/1
f 85/3/1 77/3/1 81/3/1
f 86/3/2 87/3/2 90/3/2
f 90/3/2 87/3/2 91/3/2
f 88/3/2 89/3/2 92/3/2
f 92/3/2 89/3/2 93/3/2
f 93/3/2 89/3/2 94/3/2
f 95/3/2 96/3/2 98/3/2
f 97/3/2 98/3/2 102/3/2
f 99/3/2 100/3/2 103/3/2
f 103/3/2 100/3/2 104/3/2
f 101/3/2 102/3/2 105/3/2
f 98/3/2 96/3/2 106/3/2
f 105/3/2 102/3/2 106/3/2
f 102/3/2 98/3/2 106/3/2
f 107/4/2 108/4/2 111/4/2
f 111/4/2 108/4/2 112/4/2
f 112/4/2 108/4/2 113/4/2
f 113/4/2 108/4/2 114/4/2
f 109/4/2 110/4/2 115/4/2
f 115/4/2 110/4/2 116/4/2
f 116/4/2 110/4/2 117/4/2
f 117/4/2 110/4/2 118/4/2
f 112/1/2 113/1/2 120/1/2
f 120/1/2 113/1/2 121/1/2
f 116/1/2 117/1/2 124/1/2
f 124/1/2 117/1/2 125/1/2
f 123/2/2 124/2/2 128/2/2
f 124/2/2 125/2/2 128/2/2
f 125/1/2 126/1/2 128/1/2
f 126/4/2 127/4/2 129/4/2
f 128/1/2 126/1/2 129/1/2
f 129/4/2 127/4/2 130/4/2
f 121/2/2 122/2/2 131/2/2
f 119/2/2 120/2/2 131/2/2
f 120/2/2 121/2/2 131/2/2
f 131/2/2 122/2/2 132/2/2
f 123/2/2 128/2/2 133/2/2
f 133/2/2 128/2/2 134/2/2
f 128/4/2 129/4/2 135/4/2
f 134/2/2 128/2/2 135/2/2
f 135/4/2 129/4/2 136/4/2
f 131/4/2 132/4/2 137/4/2
f 132/2/2 122/2/2 138/2/2
f 137/4/2 132/4/2 138/4/2
f 138/2/2 122/2/2 139/2/2
f 139/2/2 122/2/2 140/2/2
f 134/4/2 135/4/2 141/4/2
f 141/4/2 135/4/2 142/4/2
f 138/4/2 139/4/2 144/4/2
f 144/4/2 139/4/2 145/4/2
f 144/1/2 145/1/2 148/1/2
f 143/1/2 144/1/2 148/1/2
f 148/1/2 145/1/2 149/1/2
f 146/1/2 147/1/2 152/1/2
f 152/1/2 147/1/2 153/1/2
f 151/2/2 152/2/2 154/2/2
f 152/2/2 153/2/2 154/2/2
f 154/2/2 153/2/2 155/2/2
f 151/2/2 154/2/2 156/2/2
f 154/1/2 155/1/2 157/1/2
f 156/2/2 154/2/2 157/2/2
f 155/2/2 153/2/2 158/2/2
f 157/1/2 155/1/2 158/1/2
f 156/3/2 157/3/2 159/3/2
f 151/2/2 156/2/2 159/2/2
f 157/2/2 158/2/2 160/2/2
f 159/3/2 157/3/2 160/3/2
f 148/2/2 149/2/2 161/2/2
f 149/1/2 150/1/2 162/1/2
f 161/2/2 149/2/2 162/2/2
f 162/1/2 150/1/2 163/1/2
f 151/2/2 159/2/2 164/2/2
f 159/2/2 160/2/2 164/2/2
f 164/2/2 160/2/2 165/2/2
f 160/2/2 158/2/2 166/2/2
f 165/2/2 160/2/2 166/2/2
f 158/2/2 153/2/2 166/2/2
f 161/4/2 162/4/2 167/4/2
f 167/4/2 162/4/2 168/4/2
f 165/4/2 166/4/2 169/4/2
f 169/4/2 166/4/2 170/4/2
f 180/4/3 172/4/3 171/4/3
f 181/2/3 174/2/3 173/2/3
f 182/4/3 175/4/3 174/4/3
f 183/1/3 177/1/3 176/1/3
f 184/4/3 180/4/3 171/4/3
f 184/3/3 181/3/3 180/3/3
f 185/2/3 174/2/3 181/2/3
f 185/3/3 181/3/3 184/3/3
f 186/3/3 183/3/3 182/3/3
f 186/4/3 182/4/3 174/4/3
f 187/1/3 177/1/3 183/1/3
f 187/3/3 183/3/3 186/3/3
f 188/4/3 184/4/3 171/4/3
f 189/4/3 184/4/3 188/4/3
f 190/2/3 174/2/3 185/2/3
f 191/4/3 186/4/3 174/4/3
f 191/2/3 174/2/3 190/2/3
f 192/4/3 186/4/3 191/4/3
f 193/1/3 177/1/3 187/1/3
f 194/2/3 178/2/3 177/2/3
f 194/1/3 177/1/3 193/1/3
f 195/4/3 179/4/3 178/4/3
f 195/2/3 178/2/3 194/2/3
f 196/4/3 179/4/3 195/4/3
f 201/1/3 198/1/3 197/1/3
f 202/1/3 198/1/3 201/1/3
f 203/4/3 200/4/3 199/4/3
f 204/4/3 200/4/3 203/4/3
f 209/1/3 206/1/3 205/1/3
f 210/1/3 206/1/3 209/1/3
f 211/4/3 208/4/3 207/4/3
f 212/4/3 208/4/3 211/4/3
f 219/4/3 214/4/3 213/4/3
f 220/4/3 214/4/3 219/4/3
f 221/2/3 216/2/3 215/2/3
f 222/2/3 216/2/3 221/2/3
f 223/2/3 218/2/3 217/2/3
f 224/2/3 218/2/3 223/2/3
f 233/4/3 228/4/3 227/4/3
f 234/1/3 230/1/3 229/1/3
f 235/4/3 233/4/3 227/4/3
f 235/3/3 234/3/3 233/3/3
f 236/1/3 230/1/3 234/1/3
f 236/3/3 234/3/3 235/3/3
f 237/1/3 226/1/3 225/1/3
f 238/1/3 226/1/3 237/1/3
f 239/4/3 235/4/3 227/4/3
f 240/4/3 235/4/3 239/4/3
f 241/1/3 230/1/3 236/1/3
f 242/1/3 230/1/3 241/1/3
f 243/4/3 232/4/3 231/4/3
f 244/4/3 232/4/3 243/4/3
f 245/1/4 246/1/4 252/1/4
f 252/1/4 246/1/4 253/1/4
f 252/3/4 253/3/4 254/3/4
f 254/3/4 253/3/4 255/3/4
f 254/1/4 255/1/4 256/1/4
f 256/1/4 255/1/4 257/1/4
f 247/4/4 248/4/4 258/4/4
f 248/1/4 249/1/4 259/1/4
f 258/4/4 248/4/4 259/4/4
f 259/1/4 249/1/4 260/1/4
f 250/4/4 251/4/4 261/4/4
f 261/4/4 251/4/4 262/4/4
f 263/4/4 264/4/4 269/4/4
f 269/4/4 264/4/4 270/4/4
f 265/2/4 266/2/4 271/2/4
f 271/2/4 266/2/4 272/2/4
f 267/1/4 268/1/4 273/1/4
f 273/1/4 268/1/4 274/1/4
f 275/1/4 276/1/4 279/1/4
f 279/1/4 276/1/4 280/1/4
f 277/4/4 278/4/4 281/4/4
f 281/4/4 278/4/4 282/4/4
f 283/1/4 284/1/4 287/1/4
f 287/1/4 284/1/4 288/1/4
f 285/4/4 286/4/4 289/4/4
f 289/4/4 286/4/4 290/4/4
f 291/4/4 292/4/4 293/4/4
f 293/4/4 292/4/4 294/4/4
f 295/4/4 296/4/4 297/4/4
f 297/4/4 296/4/4 298/4/4
f 299/4/4 300/4/4 307/4/4
f 301/4/4 302/4/4 308/4/4
f 308/4/4 302/4/4 309/4/4
f 303/1/4 304/1/4 310/1/4
f 299/4/4 307/4/4 311/4/4
f 307/3/4 308/3/4 311/3/4
f 308/4/4 309/4/4 312/4/4
f 311/3/4 308/3/4 312/3/4
f 309/3/4 310/3/4 313/3/4
f 312/4/4 309/4/4 313/4/4
f 310/1/4 304/1/4 314/1/4
f 313/3/4 310/3/4 314/3/4
f 299/4/4 311/4/4 315/4/4
f 315/4/4 311/4/4 316/4/4
f 312/4/4 313/4/4 317/4/4
f 317/4/4 313/4/4 318/4/4
f 314/1/4 304/1/4 319/1/4
f 304/2/4 305/2/4 320/2/4
f 319/1/4 304/1/4 320/1/4
f 305/4/4 306/4/4 321/4/4
f 320/2/4 305/2/4 321/2/4
f 321/4/4 306/4/4 322/4/4
f 325/4/5 324/4/5 323/4/5
f 326/4/5 324/4/5 325/4/5
f 329/4/5 328/4/5 327/4/5
f 330/4/5 328/4/5 329/4/5
f 335/2/5 332/2/5 331/2/5
f 336/2/5 332/2/5 335/2/5
f 337/2/5 334/2/5 333/2/5
f 338/2/5 334/2/5 337/2/5
f 343/2/5 340/2/5 339/2/5
f 343/2/5 342/2/5 341/2/5
f 343/2/5 341/2/5 340/2/5
f 344/2/5 342/2/5 343/2/5
f 347/2/5 346/2/5 345/2/5
f 348/2/5 346/2/5 347/2/5
f 353/1/5 350/1/5 349/1/5
f 354/1/5 350/1/5 353/1/5
f 355/1/5 352/1/5 351/1/5
f 356/1/5 352/1/5 355/1/5
f 357/4/5 354/4/5 353/4/5
f 358/4/5 354/4/5 357/4/5
f 359/4/5 356/4/5 355/4/5
f 360/4/5 356/4/5 359/4/5
f 365/1/5 362/1/5 361/1/5
f 366/1/5 362/1/5 365/1/5
f 367/1/5 364/1/5 363/1/5
f 368/1/5 364/1/5 367/1/5
f 373/1/5 370/1/5 369/1/5
f 374/1/5 370/1/5 373/1/5
f 375/1/5 372/1/5 371/1/5
f 376/1/5 372/1/5 375/1/5
f 379/1/5 378/1/5 377/1/5
f 380/1/5 378/1/5 379/1/5
f 383/2/5 382/2/5 381/2/5
f 384/2/5 382/2/5 383/2/5
f 385/4/6 386/4/6 389/4/6
f 389/4/6 386/4/6 390/4/6
f 387/4/6 388/4/6 391/4/6
f 391/4/6 388/4/6 392/4/6
f 393/4/6 394/4/6 397/4/6
f 395/4/6 396/4/6 397/4/6
f 394/4/6 395/4/6 397/4/6
f 397/4/6 396/4/6 398/4/6
f 399/4/6 400/4/6 401/4/6
f 401/4/6 400/4/6 402/4/6
f 403/4/6 404/4/6 407/4/6
f 407/4/6 404/4/6 408/4/6
f 405/4/6 406/4/6 409/4/6
f 409/4/6 406/4/6 410/4/6
f 411/4/6 412/4/6 415/4/6
f 415/4/6 412/4/6 416/4/6
f 413/4/6 414/4/6 417/4/6
f 417/4/6 414/4/6 418/4/6
f 419/2/6 420/2/6 421/2/6
f 421/2/6 420/2/6 422/2/6
f 423/4/6 424/4/6 427/4/6
f 427/4/6 424/4/6 428/4/6
f 425/4/6 426/4/6 429/4/6
f 429/4/6 426/4/6 430/4/6
f 431/4/6 432/4/6 435/4/6
f 435/4/6 432/4/6 436/4/6
f 433/4/6 434/4/6 437/4/6
f 437/4/6 434/4/6 438/4/6
f 439/2/6 440/2/6 441/2/6
f 441/2/6 440/2/6 442/2/6
f 443/4/6 444/4/6 447/4/6
f 447/4/6 444/4/6 448/4/6
f 445/4/6 446/4/6 449/4/6
f 449/4/6 446/4/6 450/4/6
f 451/1/6 452/1/6 453/1/6
f 453/1/6 452/1/6 454/1/6
f 455/2/6 456/2/6 457/2/6
f 457/2/6 456/2/6 458/2/6
f 459/4/6 460/4/6 461/4/6
f 461/4/6 460/4/6 462/4/6
f 463/4/6 464/4/6 465/4/6
f 465/4/6 464/4/6 466/4/6
