# MagicaVoxel @ Ephtracy

# group
o 

# material
mtllib Package 01 Necro Dungeon-77.mtl
usemtl palette

# normals
vn 0 0 1
vn 0 0 -1
vn 1 0 0
vn -1 0 0
vn 0 -1 0
vn 0 1 0

# texcoords
vt 0.00585938 0.5
vt 0.00976563 0.5
vt 0.0371094 0.5
vt 0.0410156 0.5
vt 0.0527344 0.5
vt 0.0683594 0.5
vt 0.0722656 0.5
vt 0.103516 0.5

# verts
v -0.9 0 0.9
v -1 0 0.9
v -1.1 0 0.9
v -1.4 0 0.9
v -1.5 0 0.9
v -1.7 0 0.9
v -2.1 0 0.9
v -3.4 0 0.9
v -1.7 0.1 0.9
v -2.1 0.1 0.9
v -1 0.2 0.9
v -1.1 0.2 0.9
v -1.3 0.2 0.9
v -1.4 0.2 0.9
v -1.5 0.2 0.9
v -1.6 0.2 0.9
v -1.7 0.2 0.9
v -2.2 0.2 0.9
v -2.3 0.2 0.9
v -2.4 0.2 0.9
v -2.5 0.2 0.9
v -2.7 0.2 0.9
v -2.8 0.2 0.9
v -3.2 0.2 0.9
v -3.3 0.2 0.9
v -1.1 0.3 0.9
v -1.3 0.3 0.9
v -2.3 0.3 0.9
v -2.4 0.3 0.9
v -2.5 0.3 0.9
v -2.7 0.3 0.9
v -2.8 0.3 0.9
v -3.2 0.3 0.9
v -3.3 0.3 0.9
v -3.4 0.3 0.9
v -0.9 0.4 0.9
v -1.1 0.4 0.9
v -1.3 0.4 0.9
v -1.6 0.4 0.9
v -1.7 0.4 0.9
v -2.1 0.4 0.9
v -2.2 0.4 0.9
v -3.4 0.4 0.9
v -0.9 0 -1.6
v -2.2 0 -1.6
v -2.3 0 -1.6
v -3.2 0 -1.6
v -3.3 0 -1.6
v -3.4 0 -1.6
v -1 0.1 -1.6
v -1.1 0.1 -1.6
v -2.2 0.1 -1.6
v -2.3 0.1 -1.6
v -2.4 0.1 -1.6
v -3.2 0.1 -1.6
v -3.3 0.1 -1.6
v -1 0.2 -1.6
v -1.1 0.2 -1.6
v -1.2 0.2 -1.6
v -1.3 0.2 -1.6
v -1.4 0.2 -1.6
v -1.5 0.2 -1.6
v -1.9 0.2 -1.6
v -2 0.2 -1.6
v -2.3 0.2 -1.6
v -2.4 0.2 -1.6
v -2.6 0.2 -1.6
v -2.7 0.2 -1.6
v -3 0.2 -1.6
v -3.1 0.2 -1.6
v -0.9 0.3 -1.6
v -1.2 0.3 -1.6
v -1.3 0.3 -1.6
v -1.4 0.3 -1.6
v -1.5 0.3 -1.6
v -1.9 0.3 -1.6
v -2 0.3 -1.6
v -2.6 0.3 -1.6
v -2.7 0.3 -1.6
v -3 0.3 -1.6
v -3.1 0.3 -1.6
v -3.4 0.3 -1.6
v -0.9 0.4 -1.6
v -3.4 0.4 -1.6
v -0.9 0 0.9
v -0.9 0.4 0.9
v -0.9 0 0.7
v -0.9 0.2 0.7
v -0.9 0 0.6
v -0.9 0.2 0.6
v -0.9 0.3 0.6
v -0.9 0.2 -0.2
v -0.9 0.3 -0.2
v -0.9 0 -0.3
v -0.9 0.2 -0.3
v -0.9 0.3 -0.3
v -0.9 0.4 -0.3
v -0.9 0 -0.4
v -0.9 0.2 -0.4
v -0.9 0.3 -0.4
v -0.9 0.4 -0.4
v -0.9 0.2 -0.5
v -0.9 0.4 -0.5
v -0.9 0.2 -0.6
v -0.9 0.3 -0.6
v -0.9 0.2 -0.7
v -0.9 0.3 -0.7
v -0.9 0.2 -0.8
v -0.9 0.3 -0.8
v -0.9 0 -1
v -0.9 0.1 -1
v -0.9 0 -1.1
v -0.9 0.1 -1.1
v -0.9 0.2 -1.3
v -0.9 0.3 -1.3
v -0.9 0.2 -1.4
v -0.9 0.3 -1.4
v -0.9 0 -1.6
v -0.9 0.3 -1.6
v -0.9 0.4 -1.6
v -3.4 0 0.9
v -3.4 0.3 0.9
v -3.4 0.4 0.9
v -3.4 0.2 0.5
v -3.4 0.3 0.5
v -3.4 0.2 0.4
v -3.4 0.3 0.4
v -3.4 0.2 -0.3
v -3.4 0.3 -0.3
v -3.4 0.2 -0.4
v -3.4 0.3 -0.4
v -3.4 0.2 -0.5
v -3.4 0.3 -0.5
v -3.4 0.2 -0.6
v -3.4 0.3 -0.6
v -3.4 0 -0.9
v -3.4 0.1 -0.9
v -3.4 0 -1
v -3.4 0.1 -1
v -3.4 0.2 -1.1
v -3.4 0.3 -1.1
v -3.4 0.2 -1.2
v -3.4 0.3 -1.2
v -3.4 0 -1.6
v -3.4 0.3 -1.6
v -3.4 0.4 -1.6
v -0.9 0 0.9
v -0.9 0 0.7
v -0.9 0 0.6
v -0.9 0 -0.3
v -0.9 0 -0.4
v -0.9 0 -1
v -0.9 0 -1.1
v -0.9 0 -1.6
v -1 0 0.9
v -1 0 0.8
v -1 0 0.7
v -1 0 0.6
v -1 0 -0.3
v -1 0 -0.4
v -1 0 -1
v -1 0 -1.1
v -1.1 0 0.9
v -1.1 0 0.8
v -1.1 0 -0.3
v -1.1 0 -0.4
v -1.4 0 0.9
v -1.4 0 0.8
v -1.5 0 0.9
v -1.5 0 0.8
v -1.6 0 -0.3
v -1.6 0 -0.5
v -1.7 0 0.9
v -1.7 0 0.8
v -1.7 0 -0.5
v -1.7 0 -0.6
v -1.8 0 -0.3
v -1.8 0 -0.6
v -2.1 0 0.9
v -2.1 0 0.8
v -2.1 0 0.6
v -2.1 0 0.5
v -2.1 0 0.4
v -2.1 0 0.1
v -2.1 0 0
v -2.1 0 -0.2
v -2.1 0 -0.3
v -2.2 0 0.8
v -2.2 0 0.6
v -2.2 0 0.5
v -2.2 0 0.4
v -2.2 0 0.3
v -2.2 0 0.2
v -2.2 0 0.1
v -2.2 0 0
v -2.2 0 -0.2
v -2.2 0 -0.3
v -2.2 0 -1.5
v -2.2 0 -1.6
v -2.3 0 0.3
v -2.3 0 0.2
v -2.3 0 -0.1
v -2.3 0 -0.2
v -2.3 0 -1.5
v -2.3 0 -1.6
v -2.4 0 0
v -2.4 0 -0.1
v -2.5 0 -0.4
v -2.5 0 -0.7
v -2.7 0 -0.3
v -2.7 0 -0.4
v -2.8 0 -0.5
v -2.8 0 -0.7
v -2.9 0 -0.3
v -2.9 0 -0.5
v -3.2 0 -1.5
v -3.2 0 -1.6
v -3.3 0 -0.9
v -3.3 0 -1
v -3.3 0 -1.5
v -3.3 0 -1.6
v -3.4 0 0.9
v -3.4 0 -0.9
v -3.4 0 -1
v -3.4 0 -1.6
v -0.9 0.4 0.9
v -0.9 0.4 -0.3
v -0.9 0.4 -0.4
v -0.9 0.4 -0.5
v -0.9 0.4 -1.6
v -1 0.4 0.7
v -1 0.4 0.4
v -1 0.4 0
v -1 0.4 -0.1
v -1 0.4 -0.3
v -1 0.4 -0.4
v -1.1 0.4 0.9
v -1.1 0.4 0.8
v -1.1 0.4 0.7
v -1.1 0.4 0.4
v -1.1 0.4 0.3
v -1.1 0.4 0.2
v -1.1 0.4 0.1
v -1.1 0.4 0
v -1.1 0.4 -0.1
v -1.1 0.4 -0.2
v -1.1 0.4 -0.3
v -1.1 0.4 -0.4
v -1.1 0.4 -0.5
v -1.2 0.4 0.1
v -1.2 0.4 0
v -1.2 0.4 -0.1
v -1.2 0.4 -0.2
v -1.2 0.4 -0.3
v -1.2 0.4 -0.6
v -1.2 0.4 -0.8
v -1.3 0.4 0.9
v -1.3 0.4 0.8
v -1.3 0.4 0.7
v -1.3 0.4 0.4
v -1.3 0.4 0.3
v -1.3 0.4 0.2
v -1.3 0.4 0.1
v -1.3 0.4 0
v -1.3 0.4 -0.1
v -1.3 0.4 -0.2
v -1.4 0.4 0.8
v -1.4 0.4 0.7
v -1.4 0.4 0.4
v -1.4 0.4 0.3
v -1.4 0.4 0.2
v -1.4 0.4 0.1
v -1.4 0.4 0
v -1.4 0.4 -0.1
v -1.4 0.4 -0.6
v -1.4 0.4 -0.8
v -1.5 0.4 0.7
v -1.5 0.4 0.4
v -1.5 0.4 0.2
v -1.5 0.4 0.1
v -1.5 0.4 -0.1
v -1.5 0.4 -0.3
v -1.5 0.4 -0.4
v -1.5 0.4 -0.5
v -1.6 0.4 0.9
v -1.6 0.4 0.2
v -1.6 0.4 0
v -1.6 0.4 -0.1
v -1.6 0.4 -0.3
v -1.6 0.4 -0.4
v -1.6 0.4 -0.5
v -1.6 0.4 -0.6
v -1.6 0.4 -0.9
v -1.6 0.4 -1
v -1.7 0.4 0.9
v -1.7 0.4 0.2
v -1.7 0.4 0.1
v -1.7 0.4 0
v -1.7 0.4 -0.5
v -1.7 0.4 -0.6
v -1.7 0.4 -0.7
v -1.7 0.4 -0.9
v -1.7 0.4 -1
v -1.8 0.4 -0.3
v -1.8 0.4 -0.4
v -1.8 0.4 -0.5
v -1.8 0.4 -0.6
v -1.8 0.4 -0.7
v -1.9 0.4 0.8
v -1.9 0.4 0.7
v -1.9 0.4 -0.4
v -1.9 0.4 -0.6
v -2 0.4 0.8
v -2 0.4 0.7
v -2 0.4 0.6
v -2.1 0.4 0.9
v -2.1 0.4 0.7
v -2.1 0.4 0.6
v -2.1 0.4 0.5
v -2.1 0.4 0.4
v -2.1 0.4 0.1
v -2.1 0.4 0
v -2.1 0.4 -0.2
v -2.1 0.4 -0.3
v -2.1 0.4 -0.4
v -2.1 0.4 -0.7
v -2.1 0.4 -0.8
v -2.1 0.4 -1.1
v -2.1 0.4 -1.2
v -2.2 0.4 0.9
v -2.2 0.4 0.6
v -2.2 0.4 0.5
v -2.2 0.4 0.4
v -2.2 0.4 0.3
v -2.2 0.4 0.2
v -2.2 0.4 0.1
v -2.2 0.4 0
v -2.2 0.4 -0.1
v -2.2 0.4 -0.7
v -2.2 0.4 -0.8
v -2.2 0.4 -1.1
v -2.2 0.4 -1.2
v -2.3 0.4 0.6
v -2.3 0.4 0.5
v -2.3 0.4 0.4
v -2.3 0.4 0.3
v -2.3 0.4 0.2
v -2.3 0.4 0.1
v -2.3 0.4 0
v -2.3 0.4 -0.1
v -2.3 0.4 -0.2
v -2.3 0.4 -0.3
v -2.4 0.4 0.3
v -2.4 0.4 0.2
v -2.4 0.4 0.1
v -2.4 0.4 0
v -2.4 0.4 -0.1
v -2.4 0.4 -0.2
v -2.4 0.4 -0.4
v -2.4 0.4 -0.7
v -2.4 0.4 -1.1
v -2.4 0.4 -1.2
v -2.5 0.4 0
v -2.5 0.4 -0.1
v -2.5 0.4 -0.3
v -2.5 0.4 -0.4
v -2.5 0.4 -0.7
v -2.5 0.4 -0.8
v -2.5 0.4 -1.1
v -2.5 0.4 -1.2
v -2.7 0.4 0.8
v -2.7 0.4 0.7
v -2.7 0.4 -0.2
v -2.7 0.4 -0.3
v -2.7 0.4 -0.4
v -2.7 0.4 -0.5
v -2.7 0.4 -0.6
v -2.7 0.4 -0.7
v -2.8 0.4 0.8
v -2.8 0.4 0.7
v -2.8 0.4 -0.5
v -2.8 0.4 -0.6
v -2.8 0.4 -0.7
v -2.8 0.4 -0.8
v -2.9 0.4 0.5
v -2.9 0.4 0.3
v -2.9 0.4 -0.2
v -2.9 0.4 -0.3
v -2.9 0.4 -0.5
v -2.9 0.4 -0.7
v -2.9 0.4 -0.9
v -3 0.4 -0.3
v -3 0.4 -0.5
v -3.1 0.4 0.5
v -3.1 0.4 0.3
v -3.1 0.4 -0.7
v -3.1 0.4 -0.9
v -3.4 0.4 0.9
v -3.4 0.4 -1.6

# faces
f 9/7/1 6/7/1 5/7/1
f 9/8/1 7/8/1 6/8/1
f 10/3/1 8/3/1 7/3/1
f 10/8/1 7/8/1 9/8/1
f 11/7/1 2/7/1 1/7/1
f 11/2/1 3/2/1 2/2/1
f 12/4/1 4/4/1 3/4/1
f 12/2/1 3/2/1 11/2/1
f 13/4/1 4/4/1 12/4/1
f 14/8/1 5/8/1 4/8/1
f 14/4/1 4/4/1 13/4/1
f 15/7/1 9/7/1 5/7/1
f 15/8/1 5/8/1 14/8/1
f 16/7/1 9/7/1 15/7/1
f 17/4/1 10/4/1 9/4/1
f 17/7/1 9/7/1 16/7/1
f 18/3/1 8/3/1 10/3/1
f 19/3/1 8/3/1 18/3/1
f 20/3/1 8/3/1 19/3/1
f 21/3/1 8/3/1 20/3/1
f 22/3/1 8/3/1 21/3/1
f 23/3/1 8/3/1 22/3/1
f 24/3/1 8/3/1 23/3/1
f 25/3/1 8/3/1 24/3/1
f 26/2/1 13/2/1 12/2/1
f 26/7/1 12/7/1 11/7/1
f 27/7/1 16/7/1 15/7/1
f 27/2/1 13/2/1 26/2/1
f 27/7/1 14/7/1 13/7/1
f 27/7/1 15/7/1 14/7/1
f 28/1/1 19/1/1 18/1/1
f 28/3/1 20/3/1 19/3/1
f 29/1/1 21/1/1 20/1/1
f 29/3/1 20/3/1 28/3/1
f 30/3/1 22/3/1 21/3/1
f 30/1/1 21/1/1 29/1/1
f 31/1/1 23/1/1 22/1/1
f 31/3/1 22/3/1 30/3/1
f 32/3/1 24/3/1 23/3/1
f 32/1/1 23/1/1 31/1/1
f 33/1/1 25/1/1 24/1/1
f 33/3/1 24/3/1 32/3/1
f 34/3/1 8/3/1 25/3/1
f 34/1/1 25/1/1 33/1/1
f 35/3/1 8/3/1 34/3/1
f 36/7/1 26/7/1 11/7/1
f 36/7/1 11/7/1 1/7/1
f 37/8/1 27/8/1 26/8/1
f 37/7/1 26/7/1 36/7/1
f 38/7/1 16/7/1 27/7/1
f 38/8/1 27/8/1 37/8/1
f 39/2/1 17/2/1 16/2/1
f 39/7/1 16/7/1 38/7/1
f 40/4/1 10/4/1 17/4/1
f 40/2/1 17/2/1 39/2/1
f 41/3/1 18/3/1 10/3/1
f 41/4/1 10/4/1 40/4/1
f 42/1/1 35/1/1 34/1/1
f 42/3/1 18/3/1 41/3/1
f 42/1/1 33/1/1 32/1/1
f 42/1/1 34/1/1 33/1/1
f 42/1/1 29/1/1 28/1/1
f 42/1/1 28/1/1 18/1/1
f 42/1/1 31/1/1 30/1/1
f 42/1/1 32/1/1 31/1/1
f 42/1/1 30/1/1 29/1/1
f 43/1/1 35/1/1 42/1/1
f 44/3/2 45/3/2 50/3/2
f 50/3/2 45/3/2 51/3/2
f 45/1/2 46/1/2 52/1/2
f 51/3/2 45/3/2 52/3/2
f 46/3/2 47/3/2 53/3/2
f 52/1/2 46/1/2 53/1/2
f 53/3/2 47/3/2 54/3/2
f 47/1/2 48/1/2 55/1/2
f 54/3/2 47/3/2 55/3/2
f 48/3/2 49/3/2 56/3/2
f 55/1/2 48/1/2 56/1/2
f 50/1/2 51/1/2 57/1/2
f 44/3/2 50/3/2 57/3/2
f 51/3/2 52/3/2 58/3/2
f 57/1/2 51/1/2 58/1/2
f 52/3/2 53/3/2 58/3/2
f 58/3/2 53/3/2 59/3/2
f 59/3/2 53/3/2 60/3/2
f 60/3/2 53/3/2 61/3/2
f 61/3/2 53/3/2 62/3/2
f 62/3/2 53/3/2 63/3/2
f 63/3/2 53/3/2 64/3/2
f 53/1/2 54/1/2 65/1/2
f 64/3/2 53/3/2 65/3/2
f 54/3/2 55/3/2 66/3/2
f 65/1/2 54/1/2 66/1/2
f 55/3/2 56/3/2 66/3/2
f 66/3/2 56/3/2 67/3/2
f 67/3/2 56/3/2 68/3/2
f 68/3/2 56/3/2 69/3/2
f 69/3/2 56/3/2 70/3/2
f 44/3/2 57/3/2 71/3/2
f 57/3/2 58/3/2 71/3/2
f 58/3/2 59/3/2 71/3/2
f 59/1/2 60/1/2 72/1/2
f 71/3/2 59/3/2 72/3/2
f 60/3/2 61/3/2 73/3/2
f 72/1/2 60/1/2 73/1/2
f 61/1/2 62/1/2 74/1/2
f 73/3/2 61/3/2 74/3/2
f 62/3/2 63/3/2 75/3/2
f 74/1/2 62/1/2 75/1/2
f 63/1/2 64/1/2 76/1/2
f 75/3/2 63/3/2 76/3/2
f 64/3/2 65/3/2 77/3/2
f 76/1/2 64/1/2 77/1/2
f 65/3/2 66/3/2 77/3/2
f 66/3/2 67/3/2 77/3/2
f 67/1/2 68/1/2 78/1/2
f 77/3/2 67/3/2 78/3/2
f 68/3/2 69/3/2 79/3/2
f 78/1/2 68/1/2 79/1/2
f 69/1/2 70/1/2 80/1/2
f 79/3/2 69/3/2 80/3/2
f 70/3/2 56/3/2 81/3/2
f 80/1/2 70/1/2 81/1/2
f 56/3/2 49/3/2 82/3/2
f 81/3/2 56/3/2 82/3/2
f 75/1/2 76/1/2 83/1/2
f 80/1/2 81/1/2 83/1/2
f 81/1/2 82/1/2 83/1/2
f 76/1/2 77/1/2 83/1/2
f 72/1/2 73/1/2 83/1/2
f 71/1/2 72/1/2 83/1/2
f 79/1/2 80/1/2 83/1/2
f 77/1/2 78/1/2 83/1/2
f 78/1/2 79/1/2 83/1/2
f 73/1/2 74/1/2 83/1/2
f 74/1/2 75/1/2 83/1/2
f 83/1/2 82/1/2 84/1/2
f 87/7/3 86/7/3 85/7/3
f 88/7/3 86/7/3 87/7/3
f 89/2/3 88/2/3 87/2/3
f 90/7/3 86/7/3 88/7/3
f 90/2/3 88/2/3 89/2/3
f 91/7/3 86/7/3 90/7/3
f 92/4/3 90/4/3 89/4/3
f 92/2/3 91/2/3 90/2/3
f 93/7/3 86/7/3 91/7/3
f 93/2/3 91/2/3 92/2/3
f 94/4/3 92/4/3 89/4/3
f 95/7/3 93/7/3 92/7/3
f 95/4/3 92/4/3 94/4/3
f 96/7/3 86/7/3 93/7/3
f 96/7/3 93/7/3 95/7/3
f 97/7/3 86/7/3 96/7/3
f 98/8/3 95/8/3 94/8/3
f 99/7/3 96/7/3 95/7/3
f 99/8/3 95/8/3 98/8/3
f 100/8/3 97/8/3 96/8/3
f 100/7/3 96/7/3 99/7/3
f 101/8/3 97/8/3 100/8/3
f 102/3/3 99/3/3 98/3/3
f 102/3/3 100/3/3 99/3/3
f 102/3/3 101/3/3 100/3/3
f 103/3/3 101/3/3 102/3/3
f 104/3/3 102/3/3 98/3/3
f 104/1/3 103/1/3 102/1/3
f 105/1/3 103/1/3 104/1/3
f 106/3/3 104/3/3 98/3/3
f 106/3/3 105/3/3 104/3/3
f 107/1/3 103/1/3 105/1/3
f 107/3/3 105/3/3 106/3/3
f 108/3/3 106/3/3 98/3/3
f 108/1/3 107/1/3 106/1/3
f 109/1/3 103/1/3 107/1/3
f 109/1/3 107/1/3 108/1/3
f 110/3/3 108/3/3 98/3/3
f 110/3/3 109/3/3 108/3/3
f 111/3/3 109/3/3 110/3/3
f 112/1/3 111/1/3 110/1/3
f 113/3/3 109/3/3 111/3/3
f 113/1/3 111/1/3 112/1/3
f 114/3/3 113/3/3 112/3/3
f 114/3/3 109/3/3 113/3/3
f 115/1/3 103/1/3 109/1/3
f 115/3/3 109/3/3 114/3/3
f 116/3/3 114/3/3 112/3/3
f 116/1/3 115/1/3 114/1/3
f 117/1/3 103/1/3 115/1/3
f 117/1/3 115/1/3 116/1/3
f 118/3/3 116/3/3 112/3/3
f 118/3/3 117/3/3 116/3/3
f 119/1/3 103/1/3 117/1/3
f 119/3/3 117/3/3 118/3/3
f 120/1/3 103/1/3 119/1/3
f 121/3/4 122/3/4 124/3/4
f 122/1/4 123/1/4 125/1/4
f 124/3/4 122/3/4 125/3/4
f 121/3/4 124/3/4 126/3/4
f 124/1/4 125/1/4 126/1/4
f 125/1/4 123/1/4 127/1/4
f 126/1/4 125/1/4 127/1/4
f 121/3/4 126/3/4 128/3/4
f 126/3/4 127/3/4 128/3/4
f 127/1/4 123/1/4 129/1/4
f 128/3/4 127/3/4 129/3/4
f 121/3/4 128/3/4 130/3/4
f 128/1/4 129/1/4 130/1/4
f 129/1/4 123/1/4 131/1/4
f 130/1/4 129/1/4 131/1/4
f 121/3/4 130/3/4 132/3/4
f 130/3/4 131/3/4 132/3/4
f 131/1/4 123/1/4 133/1/4
f 132/3/4 131/3/4 133/3/4
f 121/3/4 132/3/4 134/3/4
f 132/1/4 133/1/4 134/1/4
f 133/1/4 123/1/4 135/1/4
f 134/1/4 133/1/4 135/1/4
f 121/3/4 134/3/4 136/3/4
f 134/3/4 135/3/4 136/3/4
f 136/3/4 135/3/4 137/3/4
f 136/1/4 137/1/4 138/1/4
f 137/3/4 135/3/4 139/3/4
f 138/1/4 137/1/4 139/1/4
f 138/3/4 139/3/4 140/3/4
f 139/3/4 135/3/4 140/3/4
f 135/1/4 123/1/4 141/1/4
f 140/3/4 135/3/4 141/3/4
f 138/3/4 140/3/4 142/3/4
f 140/1/4 141/1/4 142/1/4
f 141/1/4 123/1/4 143/1/4
f 142/1/4 141/1/4 143/1/4
f 138/3/4 142/3/4 144/3/4
f 142/3/4 143/3/4 144/3/4
f 143/1/4 123/1/4 145/1/4
f 144/3/4 143/3/4 145/3/4
f 145/1/4 123/1/4 146/1/4
f 155/7/5 148/7/5 147/7/5
f 156/7/5 148/7/5 155/7/5
f 157/2/5 149/2/5 148/2/5
f 157/7/5 148/7/5 156/7/5
f 158/4/5 150/4/5 149/4/5
f 158/2/5 149/2/5 157/2/5
f 159/8/5 151/8/5 150/8/5
f 159/4/5 150/4/5 158/4/5
f 160/3/5 152/3/5 151/3/5
f 160/8/5 151/8/5 159/8/5
f 161/1/5 153/1/5 152/1/5
f 161/3/5 152/3/5 160/3/5
f 162/3/5 154/3/5 153/3/5
f 162/1/5 153/1/5 161/1/5
f 163/2/5 156/2/5 155/2/5
f 164/7/5 157/7/5 156/7/5
f 164/2/5 156/2/5 163/2/5
f 164/7/5 158/7/5 157/7/5
f 164/7/5 159/7/5 158/7/5
f 164/7/5 160/7/5 159/7/5
f 165/7/5 160/7/5 164/7/5
f 166/3/5 161/3/5 160/3/5
f 166/7/5 160/7/5 165/7/5
f 166/3/5 162/3/5 161/3/5
f 167/4/5 164/4/5 163/4/5
f 168/7/5 165/7/5 164/7/5
f 168/4/5 164/4/5 167/4/5
f 169/8/5 168/8/5 167/8/5
f 170/7/5 165/7/5 168/7/5
f 170/8/5 168/8/5 169/8/5
f 171/3/5 166/3/5 165/3/5
f 171/7/5 165/7/5 170/7/5
f 171/7/5 170/7/5 169/7/5
f 172/3/5 162/3/5 166/3/5
f 172/3/5 166/3/5 171/3/5
f 173/7/5 171/7/5 169/7/5
f 173/7/5 172/7/5 171/7/5
f 174/7/5 172/7/5 173/7/5
f 175/3/5 162/3/5 172/3/5
f 175/7/5 172/7/5 174/7/5
f 176/3/5 162/3/5 175/3/5
f 177/7/5 175/7/5 174/7/5
f 177/7/5 176/7/5 175/7/5
f 178/3/5 162/3/5 176/3/5
f 178/7/5 176/7/5 177/7/5
f 179/8/5 174/8/5 173/8/5
f 180/7/5 177/7/5 174/7/5
f 180/8/5 174/8/5 179/8/5
f 181/7/5 177/7/5 180/7/5
f 182/7/5 177/7/5 181/7/5
f 183/7/5 177/7/5 182/7/5
f 184/7/5 177/7/5 183/7/5
f 185/7/5 177/7/5 184/7/5
f 186/7/5 177/7/5 185/7/5
f 187/3/5 178/3/5 177/3/5
f 187/7/5 177/7/5 186/7/5
f 188/3/5 180/3/5 179/3/5
f 188/5/5 181/5/5 180/5/5
f 189/7/5 182/7/5 181/7/5
f 189/5/5 181/5/5 188/5/5
f 190/5/5 183/5/5 182/5/5
f 190/7/5 182/7/5 189/7/5
f 191/7/5 184/7/5 183/7/5
f 191/5/5 183/5/5 190/5/5
f 192/7/5 184/7/5 191/7/5
f 193/7/5 184/7/5 192/7/5
f 194/5/5 185/5/5 184/5/5
f 194/7/5 184/7/5 193/7/5
f 195/7/5 186/7/5 185/7/5
f 195/5/5 185/5/5 194/5/5
f 196/5/5 187/5/5 186/5/5
f 196/7/5 186/7/5 195/7/5
f 197/3/5 178/3/5 187/3/5
f 197/5/5 187/5/5 196/5/5
f 198/3/5 154/3/5 162/3/5
f 198/3/5 178/3/5 197/3/5
f 198/3/5 162/3/5 178/3/5
f 199/3/5 154/3/5 198/3/5
f 200/3/5 192/3/5 191/3/5
f 200/3/5 189/3/5 188/3/5
f 200/3/5 190/3/5 189/3/5
f 200/7/5 193/7/5 192/7/5
f 200/3/5 191/3/5 190/3/5
f 201/3/5 194/3/5 193/3/5
f 201/7/5 193/7/5 200/7/5
f 201/3/5 195/3/5 194/3/5
f 202/7/5 196/7/5 195/7/5
f 203/3/5 197/3/5 196/3/5
f 203/7/5 196/7/5 202/7/5
f 203/3/5 198/3/5 197/3/5
f 204/1/5 199/1/5 198/1/5
f 204/3/5 198/3/5 203/3/5
f 205/1/5 199/1/5 204/1/5
f 206/7/5 202/7/5 195/7/5
f 206/3/5 195/3/5 201/3/5
f 206/3/5 201/3/5 200/3/5
f 207/3/5 205/3/5 204/3/5
f 207/7/5 202/7/5 206/7/5
f 207/3/5 204/3/5 203/3/5
f 207/3/5 203/3/5 202/3/5
f 208/3/5 207/3/5 206/3/5
f 208/3/5 205/3/5 207/3/5
f 209/3/5 205/3/5 208/3/5
f 210/3/5 208/3/5 206/3/5
f 211/7/5 209/7/5 208/7/5
f 211/3/5 208/3/5 210/3/5
f 212/7/5 211/7/5 210/7/5
f 212/7/5 209/7/5 211/7/5
f 213/3/5 205/3/5 209/3/5
f 213/7/5 209/7/5 212/7/5
f 214/7/5 212/7/5 210/7/5
f 214/3/5 210/3/5 206/3/5
f 215/3/5 213/3/5 212/3/5
f 215/7/5 212/7/5 214/7/5
f 216/3/5 205/3/5 213/3/5
f 216/3/5 213/3/5 215/3/5
f 216/3/5 215/3/5 214/3/5
f 217/3/5 205/3/5 216/3/5
f 218/3/5 216/3/5 214/3/5
f 219/3/5 216/3/5 218/3/5
f 220/1/5 217/1/5 216/1/5
f 220/3/5 216/3/5 219/3/5
f 221/1/5 217/1/5 220/1/5
f 222/3/5 200/3/5 188/3/5
f 222/3/5 206/3/5 200/3/5
f 222/3/5 188/3/5 179/3/5
f 222/3/5 214/3/5 206/3/5
f 222/3/5 218/3/5 214/3/5
f 223/1/5 219/1/5 218/1/5
f 223/3/5 218/3/5 222/3/5
f 224/3/5 221/3/5 220/3/5
f 224/1/5 219/1/5 223/1/5
f 224/3/5 220/3/5 219/3/5
f 225/3/5 221/3/5 224/3/5
f 226/7/6 227/7/6 231/7/6
f 231/7/6 227/7/6 232/7/6
f 232/7/6 227/7/6 233/7/6
f 233/7/6 227/7/6 234/7/6
f 227/8/6 228/8/6 235/8/6
f 234/7/6 227/7/6 235/7/6
f 228/3/6 229/3/6 236/3/6
f 235/8/6 228/8/6 236/8/6
f 226/7/6 231/7/6 237/7/6
f 237/7/6 231/7/6 238/7/6
f 231/2/6 232/2/6 239/2/6
f 238/7/6 231/7/6 239/7/6
f 232/7/6 233/7/6 240/7/6
f 239/2/6 232/2/6 240/2/6
f 240/7/6 233/7/6 241/7/6
f 241/7/6 233/7/6 242/7/6
f 242/7/6 233/7/6 243/7/6
f 233/2/6 234/2/6 244/2/6
f 243/7/6 233/7/6 244/7/6
f 234/7/6 235/7/6 245/7/6
f 244/2/6 234/2/6 245/2/6
f 235/7/6 236/7/6 245/7/6
f 245/7/6 236/7/6 246/7/6
f 246/7/6 236/7/6 247/7/6
f 236/3/6 229/3/6 248/3/6
f 247/7/6 236/7/6 248/7/6
f 229/1/6 230/1/6 249/1/6
f 248/3/6 229/3/6 249/3/6
f 242/7/6 243/7/6 250/7/6
f 243/2/6 244/2/6 250/2/6
f 244/4/6 245/4/6 251/4/6
f 250/2/6 244/2/6 251/2/6
f 245/4/6 246/4/6 251/4/6
f 251/4/6 246/4/6 252/4/6
f 246/8/6 247/8/6 253/8/6
f 252/4/6 246/4/6 253/4/6
f 247/3/6 248/3/6 254/3/6
f 253/8/6 247/8/6 254/8/6
f 249/1/6 230/1/6 255/1/6
f 248/1/6 249/1/6 255/1/6
f 255/1/6 230/1/6 256/1/6
f 237/8/6 238/8/6 257/8/6
f 238/2/6 239/2/6 258/2/6
f 257/8/6 238/8/6 258/8/6
f 239/4/6 240/4/6 259/4/6
f 258/2/6 239/2/6 259/2/6
f 240/4/6 241/4/6 259/4/6
f 259/4/6 241/4/6 260/4/6
f 241/8/6 242/8/6 261/8/6
f 260/4/6 241/4/6 261/4/6
f 242/7/6 250/7/6 262/7/6
f 261/8/6 242/8/6 262/8/6
f 250/8/6 251/8/6 263/8/6
f 262/7/6 250/7/6 263/7/6
f 251/4/6 252/4/6 264/4/6
f 263/8/6 251/8/6 264/8/6
f 252/8/6 253/8/6 265/8/6
f 264/4/6 252/4/6 265/4/6
f 253/7/6 254/7/6 266/7/6
f 265/8/6 253/8/6 266/8/6
f 257/7/6 258/7/6 267/7/6
f 258/8/6 259/8/6 267/8/6
f 259/4/6 260/4/6 268/4/6
f 267/8/6 259/8/6 268/8/6
f 260/8/6 261/8/6 269/8/6
f 268/4/6 260/4/6 269/4/6
f 263/7/6 264/7/6 270/7/6
f 269/8/6 261/8/6 270/8/6
f 262/7/6 263/7/6 270/7/6
f 261/7/6 262/7/6 270/7/6
f 270/7/6 264/7/6 271/7/6
f 271/7/6 264/7/6 272/7/6
f 264/8/6 265/8/6 273/8/6
f 272/7/6 264/7/6 273/7/6
f 265/7/6 266/7/6 274/7/6
f 273/8/6 265/8/6 274/8/6
f 255/3/6 256/3/6 275/3/6
f 248/1/6 255/1/6 275/1/6
f 256/1/6 230/1/6 276/1/6
f 275/3/6 256/3/6 276/3/6
f 268/8/6 269/8/6 277/8/6
f 267/7/6 268/7/6 277/7/6
f 269/7/6 270/7/6 278/7/6
f 277/8/6 269/8/6 278/8/6
f 270/7/6 271/7/6 278/7/6
f 271/8/6 272/8/6 279/8/6
f 278/7/6 271/7/6 279/7/6
f 272/7/6 273/7/6 280/7/6
f 279/8/6 272/8/6 280/8/6
f 273/7/6 274/7/6 280/7/6
f 274/7/6 266/7/6 281/7/6
f 280/7/6 274/7/6 281/7/6
f 254/3/6 248/3/6 282/3/6
f 281/7/6 266/7/6 282/7/6
f 266/7/6 254/7/6 282/7/6
f 248/1/6 275/1/6 283/1/6
f 282/3/6 248/3/6 283/3/6
f 275/1/6 276/1/6 283/1/6
f 283/1/6 276/1/6 284/1/6
f 280/7/6 281/7/6 285/7/6
f 277/7/6 278/7/6 285/7/6
f 278/7/6 279/7/6 285/7/6
f 257/7/6 267/7/6 285/7/6
f 279/7/6 280/7/6 285/7/6
f 267/7/6 277/7/6 285/7/6
f 285/7/6 281/7/6 286/7/6
f 286/7/6 281/7/6 287/7/6
f 281/2/6 282/2/6 288/2/6
f 287/7/6 281/7/6 288/7/6
f 283/3/6 284/3/6 289/3/6
f 288/2/6 282/2/6 289/2/6
f 282/3/6 283/3/6 289/3/6
f 289/3/6 284/3/6 290/3/6
f 284/1/6 276/1/6 291/1/6
f 290/3/6 284/3/6 291/3/6
f 291/1/6 276/1/6 292/1/6
f 276/1/6 230/1/6 293/1/6
f 292/1/6 276/1/6 293/1/6
f 293/1/6 230/1/6 294/1/6
f 285/2/6 286/2/6 295/2/6
f 286/7/6 287/7/6 296/7/6
f 295/2/6 286/2/6 296/2/6
f 296/7/6 287/7/6 297/7/6
f 287/2/6 288/2/6 298/2/6
f 297/7/6 287/7/6 298/7/6
f 291/3/6 292/3/6 299/3/6
f 290/8/6 291/8/6 299/8/6
f 292/1/6 293/1/6 300/1/6
f 299/3/6 292/3/6 300/3/6
f 300/1/6 293/1/6 301/1/6
f 293/3/6 294/3/6 302/3/6
f 301/1/6 293/1/6 302/1/6
f 294/1/6 230/1/6 303/1/6
f 302/3/6 294/3/6 303/3/6
f 289/4/6 290/4/6 304/4/6
f 288/4/6 289/4/6 304/4/6
f 290/8/6 299/8/6 305/8/6
f 304/4/6 290/4/6 305/4/6
f 299/7/6 300/7/6 306/7/6
f 305/8/6 299/8/6 306/8/6
f 300/3/6 301/3/6 307/3/6
f 306/7/6 300/7/6 307/7/6
f 301/1/6 302/1/6 308/1/6
f 307/3/6 301/3/6 308/3/6
f 302/1/6 303/1/6 308/1/6
f 296/4/6 297/4/6 309/4/6
f 295/4/6 296/4/6 309/4/6
f 309/4/6 297/4/6 310/4/6
f 306/3/6 307/3/6 311/3/6
f 304/3/6 305/3/6 311/3/6
f 305/3/6 306/3/6 311/3/6
f 307/1/6 308/1/6 312/1/6
f 311/3/6 307/3/6 312/3/6
f 309/2/6 310/2/6 313/2/6
f 295/4/6 309/4/6 313/4/6
f 310/4/6 297/4/6 314/4/6
f 313/2/6 310/2/6 314/2/6
f 314/4/6 297/4/6 315/4/6
f 295/4/6 313/4/6 316/4/6
f 313/4/6 314/4/6 316/4/6
f 314/7/6 315/7/6 317/7/6
f 316/4/6 314/4/6 317/4/6
f 315/4/6 297/4/6 318/4/6
f 317/7/6 315/7/6 318/7/6
f 318/4/6 297/4/6 319/4/6
f 319/4/6 297/4/6 320/4/6
f 297/8/6 298/8/6 321/8/6
f 320/4/6 297/4/6 321/4/6
f 298/2/6 288/2/6 322/2/6
f 321/8/6 298/8/6 322/8/6
f 288/4/6 304/4/6 323/4/6
f 304/3/6 311/3/6 324/3/6
f 323/4/6 304/4/6 324/4/6
f 311/1/6 312/1/6 325/1/6
f 324/3/6 311/3/6 325/3/6
f 308/1/6 303/1/6 326/1/6
f 325/1/6 312/1/6 326/1/6
f 312/1/6 308/1/6 326/1/6
f 326/1/6 303/1/6 327/1/6
f 303/1/6 230/1/6 328/1/6
f 327/1/6 303/1/6 328/1/6
f 328/1/6 230/1/6 329/1/6
f 316/3/6 317/3/6 330/3/6
f 317/3/6 318/3/6 330/3/6
f 318/4/6 319/4/6 331/4/6
f 330/3/6 318/3/6 331/3/6
f 319/3/6 320/3/6 332/3/6
f 331/4/6 319/4/6 332/4/6
f 320/4/6 321/4/6 333/4/6
f 332/3/6 320/3/6 333/3/6
f 333/4/6 321/4/6 334/4/6
f 334/4/6 321/4/6 335/4/6
f 321/3/6 322/3/6 336/3/6
f 335/4/6 321/4/6 336/4/6
f 322/2/6 288/2/6 337/2/6
f 336/3/6 322/3/6 337/3/6
f 288/4/6 323/4/6 338/4/6
f 337/2/6 288/2/6 338/2/6
f 326/3/6 327/3/6 339/3/6
f 324/1/6 325/1/6 339/1/6
f 325/1/6 326/1/6 339/1/6
f 327/1/6 328/1/6 340/1/6
f 339/3/6 327/3/6 340/3/6
f 328/3/6 329/3/6 341/3/6
f 340/1/6 328/1/6 341/1/6
f 329/1/6 230/1/6 342/1/6
f 341/3/6 329/3/6 342/3/6
f 331/3/6 332/3/6 343/3/6
f 330/1/6 331/1/6 343/1/6
f 332/1/6 333/1/6 344/1/6
f 343/3/6 332/3/6 344/3/6
f 333/3/6 334/3/6 345/3/6
f 344/1/6 333/1/6 345/1/6
f 334/4/6 335/4/6 346/4/6
f 345/3/6 334/3/6 346/3/6
f 335/3/6 336/3/6 347/3/6
f 346/4/6 335/4/6 347/4/6
f 336/3/6 337/3/6 347/3/6
f 347/3/6 337/3/6 348/3/6
f 337/8/6 338/8/6 349/8/6
f 348/3/6 337/3/6 349/3/6
f 338/4/6 323/4/6 350/4/6
f 349/8/6 338/8/6 350/8/6
f 323/3/6 324/3/6 351/3/6
f 350/4/6 323/4/6 351/4/6
f 340/1/6 341/1/6 352/1/6
f 351/3/6 324/3/6 352/3/6
f 341/1/6 342/1/6 352/1/6
f 339/1/6 340/1/6 352/1/6
f 324/1/6 339/1/6 352/1/6
f 344/1/6 345/1/6 353/1/6
f 346/3/6 347/3/6 353/3/6
f 345/1/6 346/1/6 353/1/6
f 343/1/6 344/1/6 353/1/6
f 347/1/6 348/1/6 354/1/6
f 353/3/6 347/3/6 354/3/6
f 348/3/6 349/3/6 355/3/6
f 354/1/6 348/1/6 355/1/6
f 349/7/6 350/7/6 356/7/6
f 355/3/6 349/3/6 356/3/6
f 350/3/6 351/3/6 357/3/6
f 356/7/6 350/7/6 357/7/6
f 351/1/6 352/1/6 358/1/6
f 357/3/6 351/3/6 358/3/6
f 352/1/6 342/1/6 359/1/6
f 358/1/6 352/1/6 359/1/6
f 359/1/6 342/1/6 360/1/6
f 360/1/6 342/1/6 361/1/6
f 342/1/6 230/1/6 362/1/6
f 361/1/6 342/1/6 362/1/6
f 353/1/6 354/1/6 363/1/6
f 355/1/6 356/1/6 363/1/6
f 356/3/6 357/3/6 363/3/6
f 354/1/6 355/1/6 363/1/6
f 357/1/6 358/1/6 364/1/6
f 363/3/6 357/3/6 364/3/6
f 358/1/6 359/1/6 364/1/6
f 364/1/6 359/1/6 365/1/6
f 359/3/6 360/3/6 366/3/6
f 365/1/6 359/1/6 366/1/6
f 360/1/6 361/1/6 367/1/6
f 366/3/6 360/3/6 367/3/6
f 367/1/6 361/1/6 368/1/6
f 361/6/6 362/6/6 369/6/6
f 368/1/6 361/1/6 369/1/6
f 362/1/6 230/1/6 370/1/6
f 369/6/6 362/6/6 370/6/6
f 343/1/6 353/1/6 371/1/6
f 353/1/6 363/1/6 371/1/6
f 364/1/6 365/1/6 371/1/6
f 330/1/6 343/1/6 371/1/6
f 363/1/6 364/1/6 371/1/6
f 371/1/6 365/1/6 372/1/6
f 372/1/6 365/1/6 373/1/6
f 365/3/6 366/3/6 374/3/6
f 373/1/6 365/1/6 374/1/6
f 366/7/6 367/7/6 375/7/6
f 374/3/6 366/3/6 375/3/6
f 375/7/6 367/7/6 376/7/6
f 376/7/6 367/7/6 377/7/6
f 367/3/6 368/3/6 378/3/6
f 377/7/6 367/7/6 378/7/6
f 330/1/6 371/1/6 379/1/6
f 371/3/6 372/3/6 379/3/6
f 372/1/6 373/1/6 380/1/6
f 379/3/6 372/3/6 380/3/6
f 376/8/6 377/8/6 381/8/6
f 374/4/6 375/4/6 381/4/6
f 375/4/6 376/4/6 381/4/6
f 377/2/6 378/2/6 382/2/6
f 381/8/6 377/8/6 382/8/6
f 378/3/6 368/3/6 383/3/6
f 382/2/6 378/2/6 383/2/6
f 368/1/6 369/1/6 384/1/6
f 383/3/6 368/3/6 384/3/6
f 369/1/6 370/1/6 384/1/6
f 380/1/6 373/1/6 385/1/6
f 379/1/6 380/1/6 385/1/6
f 385/1/6 373/1/6 386/1/6
f 373/3/6 374/3/6 387/3/6
f 386/1/6 373/1/6 387/1/6
f 374/4/6 381/4/6 388/4/6
f 387/3/6 374/3/6 388/3/6
f 382/3/6 383/3/6 389/3/6
f 388/4/6 381/4/6 389/4/6
f 381/3/6 382/3/6 389/3/6
f 383/1/6 384/1/6 390/1/6
f 389/3/6 383/3/6 390/3/6
f 384/1/6 370/1/6 391/1/6
f 390/1/6 384/1/6 391/1/6
f 387/1/6 388/1/6 392/1/6
f 388/3/6 389/3/6 392/3/6
f 386/1/6 387/1/6 392/1/6
f 389/1/6 390/1/6 393/1/6
f 392/3/6 389/3/6 393/3/6
f 385/3/6 386/3/6 394/3/6
f 379/1/6 385/1/6 394/1/6
f 386/1/6 392/1/6 395/1/6
f 394/3/6 386/3/6 395/3/6
f 392/1/6 393/1/6 395/1/6
f 390/3/6 391/3/6 396/3/6
f 395/1/6 393/1/6 396/1/6
f 393/1/6 390/1/6 396/1/6
f 391/1/6 370/1/6 397/1/6
f 396/3/6 391/3/6 397/3/6
f 330/1/6 379/1/6 398/1/6
f 395/1/6 396/1/6 398/1/6
f 396/1/6 397/1/6 398/1/6
f 379/1/6 394/1/6 398/1/6
f 394/1/6 395/1/6 398/1/6
f 397/1/6 370/1/6 399/1/6
f 398/1/6 397/1/6 399/1/6
f 370/1/6 230/1/6 399/1/6
