# MagicaVoxel @ Ephtracy

# group
o 

# material
mtllib Package 01 Necro Dungeon-50.mtl
usemtl palette

# normals
vn -1 0 0
vn 1 0 0
vn 0 0 1
vn 0 0 -1
vn 0 -1 0
vn 0 1 0

# texcoords
vt 0.00195313 0.5
vt 0.0332031 0.5
vt 0.0644531 0.5

# verts
v 0.5 0.2 15.1
v 0.5 0.2 13.2
v 0.5 0.3 15.1
v 0.5 0.3 14.6
v 0.5 0.4 15.1
v 0.5 0.4 14.6
v 0.5 0.4 13.2
v 0.8 0.2 15.4
v 0.8 0.2 15.3
v 0.8 0.2 15.2
v 0.8 0.2 15.1
v 0.8 0.2 13.2
v 0.8 0.2 12.9
v 0.8 0.3 15.4
v 0.8 0.3 15.3
v 0.8 0.3 13.2
v 0.8 0.3 13.1
v 0.8 0.3 13
v 0.8 0.4 15.3
v 0.8 0.4 15.2
v 0.8 0.4 15.1
v 0.8 0.4 13.2
v 0.8 0.4 13.1
v 0.8 0.4 13
v 0.8 0.4 12.9
v 0.9 0.3 15
v 0.9 0.3 13.8
v 0.9 0.3 13.6
v 0.9 0.3 13.3
v 0.9 0.4 15
v 0.9 0.4 13.8
v 0.9 0.4 13.6
v 0.9 0.4 13.3
v 2.7 0.3 15.1
v 2.7 0.3 14.2
v 2.7 0.3 13.8
v 2.7 0.3 13.2
v 2.7 0.4 15.1
v 2.7 0.4 14.2
v 2.7 0.4 13.8
v 2.7 0.4 13.2
v 0.8 0.3 15.1
v 0.8 0.3 14.8
v 0.8 0.3 14.3
v 0.8 0.3 13.5
v 0.8 0.3 13.2
v 0.8 0.4 15.1
v 0.8 0.4 14.8
v 0.8 0.4 14.3
v 0.8 0.4 13.5
v 0.8 0.4 13.2
v 2.6 0.3 15
v 2.6 0.3 13.6
v 2.6 0.3 13.3
v 2.6 0.4 15
v 2.6 0.4 13.6
v 2.6 0.4 13.3
v 2.7 0.2 15.4
v 2.7 0.2 15.3
v 2.7 0.2 15.2
v 2.7 0.2 15.1
v 2.7 0.2 13.2
v 2.7 0.2 12.9
v 2.7 0.3 15.4
v 2.7 0.3 15.3
v 2.7 0.3 15.2
v 2.7 0.4 15.3
v 2.7 0.4 15.1
v 2.7 0.4 13.2
v 2.7 0.4 12.9
v 2.9 0.3 15.1
v 2.9 0.3 14.2
v 2.9 0.3 13.8
v 2.9 0.3 13.2
v 2.9 0.4 15.1
v 2.9 0.4 14.2
v 2.9 0.4 13.8
v 2.9 0.4 13.2
v 3 0.2 15.1
v 3 0.2 13.2
v 3 0.3 15.1
v 3 0.3 13.2
v 0.8 0.2 15.4
v 0.8 0.3 15.4
v 2.7 0.2 15.4
v 2.7 0.3 15.4
v 0.8 0.3 15.3
v 0.8 0.4 15.3
v 1.3 0.3 15.3
v 1.3 0.4 15.3
v 2.7 0.3 15.3
v 2.7 0.4 15.3
v 0.5 0.2 15.1
v 0.5 0.3 15.1
v 0.5 0.4 15.1
v 0.6 0.3 15.1
v 0.6 0.4 15.1
v 0.8 0.2 15.1
v 0.8 0.4 15.1
v 2.7 0.2 15.1
v 2.7 0.4 15.1
v 2.8 0.2 15.1
v 2.8 0.4 15.1
v 2.9 0.2 15.1
v 2.9 0.3 15.1
v 2.9 0.4 15.1
v 3 0.2 15.1
v 3 0.3 15.1
v 0.9 0.3 15
v 0.9 0.4 15
v 2.1 0.3 15
v 2.1 0.4 15
v 2.2 0.3 15
v 2.2 0.4 15
v 2.5 0.3 15
v 2.5 0.4 15
v 2.6 0.3 15
v 2.6 0.4 15
v 0.8 0.3 13.2
v 0.8 0.4 13.2
v 0.9 0.3 13.2
v 0.9 0.4 13.2
v 1.7 0.3 13.2
v 1.7 0.4 13.2
v 2.5 0.3 13.2
v 2.5 0.4 13.2
v 2.6 0.3 13.2
v 2.6 0.4 13.2
v 2.7 0.3 13.2
v 2.7 0.4 13.2
v 0.8 0.3 15.1
v 0.8 0.4 15.1
v 1.3 0.3 15.1
v 1.3 0.4 15.1
v 2.2 0.3 15.1
v 2.2 0.4 15.1
v 2.7 0.3 15.1
v 2.7 0.4 15.1
v 0.9 0.3 13.3
v 0.9 0.4 13.3
v 1.3 0.3 13.3
v 1.3 0.4 13.3
v 1.5 0.3 13.3
v 1.5 0.4 13.3
v 2.6 0.3 13.3
v 2.6 0.4 13.3
v 0.5 0.2 13.2
v 0.5 0.4 13.2
v 0.7 0.3 13.2
v 0.7 0.4 13.2
v 0.8 0.2 13.2
v 0.8 0.3 13.2
v 0.8 0.4 13.2
v 2.7 0.2 13.2
v 2.7 0.4 13.2
v 2.8 0.2 13.2
v 2.8 0.4 13.2
v 2.9 0.2 13.2
v 2.9 0.3 13.2
v 2.9 0.4 13.2
v 3 0.2 13.2
v 3 0.3 13.2
v 0.8 0.2 12.9
v 0.8 0.4 12.9
v 2 0.3 12.9
v 2 0.4 12.9
v 2.4 0.3 12.9
v 2.4 0.4 12.9
v 2.7 0.2 12.9
v 2.7 0.4 12.9
v 0.8 0.2 15.4
v 2.7 0.2 15.4
v 0.8 0.2 15.3
v 0.9 0.2 15.3
v 2 0.2 15.3
v 2.7 0.2 15.3
v 0.8 0.2 15.2
v 0.9 0.2 15.2
v 2 0.2 15.2
v 2.7 0.2 15.2
v 0.5 0.2 15.1
v 0.8 0.2 15.1
v 2.7 0.2 15.1
v 2.8 0.2 15.1
v 2.9 0.2 15.1
v 3 0.2 15.1
v 2.8 0.2 15
v 2.9 0.2 15
v 2.8 0.2 13.9
v 2.9 0.2 13.9
v 0.5 0.2 13.2
v 0.8 0.2 13.2
v 2.7 0.2 13.2
v 2.8 0.2 13.2
v 2.9 0.2 13.2
v 3 0.2 13.2
v 0.8 0.2 12.9
v 2.7 0.2 12.9
v 0.8 0.3 15.4
v 2.7 0.3 15.4
v 0.8 0.3 15.3
v 1.3 0.3 15.3
v 2.7 0.3 15.3
v 0.8 0.3 15.1
v 1.3 0.3 15.1
v 2.2 0.3 15.1
v 2.7 0.3 15.1
v 2.9 0.3 15.1
v 3 0.3 15.1
v 0.9 0.3 15
v 2.1 0.3 15
v 2.2 0.3 15
v 2.5 0.3 15
v 2.6 0.3 15
v 0.8 0.3 14.8
v 0.8 0.3 14.3
v 2.7 0.3 14.2
v 2.9 0.3 14.2
v 0.9 0.3 13.8
v 2.7 0.3 13.8
v 2.9 0.3 13.8
v 0.9 0.3 13.6
v 2.6 0.3 13.6
v 0.8 0.3 13.5
v 0.9 0.3 13.3
v 1.3 0.3 13.3
v 1.5 0.3 13.3
v 2.6 0.3 13.3
v 0.8 0.3 13.2
v 0.9 0.3 13.2
v 1.7 0.3 13.2
v 2.5 0.3 13.2
v 2.6 0.3 13.2
v 2.7 0.3 13.2
v 2.9 0.3 13.2
v 3 0.3 13.2
v 0.8 0.4 15.3
v 1.3 0.4 15.3
v 2.7 0.4 15.3
v 0.8 0.4 15.2
v 1.3 0.4 15.2
v 2.2 0.4 15.2
v 0.5 0.4 15.1
v 0.6 0.4 15.1
v 0.8 0.4 15.1
v 1.3 0.4 15.1
v 2.2 0.4 15.1
v 2.7 0.4 15.1
v 2.8 0.4 15.1
v 2.9 0.4 15.1
v 0.9 0.4 15
v 2.1 0.4 15
v 2.2 0.4 15
v 2.5 0.4 15
v 2.6 0.4 15
v 1.1 0.4 14.9
v 1.2 0.4 14.9
v 2.1 0.4 14.9
v 2.2 0.4 14.9
v 2.3 0.4 14.9
v 0.7 0.4 14.8
v 0.8 0.4 14.8
v 1.1 0.4 14.8
v 1.2 0.4 14.8
v 1.4 0.4 14.8
v 1.8 0.4 14.8
v 2.2 0.4 14.8
v 2.3 0.4 14.8
v 2.4 0.4 14.8
v 1.2 0.4 14.7
v 1.4 0.4 14.7
v 1.8 0.4 14.7
v 2.1 0.4 14.7
v 0.5 0.4 14.6
v 0.6 0.4 14.6
v 1.1 0.4 14.6
v 1.2 0.4 14.6
v 1.4 0.4 14.6
v 1.6 0.4 14.6
v 1.7 0.4 14.6
v 1.8 0.4 14.6
v 2 0.4 14.6
v 2.3 0.4 14.6
v 2.4 0.4 14.6
v 1.6 0.4 14.5
v 1.7 0.4 14.5
v 1.6 0.4 14.4
v 1.7 0.4 14.4
v 2 0.4 14.4
v 2.1 0.4 14.4
v 2.2 0.4 14.4
v 0.6 0.4 14.3
v 0.7 0.4 14.3
v 0.8 0.4 14.3
v 1.4 0.4 14.3
v 1.6 0.4 14.3
v 1.7 0.4 14.3
v 1.8 0.4 14.3
v 1.9 0.4 14.3
v 2 0.4 14.3
v 1.5 0.4 14.2
v 1.6 0.4 14.2
v 1.9 0.4 14.2
v 2 0.4 14.2
v 2.7 0.4 14.2
v 2.8 0.4 14.2
v 2.9 0.4 14.2
v 1.4 0.4 14.1
v 1.5 0.4 14.1
v 1.6 0.4 14.1
v 1.7 0.4 14.1
v 1.8 0.4 14.1
v 1.1 0.4 14
v 1.2 0.4 14
v 1.3 0.4 14
v 1.5 0.4 13.9
v 1.6 0.4 13.9
v 1.8 0.4 13.9
v 2 0.4 13.9
v 2.1 0.4 13.9
v 2.2 0.4 13.9
v 0.9 0.4 13.8
v 1 0.4 13.8
v 1.2 0.4 13.8
v 1.3 0.4 13.8
v 1.4 0.4 13.8
v 1.6 0.4 13.8
v 1.8 0.4 13.8
v 2 0.4 13.8
v 2.1 0.4 13.8
v 2.3 0.4 13.8
v 2.4 0.4 13.8
v 2.7 0.4 13.8
v 2.8 0.4 13.8
v 2.9 0.4 13.8
v 1.8 0.4 13.7
v 2 0.4 13.7
v 2.3 0.4 13.7
v 2.4 0.4 13.7
v 0.9 0.4 13.6
v 1 0.4 13.6
v 1.1 0.4 13.6
v 1.3 0.4 13.6
v 1.4 0.4 13.6
v 1.9 0.4 13.6
v 2.4 0.4 13.6
v 2.5 0.4 13.6
v 2.6 0.4 13.6
v 0.6 0.4 13.5
v 0.7 0.4 13.5
v 0.8 0.4 13.5
v 1.1 0.4 13.5
v 1.3 0.4 13.5
v 1.4 0.4 13.5
v 1.9 0.4 13.5
v 2.4 0.4 13.5
v 2.5 0.4 13.5
v 1 0.4 13.4
v 1.3 0.4 13.4
v 1.5 0.4 13.4
v 1.9 0.4 13.4
v 2.4 0.4 13.4
v 0.9 0.4 13.3
v 1.3 0.4 13.3
v 1.5 0.4 13.3
v 2.6 0.4 13.3
v 0.5 0.4 13.2
v 0.7 0.4 13.2
v 0.8 0.4 13.2
v 0.9 0.4 13.2
v 1.7 0.4 13.2
v 2.5 0.4 13.2
v 2.6 0.4 13.2
v 2.7 0.4 13.2
v 2.8 0.4 13.2
v 2.9 0.4 13.2
v 0.8 0.4 13.1
v 0.9 0.4 13.1
v 1.7 0.4 13.1
v 2 0.4 13.1
v 2.4 0.4 13.1
v 2.5 0.4 13.1
v 0.8 0.4 13
v 0.9 0.4 13
v 1.7 0.4 13
v 2 0.4 13
v 2.4 0.4 13
v 2.6 0.4 13
v 0.8 0.4 12.9
v 2 0.4 12.9
v 2.4 0.4 12.9
v 2.7 0.4 12.9

# faces
f 3/1/1 2/1/1 1/1/1
f 4/1/1 2/1/1 3/1/1
f 5/2/1 4/2/1 3/2/1
f 6/1/1 2/1/1 4/1/1
f 6/2/1 4/2/1 5/2/1
f 7/1/1 2/1/1 6/1/1
f 14/3/1 9/3/1 8/3/1
f 15/2/1 10/2/1 9/2/1
f 15/3/1 9/3/1 14/3/1
f 16/1/1 13/1/1 12/1/1
f 17/1/1 13/1/1 16/1/1
f 18/1/1 13/1/1 17/1/1
f 19/2/1 10/2/1 15/2/1
f 20/1/1 11/1/1 10/1/1
f 20/2/1 10/2/1 19/2/1
f 21/1/1 11/1/1 20/1/1
f 22/1/1 17/1/1 16/1/1
f 23/2/1 18/2/1 17/2/1
f 23/1/1 17/1/1 22/1/1
f 24/1/1 13/1/1 18/1/1
f 24/2/1 18/2/1 23/2/1
f 25/1/1 13/1/1 24/1/1
f 30/1/1 27/1/1 26/1/1
f 31/2/1 28/2/1 27/2/1
f 31/1/1 27/1/1 30/1/1
f 32/1/1 29/1/1 28/1/1
f 32/2/1 28/2/1 31/2/1
f 33/1/1 29/1/1 32/1/1
f 38/1/1 35/1/1 34/1/1
f 39/2/1 36/2/1 35/2/1
f 39/1/1 35/1/1 38/1/1
f 40/1/1 37/1/1 36/1/1
f 40/2/1 36/2/1 39/2/1
f 41/1/1 37/1/1 40/1/1
f 42/1/2 43/1/2 47/1/2
f 43/2/2 44/2/2 48/2/2
f 47/1/2 43/1/2 48/1/2
f 44/1/2 45/1/2 49/1/2
f 48/2/2 44/2/2 49/2/2
f 45/2/2 46/2/2 50/2/2
f 49/1/2 45/1/2 50/1/2
f 50/2/2 46/2/2 51/2/2
f 52/2/2 53/2/2 55/2/2
f 53/1/2 54/1/2 56/1/2
f 55/2/2 53/2/2 56/2/2
f 56/1/2 54/1/2 57/1/2
f 58/3/2 59/3/2 64/3/2
f 59/2/2 60/2/2 65/2/2
f 64/3/2 59/3/2 65/3/2
f 60/1/2 61/1/2 66/1/2
f 65/2/2 60/2/2 66/2/2
f 65/1/2 66/1/2 67/1/2
f 66/1/2 61/1/2 68/1/2
f 67/1/2 66/1/2 68/1/2
f 62/1/2 63/1/2 69/1/2
f 69/1/2 63/1/2 70/1/2
f 71/2/2 72/2/2 75/2/2
f 72/1/2 73/1/2 76/1/2
f 75/2/2 72/2/2 76/2/2
f 73/2/2 74/2/2 77/2/2
f 76/1/2 73/1/2 77/1/2
f 77/2/2 74/2/2 78/2/2
f 79/3/2 80/3/2 81/3/2
f 81/3/2 80/3/2 82/3/2
f 85/3/3 84/3/3 83/3/3
f 86/3/3 84/3/3 85/3/3
f 89/2/3 88/2/3 87/2/3
f 90/2/3 88/2/3 89/2/3
f 91/1/3 90/1/3 89/1/3
f 92/1/3 90/1/3 91/1/3
f 96/1/3 94/1/3 93/1/3
f 96/2/3 95/2/3 94/2/3
f 97/2/3 95/2/3 96/2/3
f 98/1/3 96/1/3 93/1/3
f 98/1/3 97/1/3 96/1/3
f 99/1/3 97/1/3 98/1/3
f 102/1/3 101/1/3 100/1/3
f 103/1/3 101/1/3 102/1/3
f 104/2/3 103/2/3 102/2/3
f 105/2/3 103/2/3 104/2/3
f 106/2/3 103/2/3 105/2/3
f 107/3/3 105/3/3 104/3/3
f 108/3/3 105/3/3 107/3/3
f 111/1/3 110/1/3 109/1/3
f 112/1/3 110/1/3 111/1/3
f 113/2/3 112/2/3 111/2/3
f 114/2/3 112/2/3 113/2/3
f 115/1/3 114/1/3 113/1/3
f 116/1/3 114/1/3 115/1/3
f 117/2/3 116/2/3 115/2/3
f 118/2/3 116/2/3 117/2/3
f 121/1/3 120/1/3 119/1/3
f 122/1/3 120/1/3 121/1/3
f 123/2/3 122/2/3 121/2/3
f 124/2/3 122/2/3 123/2/3
f 125/1/3 124/1/3 123/1/3
f 126/1/3 124/1/3 125/1/3
f 127/2/3 126/2/3 125/2/3
f 128/2/3 126/2/3 127/2/3
f 129/1/3 128/1/3 127/1/3
f 130/1/3 128/1/3 129/1/3
f 131/1/4 132/1/4 133/1/4
f 133/1/4 132/1/4 134/1/4
f 133/2/4 134/2/4 135/2/4
f 135/2/4 134/2/4 136/2/4
f 135/1/4 136/1/4 137/1/4
f 137/1/4 136/1/4 138/1/4
f 139/1/4 140/1/4 141/1/4
f 141/1/4 140/1/4 142/1/4
f 141/2/4 142/2/4 143/2/4
f 143/2/4 142/2/4 144/2/4
f 143/1/4 144/1/4 145/1/4
f 145/1/4 144/1/4 146/1/4
f 147/1/4 148/1/4 149/1/4
f 149/1/4 148/1/4 150/1/4
f 147/1/4 149/1/4 151/1/4
f 149/2/4 150/2/4 152/2/4
f 151/1/4 149/1/4 152/1/4
f 152/2/4 150/2/4 153/2/4
f 154/1/4 155/1/4 156/1/4
f 156/1/4 155/1/4 157/1/4
f 156/2/4 157/2/4 158/2/4
f 158/2/4 157/2/4 159/2/4
f 159/2/4 157/2/4 160/2/4
f 158/3/4 159/3/4 161/3/4
f 161/3/4 159/3/4 162/3/4
f 163/1/4 164/1/4 165/1/4
f 165/1/4 164/1/4 166/1/4
f 163/1/4 165/1/4 167/1/4
f 165/2/4 166/2/4 167/2/4
f 167/2/4 166/2/4 168/2/4
f 163/1/4 167/1/4 169/1/4
f 167/1/4 168/1/4 169/1/4
f 169/1/4 168/1/4 170/1/4
f 173/3/5 172/3/5 171/3/5
f 174/3/5 172/3/5 173/3/5
f 175/3/5 172/3/5 174/3/5
f 176/3/5 172/3/5 175/3/5
f 177/2/5 174/2/5 173/2/5
f 178/1/5 175/1/5 174/1/5
f 178/2/5 174/2/5 177/2/5
f 179/2/5 176/2/5 175/2/5
f 179/1/5 175/1/5 178/1/5
f 180/2/5 176/2/5 179/2/5
f 182/1/5 178/1/5 177/1/5
f 182/1/5 179/1/5 178/1/5
f 182/1/5 180/1/5 179/1/5
f 183/1/5 180/1/5 182/1/5
f 187/1/5 184/1/5 183/1/5
f 187/2/5 185/2/5 184/2/5
f 188/3/5 186/3/5 185/3/5
f 188/2/5 185/2/5 187/2/5
f 189/1/5 187/1/5 183/1/5
f 189/1/5 188/1/5 187/1/5
f 190/3/5 186/3/5 188/3/5
f 190/1/5 188/1/5 189/1/5
f 191/1/5 182/1/5 181/1/5
f 192/3/5 183/3/5 182/3/5
f 192/1/5 182/1/5 191/1/5
f 193/1/5 189/1/5 183/1/5
f 193/3/5 183/3/5 192/3/5
f 194/2/5 190/2/5 189/2/5
f 194/1/5 189/1/5 193/1/5
f 195/3/5 186/3/5 190/3/5
f 195/2/5 190/2/5 194/2/5
f 196/3/5 186/3/5 195/3/5
f 197/1/5 193/1/5 192/1/5
f 198/1/5 193/1/5 197/1/5
f 199/3/6 200/3/6 201/3/6
f 201/3/6 200/3/6 202/3/6
f 202/3/6 200/3/6 203/3/6
f 206/3/6 207/3/6 210/3/6
f 204/3/6 205/3/6 210/3/6
f 205/3/6 206/3/6 210/3/6
f 210/3/6 207/3/6 211/3/6
f 211/3/6 207/3/6 212/3/6
f 212/3/6 207/3/6 213/3/6
f 213/3/6 207/3/6 214/3/6
f 204/3/6 210/3/6 215/3/6
f 215/3/6 210/3/6 216/3/6
f 214/3/6 207/3/6 217/3/6
f 208/3/6 209/3/6 218/3/6
f 216/3/6 210/3/6 219/3/6
f 214/3/6 217/3/6 220/3/6
f 218/3/6 209/3/6 221/3/6
f 216/3/6 219/3/6 222/3/6
f 214/3/6 220/3/6 223/3/6
f 216/3/6 222/3/6 224/3/6
f 224/3/6 222/3/6 225/3/6
f 223/3/6 220/3/6 228/3/6
f 226/3/6 227/3/6 229/3/6
f 227/3/6 228/3/6 229/3/6
f 224/3/6 225/3/6 229/3/6
f 225/3/6 226/3/6 229/3/6
f 229/3/6 228/3/6 230/3/6
f 230/3/6 228/3/6 231/3/6
f 231/3/6 228/3/6 232/3/6
f 228/3/6 220/3/6 233/3/6
f 232/3/6 228/3/6 233/3/6
f 233/3/6 220/3/6 234/3/6
f 221/3/6 209/3/6 235/3/6
f 235/3/6 209/3/6 236/3/6
f 237/2/6 238/2/6 240/2/6
f 238/1/6 239/1/6 241/1/6
f 240/2/6 238/2/6 241/2/6
f 241/1/6 239/1/6 242/1/6
f 240/1/6 241/1/6 245/1/6
f 241/2/6 242/2/6 246/2/6
f 245/1/6 241/1/6 246/1/6
f 242/1/6 239/1/6 247/1/6
f 246/2/6 242/2/6 247/2/6
f 247/1/6 239/1/6 248/1/6
f 251/1/6 252/1/6 256/1/6
f 256/1/6 252/1/6 257/1/6
f 252/2/6 253/2/6 258/2/6
f 257/1/6 252/1/6 258/1/6
f 253/1/6 254/1/6 259/1/6
f 258/2/6 253/2/6 259/2/6
f 259/1/6 254/1/6 260/1/6
f 244/1/6 245/1/6 261/1/6
f 261/1/6 245/1/6 262/1/6
f 256/2/6 257/2/6 263/2/6
f 251/1/6 256/1/6 263/1/6
f 257/1/6 258/1/6 264/1/6
f 263/2/6 257/2/6 264/2/6
f 258/1/6 259/1/6 264/1/6
f 264/1/6 259/1/6 265/1/6
f 265/1/6 259/1/6 266/1/6
f 259/2/6 260/2/6 267/2/6
f 266/1/6 259/1/6 267/1/6
f 260/1/6 254/1/6 268/1/6
f 267/2/6 260/2/6 268/2/6
f 268/1/6 254/1/6 269/1/6
f 263/1/6 264/1/6 270/1/6
f 264/1/6 265/1/6 270/1/6
f 265/2/6 266/2/6 271/2/6
f 270/1/6 265/1/6 271/1/6
f 266/1/6 267/1/6 272/1/6
f 271/2/6 266/2/6 272/2/6
f 267/1/6 268/1/6 272/1/6
f 272/1/6 268/1/6 273/1/6
f 243/2/6 244/2/6 274/2/6
f 244/1/6 261/1/6 275/1/6
f 274/2/6 244/2/6 275/2/6
f 251/1/6 263/1/6 276/1/6
f 263/1/6 270/1/6 276/1/6
f 270/2/6 271/2/6 277/2/6
f 276/1/6 270/1/6 277/1/6
f 271/1/6 272/1/6 278/1/6
f 277/2/6 271/2/6 278/2/6
f 278/1/6 272/1/6 279/1/6
f 279/1/6 272/1/6 280/1/6
f 272/2/6 273/2/6 281/2/6
f 280/1/6 272/1/6 281/1/6
f 281/2/6 273/2/6 282/2/6
f 273/1/6 268/1/6 283/1/6
f 268/2/6 269/2/6 283/2/6
f 269/1/6 254/1/6 284/1/6
f 283/2/6 269/2/6 284/2/6
f 279/2/6 280/2/6 285/2/6
f 277/1/6 278/1/6 285/1/6
f 278/1/6 279/1/6 285/1/6
f 281/1/6 282/1/6 286/1/6
f 285/2/6 280/2/6 286/2/6
f 280/1/6 281/1/6 286/1/6
f 277/1/6 285/1/6 287/1/6
f 285/1/6 286/1/6 287/1/6
f 286/1/6 282/1/6 288/1/6
f 287/1/6 286/1/6 288/1/6
f 282/2/6 273/2/6 289/2/6
f 288/1/6 282/1/6 289/1/6
f 273/1/6 283/1/6 290/1/6
f 289/2/6 273/2/6 290/2/6
f 283/1/6 284/1/6 290/1/6
f 290/1/6 284/1/6 291/1/6
f 275/1/6 261/1/6 292/1/6
f 274/1/6 275/1/6 292/1/6
f 261/2/6 262/2/6 293/2/6
f 292/1/6 261/1/6 293/1/6
f 293/2/6 262/2/6 294/2/6
f 277/1/6 287/1/6 295/1/6
f 287/2/6 288/2/6 296/2/6
f 295/1/6 287/1/6 296/1/6
f 288/1/6 289/1/6 297/1/6
f 296/2/6 288/2/6 297/2/6
f 289/1/6 290/1/6 297/1/6
f 297/1/6 290/1/6 298/1/6
f 298/1/6 290/1/6 299/1/6
f 299/1/6 290/1/6 300/1/6
f 295/2/6 296/2/6 301/2/6
f 296/1/6 297/1/6 302/1/6
f 301/2/6 296/2/6 302/2/6
f 298/1/6 299/1/6 303/1/6
f 299/2/6 300/2/6 303/2/6
f 300/1/6 290/1/6 304/1/6
f 303/2/6 300/2/6 304/2/6
f 248/1/6 249/1/6 305/1/6
f 249/2/6 250/2/6 306/2/6
f 305/1/6 249/1/6 306/1/6
f 306/2/6 250/2/6 307/2/6
f 277/1/6 295/1/6 308/1/6
f 295/2/6 301/2/6 308/2/6
f 301/1/6 302/1/6 309/1/6
f 308/2/6 301/2/6 309/2/6
f 302/1/6 297/1/6 310/1/6
f 309/1/6 302/1/6 310/1/6
f 297/2/6 298/2/6 311/2/6
f 310/1/6 297/1/6 311/1/6
f 298/1/6 303/1/6 312/1/6
f 311/2/6 298/2/6 312/2/6
f 303/1/6 304/1/6 312/1/6
f 251/1/6 276/1/6 313/1/6
f 276/2/6 277/2/6 313/2/6
f 308/1/6 309/1/6 314/1/6
f 313/2/6 277/2/6 314/2/6
f 277/1/6 308/1/6 314/1/6
f 314/1/6 309/1/6 315/1/6
f 309/2/6 310/2/6 316/2/6
f 315/1/6 309/1/6 316/1/6
f 310/1/6 311/1/6 317/1/6
f 316/2/6 310/2/6 317/2/6
f 311/1/6 312/1/6 317/1/6
f 312/1/6 304/1/6 318/1/6
f 317/1/6 312/1/6 318/1/6
f 304/1/6 290/1/6 319/1/6
f 318/1/6 304/1/6 319/1/6
f 290/2/6 291/2/6 320/2/6
f 319/1/6 290/1/6 320/1/6
f 291/1/6 284/1/6 321/1/6
f 320/2/6 291/2/6 321/2/6
f 313/1/6 314/1/6 322/1/6
f 251/1/6 313/1/6 322/1/6
f 322/1/6 314/1/6 323/1/6
f 314/2/6 315/2/6 324/2/6
f 323/1/6 314/1/6 324/1/6
f 316/1/6 317/1/6 325/1/6
f 324/2/6 315/2/6 325/2/6
f 315/1/6 316/1/6 325/1/6
f 325/1/6 317/1/6 326/1/6
f 317/2/6 318/2/6 327/2/6
f 326/1/6 317/1/6 327/1/6
f 318/1/6 319/1/6 328/1/6
f 327/2/6 318/2/6 328/2/6
f 319/2/6 320/2/6 329/2/6
f 328/1/6 319/1/6 329/1/6
f 320/1/6 321/1/6 330/1/6
f 329/2/6 320/2/6 330/2/6
f 321/1/6 284/1/6 331/1/6
f 330/1/6 321/1/6 331/1/6
f 284/1/6 254/1/6 332/1/6
f 331/1/6 284/1/6 332/1/6
f 305/2/6 306/2/6 333/2/6
f 306/1/6 307/1/6 334/1/6
f 333/2/6 306/2/6 334/2/6
f 334/1/6 307/1/6 335/1/6
f 327/1/6 328/1/6 336/1/6
f 326/1/6 327/1/6 336/1/6
f 328/2/6 329/2/6 336/2/6
f 329/1/6 330/1/6 337/1/6
f 336/2/6 329/2/6 337/2/6
f 330/1/6 331/1/6 337/1/6
f 331/2/6 332/2/6 338/2/6
f 337/1/6 331/1/6 338/1/6
f 332/1/6 254/1/6 339/1/6
f 338/2/6 332/2/6 339/2/6
f 322/2/6 323/2/6 340/2/6
f 323/1/6 324/1/6 341/1/6
f 340/2/6 323/2/6 341/2/6
f 324/1/6 325/1/6 341/1/6
f 341/1/6 325/1/6 342/1/6
f 325/2/6 326/2/6 343/2/6
f 342/1/6 325/1/6 343/1/6
f 326/1/6 336/1/6 344/1/6
f 343/2/6 326/2/6 344/2/6
f 336/1/6 337/1/6 344/1/6
f 337/1/6 338/1/6 344/1/6
f 338/1/6 339/1/6 344/1/6
f 344/1/6 339/1/6 345/1/6
f 339/1/6 254/1/6 346/1/6
f 345/1/6 339/1/6 346/1/6
f 254/2/6 255/2/6 347/2/6
f 346/1/6 254/1/6 347/1/6
f 347/2/6 255/2/6 348/2/6
f 274/1/6 292/1/6 349/1/6
f 292/2/6 293/2/6 349/2/6
f 293/1/6 294/1/6 350/1/6
f 349/2/6 293/2/6 350/2/6
f 350/1/6 294/1/6 351/1/6
f 341/2/6 342/2/6 352/2/6
f 342/1/6 343/1/6 352/1/6
f 343/1/6 344/1/6 352/1/6
f 352/1/6 344/1/6 353/1/6
f 344/2/6 345/2/6 354/2/6
f 353/1/6 344/1/6 354/1/6
f 345/1/6 346/1/6 355/1/6
f 354/2/6 345/2/6 355/2/6
f 346/2/6 347/2/6 356/2/6
f 355/1/6 346/1/6 356/1/6
f 347/1/6 348/1/6 357/1/6
f 356/2/6 347/2/6 357/2/6
f 340/1/6 341/1/6 358/1/6
f 352/2/6 353/2/6 358/2/6
f 341/2/6 352/2/6 358/2/6
f 353/1/6 354/1/6 359/1/6
f 358/2/6 353/2/6 359/2/6
f 354/1/6 355/1/6 359/1/6
f 359/1/6 355/1/6 360/1/6
f 355/2/6 356/2/6 361/2/6
f 360/1/6 355/1/6 361/1/6
f 356/1/6 357/1/6 362/1/6
f 361/2/6 356/2/6 362/2/6
f 340/1/6 358/1/6 363/1/6
f 358/1/6 359/1/6 363/1/6
f 359/2/6 360/2/6 364/2/6
f 363/1/6 359/1/6 364/1/6
f 360/1/6 361/1/6 365/1/6
f 364/2/6 360/2/6 365/2/6
f 361/1/6 362/1/6 365/1/6
f 362/1/6 357/1/6 366/1/6
f 365/1/6 362/1/6 366/1/6
f 357/1/6 348/1/6 366/1/6
f 274/1/6 349/1/6 367/1/6
f 349/1/6 350/1/6 367/1/6
f 350/2/6 351/2/6 368/2/6
f 367/1/6 350/1/6 368/1/6
f 368/2/6 351/2/6 369/2/6
f 333/1/6 334/1/6 374/1/6
f 334/2/6 335/2/6 375/2/6
f 374/1/6 334/1/6 375/1/6
f 375/2/6 335/2/6 376/2/6
f 369/1/6 370/1/6 377/1/6
f 370/2/6 371/2/6 378/2/6
f 377/1/6 370/1/6 378/1/6
f 371/1/6 372/1/6 379/1/6
f 378/2/6 371/2/6 379/2/6
f 379/1/6 372/1/6 380/1/6
f 380/1/6 372/1/6 381/1/6
f 372/2/6 373/2/6 382/2/6
f 381/1/6 372/1/6 382/1/6
f 377/2/6 378/2/6 383/2/6
f 378/1/6 379/1/6 384/1/6
f 383/2/6 378/2/6 384/2/6
f 379/2/6 380/2/6 385/2/6
f 384/1/6 379/1/6 385/1/6
f 380/1/6 381/1/6 386/1/6
f 385/2/6 380/2/6 386/2/6
f 381/2/6 382/2/6 387/2/6
f 386/1/6 381/1/6 387/1/6
f 382/2/6 373/2/6 388/2/6
f 387/2/6 382/2/6 388/2/6
f 373/1/6 374/1/6 388/1/6
f 384/1/6 385/1/6 389/1/6
f 385/1/6 386/1/6 389/1/6
f 383/1/6 384/1/6 389/1/6
f 386/2/6 387/2/6 390/2/6
f 389/1/6 386/1/6 390/1/6
f 387/1/6 388/1/6 391/1/6
f 390/2/6 387/2/6 391/2/6
f 388/1/6 374/1/6 392/1/6
f 391/1/6 388/1/6 392/1/6
