# MagicaVoxel @ Ephtracy

# group
o 

# material
mtllib Package 01 Necro Dungeon-68.mtl
usemtl palette

# normals
vn 0 0 1
vn 0 0 -1
vn 1 0 0
vn -1 0 0
vn 0 -1 0
vn 0 1 0

# texcoords
vt 0.0175781 0.5
vt 0.0214844 0.5
vt 0.0332031 0.5
vt 0.0449219 0.5
vt 0.0488281 0.5
vt 0.0527344 0.5
vt 0.0800781 0.5
vt 0.0839844 0.5
vt 0.666016 0.5

# verts
v -4.4 0 11.4
v -4.5 0 11.4
v -4.8 0 11.4
v -5.2 0 11.4
v -5.5 0 11.4
v -5.6 0 11.4
v -6.9 0 11.4
v -4.4 0.1 11.4
v -4.5 0.1 11.4
v -4.8 0.1 11.4
v -4.9 0.1 11.4
v -5.1 0.1 11.4
v -5.2 0.1 11.4
v -5.5 0.1 11.4
v -5.8 0.1 11.4
v -6 0.1 11.4
v -6.2 0.1 11.4
v -6.3 0.1 11.4
v -6.5 0.1 11.4
v -6.6 0.1 11.4
v -4.9 0.2 11.4
v -5.1 0.2 11.4
v -5.5 0.2 11.4
v -5.6 0.2 11.4
v -6 0.2 11.4
v -6.1 0.2 11.4
v -6.2 0.2 11.4
v -6.3 0.2 11.4
v -6.6 0.2 11.4
v -6.7 0.2 11.4
v -4.4 0.3 11.4
v -4.5 0.3 11.4
v -4.8 0.3 11.4
v -5.2 0.3 11.4
v -5.4 0.3 11.4
v -5.5 0.3 11.4
v -5.6 0.3 11.4
v -5.7 0.3 11.4
v -5.8 0.3 11.4
v -6.1 0.3 11.4
v -6.5 0.3 11.4
v -6.7 0.3 11.4
v -6.9 0.3 11.4
v -4.4 0.4 11.4
v -5.4 0.4 11.4
v -5.5 0.4 11.4
v -5.6 0.4 11.4
v -5.7 0.4 11.4
v -6.9 0.4 11.4
v -4.4 0 8.9
v -6.9 0 8.9
v -5.1 0.1 8.9
v -5.2 0.1 8.9
v -5.9 0.1 8.9
v -6.2 0.1 8.9
v -6.7 0.1 8.9
v -6.8 0.1 8.9
v -4.9 0.2 8.9
v -5.1 0.2 8.9
v -5.5 0.2 8.9
v -5.6 0.2 8.9
v -6.4 0.2 8.9
v -6.5 0.2 8.9
v -6.7 0.2 8.9
v -6.8 0.2 8.9
v -4.4 0.3 8.9
v -4.9 0.3 8.9
v -5.2 0.3 8.9
v -5.5 0.3 8.9
v -5.6 0.3 8.9
v -5.9 0.3 8.9
v -6.2 0.3 8.9
v -6.4 0.3 8.9
v -6.5 0.3 8.9
v -6.9 0.3 8.9
v -4.4 0.4 8.9
v -6.9 0.4 8.9
v -4.4 0 11.4
v -4.4 0.1 11.4
v -4.4 0.3 11.4
v -4.4 0.4 11.4
v -4.4 0.2 11.3
v -4.4 0.3 11.3
v -4.4 0.1 11.1
v -4.4 0.2 11.1
v -4.4 0.3 11.1
v -4.4 0.4 11.1
v -4.4 0.1 11
v -4.4 0.2 11
v -4.4 0 10.9
v -4.4 0.1 10.9
v -4.4 0.3 10.9
v -4.4 0.3 10.8
v -4.4 0.4 10.8
v -4.4 0.1 10.6
v -4.4 0.3 10.6
v -4.4 0.3 10.5
v -4.4 0.4 10.5
v -4.4 0.3 10.4
v -4.4 0.4 10.4
v -4.4 0 10.3
v -4.4 0.3 10.3
v -4.4 0.4 10.3
v -4.4 0.3 10.2
v -4.4 0.4 10.2
v -4.4 0.1 10.1
v -4.4 0.2 10.1
v -4.4 0.1 10
v -4.4 0.2 10
v -4.4 0.1 9.9
v -4.4 0.3 9.9
v -4.4 0.1 9.6
v -4.4 0.3 9.6
v -4.4 0.2 9.4
v -4.4 0.3 9.4
v -4.4 0.2 9.3
v -4.4 0.3 9.3
v -4.4 0.1 9.1
v -4.4 0.2 9.1
v -4.4 0.1 9
v -4.4 0.2 9
v -4.4 0 8.9
v -4.4 0.3 8.9
v -4.4 0.4 8.9
v -6.9 0 11.4
v -6.9 0.3 11.4
v -6.9 0.4 11.4
v -6.9 0.1 10.9
v -6.9 0.3 10.9
v -6.9 0.1 10.8
v -6.9 0.2 10.8
v -6.9 0.2 10.7
v -6.9 0.3 10.7
v -6.9 0.2 10.3
v -6.9 0.3 10.3
v -6.9 0.1 10.2
v -6.9 0.2 10.2
v -6.9 0.1 10.1
v -6.9 0.2 10.1
v -6.9 0.2 10
v -6.9 0.3 10
v -6.9 0.1 9.9
v -6.9 0.3 9.9
v -6.9 0.1 9.7
v -6.9 0.2 9.7
v -6.9 0.1 9.6
v -6.9 0.2 9.6
v -6.9 0.3 9.6
v -6.9 0.1 9.5
v -6.9 0.2 9.5
v -6.9 0.1 9.3
v -6.9 0.3 9.3
v -6.9 0.1 9.2
v -6.9 0.2 9.2
v -6.9 0.2 9.1
v -6.9 0.3 9.1
v -6.9 0 8.9
v -6.9 0.3 8.9
v -6.9 0.4 8.9
v -4.4 0 11.4
v -4.4 0 10.9
v -4.4 0 10.3
v -4.4 0 8.9
v -4.5 0 11.4
v -4.5 0 11.3
v -4.5 0 10.9
v -4.5 0 10.3
v -4.5 0 10.2
v -4.6 0 10.4
v -4.6 0 10.2
v -4.8 0 11.4
v -4.8 0 11.3
v -4.8 0 10.4
v -4.8 0 10.3
v -4.9 0 10.3
v -4.9 0 10.2
v -5.1 0 10.4
v -5.1 0 10.2
v -5.2 0 11.4
v -5.2 0 11.3
v -5.3 0 10.4
v -5.3 0 10.3
v -5.4 0 11.1
v -5.4 0 11
v -5.4 0 10.3
v -5.4 0 10.2
v -5.4 0 9.8
v -5.4 0 9.6
v -5.4 0 9.3
v -5.4 0 9.1
v -5.5 0 11.4
v -5.5 0 11.3
v -5.5 0 11.2
v -5.5 0 11.1
v -5.5 0 10.6
v -5.5 0 10.5
v -5.5 0 9.9
v -5.5 0 9.8
v -5.5 0 9.4
v -5.5 0 9.3
v -5.6 0 11.4
v -5.6 0 11.2
v -5.6 0 11
v -5.6 0 10.9
v -5.6 0 10.8
v -5.6 0 10.6
v -5.6 0 10.5
v -5.6 0 10.3
v -5.6 0 10.2
v -5.6 0 9.9
v -5.6 0 9.6
v -5.6 0 9.4
v -5.6 0 9.1
v -5.7 0 10.9
v -5.7 0 10.8
v -5.7 0 10.4
v -5.7 0 10.3
v -5.8 0 10.5
v -5.8 0 10.4
v -5.9 0 11.3
v -5.9 0 9
v -6.8 0 11.3
v -6.8 0 9
v -6.9 0 11.4
v -6.9 0 8.9
v -4.4 0.4 11.4
v -4.4 0.4 11.1
v -4.4 0.4 10.8
v -4.4 0.4 10.5
v -4.4 0.4 10.4
v -4.4 0.4 10.3
v -4.4 0.4 10.2
v -4.4 0.4 8.9
v -4.5 0.4 11.1
v -4.5 0.4 10.8
v -4.5 0.4 10.7
v -4.5 0.4 10.3
v -4.5 0.4 10.2
v -4.5 0.4 10.1
v -4.6 0.4 11.2
v -4.6 0.4 11.1
v -4.6 0.4 10.8
v -4.6 0.4 10.7
v -4.6 0.4 10.6
v -4.6 0.4 10.5
v -4.6 0.4 10.4
v -4.6 0.4 10.2
v -4.6 0.4 10.1
v -4.7 0.4 10.3
v -4.7 0.4 10.2
v -4.7 0.4 9.5
v -4.7 0.4 9.4
v -4.7 0.4 9.3
v -4.7 0.4 9.2
v -4.8 0.4 11.2
v -4.8 0.4 11.1
v -4.8 0.4 10.8
v -4.8 0.4 10.7
v -4.8 0.4 10.6
v -4.8 0.4 10.5
v -4.8 0.4 10.4
v -4.8 0.4 10.3
v -4.8 0.4 10.2
v -4.8 0.4 9.5
v -4.8 0.4 9.4
v -4.8 0.4 9.3
v -4.8 0.4 9.2
v -4.9 0.4 11.1
v -4.9 0.4 10.8
v -4.9 0.4 10.5
v -4.9 0.4 10.4
v -4.9 0.4 10.3
v -4.9 0.4 10.2
v -4.9 0.4 10.1
v -4.9 0.4 9.4
v -4.9 0.4 9.3
v -5 0.4 11.2
v -5 0.4 11
v -5 0.4 10.9
v -5 0.4 10.8
v -5 0.4 10.5
v -5 0.4 10.4
v -5 0.4 10.3
v -5.1 0.4 11.2
v -5.1 0.4 11
v -5.1 0.4 10.9
v -5.1 0.4 10.8
v -5.1 0.4 10.7
v -5.1 0.4 10.6
v -5.1 0.4 10.5
v -5.1 0.4 10.4
v -5.1 0.4 10.2
v -5.1 0.4 10.1
v -5.2 0.4 11.3
v -5.2 0.4 11.2
v -5.2 0.4 11.1
v -5.2 0.4 11
v -5.2 0.4 10.9
v -5.2 0.4 10.8
v -5.2 0.4 10.7
v -5.2 0.4 10.6
v -5.2 0.4 10.3
v -5.2 0.4 10.2
v -5.3 0.4 11.3
v -5.3 0.4 11.2
v -5.3 0.4 11.1
v -5.3 0.4 11
v -5.3 0.4 10.7
v -5.3 0.4 10.6
v -5.3 0.4 10.5
v -5.3 0.4 10.4
v -5.3 0.4 10.3
v -5.3 0.4 10.2
v -5.3 0.4 9.6
v -5.3 0.4 9.5
v -5.4 0.4 11.4
v -5.4 0.4 11.2
v -5.4 0.4 11.1
v -5.4 0.4 11
v -5.4 0.4 10.7
v -5.4 0.4 10.6
v -5.4 0.4 10.5
v -5.4 0.4 10.4
v -5.4 0.4 10.3
v -5.4 0.4 10.2
v -5.4 0.4 10.1
v -5.4 0.4 9.6
v -5.4 0.4 9.5
v -5.5 0.4 11.4
v -5.5 0.4 11.2
v -5.5 0.4 11.1
v -5.5 0.4 11
v -5.5 0.4 10.8
v -5.5 0.4 10.7
v -5.5 0.4 10.6
v -5.5 0.4 10.5
v -5.6 0.4 11.4
v -5.6 0.4 11.2
v -5.6 0.4 11
v -5.6 0.4 10.9
v -5.6 0.4 10.8
v -5.6 0.4 10.6
v -5.6 0.4 10.5
v -5.6 0.4 10.3
v -5.6 0.4 10.2
v -5.7 0.4 11.4
v -5.7 0.4 11.2
v -5.7 0.4 11
v -5.7 0.4 10.9
v -5.7 0.4 10.8
v -5.7 0.4 10.6
v -5.7 0.4 10.4
v -5.7 0.4 10.3
v -5.7 0.4 10.2
v -5.8 0.4 10.9
v -5.8 0.4 10.8
v -5.8 0.4 10.7
v -5.8 0.4 10.6
v -5.8 0.4 10.5
v -5.8 0.4 10.4
v -5.8 0.4 10.3
v -5.8 0.4 10.2
v -5.8 0.4 10.1
v -5.9 0.4 11.3
v -5.9 0.4 11.2
v -5.9 0.4 10.8
v -5.9 0.4 10.7
v -5.9 0.4 10.5
v -5.9 0.4 10.4
v -6 0.4 11.3
v -6 0.4 11.2
v -6.2 0.4 9.3
v -6.2 0.4 9.2
v -6.2 0.4 9.1
v -6.2 0.4 9
v -6.3 0.4 10.6
v -6.3 0.4 10.5
v -6.3 0.4 9.3
v -6.3 0.4 9.2
v -6.3 0.4 9.1
v -6.3 0.4 9
v -6.4 0.4 10.6
v -6.4 0.4 10.5
v -6.4 0.4 9.2
v -6.4 0.4 9.1
v -6.5 0.4 10.1
v -6.5 0.4 10
v -6.6 0.4 10.1
v -6.6 0.4 10
v -6.9 0.4 11.4
v -6.9 0.4 8.9

# faces
f 8/5/1 2/5/1 1/5/1
f 9/4/1 3/4/1 2/4/1
f 9/5/1 2/5/1 8/5/1
f 10/5/1 4/5/1 3/5/1
f 10/4/1 3/4/1 9/4/1
f 11/5/1 4/5/1 10/5/1
f 12/5/1 4/5/1 11/5/1
f 13/4/1 5/4/1 4/4/1
f 13/5/1 4/5/1 12/5/1
f 14/5/1 6/5/1 5/5/1
f 14/4/1 5/4/1 13/4/1
f 15/6/1 7/6/1 6/6/1
f 16/6/1 7/6/1 15/6/1
f 17/6/1 7/6/1 16/6/1
f 18/6/1 7/6/1 17/6/1
f 19/6/1 7/6/1 18/6/1
f 20/6/1 7/6/1 19/6/1
f 21/5/1 12/5/1 11/5/1
f 21/4/1 11/4/1 10/4/1
f 22/4/1 13/4/1 12/4/1
f 22/5/1 12/5/1 21/5/1
f 23/5/1 6/5/1 14/5/1
f 23/1/1 14/1/1 13/1/1
f 24/6/1 15/6/1 6/6/1
f 24/5/1 6/5/1 23/5/1
f 25/2/1 16/2/1 15/2/1
f 25/6/1 17/6/1 16/6/1
f 26/6/1 17/6/1 25/6/1
f 27/2/1 18/2/1 17/2/1
f 27/6/1 17/6/1 26/6/1
f 28/6/1 19/6/1 18/6/1
f 28/2/1 18/2/1 27/2/1
f 29/6/1 7/6/1 20/6/1
f 29/2/1 20/2/1 19/2/1
f 30/6/1 7/6/1 29/6/1
f 31/4/1 9/4/1 8/4/1
f 32/1/1 10/1/1 9/1/1
f 32/4/1 9/4/1 31/4/1
f 33/4/1 21/4/1 10/4/1
f 33/1/1 10/1/1 32/1/1
f 33/4/1 22/4/1 21/4/1
f 34/4/1 13/4/1 22/4/1
f 34/4/1 22/4/1 33/4/1
f 34/1/1 23/1/1 13/1/1
f 35/1/1 23/1/1 34/1/1
f 36/4/1 24/4/1 23/4/1
f 36/1/1 23/1/1 35/1/1
f 37/6/1 15/6/1 24/6/1
f 37/4/1 24/4/1 36/4/1
f 38/6/1 15/6/1 37/6/1
f 39/2/1 26/2/1 25/2/1
f 39/6/1 15/6/1 38/6/1
f 39/2/1 25/2/1 15/2/1
f 40/6/1 28/6/1 27/6/1
f 40/2/1 26/2/1 39/2/1
f 40/6/1 27/6/1 26/6/1
f 41/6/1 19/6/1 28/6/1
f 41/6/1 28/6/1 40/6/1
f 41/2/1 30/2/1 29/2/1
f 41/2/1 29/2/1 19/2/1
f 42/6/1 7/6/1 30/6/1
f 42/2/1 30/2/1 41/2/1
f 43/6/1 7/6/1 42/6/1
f 44/1/1 33/1/1 32/1/1
f 44/1/1 32/1/1 31/1/1
f 44/1/1 34/1/1 33/1/1
f 44/1/1 35/1/1 34/1/1
f 45/4/1 36/4/1 35/4/1
f 45/1/1 35/1/1 44/1/1
f 46/7/1 37/7/1 36/7/1
f 46/4/1 36/4/1 45/4/1
f 47/8/1 38/8/1 37/8/1
f 47/7/1 37/7/1 46/7/1
f 48/2/1 41/2/1 40/2/1
f 48/8/1 38/8/1 47/8/1
f 48/2/1 40/2/1 39/2/1
f 48/2/1 43/2/1 42/2/1
f 48/2/1 39/2/1 38/2/1
f 48/2/1 42/2/1 41/2/1
f 49/2/1 43/2/1 48/2/1
f 50/6/2 51/6/2 52/6/2
f 52/6/2 51/6/2 53/6/2
f 53/6/2 51/6/2 54/6/2
f 54/6/2 51/6/2 55/6/2
f 55/6/2 51/6/2 56/6/2
f 56/6/2 51/6/2 57/6/2
f 50/6/2 52/6/2 58/6/2
f 52/2/2 53/2/2 59/2/2
f 58/6/2 52/6/2 59/6/2
f 53/6/2 54/6/2 60/6/2
f 60/6/2 54/6/2 61/6/2
f 55/6/2 56/6/2 62/6/2
f 62/6/2 56/6/2 63/6/2
f 56/2/2 57/2/2 64/2/2
f 63/6/2 56/6/2 64/6/2
f 57/6/2 51/6/2 65/6/2
f 64/2/2 57/2/2 65/2/2
f 50/6/2 58/6/2 66/6/2
f 58/2/2 59/2/2 67/2/2
f 66/6/2 58/6/2 67/6/2
f 59/2/2 53/2/2 68/2/2
f 67/2/2 59/2/2 68/2/2
f 53/6/2 60/6/2 68/6/2
f 60/2/2 61/2/2 69/2/2
f 68/6/2 60/6/2 69/6/2
f 61/6/2 54/6/2 70/6/2
f 69/2/2 61/2/2 70/2/2
f 54/2/2 55/2/2 71/2/2
f 70/6/2 54/6/2 71/6/2
f 55/6/2 62/6/2 72/6/2
f 71/2/2 55/2/2 72/2/2
f 62/2/2 63/2/2 73/2/2
f 72/6/2 62/6/2 73/6/2
f 63/6/2 64/6/2 74/6/2
f 73/2/2 63/2/2 74/2/2
f 64/6/2 65/6/2 74/6/2
f 65/6/2 51/6/2 75/6/2
f 74/6/2 65/6/2 75/6/2
f 72/2/2 73/2/2 76/2/2
f 73/2/2 74/2/2 76/2/2
f 74/2/2 75/2/2 76/2/2
f 67/2/2 68/2/2 76/2/2
f 70/2/2 71/2/2 76/2/2
f 66/2/2 67/2/2 76/2/2
f 71/2/2 72/2/2 76/2/2
f 68/2/2 69/2/2 76/2/2
f 69/2/2 70/2/2 76/2/2
f 76/2/2 75/2/2 77/2/2
f 82/4/3 80/4/3 79/4/3
f 83/1/3 81/1/3 80/1/3
f 83/4/3 80/4/3 82/4/3
f 84/5/3 79/5/3 78/5/3
f 84/4/3 82/4/3 79/4/3
f 85/1/3 83/1/3 82/1/3
f 85/4/3 82/4/3 84/4/3
f 86/1/3 81/1/3 83/1/3
f 86/1/3 83/1/3 85/1/3
f 87/1/3 81/1/3 86/1/3
f 88/5/3 85/5/3 84/5/3
f 88/5/3 84/5/3 78/5/3
f 89/4/3 86/4/3 85/4/3
f 89/5/3 85/5/3 88/5/3
f 90/5/3 88/5/3 78/5/3
f 91/4/3 89/4/3 88/4/3
f 91/5/3 88/5/3 90/5/3
f 92/9/3 87/9/3 86/9/3
f 92/4/3 89/4/3 91/4/3
f 92/4/3 86/4/3 89/4/3
f 93/1/3 92/1/3 91/1/3
f 93/9/3 87/9/3 92/9/3
f 94/9/3 87/9/3 93/9/3
f 95/4/3 91/4/3 90/4/3
f 95/1/3 93/1/3 91/1/3
f 95/1/3 94/1/3 93/1/3
f 96/1/3 94/1/3 95/1/3
f 97/4/3 96/4/3 95/4/3
f 97/1/3 94/1/3 96/1/3
f 98/1/3 94/1/3 97/1/3
f 99/4/3 97/4/3 95/4/3
f 99/4/3 98/4/3 97/4/3
f 100/4/3 98/4/3 99/4/3
f 101/4/3 95/4/3 90/4/3
f 101/4/3 99/4/3 95/4/3
f 102/7/3 100/7/3 99/7/3
f 102/4/3 99/4/3 101/4/3
f 103/7/3 100/7/3 102/7/3
f 104/6/3 102/6/3 101/6/3
f 104/8/3 103/8/3 102/8/3
f 105/8/3 103/8/3 104/8/3
f 106/6/3 104/6/3 101/6/3
f 107/6/3 104/6/3 106/6/3
f 108/6/3 106/6/3 101/6/3
f 108/2/3 107/2/3 106/2/3
f 109/6/3 104/6/3 107/6/3
f 109/2/3 107/2/3 108/2/3
f 110/6/3 108/6/3 101/6/3
f 110/6/3 109/6/3 108/6/3
f 111/2/3 105/2/3 104/2/3
f 111/6/3 109/6/3 110/6/3
f 111/6/3 104/6/3 109/6/3
f 112/6/3 110/6/3 101/6/3
f 112/2/3 111/2/3 110/2/3
f 113/2/3 105/2/3 111/2/3
f 113/2/3 111/2/3 112/2/3
f 114/6/3 113/6/3 112/6/3
f 115/2/3 105/2/3 113/2/3
f 115/6/3 113/6/3 114/6/3
f 116/6/3 114/6/3 112/6/3
f 116/2/3 115/2/3 114/2/3
f 117/2/3 105/2/3 115/2/3
f 117/2/3 115/2/3 116/2/3
f 118/6/3 112/6/3 101/6/3
f 118/6/3 116/6/3 112/6/3
f 118/6/3 117/6/3 116/6/3
f 119/6/3 117/6/3 118/6/3
f 120/6/3 118/6/3 101/6/3
f 120/2/3 119/2/3 118/2/3
f 121/6/3 117/6/3 119/6/3
f 121/2/3 119/2/3 120/2/3
f 122/6/3 120/6/3 101/6/3
f 122/6/3 121/6/3 120/6/3
f 123/2/3 105/2/3 117/2/3
f 123/6/3 121/6/3 122/6/3
f 123/6/3 117/6/3 121/6/3
f 124/2/3 105/2/3 123/2/3
f 125/6/4 126/6/4 128/6/4
f 126/2/4 127/2/4 129/2/4
f 128/6/4 126/6/4 129/6/4
f 125/6/4 128/6/4 130/6/4
f 128/2/4 129/2/4 130/2/4
f 130/2/4 129/2/4 131/2/4
f 130/6/4 131/6/4 132/6/4
f 131/2/4 129/2/4 132/2/4
f 129/2/4 127/2/4 133/2/4
f 132/2/4 129/2/4 133/2/4
f 130/6/4 132/6/4 134/6/4
f 132/6/4 133/6/4 134/6/4
f 133/2/4 127/2/4 135/2/4
f 134/6/4 133/6/4 135/6/4
f 130/6/4 134/6/4 136/6/4
f 125/6/4 130/6/4 136/6/4
f 134/2/4 135/2/4 137/2/4
f 136/6/4 134/6/4 137/6/4
f 125/6/4 136/6/4 138/6/4
f 136/2/4 137/2/4 138/2/4
f 137/2/4 135/2/4 139/2/4
f 138/2/4 137/2/4 139/2/4
f 138/6/4 139/6/4 140/6/4
f 139/2/4 135/2/4 140/2/4
f 135/2/4 127/2/4 141/2/4
f 140/2/4 135/2/4 141/2/4
f 138/6/4 140/6/4 142/6/4
f 125/6/4 138/6/4 142/6/4
f 140/6/4 141/6/4 142/6/4
f 141/2/4 127/2/4 143/2/4
f 142/6/4 141/6/4 143/6/4
f 125/6/4 142/6/4 144/6/4
f 142/2/4 143/2/4 144/2/4
f 144/2/4 143/2/4 145/2/4
f 125/6/4 144/6/4 146/6/4
f 144/6/4 145/6/4 146/6/4
f 145/2/4 143/2/4 147/2/4
f 146/6/4 145/6/4 147/6/4
f 143/2/4 127/2/4 148/2/4
f 147/2/4 143/2/4 148/2/4
f 146/2/4 147/2/4 149/2/4
f 125/6/4 146/6/4 149/6/4
f 147/6/4 148/6/4 150/6/4
f 149/2/4 147/2/4 150/2/4
f 125/6/4 149/6/4 151/6/4
f 149/6/4 150/6/4 151/6/4
f 148/2/4 127/2/4 152/2/4
f 151/6/4 150/6/4 152/6/4
f 150/6/4 148/6/4 152/6/4
f 125/6/4 151/6/4 153/6/4
f 151/2/4 152/2/4 153/2/4
f 153/2/4 152/2/4 154/2/4
f 153/6/4 154/6/4 155/6/4
f 154/2/4 152/2/4 155/2/4
f 152/2/4 127/2/4 156/2/4
f 155/2/4 152/2/4 156/2/4
f 153/6/4 155/6/4 157/6/4
f 125/6/4 153/6/4 157/6/4
f 155/6/4 156/6/4 157/6/4
f 156/2/4 127/2/4 158/2/4
f 157/6/4 156/6/4 158/6/4
f 158/2/4 127/2/4 159/2/4
f 164/5/5 161/5/5 160/5/5
f 165/5/5 161/5/5 164/5/5
f 166/4/5 162/4/5 161/4/5
f 166/5/5 161/5/5 165/5/5
f 167/6/5 163/6/5 162/6/5
f 167/4/5 162/4/5 166/4/5
f 168/6/5 163/6/5 167/6/5
f 169/5/5 166/5/5 165/5/5
f 169/5/5 167/5/5 166/5/5
f 169/5/5 168/5/5 167/5/5
f 170/6/5 163/6/5 168/6/5
f 170/5/5 168/5/5 169/5/5
f 171/4/5 165/4/5 164/4/5
f 172/5/5 169/5/5 165/5/5
f 172/4/5 165/4/5 171/4/5
f 173/2/5 170/2/5 169/2/5
f 173/5/5 169/5/5 172/5/5
f 174/2/5 170/2/5 173/2/5
f 175/5/5 172/5/5 171/5/5
f 175/2/5 170/2/5 174/2/5
f 175/5/5 174/5/5 173/5/5
f 175/5/5 173/5/5 172/5/5
f 176/6/5 163/6/5 170/6/5
f 176/2/5 170/2/5 175/2/5
f 177/5/5 175/5/5 171/5/5
f 177/5/5 176/5/5 175/5/5
f 178/6/5 163/6/5 176/6/5
f 178/5/5 176/5/5 177/5/5
f 179/5/5 177/5/5 171/5/5
f 180/5/5 177/5/5 179/5/5
f 181/2/5 178/2/5 177/2/5
f 181/5/5 177/5/5 180/5/5
f 182/2/5 178/2/5 181/2/5
f 183/5/5 181/5/5 180/5/5
f 183/5/5 182/5/5 181/5/5
f 184/5/5 182/5/5 183/5/5
f 185/2/5 178/2/5 182/2/5
f 185/5/5 182/5/5 184/5/5
f 186/6/5 163/6/5 178/6/5
f 186/2/5 178/2/5 185/2/5
f 187/6/5 163/6/5 186/6/5
f 188/6/5 163/6/5 187/6/5
f 189/6/5 163/6/5 188/6/5
f 190/6/5 163/6/5 189/6/5
f 191/4/5 180/4/5 179/4/5
f 192/5/5 183/5/5 180/5/5
f 192/4/5 180/4/5 191/4/5
f 193/5/5 183/5/5 192/5/5
f 194/2/5 184/2/5 183/2/5
f 194/5/5 183/5/5 193/5/5
f 195/5/5 185/5/5 184/5/5
f 195/5/5 186/5/5 185/5/5
f 196/5/5 186/5/5 195/5/5
f 197/6/5 187/6/5 186/6/5
f 198/3/5 188/3/5 187/3/5
f 198/6/5 187/6/5 197/6/5
f 199/6/5 189/6/5 188/6/5
f 200/3/5 190/3/5 189/3/5
f 200/6/5 189/6/5 199/6/5
f 201/5/5 193/5/5 192/5/5
f 201/5/5 192/5/5 191/5/5
f 202/2/5 194/2/5 193/2/5
f 202/5/5 193/5/5 201/5/5
f 203/2/5 184/2/5 194/2/5
f 203/2/5 194/2/5 202/2/5
f 203/5/5 195/5/5 184/5/5
f 204/5/5 195/5/5 203/5/5
f 205/5/5 195/5/5 204/5/5
f 206/2/5 196/2/5 195/2/5
f 206/5/5 195/5/5 205/5/5
f 207/5/5 186/5/5 196/5/5
f 207/2/5 196/2/5 206/2/5
f 208/5/5 186/5/5 207/5/5
f 209/6/5 197/6/5 186/6/5
f 209/5/5 186/5/5 208/5/5
f 210/3/5 198/3/5 197/3/5
f 210/6/5 197/6/5 209/6/5
f 211/3/5 188/3/5 198/3/5
f 211/3/5 198/3/5 210/3/5
f 211/6/5 199/6/5 188/6/5
f 212/3/5 200/3/5 199/3/5
f 212/6/5 199/6/5 211/6/5
f 213/6/5 163/6/5 190/6/5
f 213/3/5 200/3/5 212/3/5
f 213/3/5 190/3/5 200/3/5
f 214/6/5 202/6/5 201/6/5
f 214/6/5 204/6/5 203/6/5
f 214/5/5 205/5/5 204/5/5
f 214/6/5 203/6/5 202/6/5
f 215/6/5 206/6/5 205/6/5
f 215/5/5 205/5/5 214/5/5
f 215/6/5 207/6/5 206/6/5
f 216/5/5 208/5/5 207/5/5
f 217/6/5 212/6/5 211/6/5
f 217/5/5 208/5/5 216/5/5
f 217/6/5 213/6/5 212/6/5
f 217/6/5 210/6/5 209/6/5
f 217/6/5 211/6/5 210/6/5
f 217/6/5 209/6/5 208/6/5
f 218/5/5 216/5/5 207/5/5
f 218/6/5 215/6/5 214/6/5
f 218/6/5 207/6/5 215/6/5
f 219/6/5 217/6/5 216/6/5
f 219/5/5 216/5/5 218/5/5
f 220/6/5 218/6/5 214/6/5
f 220/6/5 214/6/5 201/6/5
f 220/6/5 219/6/5 218/6/5
f 221/6/5 163/6/5 213/6/5
f 221/6/5 219/6/5 220/6/5
f 221/6/5 213/6/5 217/6/5
f 221/6/5 217/6/5 219/6/5
f 222/6/5 220/6/5 201/6/5
f 222/2/5 221/2/5 220/2/5
f 223/6/5 163/6/5 221/6/5
f 223/2/5 221/2/5 222/2/5
f 224/6/5 222/6/5 201/6/5
f 224/6/5 223/6/5 222/6/5
f 225/6/5 163/6/5 223/6/5
f 225/6/5 223/6/5 224/6/5
f 226/1/6 227/1/6 234/1/6
f 227/9/6 228/9/6 234/9/6
f 228/1/6 229/1/6 235/1/6
f 234/9/6 228/9/6 235/9/6
f 235/1/6 229/1/6 236/1/6
f 231/8/6 232/8/6 237/8/6
f 230/7/6 231/7/6 237/7/6
f 232/2/6 233/2/6 238/2/6
f 237/8/6 232/8/6 238/8/6
f 238/2/6 233/2/6 239/2/6
f 226/1/6 234/1/6 240/1/6
f 234/7/6 235/7/6 241/7/6
f 240/1/6 234/1/6 241/1/6
f 235/9/6 236/9/6 242/9/6
f 241/7/6 235/7/6 242/7/6
f 236/1/6 229/1/6 243/1/6
f 242/9/6 236/9/6 243/9/6
f 243/1/6 229/1/6 244/1/6
f 229/4/6 230/4/6 245/4/6
f 244/1/6 229/1/6 245/1/6
f 230/7/6 237/7/6 246/7/6
f 245/4/6 230/4/6 246/4/6
f 237/7/6 238/7/6 246/7/6
f 238/8/6 239/8/6 247/8/6
f 246/7/6 238/7/6 247/7/6
f 239/2/6 233/2/6 248/2/6
f 247/8/6 239/8/6 248/8/6
f 246/8/6 247/8/6 249/8/6
f 247/2/6 248/2/6 250/2/6
f 249/8/6 247/8/6 250/8/6
f 248/2/6 233/2/6 251/2/6
f 250/2/6 248/2/6 251/2/6
f 251/2/6 233/2/6 252/2/6
f 252/2/6 233/2/6 253/2/6
f 253/2/6 233/2/6 254/2/6
f 240/5/6 241/5/6 255/5/6
f 226/1/6 240/1/6 255/1/6
f 241/7/6 242/7/6 256/7/6
f 255/5/6 241/5/6 256/5/6
f 242/7/6 243/7/6 256/7/6
f 256/7/6 243/7/6 257/7/6
f 243/9/6 244/9/6 258/9/6
f 257/7/6 243/7/6 258/7/6
f 244/4/6 245/4/6 259/4/6
f 258/9/6 244/9/6 259/9/6
f 245/7/6 246/7/6 260/7/6
f 259/4/6 245/4/6 260/4/6
f 246/8/6 249/8/6 261/8/6
f 260/7/6 246/7/6 261/7/6
f 249/2/6 250/2/6 262/2/6
f 261/8/6 249/8/6 262/8/6
f 250/2/6 251/2/6 262/2/6
f 262/2/6 251/2/6 263/2/6
f 251/8/6 252/8/6 264/8/6
f 263/2/6 251/2/6 264/2/6
f 252/2/6 253/2/6 265/2/6
f 264/8/6 252/8/6 265/8/6
f 253/8/6 254/8/6 266/8/6
f 265/2/6 253/2/6 266/2/6
f 254/2/6 233/2/6 267/2/6
f 266/8/6 254/8/6 267/8/6
f 256/5/6 257/5/6 268/5/6
f 255/1/6 256/1/6 268/1/6
f 257/1/6 258/1/6 269/1/6
f 268/5/6 257/5/6 269/5/6
f 258/1/6 259/1/6 269/1/6
f 259/1/6 260/1/6 269/1/6
f 260/4/6 261/4/6 270/4/6
f 269/1/6 260/1/6 270/1/6
f 261/7/6 262/7/6 271/7/6
f 270/4/6 261/4/6 271/4/6
f 262/8/6 263/8/6 272/8/6
f 271/7/6 262/7/6 272/7/6
f 264/2/6 265/2/6 273/2/6
f 272/8/6 263/8/6 273/8/6
f 263/2/6 264/2/6 273/2/6
f 273/2/6 265/2/6 274/2/6
f 265/8/6 266/8/6 275/8/6
f 274/2/6 265/2/6 275/2/6
f 266/2/6 267/2/6 276/2/6
f 275/8/6 266/8/6 276/8/6
f 255/1/6 268/1/6 277/1/6
f 226/1/6 255/1/6 277/1/6
f 268/1/6 269/1/6 277/1/6
f 269/1/6 270/1/6 277/1/6
f 270/1/6 271/1/6 277/1/6
f 277/1/6 271/1/6 278/1/6
f 278/1/6 271/1/6 279/1/6
f 279/1/6 271/1/6 280/1/6
f 280/1/6 271/1/6 281/1/6
f 271/4/6 272/4/6 282/4/6
f 281/1/6 271/1/6 282/1/6
f 272/7/6 273/7/6 283/7/6
f 282/4/6 272/4/6 283/4/6
f 226/1/6 277/1/6 284/1/6
f 277/4/6 278/4/6 284/4/6
f 278/1/6 279/1/6 285/1/6
f 284/4/6 278/4/6 285/4/6
f 279/4/6 280/4/6 286/4/6
f 285/1/6 279/1/6 286/1/6
f 280/1/6 281/1/6 287/1/6
f 286/4/6 280/4/6 287/4/6
f 287/1/6 281/1/6 288/1/6
f 288/1/6 281/1/6 289/1/6
f 281/4/6 282/4/6 290/4/6
f 289/1/6 281/1/6 290/1/6
f 282/7/6 283/7/6 291/7/6
f 290/4/6 282/4/6 291/4/6
f 273/8/6 274/8/6 292/8/6
f 291/7/6 283/7/6 292/7/6
f 283/7/6 273/7/6 292/7/6
f 275/2/6 276/2/6 293/2/6
f 292/8/6 274/8/6 293/8/6
f 274/2/6 275/2/6 293/2/6
f 226/1/6 284/1/6 294/1/6
f 284/1/6 285/1/6 294/1/6
f 294/1/6 285/1/6 295/1/6
f 295/1/6 285/1/6 296/1/6
f 285/4/6 286/4/6 297/4/6
f 296/1/6 285/1/6 297/1/6
f 286/7/6 287/7/6 298/7/6
f 297/4/6 286/4/6 298/4/6
f 287/4/6 288/4/6 299/4/6
f 298/7/6 287/7/6 299/7/6
f 288/1/6 289/1/6 300/1/6
f 299/4/6 288/4/6 300/4/6
f 289/4/6 290/4/6 301/4/6
f 300/1/6 289/1/6 301/1/6
f 291/8/6 292/8/6 302/8/6
f 292/2/6 293/2/6 303/2/6
f 302/8/6 292/8/6 303/8/6
f 226/1/6 294/1/6 304/1/6
f 294/4/6 295/4/6 304/4/6
f 295/1/6 296/1/6 305/1/6
f 304/4/6 295/4/6 305/4/6
f 296/4/6 297/4/6 306/4/6
f 305/1/6 296/1/6 306/1/6
f 298/7/6 299/7/6 307/7/6
f 306/4/6 297/4/6 307/4/6
f 297/7/6 298/7/6 307/7/6
f 299/7/6 300/7/6 307/7/6
f 300/4/6 301/4/6 308/4/6
f 307/7/6 300/7/6 308/7/6
f 301/4/6 290/4/6 309/4/6
f 308/4/6 301/4/6 309/4/6
f 290/7/6 291/7/6 310/7/6
f 309/4/6 290/4/6 310/4/6
f 291/8/6 302/8/6 311/8/6
f 310/7/6 291/7/6 311/7/6
f 302/2/6 303/2/6 312/2/6
f 311/8/6 302/8/6 312/8/6
f 303/2/6 293/2/6 313/2/6
f 312/2/6 303/2/6 313/2/6
f 293/2/6 276/2/6 314/2/6
f 313/2/6 293/2/6 314/2/6
f 314/2/6 276/2/6 315/2/6
f 226/1/6 304/1/6 316/1/6
f 304/1/6 305/1/6 316/1/6
f 305/4/6 306/4/6 317/4/6
f 316/1/6 305/1/6 317/1/6
f 306/5/6 307/5/6 318/5/6
f 317/4/6 306/4/6 318/4/6
f 307/7/6 308/7/6 319/7/6
f 318/5/6 307/5/6 319/5/6
f 308/7/6 309/7/6 319/7/6
f 319/7/6 309/7/6 320/7/6
f 310/4/6 311/4/6 321/4/6
f 320/7/6 309/7/6 321/7/6
f 309/4/6 310/4/6 321/4/6
f 321/4/6 311/4/6 322/4/6
f 311/7/6 312/7/6 323/7/6
f 322/4/6 311/4/6 323/4/6
f 312/8/6 313/8/6 324/8/6
f 323/7/6 312/7/6 324/7/6
f 313/2/6 314/2/6 325/2/6
f 324/8/6 313/8/6 325/8/6
f 325/2/6 314/2/6 326/2/6
f 314/8/6 315/8/6 327/8/6
f 326/2/6 314/2/6 327/2/6
f 315/2/6 276/2/6 328/2/6
f 327/8/6 315/8/6 328/8/6
f 316/4/6 317/4/6 329/4/6
f 317/7/6 318/7/6 330/7/6
f 329/4/6 317/4/6 330/4/6
f 318/8/6 319/8/6 331/8/6
f 330/7/6 318/7/6 331/7/6
f 319/7/6 320/7/6 332/7/6
f 331/8/6 319/8/6 332/8/6
f 332/7/6 320/7/6 333/7/6
f 320/4/6 321/4/6 334/4/6
f 333/7/6 320/7/6 334/7/6
f 321/7/6 322/7/6 335/7/6
f 334/4/6 321/4/6 335/4/6
f 323/4/6 324/4/6 336/4/6
f 335/7/6 322/7/6 336/7/6
f 322/4/6 323/4/6 336/4/6
f 329/7/6 330/7/6 337/7/6
f 330/8/6 331/8/6 338/8/6
f 337/7/6 330/7/6 338/7/6
f 331/8/6 332/8/6 338/8/6
f 332/5/6 333/5/6 339/5/6
f 338/8/6 332/8/6 339/8/6
f 339/5/6 333/5/6 340/5/6
f 334/7/6 335/7/6 341/7/6
f 340/5/6 333/5/6 341/5/6
f 333/7/6 334/7/6 341/7/6
f 335/8/6 336/8/6 342/8/6
f 341/7/6 335/7/6 342/7/6
f 336/4/6 324/4/6 343/4/6
f 342/8/6 336/8/6 343/8/6
f 324/7/6 325/7/6 344/7/6
f 343/4/6 324/4/6 344/4/6
f 325/8/6 326/8/6 345/8/6
f 344/7/6 325/7/6 345/7/6
f 337/8/6 338/8/6 346/8/6
f 338/2/6 339/2/6 347/2/6
f 346/8/6 338/8/6 347/8/6
f 339/8/6 340/8/6 348/8/6
f 347/2/6 339/2/6 348/2/6
f 340/7/6 341/7/6 349/7/6
f 348/8/6 340/8/6 349/8/6
f 341/8/6 342/8/6 350/8/6
f 349/7/6 341/7/6 350/7/6
f 342/8/6 343/8/6 350/8/6
f 350/8/6 343/8/6 351/8/6
f 343/7/6 344/7/6 352/7/6
f 344/8/6 345/8/6 353/8/6
f 352/7/6 344/7/6 353/7/6
f 345/8/6 326/8/6 354/8/6
f 353/8/6 345/8/6 354/8/6
f 346/2/6 347/2/6 355/2/6
f 347/2/6 348/2/6 355/2/6
f 348/2/6 349/2/6 355/2/6
f 349/8/6 350/8/6 355/8/6
f 350/2/6 351/2/6 356/2/6
f 355/8/6 350/8/6 356/8/6
f 356/2/6 351/2/6 357/2/6
f 351/8/6 343/8/6 358/8/6
f 357/2/6 351/2/6 358/2/6
f 343/7/6 352/7/6 359/7/6
f 358/8/6 343/8/6 359/8/6
f 352/8/6 353/8/6 360/8/6
f 359/7/6 352/7/6 360/7/6
f 353/2/6 354/2/6 361/2/6
f 360/8/6 353/8/6 361/8/6
f 354/8/6 326/8/6 362/8/6
f 361/2/6 354/2/6 362/2/6
f 326/2/6 327/2/6 363/2/6
f 362/8/6 326/8/6 363/8/6
f 327/2/6 328/2/6 363/2/6
f 346/2/6 355/2/6 364/2/6
f 355/2/6 356/2/6 364/2/6
f 364/2/6 356/2/6 365/2/6
f 356/8/6 357/8/6 366/8/6
f 365/2/6 356/2/6 366/2/6
f 358/2/6 359/2/6 367/2/6
f 366/8/6 357/8/6 367/8/6
f 357/2/6 358/2/6 367/2/6
f 359/8/6 360/8/6 368/8/6
f 367/2/6 359/2/6 368/2/6
f 360/2/6 361/2/6 369/2/6
f 368/8/6 360/8/6 369/8/6
f 361/2/6 362/2/6 369/2/6
f 362/2/6 363/2/6 369/2/6
f 346/2/6 364/2/6 370/2/6
f 364/8/6 365/8/6 370/8/6
f 367/2/6 368/2/6 371/2/6
f 370/8/6 365/8/6 371/8/6
f 368/2/6 369/2/6 371/2/6
f 365/2/6 366/2/6 371/2/6
f 366/2/6 367/2/6 371/2/6
f 276/2/6 267/2/6 372/2/6
f 371/2/6 369/2/6 372/2/6
f 370/2/6 371/2/6 372/2/6
f 363/2/6 328/2/6 372/2/6
f 369/2/6 363/2/6 372/2/6
f 328/2/6 276/2/6 372/2/6
f 267/2/6 233/2/6 373/2/6
f 372/2/6 267/2/6 373/2/6
f 373/2/6 233/2/6 374/2/6
f 374/2/6 233/2/6 375/2/6
f 370/2/6 372/2/6 376/2/6
f 376/2/6 372/2/6 377/2/6
f 372/8/6 373/8/6 378/8/6
f 377/2/6 372/2/6 378/2/6
f 373/2/6 374/2/6 379/2/6
f 378/8/6 373/8/6 379/8/6
f 374/8/6 375/8/6 380/8/6
f 379/2/6 374/2/6 380/2/6
f 375/2/6 233/2/6 381/2/6
f 380/8/6 375/8/6 381/8/6
f 376/8/6 377/8/6 382/8/6
f 370/2/6 376/2/6 382/2/6
f 377/2/6 378/2/6 383/2/6
f 382/8/6 377/8/6 383/8/6
f 378/2/6 379/2/6 383/2/6
f 379/8/6 380/8/6 384/8/6
f 383/2/6 379/2/6 384/2/6
f 380/2/6 381/2/6 385/2/6
f 384/8/6 380/8/6 385/8/6
f 382/2/6 383/2/6 386/2/6
f 383/2/6 384/2/6 386/2/6
f 384/2/6 385/2/6 386/2/6
f 386/2/6 385/2/6 387/2/6
f 382/2/6 386/2/6 388/2/6
f 386/8/6 387/8/6 388/8/6
f 387/2/6 385/2/6 389/2/6
f 388/8/6 387/8/6 389/8/6
f 346/2/6 370/2/6 390/2/6
f 370/2/6 382/2/6 390/2/6
f 388/2/6 389/2/6 390/2/6
f 382/2/6 388/2/6 390/2/6
f 385/2/6 381/2/6 391/2/6
f 390/2/6 389/2/6 391/2/6
f 389/2/6 385/2/6 391/2/6
f 381/2/6 233/2/6 391/2/6
