# MagicaVoxel @ Ephtracy

# group
o 

# material
mtllib Package 01 Necro Dungeon-67.mtl
usemtl palette

# normals
vn 0 0 1
vn 0 0 -1
vn 1 0 0
vn -1 0 0
vn 0 -1 0
vn 0 1 0

# texcoords
vt 0.00976563 0.5
vt 0.0214844 0.5
vt 0.0332031 0.5
vt 0.0410156 0.5
vt 0.0527344 0.5
vt 0.0722656 0.5
vt 0.0839844 0.5
vt 0.103516 0.5

# verts
v -4.4 0 4.4
v -4.5 0 4.4
v -4.6 0 4.4
v -4.9 0 4.4
v -5 0 4.4
v -5.2 0 4.4
v -5.6 0 4.4
v -6.9 0 4.4
v -5.2 0.1 4.4
v -5.6 0.1 4.4
v -5.8 0.1 4.4
v -6 0.1 4.4
v -6.2 0.1 4.4
v -6.3 0.1 4.4
v -6.5 0.1 4.4
v -6.6 0.1 4.4
v -4.5 0.2 4.4
v -4.6 0.2 4.4
v -4.8 0.2 4.4
v -4.9 0.2 4.4
v -5 0.2 4.4
v -5.1 0.2 4.4
v -5.2 0.2 4.4
v -6 0.2 4.4
v -6.1 0.2 4.4
v -6.2 0.2 4.4
v -6.3 0.2 4.4
v -6.6 0.2 4.4
v -6.7 0.2 4.4
v -4.6 0.3 4.4
v -4.8 0.3 4.4
v -5.6 0.3 4.4
v -5.7 0.3 4.4
v -5.8 0.3 4.4
v -6.1 0.3 4.4
v -6.5 0.3 4.4
v -6.7 0.3 4.4
v -6.9 0.3 4.4
v -4.4 0.4 4.4
v -4.6 0.4 4.4
v -4.8 0.4 4.4
v -5.1 0.4 4.4
v -5.2 0.4 4.4
v -5.6 0.4 4.4
v -5.7 0.4 4.4
v -6.9 0.4 4.4
v -4.4 0 1.9
v -6.9 0 1.9
v -5.1 0.1 1.9
v -5.2 0.1 1.9
v -5.9 0.1 1.9
v -6.2 0.1 1.9
v -6.7 0.1 1.9
v -6.8 0.1 1.9
v -4.9 0.2 1.9
v -5.1 0.2 1.9
v -5.5 0.2 1.9
v -5.6 0.2 1.9
v -6.4 0.2 1.9
v -6.5 0.2 1.9
v -6.7 0.2 1.9
v -6.8 0.2 1.9
v -4.4 0.3 1.9
v -4.9 0.3 1.9
v -5.2 0.3 1.9
v -5.5 0.3 1.9
v -5.6 0.3 1.9
v -5.9 0.3 1.9
v -6.2 0.3 1.9
v -6.4 0.3 1.9
v -6.5 0.3 1.9
v -6.9 0.3 1.9
v -4.4 0.4 1.9
v -6.9 0.4 1.9
v -4.4 0 4.4
v -4.4 0.4 4.4
v -4.4 0 4.2
v -4.4 0.2 4.2
v -4.4 0 4.1
v -4.4 0.2 4.1
v -4.4 0.3 4.1
v -4.4 0 3.3
v -4.4 0.2 3.3
v -4.4 0.3 3.3
v -4.4 0.4 3.3
v -4.4 0.3 3.2
v -4.4 0.4 3.2
v -4.4 0.1 3.1
v -4.4 0.2 3.1
v -4.4 0.1 3
v -4.4 0.2 3
v -4.4 0.1 2.9
v -4.4 0.3 2.9
v -4.4 0.1 2.6
v -4.4 0.3 2.6
v -4.4 0.2 2.4
v -4.4 0.3 2.4
v -4.4 0.2 2.3
v -4.4 0.3 2.3
v -4.4 0.1 2.1
v -4.4 0.2 2.1
v -4.4 0.1 2
v -4.4 0.2 2
v -4.4 0 1.9
v -4.4 0.3 1.9
v -4.4 0.4 1.9
v -6.9 0 4.4
v -6.9 0.3 4.4
v -6.9 0.4 4.4
v -6.9 0.1 3.9
v -6.9 0.3 3.9
v -6.9 0.1 3.8
v -6.9 0.2 3.8
v -6.9 0.2 3.7
v -6.9 0.3 3.7
v -6.9 0.2 3.3
v -6.9 0.3 3.3
v -6.9 0.1 3.2
v -6.9 0.2 3.2
v -6.9 0.1 3.1
v -6.9 0.2 3.1
v -6.9 0.2 3
v -6.9 0.3 3
v -6.9 0.1 2.9
v -6.9 0.3 2.9
v -6.9 0.1 2.7
v -6.9 0.2 2.7
v -6.9 0.1 2.6
v -6.9 0.2 2.6
v -6.9 0.3 2.6
v -6.9 0.1 2.5
v -6.9 0.2 2.5
v -6.9 0.1 2.3
v -6.9 0.3 2.3
v -6.9 0.1 2.2
v -6.9 0.2 2.2
v -6.9 0.2 2.1
v -6.9 0.3 2.1
v -6.9 0 1.9
v -6.9 0.3 1.9
v -6.9 0.4 1.9
v -4.4 0 4.4
v -4.4 0 4.2
v -4.4 0 4.1
v -4.4 0 3.3
v -4.4 0 1.9
v -4.5 0 4.4
v -4.5 0 4.3
v -4.5 0 4.2
v -4.5 0 4.1
v -4.5 0 3.3
v -4.5 0 3.2
v -4.6 0 4.4
v -4.6 0 4.3
v -4.6 0 3.4
v -4.6 0 3.2
v -4.8 0 3.4
v -4.8 0 3.3
v -4.9 0 4.4
v -4.9 0 4.3
v -4.9 0 3.3
v -4.9 0 3.2
v -5 0 4.4
v -5 0 4.3
v -5.1 0 3.4
v -5.1 0 3.2
v -5.2 0 4.4
v -5.2 0 4.3
v -5.3 0 3.4
v -5.3 0 3.3
v -5.4 0 4.1
v -5.4 0 4
v -5.4 0 3.3
v -5.4 0 3.2
v -5.4 0 2.8
v -5.4 0 2.6
v -5.4 0 2.3
v -5.4 0 2.1
v -5.5 0 4.2
v -5.5 0 4.1
v -5.5 0 3.6
v -5.5 0 3.5
v -5.5 0 2.9
v -5.5 0 2.8
v -5.5 0 2.4
v -5.5 0 2.3
v -5.6 0 4.4
v -5.6 0 4.3
v -5.6 0 4.2
v -5.6 0 4
v -5.6 0 3.9
v -5.6 0 3.8
v -5.6 0 3.6
v -5.6 0 3.5
v -5.6 0 3.3
v -5.6 0 3.2
v -5.6 0 2.9
v -5.6 0 2.6
v -5.6 0 2.4
v -5.6 0 2.1
v -5.7 0 3.9
v -5.7 0 3.8
v -5.7 0 3.4
v -5.7 0 3.3
v -5.8 0 3.5
v -5.8 0 3.4
v -5.9 0 4.3
v -5.9 0 2
v -6.8 0 4.3
v -6.8 0 2
v -6.9 0 4.4
v -6.9 0 1.9
v -4.4 0.4 4.4
v -4.4 0.4 3.3
v -4.4 0.4 3.2
v -4.4 0.4 1.9
v -4.5 0.4 4.2
v -4.5 0.4 3.9
v -4.5 0.4 3.5
v -4.5 0.4 3.4
v -4.5 0.4 3.3
v -4.5 0.4 3.2
v -4.5 0.4 3.1
v -4.6 0.4 4.4
v -4.6 0.4 4.3
v -4.6 0.4 4.2
v -4.6 0.4 3.9
v -4.6 0.4 3.8
v -4.6 0.4 3.7
v -4.6 0.4 3.6
v -4.6 0.4 3.5
v -4.6 0.4 3.4
v -4.6 0.4 3.2
v -4.6 0.4 3.1
v -4.7 0.4 3.6
v -4.7 0.4 3.5
v -4.7 0.4 3.3
v -4.7 0.4 3.2
v -4.7 0.4 2.5
v -4.7 0.4 2.4
v -4.7 0.4 2.3
v -4.7 0.4 2.2
v -4.8 0.4 4.4
v -4.8 0.4 4.3
v -4.8 0.4 4.2
v -4.8 0.4 3.9
v -4.8 0.4 3.8
v -4.8 0.4 3.7
v -4.8 0.4 3.6
v -4.8 0.4 3.5
v -4.8 0.4 3.4
v -4.8 0.4 3.3
v -4.8 0.4 3.2
v -4.8 0.4 2.5
v -4.8 0.4 2.4
v -4.8 0.4 2.3
v -4.8 0.4 2.2
v -4.9 0.4 4.3
v -4.9 0.4 4.2
v -4.9 0.4 3.9
v -4.9 0.4 3.8
v -4.9 0.4 3.7
v -4.9 0.4 3.6
v -4.9 0.4 3.5
v -4.9 0.4 3.4
v -4.9 0.4 3.3
v -4.9 0.4 3.2
v -4.9 0.4 3.1
v -4.9 0.4 2.4
v -4.9 0.4 2.3
v -5 0.4 4.2
v -5 0.4 3.9
v -5 0.4 3.7
v -5 0.4 3.6
v -5 0.4 3.4
v -5 0.4 3.2
v -5.1 0.4 4.4
v -5.1 0.4 3.7
v -5.1 0.4 3.5
v -5.1 0.4 3.4
v -5.1 0.4 3.2
v -5.1 0.4 3.1
v -5.2 0.4 4.4
v -5.2 0.4 3.7
v -5.2 0.4 3.6
v -5.2 0.4 3.5
v -5.2 0.4 3.3
v -5.2 0.4 3.2
v -5.3 0.4 3.4
v -5.3 0.4 3.3
v -5.3 0.4 3.2
v -5.3 0.4 2.6
v -5.3 0.4 2.5
v -5.4 0.4 4.3
v -5.4 0.4 4.2
v -5.4 0.4 4.1
v -5.4 0.4 4
v -5.4 0.4 3.3
v -5.4 0.4 3.2
v -5.4 0.4 3.1
v -5.4 0.4 2.6
v -5.4 0.4 2.5
v -5.5 0.4 4.3
v -5.5 0.4 4.2
v -5.5 0.4 4.1
v -5.5 0.4 3.6
v -5.5 0.4 3.5
v -5.6 0.4 4.4
v -5.6 0.4 4.2
v -5.6 0.4 4
v -5.6 0.4 3.9
v -5.6 0.4 3.8
v -5.6 0.4 3.6
v -5.6 0.4 3.3
v -5.6 0.4 3.2
v -5.7 0.4 4.4
v -5.7 0.4 4.2
v -5.7 0.4 4
v -5.7 0.4 3.9
v -5.7 0.4 3.8
v -5.7 0.4 3.6
v -5.7 0.4 3.5
v -5.7 0.4 3.4
v -5.7 0.4 3.3
v -5.7 0.4 3.2
v -5.8 0.4 3.9
v -5.8 0.4 3.8
v -5.8 0.4 3.7
v -5.8 0.4 3.6
v -5.8 0.4 3.5
v -5.8 0.4 3.4
v -5.8 0.4 3.3
v -5.8 0.4 3.2
v -5.8 0.4 3.1
v -5.9 0.4 4.3
v -5.9 0.4 4.2
v -5.9 0.4 3.8
v -5.9 0.4 3.7
v -5.9 0.4 3.5
v -5.9 0.4 3.4
v -6 0.4 4.3
v -6 0.4 4.2
v -6.2 0.4 2.3
v -6.2 0.4 2.2
v -6.2 0.4 2.1
v -6.2 0.4 2
v -6.3 0.4 3.6
v -6.3 0.4 3.5
v -6.3 0.4 2.3
v -6.3 0.4 2.2
v -6.3 0.4 2.1
v -6.3 0.4 2
v -6.4 0.4 3.6
v -6.4 0.4 3.5
v -6.4 0.4 2.2
v -6.4 0.4 2.1
v -6.5 0.4 3.1
v -6.5 0.4 3
v -6.6 0.4 3.1
v -6.6 0.4 3
v -6.9 0.4 4.4
v -6.9 0.4 1.9

# faces
f 9/6/1 6/6/1 5/6/1
f 9/8/1 7/8/1 6/8/1
f 10/5/1 8/5/1 7/5/1
f 10/8/1 7/8/1 9/8/1
f 11/5/1 8/5/1 10/5/1
f 12/5/1 8/5/1 11/5/1
f 13/5/1 8/5/1 12/5/1
f 14/5/1 8/5/1 13/5/1
f 15/5/1 8/5/1 14/5/1
f 16/5/1 8/5/1 15/5/1
f 17/6/1 2/6/1 1/6/1
f 17/1/1 3/1/1 2/1/1
f 18/4/1 4/4/1 3/4/1
f 18/1/1 3/1/1 17/1/1
f 19/4/1 4/4/1 18/4/1
f 20/8/1 5/8/1 4/8/1
f 20/4/1 4/4/1 19/4/1
f 21/6/1 9/6/1 5/6/1
f 21/8/1 5/8/1 20/8/1
f 22/6/1 9/6/1 21/6/1
f 23/4/1 10/4/1 9/4/1
f 23/6/1 9/6/1 22/6/1
f 24/2/1 12/2/1 11/2/1
f 24/5/1 13/5/1 12/5/1
f 25/5/1 13/5/1 24/5/1
f 26/2/1 14/2/1 13/2/1
f 26/5/1 13/5/1 25/5/1
f 27/5/1 15/5/1 14/5/1
f 27/2/1 14/2/1 26/2/1
f 28/5/1 8/5/1 16/5/1
f 28/2/1 16/2/1 15/2/1
f 29/5/1 8/5/1 28/5/1
f 30/1/1 19/1/1 18/1/1
f 30/6/1 18/6/1 17/6/1
f 31/6/1 20/6/1 19/6/1
f 31/1/1 19/1/1 30/1/1
f 31/6/1 22/6/1 21/6/1
f 31/6/1 21/6/1 20/6/1
f 32/5/1 11/5/1 10/5/1
f 32/4/1 10/4/1 23/4/1
f 33/5/1 11/5/1 32/5/1
f 34/2/1 25/2/1 24/2/1
f 34/5/1 11/5/1 33/5/1
f 34/2/1 24/2/1 11/2/1
f 35/5/1 27/5/1 26/5/1
f 35/2/1 25/2/1 34/2/1
f 35/5/1 26/5/1 25/5/1
f 36/5/1 15/5/1 27/5/1
f 36/5/1 27/5/1 35/5/1
f 36/2/1 28/2/1 15/2/1
f 36/2/1 29/2/1 28/2/1
f 37/5/1 8/5/1 29/5/1
f 37/2/1 29/2/1 36/2/1
f 38/5/1 8/5/1 37/5/1
f 39/6/1 17/6/1 1/6/1
f 39/6/1 30/6/1 17/6/1
f 40/8/1 31/8/1 30/8/1
f 40/6/1 30/6/1 39/6/1
f 41/6/1 22/6/1 31/6/1
f 41/8/1 31/8/1 40/8/1
f 42/1/1 23/1/1 22/1/1
f 42/6/1 22/6/1 41/6/1
f 43/4/1 32/4/1 23/4/1
f 43/1/1 23/1/1 42/1/1
f 44/7/1 33/7/1 32/7/1
f 44/4/1 32/4/1 43/4/1
f 45/2/1 35/2/1 34/2/1
f 45/7/1 33/7/1 44/7/1
f 45/2/1 34/2/1 33/2/1
f 45/2/1 37/2/1 36/2/1
f 45/2/1 36/2/1 35/2/1
f 45/2/1 38/2/1 37/2/1
f 46/2/1 38/2/1 45/2/1
f 47/5/2 48/5/2 49/5/2
f 49/5/2 48/5/2 50/5/2
f 50/5/2 48/5/2 51/5/2
f 51/5/2 48/5/2 52/5/2
f 52/5/2 48/5/2 53/5/2
f 53/5/2 48/5/2 54/5/2
f 47/5/2 49/5/2 55/5/2
f 49/2/2 50/2/2 56/2/2
f 55/5/2 49/5/2 56/5/2
f 50/5/2 51/5/2 57/5/2
f 57/5/2 51/5/2 58/5/2
f 52/5/2 53/5/2 59/5/2
f 59/5/2 53/5/2 60/5/2
f 53/2/2 54/2/2 61/2/2
f 60/5/2 53/5/2 61/5/2
f 54/5/2 48/5/2 62/5/2
f 61/2/2 54/2/2 62/2/2
f 47/5/2 55/5/2 63/5/2
f 55/2/2 56/2/2 64/2/2
f 63/5/2 55/5/2 64/5/2
f 56/2/2 50/2/2 65/2/2
f 64/2/2 56/2/2 65/2/2
f 50/5/2 57/5/2 65/5/2
f 57/2/2 58/2/2 66/2/2
f 65/5/2 57/5/2 66/5/2
f 58/5/2 51/5/2 67/5/2
f 66/2/2 58/2/2 67/2/2
f 51/2/2 52/2/2 68/2/2
f 67/5/2 51/5/2 68/5/2
f 52/5/2 59/5/2 69/5/2
f 68/2/2 52/2/2 69/2/2
f 59/2/2 60/2/2 70/2/2
f 69/5/2 59/5/2 70/5/2
f 60/5/2 61/5/2 71/5/2
f 70/2/2 60/2/2 71/2/2
f 61/5/2 62/5/2 71/5/2
f 62/5/2 48/5/2 72/5/2
f 71/5/2 62/5/2 72/5/2
f 69/2/2 70/2/2 73/2/2
f 70/2/2 71/2/2 73/2/2
f 71/2/2 72/2/2 73/2/2
f 64/2/2 65/2/2 73/2/2
f 67/2/2 68/2/2 73/2/2
f 63/2/2 64/2/2 73/2/2
f 68/2/2 69/2/2 73/2/2
f 65/2/2 66/2/2 73/2/2
f 66/2/2 67/2/2 73/2/2
f 73/2/2 72/2/2 74/2/2
f 77/6/3 76/6/3 75/6/3
f 78/6/3 76/6/3 77/6/3
f 79/1/3 78/1/3 77/1/3
f 80/6/3 76/6/3 78/6/3
f 80/1/3 78/1/3 79/1/3
f 81/6/3 76/6/3 80/6/3
f 82/4/3 80/4/3 79/4/3
f 83/1/3 81/1/3 80/1/3
f 83/4/3 80/4/3 82/4/3
f 84/6/3 76/6/3 81/6/3
f 84/1/3 81/1/3 83/1/3
f 85/6/3 76/6/3 84/6/3
f 86/5/3 83/5/3 82/5/3
f 86/5/3 84/5/3 83/5/3
f 86/7/3 85/7/3 84/7/3
f 87/7/3 85/7/3 86/7/3
f 88/5/3 86/5/3 82/5/3
f 89/5/3 86/5/3 88/5/3
f 90/5/3 88/5/3 82/5/3
f 90/2/3 89/2/3 88/2/3
f 91/5/3 86/5/3 89/5/3
f 91/2/3 89/2/3 90/2/3
f 92/5/3 90/5/3 82/5/3
f 92/5/3 91/5/3 90/5/3
f 93/2/3 87/2/3 86/2/3
f 93/5/3 91/5/3 92/5/3
f 93/5/3 86/5/3 91/5/3
f 94/5/3 92/5/3 82/5/3
f 94/2/3 93/2/3 92/2/3
f 95/2/3 87/2/3 93/2/3
f 95/2/3 93/2/3 94/2/3
f 96/5/3 95/5/3 94/5/3
f 97/2/3 87/2/3 95/2/3
f 97/5/3 95/5/3 96/5/3
f 98/5/3 96/5/3 94/5/3
f 98/2/3 97/2/3 96/2/3
f 99/2/3 87/2/3 97/2/3
f 99/2/3 97/2/3 98/2/3
f 100/5/3 94/5/3 82/5/3
f 100/5/3 98/5/3 94/5/3
f 100/5/3 99/5/3 98/5/3
f 101/5/3 99/5/3 100/5/3
f 102/5/3 100/5/3 82/5/3
f 102/2/3 101/2/3 100/2/3
f 103/5/3 99/5/3 101/5/3
f 103/2/3 101/2/3 102/2/3
f 104/5/3 102/5/3 82/5/3
f 104/5/3 103/5/3 102/5/3
f 105/2/3 87/2/3 99/2/3
f 105/5/3 103/5/3 104/5/3
f 105/5/3 99/5/3 103/5/3
f 106/2/3 87/2/3 105/2/3
f 107/5/4 108/5/4 110/5/4
f 108/2/4 109/2/4 111/2/4
f 110/5/4 108/5/4 111/5/4
f 107/5/4 110/5/4 112/5/4
f 110/2/4 111/2/4 112/2/4
f 112/2/4 111/2/4 113/2/4
f 112/5/4 113/5/4 114/5/4
f 113/2/4 111/2/4 114/2/4
f 111/2/4 109/2/4 115/2/4
f 114/2/4 111/2/4 115/2/4
f 112/5/4 114/5/4 116/5/4
f 114/5/4 115/5/4 116/5/4
f 115/2/4 109/2/4 117/2/4
f 116/5/4 115/5/4 117/5/4
f 112/5/4 116/5/4 118/5/4
f 107/5/4 112/5/4 118/5/4
f 116/2/4 117/2/4 119/2/4
f 118/5/4 116/5/4 119/5/4
f 107/5/4 118/5/4 120/5/4
f 118/2/4 119/2/4 120/2/4
f 119/2/4 117/2/4 121/2/4
f 120/2/4 119/2/4 121/2/4
f 120/5/4 121/5/4 122/5/4
f 121/2/4 117/2/4 122/2/4
f 117/2/4 109/2/4 123/2/4
f 122/2/4 117/2/4 123/2/4
f 120/5/4 122/5/4 124/5/4
f 107/5/4 120/5/4 124/5/4
f 122/5/4 123/5/4 124/5/4
f 123/2/4 109/2/4 125/2/4
f 124/5/4 123/5/4 125/5/4
f 107/5/4 124/5/4 126/5/4
f 124/2/4 125/2/4 126/2/4
f 126/2/4 125/2/4 127/2/4
f 107/5/4 126/5/4 128/5/4
f 126/5/4 127/5/4 128/5/4
f 127/2/4 125/2/4 129/2/4
f 128/5/4 127/5/4 129/5/4
f 125/2/4 109/2/4 130/2/4
f 129/2/4 125/2/4 130/2/4
f 128/2/4 129/2/4 131/2/4
f 107/5/4 128/5/4 131/5/4
f 129/5/4 130/5/4 132/5/4
f 131/2/4 129/2/4 132/2/4
f 107/5/4 131/5/4 133/5/4
f 131/5/4 132/5/4 133/5/4
f 130/2/4 109/2/4 134/2/4
f 133/5/4 132/5/4 134/5/4
f 132/5/4 130/5/4 134/5/4
f 107/5/4 133/5/4 135/5/4
f 133/2/4 134/2/4 135/2/4
f 135/2/4 134/2/4 136/2/4
f 135/5/4 136/5/4 137/5/4
f 136/2/4 134/2/4 137/2/4
f 134/2/4 109/2/4 138/2/4
f 137/2/4 134/2/4 138/2/4
f 135/5/4 137/5/4 139/5/4
f 107/5/4 135/5/4 139/5/4
f 137/5/4 138/5/4 139/5/4
f 138/2/4 109/2/4 140/2/4
f 139/5/4 138/5/4 140/5/4
f 140/2/4 109/2/4 141/2/4
f 147/6/5 143/6/5 142/6/5
f 148/6/5 143/6/5 147/6/5
f 149/1/5 144/1/5 143/1/5
f 149/6/5 143/6/5 148/6/5
f 150/4/5 145/4/5 144/4/5
f 150/1/5 144/1/5 149/1/5
f 151/5/5 146/5/5 145/5/5
f 151/4/5 145/4/5 150/4/5
f 152/5/5 146/5/5 151/5/5
f 153/1/5 148/1/5 147/1/5
f 154/6/5 150/6/5 149/6/5
f 154/1/5 148/1/5 153/1/5
f 154/6/5 149/6/5 148/6/5
f 154/6/5 152/6/5 151/6/5
f 154/6/5 151/6/5 150/6/5
f 155/6/5 152/6/5 154/6/5
f 156/5/5 146/5/5 152/5/5
f 156/6/5 152/6/5 155/6/5
f 157/6/5 155/6/5 154/6/5
f 157/2/5 156/2/5 155/2/5
f 158/2/5 156/2/5 157/2/5
f 159/4/5 154/4/5 153/4/5
f 160/6/5 157/6/5 154/6/5
f 160/4/5 154/4/5 159/4/5
f 160/6/5 158/6/5 157/6/5
f 161/2/5 156/2/5 158/2/5
f 161/6/5 158/6/5 160/6/5
f 162/5/5 146/5/5 156/5/5
f 162/2/5 156/2/5 161/2/5
f 163/8/5 160/8/5 159/8/5
f 164/6/5 161/6/5 160/6/5
f 164/8/5 160/8/5 163/8/5
f 164/6/5 162/6/5 161/6/5
f 165/6/5 164/6/5 163/6/5
f 165/6/5 162/6/5 164/6/5
f 166/5/5 146/5/5 162/5/5
f 166/6/5 162/6/5 165/6/5
f 167/6/5 165/6/5 163/6/5
f 168/6/5 165/6/5 167/6/5
f 169/2/5 166/2/5 165/2/5
f 169/6/5 165/6/5 168/6/5
f 170/2/5 166/2/5 169/2/5
f 171/6/5 169/6/5 168/6/5
f 171/6/5 170/6/5 169/6/5
f 172/6/5 170/6/5 171/6/5
f 173/2/5 166/2/5 170/2/5
f 173/6/5 170/6/5 172/6/5
f 174/5/5 146/5/5 166/5/5
f 174/2/5 166/2/5 173/2/5
f 175/5/5 146/5/5 174/5/5
f 176/5/5 146/5/5 175/5/5
f 177/5/5 146/5/5 176/5/5
f 178/5/5 146/5/5 177/5/5
f 179/6/5 171/6/5 168/6/5
f 180/2/5 172/2/5 171/2/5
f 180/6/5 171/6/5 179/6/5
f 181/6/5 173/6/5 172/6/5
f 181/6/5 174/6/5 173/6/5
f 182/6/5 174/6/5 181/6/5
f 183/5/5 175/5/5 174/5/5
f 184/3/5 176/3/5 175/3/5
f 184/5/5 175/5/5 183/5/5
f 185/5/5 177/5/5 176/5/5
f 186/3/5 178/3/5 177/3/5
f 186/5/5 177/5/5 185/5/5
f 187/8/5 168/8/5 167/8/5
f 188/6/5 179/6/5 168/6/5
f 188/8/5 168/8/5 187/8/5
f 189/2/5 180/2/5 179/2/5
f 189/6/5 179/6/5 188/6/5
f 190/2/5 172/2/5 180/2/5
f 190/2/5 180/2/5 189/2/5
f 190/6/5 181/6/5 172/6/5
f 191/6/5 181/6/5 190/6/5
f 192/6/5 181/6/5 191/6/5
f 193/2/5 182/2/5 181/2/5
f 193/6/5 181/6/5 192/6/5
f 194/6/5 174/6/5 182/6/5
f 194/2/5 182/2/5 193/2/5
f 195/6/5 174/6/5 194/6/5
f 196/5/5 183/5/5 174/5/5
f 196/6/5 174/6/5 195/6/5
f 197/3/5 184/3/5 183/3/5
f 197/5/5 183/5/5 196/5/5
f 198/3/5 176/3/5 184/3/5
f 198/3/5 184/3/5 197/3/5
f 198/5/5 185/5/5 176/5/5
f 199/3/5 186/3/5 185/3/5
f 199/5/5 185/5/5 198/5/5
f 200/3/5 178/3/5 186/3/5
f 200/3/5 186/3/5 199/3/5
f 200/5/5 146/5/5 178/5/5
f 201/5/5 189/5/5 188/5/5
f 201/5/5 191/5/5 190/5/5
f 201/5/5 188/5/5 187/5/5
f 201/5/5 190/5/5 189/5/5
f 201/6/5 192/6/5 191/6/5
f 202/5/5 193/5/5 192/5/5
f 202/6/5 192/6/5 201/6/5
f 202/5/5 194/5/5 193/5/5
f 203/6/5 195/6/5 194/6/5
f 204/5/5 199/5/5 198/5/5
f 204/6/5 195/6/5 203/6/5
f 204/5/5 200/5/5 199/5/5
f 204/5/5 196/5/5 195/5/5
f 204/5/5 198/5/5 197/5/5
f 204/5/5 197/5/5 196/5/5
f 205/6/5 203/6/5 194/6/5
f 205/5/5 202/5/5 201/5/5
f 205/5/5 194/5/5 202/5/5
f 206/5/5 204/5/5 203/5/5
f 206/6/5 203/6/5 205/6/5
f 207/5/5 205/5/5 201/5/5
f 207/5/5 201/5/5 187/5/5
f 207/5/5 206/5/5 205/5/5
f 208/5/5 146/5/5 200/5/5
f 208/5/5 206/5/5 207/5/5
f 208/5/5 200/5/5 204/5/5
f 208/5/5 204/5/5 206/5/5
f 209/5/5 207/5/5 187/5/5
f 209/2/5 208/2/5 207/2/5
f 210/5/5 146/5/5 208/5/5
f 210/2/5 208/2/5 209/2/5
f 211/5/5 209/5/5 187/5/5
f 211/5/5 210/5/5 209/5/5
f 212/5/5 146/5/5 210/5/5
f 212/5/5 210/5/5 211/5/5
f 213/6/6 214/6/6 217/6/6
f 217/6/6 214/6/6 218/6/6
f 218/6/6 214/6/6 219/6/6
f 219/6/6 214/6/6 220/6/6
f 214/7/6 215/7/6 221/7/6
f 220/6/6 214/6/6 221/6/6
f 215/2/6 216/2/6 222/2/6
f 221/7/6 215/7/6 222/7/6
f 222/2/6 216/2/6 223/2/6
f 213/6/6 217/6/6 224/6/6
f 224/6/6 217/6/6 225/6/6
f 217/1/6 218/1/6 226/1/6
f 225/6/6 217/6/6 226/6/6
f 218/6/6 219/6/6 227/6/6
f 226/1/6 218/1/6 227/1/6
f 227/6/6 219/6/6 228/6/6
f 228/6/6 219/6/6 229/6/6
f 229/6/6 219/6/6 230/6/6
f 219/1/6 220/1/6 231/1/6
f 230/6/6 219/6/6 231/6/6
f 220/6/6 221/6/6 232/6/6
f 231/1/6 220/1/6 232/1/6
f 221/6/6 222/6/6 232/6/6
f 222/7/6 223/7/6 233/7/6
f 232/6/6 222/6/6 233/6/6
f 223/2/6 216/2/6 234/2/6
f 233/7/6 223/7/6 234/7/6
f 230/1/6 231/1/6 235/1/6
f 229/6/6 230/6/6 235/6/6
f 231/4/6 232/4/6 236/4/6
f 235/1/6 231/1/6 236/1/6
f 232/7/6 233/7/6 237/7/6
f 233/2/6 234/2/6 238/2/6
f 237/7/6 233/7/6 238/7/6
f 234/2/6 216/2/6 239/2/6
f 238/2/6 234/2/6 239/2/6
f 239/2/6 216/2/6 240/2/6
f 240/2/6 216/2/6 241/2/6
f 241/2/6 216/2/6 242/2/6
f 224/8/6 225/8/6 243/8/6
f 225/1/6 226/1/6 244/1/6
f 243/8/6 225/8/6 244/8/6
f 226/4/6 227/4/6 245/4/6
f 244/1/6 226/1/6 245/1/6
f 227/4/6 228/4/6 245/4/6
f 245/4/6 228/4/6 246/4/6
f 228/8/6 229/8/6 247/8/6
f 246/4/6 228/4/6 247/4/6
f 229/6/6 235/6/6 248/6/6
f 247/8/6 229/8/6 248/8/6
f 235/8/6 236/8/6 249/8/6
f 248/6/6 235/6/6 249/6/6
f 236/4/6 232/4/6 250/4/6
f 249/8/6 236/8/6 250/8/6
f 232/7/6 237/7/6 251/7/6
f 250/4/6 232/4/6 251/4/6
f 237/2/6 238/2/6 252/2/6
f 251/7/6 237/7/6 252/7/6
f 238/2/6 239/2/6 252/2/6
f 252/2/6 239/2/6 253/2/6
f 239/7/6 240/7/6 254/7/6
f 253/2/6 239/2/6 254/2/6
f 240/2/6 241/2/6 255/2/6
f 254/7/6 240/7/6 255/7/6
f 241/7/6 242/7/6 256/7/6
f 255/2/6 241/2/6 256/2/6
f 242/2/6 216/2/6 257/2/6
f 256/7/6 242/7/6 257/7/6
f 243/6/6 244/6/6 258/6/6
f 244/8/6 245/8/6 258/8/6
f 245/4/6 246/4/6 259/4/6
f 258/8/6 245/8/6 259/8/6
f 246/8/6 247/8/6 260/8/6
f 259/4/6 246/4/6 260/4/6
f 249/6/6 250/6/6 261/6/6
f 260/8/6 247/8/6 261/8/6
f 248/6/6 249/6/6 261/6/6
f 247/6/6 248/6/6 261/6/6
f 261/6/6 250/6/6 262/6/6
f 262/6/6 250/6/6 263/6/6
f 250/8/6 251/8/6 264/8/6
f 263/6/6 250/6/6 264/6/6
f 251/6/6 252/6/6 265/6/6
f 264/8/6 251/8/6 265/8/6
f 252/7/6 253/7/6 266/7/6
f 265/6/6 252/6/6 266/6/6
f 254/2/6 255/2/6 267/2/6
f 266/7/6 253/7/6 267/7/6
f 253/2/6 254/2/6 267/2/6
f 267/2/6 255/2/6 268/2/6
f 255/7/6 256/7/6 269/7/6
f 268/2/6 255/2/6 269/2/6
f 256/2/6 257/2/6 270/2/6
f 269/7/6 256/7/6 270/7/6
f 259/8/6 260/8/6 271/8/6
f 258/6/6 259/6/6 271/6/6
f 261/6/6 262/6/6 272/6/6
f 271/8/6 260/8/6 272/8/6
f 260/6/6 261/6/6 272/6/6
f 262/8/6 263/8/6 273/8/6
f 272/6/6 262/6/6 273/6/6
f 263/6/6 264/6/6 274/6/6
f 273/8/6 263/8/6 274/8/6
f 265/6/6 266/6/6 274/6/6
f 266/6/6 267/6/6 274/6/6
f 264/6/6 265/6/6 274/6/6
f 274/6/6 267/6/6 275/6/6
f 267/7/6 268/7/6 276/7/6
f 275/6/6 267/6/6 276/6/6
f 271/6/6 272/6/6 277/6/6
f 272/6/6 273/6/6 277/6/6
f 274/6/6 275/6/6 277/6/6
f 273/6/6 274/6/6 277/6/6
f 258/6/6 271/6/6 277/6/6
f 243/6/6 258/6/6 277/6/6
f 277/6/6 275/6/6 278/6/6
f 278/6/6 275/6/6 279/6/6
f 275/1/6 276/1/6 280/1/6
f 279/6/6 275/6/6 280/6/6
f 276/7/6 268/7/6 281/7/6
f 280/1/6 276/1/6 281/1/6
f 268/2/6 269/2/6 282/2/6
f 281/7/6 268/7/6 282/7/6
f 269/2/6 270/2/6 282/2/6
f 277/1/6 278/1/6 283/1/6
f 278/6/6 279/6/6 284/6/6
f 283/1/6 278/1/6 284/1/6
f 284/6/6 279/6/6 285/6/6
f 279/1/6 280/1/6 286/1/6
f 285/6/6 279/6/6 286/6/6
f 280/7/6 281/7/6 287/7/6
f 281/2/6 282/2/6 288/2/6
f 287/7/6 281/7/6 288/7/6
f 286/1/6 280/1/6 289/1/6
f 280/7/6 287/7/6 289/7/6
f 287/2/6 288/2/6 290/2/6
f 289/7/6 287/7/6 290/7/6
f 288/2/6 282/2/6 291/2/6
f 290/2/6 288/2/6 291/2/6
f 282/2/6 270/2/6 292/2/6
f 291/2/6 282/2/6 292/2/6
f 292/2/6 270/2/6 293/2/6
f 284/4/6 285/4/6 294/4/6
f 283/4/6 284/4/6 294/4/6
f 294/4/6 285/4/6 295/4/6
f 295/4/6 285/4/6 296/4/6
f 296/4/6 285/4/6 297/4/6
f 289/4/6 290/4/6 298/4/6
f 290/7/6 291/7/6 298/7/6
f 291/2/6 292/2/6 299/2/6
f 298/7/6 291/7/6 299/7/6
f 299/2/6 292/2/6 300/2/6
f 292/7/6 293/7/6 301/7/6
f 300/2/6 292/2/6 301/2/6
f 293/2/6 270/2/6 302/2/6
f 301/7/6 293/7/6 302/7/6
f 283/4/6 294/4/6 303/4/6
f 294/1/6 295/1/6 303/1/6
f 295/4/6 296/4/6 304/4/6
f 303/1/6 295/1/6 304/1/6
f 296/7/6 297/7/6 305/7/6
f 304/4/6 296/4/6 305/4/6
f 297/4/6 285/4/6 306/4/6
f 285/8/6 286/8/6 306/8/6
f 286/1/6 289/1/6 307/1/6
f 306/8/6 286/8/6 307/8/6
f 303/4/6 304/4/6 308/4/6
f 283/4/6 303/4/6 308/4/6
f 304/7/6 305/7/6 309/7/6
f 308/4/6 304/4/6 309/4/6
f 305/7/6 297/7/6 310/7/6
f 309/7/6 305/7/6 310/7/6
f 297/4/6 306/4/6 310/4/6
f 310/4/6 306/4/6 311/4/6
f 311/4/6 306/4/6 312/4/6
f 306/7/6 307/7/6 313/7/6
f 312/4/6 306/4/6 313/4/6
f 298/4/6 299/4/6 314/4/6
f 289/4/6 298/4/6 314/4/6
f 299/7/6 300/7/6 315/7/6
f 314/4/6 299/4/6 315/4/6
f 308/7/6 309/7/6 316/7/6
f 309/2/6 310/2/6 317/2/6
f 316/7/6 309/7/6 317/7/6
f 310/7/6 311/7/6 318/7/6
f 317/2/6 310/2/6 318/2/6
f 311/4/6 312/4/6 319/4/6
f 318/7/6 311/7/6 319/7/6
f 312/7/6 313/7/6 320/7/6
f 319/4/6 312/4/6 320/4/6
f 313/7/6 307/7/6 321/7/6
f 320/7/6 313/7/6 321/7/6
f 307/1/6 289/1/6 322/1/6
f 321/7/6 307/7/6 322/7/6
f 289/4/6 314/4/6 323/4/6
f 322/1/6 289/1/6 323/1/6
f 314/7/6 315/7/6 324/7/6
f 323/4/6 314/4/6 324/4/6
f 315/7/6 300/7/6 325/7/6
f 324/7/6 315/7/6 325/7/6
f 319/7/6 320/7/6 326/7/6
f 318/2/6 319/2/6 326/2/6
f 317/2/6 318/2/6 326/2/6
f 316/2/6 317/2/6 326/2/6
f 320/2/6 321/2/6 327/2/6
f 326/7/6 320/7/6 327/7/6
f 327/2/6 321/2/6 328/2/6
f 321/7/6 322/7/6 329/7/6
f 328/2/6 321/2/6 329/2/6
f 322/8/6 323/8/6 330/8/6
f 329/7/6 322/7/6 330/7/6
f 323/7/6 324/7/6 331/7/6
f 330/8/6 323/8/6 331/8/6
f 324/2/6 325/2/6 332/2/6
f 331/7/6 324/7/6 332/7/6
f 325/7/6 300/7/6 333/7/6
f 332/2/6 325/2/6 333/2/6
f 300/2/6 301/2/6 334/2/6
f 333/7/6 300/7/6 334/7/6
f 301/2/6 302/2/6 334/2/6
f 316/2/6 326/2/6 335/2/6
f 326/2/6 327/2/6 335/2/6
f 335/2/6 327/2/6 336/2/6
f 327/7/6 328/7/6 337/7/6
f 336/2/6 327/2/6 337/2/6
f 329/2/6 330/2/6 338/2/6
f 337/7/6 328/7/6 338/7/6
f 328/2/6 329/2/6 338/2/6
f 330/7/6 331/7/6 339/7/6
f 338/2/6 330/2/6 339/2/6
f 332/2/6 333/2/6 340/2/6
f 339/7/6 331/7/6 340/7/6
f 331/2/6 332/2/6 340/2/6
f 333/2/6 334/2/6 340/2/6
f 335/7/6 336/7/6 341/7/6
f 316/2/6 335/2/6 341/2/6
f 338/2/6 339/2/6 342/2/6
f 341/7/6 336/7/6 342/7/6
f 336/2/6 337/2/6 342/2/6
f 339/2/6 340/2/6 342/2/6
f 337/2/6 338/2/6 342/2/6
f 270/2/6 257/2/6 343/2/6
f 342/2/6 340/2/6 343/2/6
f 341/2/6 342/2/6 343/2/6
f 302/2/6 270/2/6 343/2/6
f 340/2/6 334/2/6 343/2/6
f 334/2/6 302/2/6 343/2/6
f 257/2/6 216/2/6 344/2/6
f 343/2/6 257/2/6 344/2/6
f 344/2/6 216/2/6 345/2/6
f 345/2/6 216/2/6 346/2/6
f 341/2/6 343/2/6 347/2/6
f 347/2/6 343/2/6 348/2/6
f 343/7/6 344/7/6 349/7/6
f 348/2/6 343/2/6 349/2/6
f 344/2/6 345/2/6 350/2/6
f 349/7/6 344/7/6 350/7/6
f 345/7/6 346/7/6 351/7/6
f 350/2/6 345/2/6 351/2/6
f 346/2/6 216/2/6 352/2/6
f 351/7/6 346/7/6 352/7/6
f 347/7/6 348/7/6 353/7/6
f 341/2/6 347/2/6 353/2/6
f 348/2/6 349/2/6 354/2/6
f 353/7/6 348/7/6 354/7/6
f 349/2/6 350/2/6 354/2/6
f 350/7/6 351/7/6 355/7/6
f 354/2/6 350/2/6 355/2/6
f 351/2/6 352/2/6 356/2/6
f 355/7/6 351/7/6 356/7/6
f 353/2/6 354/2/6 357/2/6
f 354/2/6 355/2/6 357/2/6
f 355/2/6 356/2/6 357/2/6
f 357/2/6 356/2/6 358/2/6
f 353/2/6 357/2/6 359/2/6
f 357/7/6 358/7/6 359/7/6
f 358/2/6 356/2/6 360/2/6
f 359/7/6 358/7/6 360/7/6
f 316/2/6 341/2/6 361/2/6
f 341/2/6 353/2/6 361/2/6
f 359/2/6 360/2/6 361/2/6
f 353/2/6 359/2/6 361/2/6
f 360/2/6 356/2/6 362/2/6
f 361/2/6 360/2/6 362/2/6
f 356/2/6 352/2/6 362/2/6
f 352/2/6 216/2/6 362/2/6
